<?xml version="1.0" encoding="utf-8"?>
<svg viewBox="0 4.647 840.297 855.847" fill="none" stroke="none" stroke-linecap="square" stroke-miterlimit="10" xmlns="http://www.w3.org/2000/svg">
  <clipPath id="clip-2">
    <path d="m0 0l960.0 0l0 720.0l-960.0 0l0 -720.0z" clip-rule="nonzero"/>
  </clipPath>
  <clipPath id="clip-1">
    <path d="m0 0l960.0 0l0 720.0l-960.0 0l0 -720.0z" clip-rule="nonzero"/>
  </clipPath>
  <path style="stroke: rgb(0, 0, 0); fill: rgb(255, 255, 255);" d="M 113.191 120.957 L 161.138 111.758 L 204.419 94.446 L 223.008 80.896 L 247.308 98.778 L 290.921 109.482 L 367.665 72.094 L 400.914 87.521 L 434.673 97.042 L 484.878 92.714 L 540.277 74.536 L 601.736 53.762 L 642.42 50.299 L 696.088 57.224 L 733.309 69.343 L 758.412 78.865 L 765.337 99.639 L 775.725 123.011 L 784.381 148.114 L 786.978 178.41 L 782.65 218.228 L 769.355 250.313 L 754.318 288.302 L 745.612 316.398 L 744.425 351.221 L 749.965 381.692 L 791.911 503.574 L 794.681 557.392 L 771.73 609.231 L 739.676 644.45 L 729.387 677.295 L 726.222 716.471 L 727.061 745.77 L 702.433 752.545 L 670.532 757.008 L 647.979 769.316 L 614.496 787.039 L 596.03 772.663 L 579.409 761.979 L 546.96 759.209 C 546.96 759.209 494.33 781.369 494.33 781.765 C 494.33 782.161 470.191 799.177 469.795 798.385 C 469.399 797.593 451.988 786.514 451.592 786.514 C 451.196 786.514 413.603 770.289 413.603 770.289 L 371.261 771.476 L 328.523 782.161 L 241.464 812.631 L 204.267 816.193 L 142.534 810.257 L 97.422 795.615 L 81.198 789.284 L 70.513 763.166 C 70.513 763.166 52.31 709.348 52.31 708.557 C 52.31 707.766 53.835 656.639 55.023 655.451 C 56.211 654.263 86.955 574.166 86.955 574.166 L 94.931 534.034 L 91.487 495.264 C 91.487 495.264 64.747 423.242 65.934 421.66 C 67.121 420.078 84.759 388.023 84.759 387.628 C 84.759 387.233 96.83 328.523 96.83 328.523 L 91.487 298.986 L 73.283 251.104 C 73.283 251.104 103.754 213.115 104.15 210.741 C 104.546 208.367 113.647 154.153 113.647 154.153 L 113.191 120.957 Z" transform="matrix(0.9999999999999999, 0, 0, 0.9999999999999999, 0, -1.4210854715202004e-14)"/>
  <g clip-path="url(#clip-2)" transform="matrix(1.004977941513, 0, 0, 1.127655029297, -117.836181640625, 91.481283677742)" style="transform-origin: 480px 361.044px;">
    <path fill="#ac0000" d="M 803.563 653.348 C 804.761 652.91 807.553 649.931 808.626 649.035 C 809.699 648.139 809.949 648.316 810.001 647.972 C 810.053 647.628 809.584 647.514 808.938 646.972 C 808.292 646.431 807.364 645.692 806.124 644.723 C 804.885 643.754 803.166 642.346 801.5 641.159 C 799.833 639.971 797.885 638.722 796.124 637.597 C 794.364 636.472 792.771 635.418 790.938 634.408 C 789.105 633.397 786.843 632.346 785.124 631.534 C 783.406 630.722 782.178 630.159 780.626 629.534 C 779.074 628.909 777.323 628.294 775.812 627.783 C 774.302 627.273 772.865 626.835 771.563 626.471 C 770.261 626.106 769.012 625.836 768.001 625.597 C 766.991 625.358 766.687 625.243 765.5 625.035 C 764.312 624.827 762.271 624.546 760.875 624.348 C 759.479 624.149 758.624 623.982 757.124 623.846 C 755.624 623.711 753.354 623.586 751.875 623.534 C 750.396 623.482 749.677 623.534 748.25 623.534 C 746.823 623.534 744.907 623.461 743.313 623.534 C 741.72 623.607 740.522 623.701 738.689 623.972 C 736.855 624.243 734.532 624.721 732.313 625.159 C 730.095 625.596 727.47 626.086 725.376 626.597 C 723.283 627.107 721.565 627.648 719.752 628.222 C 717.939 628.795 716.01 629.514 714.5 630.035 C 712.989 630.556 711.939 630.869 710.689 631.348 C 709.439 631.827 708.451 632.288 707.492 632.725 C 706.534 633.163 704.747 634.17 704.57 633.972 C 704.393 633.774 702.145 635.165 701.082 635.79 C 700.02 636.415 698.583 636.946 696.999 637.602 C 695.416 638.258 696.094 638.024 692.563 639.972 C 689.032 641.92 681.293 646.305 675.752 649.597 C 670.21 652.889 663.939 656.848 659.313 659.723 C 654.688 662.598 651.199 664.867 648.001 666.846 C 644.803 668.825 642.458 670.211 640.124 671.597 C 637.791 672.982 636.095 674.013 634.001 675.159 C 631.907 676.304 629.844 677.356 627.563 678.471 C 625.281 679.586 622.522 680.95 620.313 681.846 C 618.105 682.742 616.022 683.325 614.313 683.846 C 612.605 684.367 609.453 685.219 608.479 685.45 C 607.505 685.681 601.894 686.619 600.418 686.699 C 598.942 686.779 587.635 689.229 587.6 688.488 C 587.565 687.747 587.709 691.255 587.865 692.171 C 588.021 693.088 588.215 696.075 587.963 696.649 C 587.711 697.223 600.813 695.529 603.037 695.226 C 605.261 694.923 611.778 694.008 613.577 693.843 C 615.376 693.678 619.418 692.242 621.626 691.471 C 623.834 690.7 625.114 690.212 627.187 689.348 C 629.26 688.483 631.803 687.399 634.064 686.285 C 636.325 685.17 637.169 684.649 640.752 682.66 C 644.335 680.67 649.636 677.9 655.563 674.348 C 661.49 670.795 670.668 664.827 676.313 661.348 C 681.959 657.868 685.676 655.627 689.437 653.471 C 693.197 651.314 695.792 650.002 698.875 648.408 C 701.959 646.814 705.042 645.222 707.938 643.909 C 710.834 642.597 713.688 641.523 716.25 640.534 C 718.813 639.544 720.657 638.806 723.313 637.972 C 725.97 637.139 729.719 636.169 732.187 635.534 C 734.656 634.898 736.083 634.523 738.124 634.159 C 740.166 633.794 742.166 633.535 744.437 633.348 C 746.708 633.16 749.033 632.983 751.752 633.035 C 754.471 633.087 757.846 633.274 760.752 633.66 C 763.658 634.045 766.823 634.764 769.187 635.348 C 771.552 635.931 772.844 636.409 774.938 637.159 C 777.032 637.908 779.523 638.857 781.752 639.846 C 783.981 640.836 786.439 642.085 788.313 643.096 C 790.188 644.106 791.303 644.847 793.001 645.909 C 794.699 646.972 797.094 648.512 798.5 649.471 C 799.906 650.429 800.593 651.014 801.437 651.66 C 802.281 652.306 802.365 653.785 803.563 653.348 Z" fill-rule="nonzero" style="transform-box: fill-box; transform-origin: 50% 50%;" transform="matrix(-1, 0, 0, -1, 0.00006, 0.00007)"/>
    <path fill="#ac0000" d="M 877.141 698.597 C 876.974 699.44 875.277 699.545 873.892 700.347 C 872.506 701.15 869.922 703.025 868.829 703.41 C 867.735 703.796 868.226 703.514 867.33 702.66 C 866.435 701.805 865.175 700.034 863.456 698.284 C 861.737 696.535 859.07 694.015 857.018 692.161 C 854.965 690.307 852.974 688.588 851.141 687.161 C 849.308 685.734 847.674 684.701 846.018 683.597 C 844.362 682.493 842.464 681.307 841.204 680.536 C 839.944 679.766 839.758 679.649 838.456 678.972 C 837.154 678.295 835.06 677.244 833.393 676.473 C 831.726 675.703 830.05 674.993 828.456 674.347 C 826.862 673.701 825.464 673.138 823.829 672.597 C 822.193 672.055 820.538 671.577 818.642 671.098 C 816.747 670.619 814.31 670.077 812.456 669.723 C 810.602 669.368 809.236 669.18 807.516 668.972 C 805.797 668.764 803.912 668.577 802.141 668.473 C 800.37 668.369 798.642 668.337 796.892 668.347 C 795.142 668.358 793.392 668.401 791.642 668.536 C 789.893 668.672 788.143 668.88 786.393 669.161 C 784.643 669.442 782.943 669.787 781.141 670.224 C 779.339 670.661 777.433 671.203 775.579 671.786 C 773.726 672.369 771.82 673.025 770.018 673.723 C 768.216 674.42 766.519 675.087 764.768 675.972 C 763.018 676.857 761.235 677.931 759.516 679.035 C 757.798 680.139 756.216 681.274 754.456 682.597 C 752.696 683.919 750.486 685.607 748.955 686.972 C 747.423 688.337 746.371 689.494 745.267 690.786 C 744.163 692.077 743.153 693.921 742.33 694.723 C 741.507 695.524 741.257 695.315 740.33 695.597 C 739.403 695.878 737.904 696.129 736.768 696.41 C 735.633 696.692 734.611 697.014 733.516 697.284 C 732.422 697.555 731.058 697.837 730.204 698.035 C 729.35 698.233 728.331 698.88 728.393 698.473 C 728.456 698.067 729.35 697.201 730.579 695.597 C 731.809 693.993 734.394 690.557 735.768 688.849 C 737.143 687.14 737.506 686.723 738.829 685.347 C 740.152 683.972 742.153 682.024 743.705 680.597 C 745.257 679.17 746.474 678.098 748.141 676.786 C 749.808 675.473 751.914 673.921 753.705 672.723 C 755.497 671.524 756.913 670.69 758.892 669.597 C 760.871 668.503 763.632 667.067 765.579 666.161 C 767.527 665.255 768.746 664.828 770.579 664.161 C 772.413 663.494 774.569 662.734 776.579 662.161 C 778.59 661.588 780.611 661.129 782.642 660.723 C 784.674 660.316 786.654 660.004 788.768 659.723 C 790.883 659.441 793.455 659.17 795.33 659.035 C 797.205 658.9 797.976 658.849 800.018 658.912 C 802.059 658.974 805.298 659.171 807.579 659.41 C 809.861 659.65 811.612 659.993 813.705 660.347 C 815.799 660.702 817.974 661.026 820.141 661.536 C 822.308 662.047 824.132 662.556 826.705 663.41 C 829.278 664.264 833.257 665.733 835.579 666.66 C 837.902 667.587 838.913 668.118 840.642 668.972 C 842.372 669.826 844.017 670.671 845.955 671.786 C 847.892 672.9 850.184 674.253 852.267 675.66 C 854.351 677.066 856.727 678.932 858.456 680.224 C 860.185 681.516 861.111 682.14 862.642 683.41 C 864.174 684.681 866.132 686.442 867.642 687.849 C 869.153 689.255 870.497 690.609 871.705 691.849 C 872.914 693.088 873.986 694.16 874.892 695.284 C 875.798 696.409 877.308 697.753 877.141 698.597 Z" fill-rule="nonzero" style="transform-box: fill-box; transform-origin: 50% 50%;" transform="matrix(-1, 0, 0, -1, 0.000013, -0.000005)"/>
    <path fill="#ac0000" d="M 808.291 609.835 C 807.968 610.22 808.737 611.636 809.039 612.772 C 809.341 613.907 809.873 615.753 810.102 616.648 C 810.331 617.544 810.039 617.72 810.414 618.147 C 810.789 618.574 811.528 618.835 812.351 619.21 C 813.174 619.585 814.205 619.813 815.351 620.396 C 816.497 620.98 818.04 621.896 819.228 622.709 C 820.415 623.522 821.467 624.315 822.477 625.273 C 823.488 626.232 824.416 627.345 825.291 628.459 C 826.166 629.574 826.987 630.68 827.726 631.961 C 828.466 633.242 829.195 634.824 829.726 636.147 C 830.258 637.47 830.53 638.346 830.915 639.898 C 831.301 641.45 831.778 643.72 832.039 645.459 C 832.299 647.199 832.383 648.594 832.477 650.333 C 832.571 652.073 832.634 654.158 832.603 655.898 C 832.572 657.638 832.395 659.137 832.291 660.772 C 832.186 662.407 832.101 664.177 831.976 665.709 C 831.851 667.24 831.654 668.929 831.54 669.961 C 831.426 670.992 830.791 671.481 831.291 671.898 C 831.791 672.314 833.363 672.366 834.54 672.459 C 835.717 672.553 837.466 672.501 838.351 672.459 C 839.236 672.418 839.561 672.522 839.852 672.21 C 840.144 671.898 839.904 672.232 840.102 670.585 C 840.299 668.939 840.799 664.719 841.039 662.333 C 841.278 659.948 841.467 658.502 841.54 656.273 C 841.613 654.044 841.571 651.315 841.477 648.961 C 841.383 646.606 841.257 644.231 840.976 642.147 C 840.694 640.064 840.227 638.199 839.789 636.459 C 839.352 634.72 839.059 633.396 838.351 631.709 C 837.643 630.021 836.603 628.021 835.54 626.333 C 834.478 624.646 833.184 622.929 831.976 621.585 C 830.768 620.242 829.582 619.273 828.291 618.273 C 826.999 617.273 825.728 616.429 824.228 615.585 C 822.728 614.742 820.76 613.856 819.291 613.21 C 817.822 612.564 816.8 612.167 815.414 611.709 C 814.028 611.25 812.163 610.772 810.976 610.459 C 809.789 610.147 808.614 609.449 808.291 609.835 Z" fill-rule="nonzero" style="transform-box: fill-box; transform-origin: 50% 50%;" transform="matrix(-1, 0, 0, -1, 0.000002, -0.000087)"/>
    <path fill="#ac0000" d="M 843.794 618.045 C 842.939 617.962 842.2 619.546 841.481 620.171 C 840.763 620.796 840.086 621.265 839.481 621.796 C 838.877 622.327 838.201 622.889 837.857 623.357 C 837.513 623.826 837.262 624.2 837.418 624.607 C 837.575 625.013 838.075 624.973 838.794 625.796 C 839.512 626.619 840.855 628.305 841.731 629.544 C 842.606 630.783 843.348 632.044 844.046 633.231 C 844.744 634.419 845.285 635.399 845.92 636.67 C 846.555 637.941 847.263 639.275 847.857 640.859 C 848.45 642.442 849.002 644.411 849.481 646.171 C 849.96 647.931 850.366 649.441 850.731 651.42 C 851.096 653.399 851.42 656.066 851.67 658.045 C 851.921 660.024 852.065 661.763 852.232 663.294 C 852.399 664.826 852.525 665.731 852.67 667.231 C 852.816 668.731 852.981 670.7 853.106 672.294 C 853.231 673.889 852.576 683.779 852.94 684.613 C 853.305 685.446 854.036 685.111 854.817 685.111 C 855.598 685.111 856.67 684.81 857.628 684.613 C 858.587 684.415 859.765 684.061 860.568 683.925 C 861.37 683.789 861.994 683.841 862.442 683.799 C 862.889 683.758 863.138 683.884 863.253 683.676 C 863.367 683.468 863.223 683.727 863.129 682.55 C 863.036 681.373 863.398 671.202 863.169 668.796 C 862.94 666.389 862.534 662.722 862.232 660.294 C 861.93 657.867 861.702 656.284 861.358 654.231 C 861.014 652.179 860.596 649.94 860.169 647.982 C 859.742 646.024 859.356 644.285 858.794 642.483 C 858.231 640.682 857.502 638.9 856.794 637.171 C 856.086 635.442 855.378 633.733 854.544 632.108 C 853.711 630.483 852.679 628.775 851.794 627.42 C 850.908 626.066 850.096 625.107 849.232 623.982 C 848.368 622.857 847.514 621.659 846.607 620.67 C 845.701 619.68 844.648 618.128 843.794 618.045 Z" fill-rule="nonzero" style="transform-box: fill-box; transform-origin: 50% 50%;" transform="matrix(-1, 0, 0, -1, -0.000056, -0.00006)"/>
    <path fill="#ac0000" d="M 921.196 650.815 C 921.196 650.242 920.123 648.345 919.758 647.314 C 919.393 646.283 919.268 645.441 919.007 644.629 C 918.747 643.817 918.331 642.93 918.196 642.44 C 918.061 641.95 918.353 641.825 918.196 641.689 C 918.04 641.554 918.194 641.619 917.257 641.629 C 916.319 641.64 914.342 641.648 912.572 641.752 C 910.801 641.857 908.737 641.983 906.632 642.254 C 904.527 642.525 902.257 642.909 899.944 643.377 C 897.632 643.846 895.352 644.284 892.758 645.065 C 890.164 645.846 886.831 647.096 884.383 648.065 C 881.935 649.034 880.039 649.909 878.07 650.878 C 876.102 651.847 874.363 652.806 872.572 653.878 C 870.78 654.951 868.986 656.106 867.32 657.314 C 865.653 658.522 863.884 660.003 862.572 661.128 C 861.259 662.253 860.227 663.325 859.446 664.065 C 858.664 664.805 857.968 665.087 857.884 665.566 C 857.8 666.046 858.278 666.327 858.944 666.941 C 859.611 667.556 860.936 668.472 861.884 669.254 C 862.832 670.035 863.976 671.077 864.632 671.629 C 865.288 672.181 865.384 672.504 865.821 672.566 C 866.258 672.628 866.34 672.731 867.257 672.002 C 868.173 671.273 869.986 669.357 871.32 668.191 C 872.653 667.024 873.892 666.033 875.257 665.002 C 876.621 663.97 878.071 662.939 879.509 662.002 C 880.947 661.064 882.436 660.148 883.884 659.377 C 885.332 658.606 886.78 658.023 888.196 657.377 C 889.613 656.731 890.893 656.086 892.383 655.503 C 893.872 654.92 895.581 654.347 897.133 653.878 C 898.685 653.409 900.174 653.044 901.695 652.689 C 903.216 652.335 904.996 651.992 906.257 651.752 C 907.517 651.513 908.152 651.399 909.257 651.254 C 910.361 651.108 911.613 650.951 912.884 650.878 C 914.155 650.805 915.738 650.836 916.884 650.815 C 918.03 650.794 919.039 650.752 919.758 650.752 C 920.477 650.752 921.196 651.388 921.196 650.815 Z" fill-rule="nonzero" style="transform-box: fill-box; transform-origin: 50% 50%;" transform="matrix(-1, 0, 0, -1, 0.000136, 0.000062)"/>
    <path fill="#ac0000" d="M 949.453 629.617 C 949.359 630.477 947.116 631.73 946.088 632.646 C 945.06 633.562 944.013 634.459 943.285 635.113 C 942.556 635.767 942.22 636.476 941.715 636.57 C 941.21 636.663 941.265 636.251 940.256 635.672 C 939.247 635.093 936.987 633.711 935.66 633.095 C 934.333 632.478 933.529 632.401 932.295 631.971 C 931.061 631.541 929.733 630.832 928.256 630.514 C 926.779 630.197 924.911 630.178 923.434 630.066 C 921.958 629.954 920.725 629.787 919.398 629.843 C 918.07 629.899 916.892 630.103 915.471 630.402 C 914.05 630.7 912.312 631.149 910.873 631.635 C 909.433 632.121 907.976 632.776 906.836 633.318 C 905.696 633.86 905.248 634.084 904.033 634.887 C 902.818 635.691 900.912 636.962 899.547 638.139 C 898.183 639.317 896.837 640.85 895.846 641.953 C 894.856 643.056 894.387 643.69 893.602 644.756 C 892.817 645.822 891.789 647.169 891.135 648.347 C 890.481 649.524 890.164 650.513 889.678 651.822 C 889.192 653.13 888.593 654.814 888.219 656.197 C 887.845 657.58 887.64 658.588 887.434 660.121 C 887.229 661.654 886.911 663.244 886.985 665.394 C 887.06 667.543 887.509 671 887.883 673.018 C 888.257 675.037 888.463 675.747 889.23 677.504 C 889.996 679.261 891.323 681.749 892.482 683.562 C 893.64 685.375 894.855 686.851 896.182 688.383 C 897.51 689.916 899.08 691.485 900.445 692.756 C 901.809 694.027 902.985 694.945 904.369 696.011 C 905.752 697.076 907.361 698.234 908.744 699.15 C 910.127 700.065 911.322 700.719 912.668 701.504 C 914.013 702.289 915.584 703.263 916.818 703.861 C 918.051 704.459 919.378 704.403 920.069 705.095 C 920.761 705.786 920.631 706.609 920.967 708.011 C 921.304 709.412 921.863 712.102 922.088 713.504 C 922.312 714.906 922.687 716.065 922.314 716.42 C 921.94 716.775 921.267 716.233 919.846 715.635 C 918.426 715.037 916.2 714.028 913.789 712.832 C 911.377 711.636 907.865 709.936 905.379 708.459 C 902.893 706.983 900.854 705.373 898.873 703.971 C 896.891 702.569 895.153 701.43 893.489 700.047 C 891.826 698.664 890.258 697.093 888.894 695.672 C 887.529 694.251 886.313 692.868 885.303 691.522 C 884.293 690.177 883.733 689.075 882.836 687.598 C 881.939 686.122 880.742 684.384 879.92 682.664 C 879.097 680.944 878.499 679.094 877.901 677.281 C 877.304 675.468 876.706 673.729 876.332 671.785 C 875.958 669.841 875.679 668.009 875.66 665.617 C 875.641 663.224 875.883 659.805 876.219 657.43 C 876.555 655.056 877.006 653.429 877.678 651.373 C 878.351 649.317 879.359 646.963 880.256 645.095 C 881.153 643.226 882.09 641.656 883.062 640.16 C 884.034 638.665 884.836 637.579 886.088 636.121 C 887.34 634.663 889.153 632.758 890.573 631.412 C 891.994 630.067 893.192 629.057 894.613 628.047 C 896.034 627.038 897.64 626.158 899.098 625.354 C 900.556 624.551 901.791 623.899 903.361 623.226 C 904.931 622.553 906.911 621.841 908.518 621.318 C 910.125 620.794 911.321 620.364 913.004 620.084 C 914.686 619.804 916.744 619.729 918.613 619.635 C 920.482 619.542 922.387 619.392 924.219 619.522 C 926.051 619.653 927.565 619.971 929.602 620.42 C 931.64 620.869 934.407 621.505 936.445 622.215 C 938.482 622.926 940.127 623.804 941.828 624.682 C 943.529 625.561 945.379 626.663 946.65 627.486 C 947.92 628.308 949.546 628.757 949.453 629.617 Z" fill-rule="nonzero" style="transform-box: fill-box; transform-origin: 50% 50%;" transform="matrix(-1, 0, 0, -1, 0.000023, 0.000012)"/>
    <path fill="#ac0000" d="M 867.37 589.665 C 865.614 589.833 857.988 593.16 855.819 594.599 C 853.651 596.039 854.771 596.77 854.36 598.303 C 853.949 599.835 853.52 601.815 853.352 603.796 C 853.184 605.777 853.296 607.891 853.352 610.19 C 853.408 612.489 853.37 615.031 853.688 617.591 C 854.006 620.152 854.51 623.069 855.258 625.555 C 856.005 628.041 857.033 630.339 858.174 632.507 C 859.314 634.675 860.661 636.693 862.1 638.563 C 863.539 640.432 865.202 642.265 866.809 643.723 C 868.416 645.181 870.023 646.301 871.743 647.311 C 873.463 648.32 875.388 649.105 877.126 649.778 C 878.865 650.451 880.51 650.88 882.174 651.347 C 883.837 651.814 885.388 652.263 887.108 652.581 C 888.828 652.899 890.79 653.143 892.491 653.255 C 894.192 653.368 896.38 653.91 897.315 653.255 C 898.25 652.601 897.801 650.881 898.1 649.329 C 898.399 647.777 899.501 644.843 899.108 643.946 C 898.715 643.049 897.126 644.039 895.743 643.946 C 894.36 643.853 892.472 643.723 890.809 643.387 C 889.146 643.05 887.465 642.526 885.764 641.927 C 884.063 641.329 882.212 640.619 880.604 639.796 C 878.996 638.974 877.52 638.096 876.118 636.993 C 874.716 635.89 873.314 634.507 872.192 633.179 C 871.07 631.852 870.192 630.357 869.389 629.03 C 868.585 627.702 868.024 626.767 867.37 625.216 C 866.716 623.665 865.895 621.498 865.465 619.723 C 865.035 617.947 864.978 616.245 864.79 614.563 C 864.603 612.88 864.379 611.198 864.342 609.628 C 864.304 608.058 864.362 606.974 864.567 605.143 C 864.773 603.311 865.276 600.564 865.575 598.639 C 865.874 596.713 866.061 595.087 866.36 593.591 C 866.659 592.096 869.127 589.497 867.37 589.665 Z" fill-rule="nonzero" style="transform-box: fill-box; transform-origin: 50% 50%;" transform="matrix(-1, 0, 0, -1, 0.000102, 0.000005)"/>
    <path fill="#ac0000" d="M 869.023 616.217 C 869.583 617.413 869.993 622.498 869.918 624.068 C 869.843 625.638 869.639 625.188 868.574 625.637 C 867.509 626.086 865.284 626.387 863.527 626.761 C 861.77 627.135 860.143 627.47 858.031 627.881 C 855.919 628.292 853.603 628.779 850.855 629.228 C 848.107 629.676 844.237 630.254 841.545 630.572 C 838.854 630.889 836.948 630.965 834.705 631.133 C 832.463 631.302 830.463 631.47 828.089 631.582 C 825.715 631.694 822.499 631.827 820.461 631.808 C 818.424 631.789 816.947 631.787 815.863 631.469 C 814.779 631.151 814.425 630.928 813.957 629.9 C 813.49 628.872 813.265 626.404 813.06 625.301 C 812.854 624.198 811.939 623.6 812.724 623.283 C 813.509 622.965 815.47 623.358 817.768 623.396 C 820.067 623.433 823.862 623.546 826.516 623.509 C 829.171 623.471 831.246 623.357 833.695 623.17 C 836.144 622.983 838.929 622.666 841.209 622.385 C 843.49 622.105 844.891 621.917 847.377 621.488 C 849.863 621.058 853.509 620.387 856.125 619.808 C 858.742 619.229 861.34 618.499 863.078 618.012 C 864.817 617.526 865.565 617.191 866.556 616.892 C 867.547 616.593 868.463 615.021 869.023 616.217 Z" fill-rule="nonzero" style="transform-box: fill-box; transform-origin: 50% 50%;" transform="matrix(-1, 0, 0, -1, -0.000049, 0.000004)"/>
    <path fill="#ac0000" d="M 873.704 503.266 C 874.657 502.238 878.282 502.48 879.534 502.255 C 880.786 502.031 880.636 502.031 881.216 501.919 C 881.796 501.807 882.693 501.359 883.011 501.584 C 883.329 501.808 883.143 501.883 883.124 503.266 C 883.105 504.649 882.778 525.139 882.665 528.148 C 882.553 531.157 882.347 536.203 882.217 539.586 C 882.086 542.969 882.123 545.195 881.881 548.447 C 881.638 551.699 881.171 556.091 880.76 559.1 C 880.349 562.11 879.955 564.109 879.413 566.502 C 878.871 568.895 878.218 571.121 877.508 573.457 C 876.797 575.794 876.161 578.109 875.151 580.52 C 874.141 582.932 872.945 585.307 871.45 587.925 C 869.955 590.542 867.974 593.682 866.18 596.224 C 864.385 598.766 862.366 601.214 860.684 603.177 C 859.002 605.139 858.219 605.998 856.088 607.998 C 853.957 609.998 849.899 613.419 847.899 615.177 C 845.899 616.934 844.948 618.205 844.088 618.541 C 843.228 618.878 843.302 617.905 842.742 617.195 C 842.181 616.485 841.415 615.307 840.723 614.279 C 840.032 613.251 838.461 611.943 838.592 611.027 C 838.723 610.111 840.013 610.166 841.508 608.783 C 843.003 607.4 845.227 605.214 847.563 602.728 C 849.899 600.242 853.321 596.689 855.526 593.867 C 857.732 591.044 859.432 587.961 860.797 585.793 C 862.161 583.625 862.685 582.803 863.713 580.859 C 864.741 578.915 866.03 576.429 866.965 574.129 C 867.899 571.83 868.63 569.606 869.322 567.064 C 870.013 564.522 870.591 561.494 871.114 558.877 C 871.637 556.261 872.161 553.83 872.461 551.363 C 872.76 548.896 872.779 546.785 872.909 544.074 C 873.04 541.364 873.133 537.998 873.245 535.1 C 873.357 532.203 873.544 528.953 873.581 526.691 C 873.619 524.429 872.751 504.294 873.704 503.266 Z" fill-rule="nonzero" style="transform-box: fill-box; transform-origin: 50% 50%;" transform="matrix(-1, 0, 0, -1, 0.00001, -0.000061)"/>
    <path fill="#ac0000" d="M 764.692 551.377 C 765.496 550.125 767.946 550.388 769.852 549.921 C 771.758 549.454 774.037 548.985 776.13 548.574 C 778.223 548.163 780.373 547.734 782.411 547.454 C 784.449 547.173 786.356 547.041 788.356 546.892 C 790.356 546.742 792.299 546.556 794.411 546.556 C 796.523 546.556 798.617 546.63 801.028 546.892 C 803.439 547.153 806.785 547.677 808.878 548.125 C 810.972 548.574 812.206 549.08 813.589 549.585 C 814.973 550.09 815.888 550.482 817.177 551.154 C 818.467 551.827 820.093 552.855 821.327 553.622 C 822.561 554.388 823.345 554.65 824.579 555.753 C 825.813 556.856 827.588 558.799 828.729 560.238 C 829.869 561.677 830.636 562.93 831.422 564.388 C 832.207 565.846 832.917 567.491 833.44 568.986 C 833.963 570.482 834.318 571.602 834.561 573.359 C 834.803 575.116 835.009 577.359 834.897 579.527 C 834.785 581.695 834.262 584.575 833.889 586.37 C 833.515 588.164 833.328 588.891 832.655 590.293 C 831.982 591.695 831.03 593.286 829.852 594.782 C 828.674 596.277 827.047 597.996 825.589 599.267 C 824.131 600.538 822.805 601.509 821.104 602.406 C 819.403 603.303 817.326 604.146 815.382 604.65 C 813.438 605.155 811.346 605.379 809.44 605.435 C 807.533 605.491 806 605.435 803.944 604.986 C 801.888 604.538 799.496 603.939 797.104 602.742 C 794.712 601.546 791.627 599.49 789.589 597.808 C 787.552 596.126 786.261 594.557 784.878 592.65 C 783.495 590.744 782.243 588.519 781.29 586.37 C 780.337 584.22 779.645 581.772 779.159 579.753 C 778.673 577.734 778.524 576.257 778.374 574.257 C 778.225 572.257 778.187 569.566 778.261 567.753 C 778.336 565.94 778.299 564.163 778.823 563.377 C 779.347 562.592 780.319 563.116 781.403 563.041 C 782.487 562.967 784.355 562.95 785.327 562.931 C 786.299 562.913 786.955 562.502 787.235 562.931 C 787.516 563.361 787.066 564.144 787.009 565.509 C 786.953 566.873 786.803 569.416 786.897 571.118 C 786.99 572.819 787.122 573.996 787.571 575.716 C 788.02 577.436 788.935 579.884 789.589 581.435 C 790.243 582.986 790.542 583.64 791.495 585.023 C 792.448 586.406 793.963 588.501 795.309 589.734 C 796.655 590.968 797.963 591.677 799.571 592.425 C 801.179 593.172 803.085 593.902 804.954 594.22 C 806.824 594.538 809.048 594.613 810.786 594.333 C 812.524 594.052 814.037 593.267 815.382 592.538 C 816.728 591.808 817.925 590.855 818.86 589.957 C 819.795 589.06 820.318 588.275 820.991 587.154 C 821.664 586.033 822.429 584.464 822.897 583.23 C 823.364 581.997 823.645 581.062 823.794 579.753 C 823.944 578.444 823.85 576.723 823.794 575.377 C 823.738 574.031 823.907 573.097 823.458 571.677 C 823.01 570.256 821.87 568.126 821.104 566.855 C 820.338 565.584 819.869 565.005 818.86 564.052 C 817.85 563.099 816.485 562.014 815.046 561.136 C 813.607 560.258 811.851 559.38 810.225 558.782 C 808.599 558.184 807.029 557.922 805.29 557.548 C 803.552 557.174 801.626 556.706 799.794 556.538 C 797.962 556.369 796.261 556.519 794.298 556.538 C 792.336 556.556 790.226 556.482 788.02 556.65 C 785.814 556.819 783.233 557.23 781.065 557.548 C 778.896 557.866 776.747 558.238 775.009 558.556 C 773.271 558.873 771.964 559.135 770.637 559.454 C 769.31 559.772 767.887 560.24 767.046 560.464 C 766.205 560.688 765.926 561.305 765.589 560.8 C 765.253 560.295 765.177 559.006 765.028 557.435 C 764.878 555.865 763.888 552.63 764.692 551.377 Z" fill-rule="nonzero" style="transform-box: fill-box; transform-origin: 50% 50%;" transform="matrix(-1, 0, 0, -1, -0.000102, -0.000123)"/>
    <path fill="#ac0000" d="M 884.039 445.865 C 884.974 447.398 885.872 448.127 887.068 449.23 C 888.265 450.333 891.984 455.23 894.134 457.865 C 896.283 460.5 897.816 462.349 899.966 465.041 C 902.116 467.732 904.92 471.192 907.032 474.015 C 909.143 476.837 911.236 479.959 912.638 481.978 C 914.039 483.997 914.301 484.352 915.441 486.127 C 916.581 487.903 918.15 490.239 919.478 492.631 C 920.805 495.024 922.021 497.585 923.404 500.482 C 924.787 503.379 926.599 507.024 927.777 510.015 C 928.955 513.005 929.647 515.284 930.47 518.424 C 931.292 521.564 932.169 525.808 932.711 528.854 C 933.253 531.901 933.553 534.069 933.722 536.705 C 933.89 539.34 933.797 541.677 933.722 544.668 C 933.647 547.659 933.609 551.584 933.273 554.65 C 932.937 557.715 932.32 560.109 931.703 563.062 C 931.087 566.015 930.283 569.79 929.572 572.369 C 928.862 574.948 928.507 575.696 927.441 578.537 C 926.375 581.378 924.431 586.388 923.178 589.416 C 921.926 592.444 921.141 594.256 919.927 596.705 C 918.712 599.153 917.404 601.396 915.89 604.106 C 914.376 606.817 912.263 610.575 910.843 612.967 C 909.422 615.36 908.638 616.613 907.367 618.463 C 906.097 620.314 903.741 622.743 903.218 624.07 C 902.694 625.396 903.796 625.265 904.226 626.424 C 904.656 627.583 905.443 629.882 905.798 631.022 C 906.153 632.163 905.946 633.323 906.357 633.267 C 906.768 633.211 906.882 632.631 908.265 630.687 C 909.648 628.742 912.544 624.761 914.656 621.602 C 916.768 618.444 918.993 614.893 920.937 611.734 C 922.881 608.575 924.432 606.127 926.32 602.65 C 928.208 599.173 930.657 594.35 932.265 590.873 C 933.873 587.396 934.77 585.153 935.966 581.789 C 937.162 578.424 938.413 574.331 939.441 570.687 C 940.469 567.042 941.535 562.836 942.134 559.92 C 942.732 557.004 942.733 556.144 943.032 553.19 C 943.33 550.237 943.908 546.294 943.927 542.201 C 943.945 538.108 943.646 532.706 943.142 528.631 C 942.637 524.557 941.797 521.341 940.9 517.752 C 940.003 514.163 938.88 510.239 937.759 507.099 C 936.637 503.959 935.273 501.305 934.171 498.912 C 933.068 496.52 932.619 495.455 931.142 492.744 C 929.665 490.034 927.422 486.015 925.31 482.65 C 923.198 479.285 920.75 475.789 918.47 472.555 C 916.189 469.322 914.319 466.743 911.627 463.248 C 908.936 459.753 904.993 454.911 902.32 451.584 C 899.647 448.257 897.834 446.07 895.591 443.285 C 893.347 440.5 891.253 437.957 888.861 434.873 C 886.469 431.789 883.61 428.071 881.236 424.781 C 878.863 421.491 876.433 418.07 874.619 415.135 C 872.806 412.2 871.609 409.77 870.357 407.172 C 869.105 404.574 868.021 402.052 867.105 399.547 C 866.189 397.043 865.441 394.576 864.861 392.146 C 864.281 389.716 863.814 387.622 863.627 384.967 C 863.441 382.313 863.553 378.836 863.74 376.219 C 863.927 373.603 864.209 371.491 864.751 369.267 C 865.293 367.042 866.114 365.134 866.992 362.873 C 867.871 360.611 869.741 357.08 870.021 355.697 C 870.301 354.314 869.46 355.284 868.675 354.574 C 867.889 353.863 866.506 352.463 865.31 351.435 C 864.114 350.407 862.339 348.462 861.499 348.406 C 860.658 348.35 860.994 349.397 860.265 351.099 C 859.536 352.8 857.927 356.576 857.123 358.613 C 856.319 360.65 856.058 361.21 855.441 363.322 C 854.824 365.434 853.89 369.005 853.423 371.285 C 852.955 373.565 852.75 374.593 852.638 377.004 C 852.526 379.415 852.508 382.874 852.751 385.752 C 852.993 388.631 853.534 391.583 854.095 394.274 C 854.655 396.966 855.069 398.967 856.116 401.902 C 857.162 404.837 859.011 409.023 860.375 411.883 C 861.74 414.743 862.993 416.912 864.302 419.062 C 865.61 421.211 866.693 422.538 868.226 424.781 C 869.759 427.024 871.723 430.107 873.499 432.519 C 875.275 434.93 877.125 437.024 878.882 439.248 C 880.639 441.473 883.105 444.332 884.039 445.865 Z" fill-rule="nonzero" style="transform-box: fill-box; transform-origin: 50% 50%;" transform="matrix(-1, 0, 0, -1, -0.000078, -0.000024)"/>
    <path fill="#ac0000" d="M 900.697 336.506 C 901.707 337.945 906.343 359.61 907.876 360.17 C 909.409 360.73 906.865 331.965 905.632 332.918 C 904.398 333.871 903.539 336.694 902.493 336.283 C 901.446 335.872 900.248 332.582 899.351 330.451 C 898.454 328.32 897.707 326.115 897.109 323.498 C 896.511 320.881 895.987 317.479 895.763 314.75 C 895.539 312.021 895.688 309.758 895.763 307.123 C 895.838 304.487 896.006 301.404 896.212 298.936 C 896.417 296.469 896.548 294.787 896.997 292.32 C 897.445 289.852 898.285 286.451 898.902 284.133 C 899.519 281.816 900.043 280.227 900.697 278.414 C 901.352 276.601 901.987 275.048 902.829 273.254 C 903.67 271.46 904.735 269.554 905.745 267.648 C 906.754 265.741 907.912 263.592 908.884 261.816 C 909.856 260.04 910.212 259.122 911.577 256.991 C 912.941 254.861 916.344 250.862 917.073 249.031 C 917.801 247.199 916.398 247.03 915.949 246.002 C 915.501 244.974 914.884 243.816 914.38 242.863 C 913.875 241.91 913.446 240.302 912.923 240.283 C 912.4 240.264 912.362 240.713 911.241 242.75 C 910.119 244.787 907.595 249.758 906.193 252.506 C 904.791 255.253 903.969 256.843 902.829 259.236 C 901.688 261.628 900.473 264.19 899.351 266.863 C 898.229 269.536 897.071 272.599 896.099 275.272 C 895.127 277.945 894.117 280.582 893.519 282.9 C 892.921 285.218 892.829 286.358 892.511 289.18 C 892.193 292.003 891.819 296.862 891.613 299.834 C 891.408 302.806 891.277 304.935 891.277 307.01 C 891.277 309.085 891.389 310.189 891.613 312.283 C 891.838 314.376 892.175 317.347 892.624 319.572 C 893.073 321.796 893.522 323.629 894.306 325.629 C 895.091 327.629 896.267 329.759 897.333 331.572 C 898.398 333.384 899.688 335.067 900.697 336.506 Z" fill-rule="nonzero" style="transform-box: fill-box; transform-origin: 50% 50%;" transform="matrix(-1, 0, 0, -1, 0.000114, -0.000027)"/>
    <path fill="#ac0000" d="M 886.789 0.268 C 888.378 0.773 892.379 4.604 893.183 5.987 C 893.987 7.37 892.828 7.072 891.614 8.567 C 890.399 10.062 887.67 12.752 885.894 14.958 C 884.118 17.164 882.359 19.745 880.957 21.801 C 879.555 23.857 878.659 25.22 877.482 27.294 C 876.305 29.368 874.885 32.209 873.894 34.247 C 872.904 36.284 872.229 37.762 871.537 39.52 C 870.846 41.277 870.343 42.828 869.745 44.79 C 869.147 46.752 868.51 48.958 867.95 51.294 C 867.389 53.63 866.623 56.864 866.38 58.808 C 866.137 60.752 865.409 62.619 865.449 62.958 C 865.489 63.297 864.956 68.829 864.988 69.144 C 865.02 69.459 864.969 75.502 865.09 75.73 C 865.211 75.958 865.595 78.174 865.931 81.352 C 866.268 84.529 867.145 90.734 867.724 94.36 C 868.303 97.986 868.696 100.098 869.406 103.108 C 870.117 106.117 871.014 109.203 871.986 112.417 C 872.958 115.632 874.229 119.387 875.238 122.396 C 876.248 125.406 877.034 127.631 878.044 130.472 C 879.054 133.314 879.39 134.658 881.296 139.444 C 883.202 144.229 887.352 154.156 889.482 159.184 C 891.613 164.212 892.716 166.397 894.081 169.612 C 895.445 172.826 896.173 174.809 897.669 178.472 C 899.164 182.136 901.5 187.556 903.052 191.593 C 904.604 195.63 905.838 199.312 906.978 202.696 C 908.119 206.079 909.035 208.902 909.894 211.892 C 910.754 214.883 911.388 217.5 912.136 220.64 C 912.883 223.781 913.969 227.95 914.38 230.735 C 914.791 233.52 914.51 234.922 914.603 237.352 C 914.696 239.781 914.901 242.789 914.939 245.312 C 914.977 247.835 915.016 249.668 914.829 252.491 C 914.642 255.313 914.286 258.975 913.818 262.247 C 913.351 265.518 912.584 269.258 912.023 272.118 C 911.462 274.978 911.163 276.603 910.453 279.407 C 909.743 282.21 908.772 285.837 907.763 288.94 C 906.754 292.042 905.651 294.884 904.398 298.024 C 903.146 301.164 901.651 304.733 900.249 307.78 C 898.847 310.826 897.706 313.052 895.986 316.304 C 894.267 319.557 891.576 324.247 889.931 327.294 C 888.286 330.341 887.239 332.398 886.118 334.585 C 884.996 336.773 884.173 338.38 883.201 340.417 C 882.229 342.455 881.183 344.678 880.285 346.808 C 879.388 348.939 878.341 351.856 877.818 353.202 C 877.295 354.548 877.184 354.249 877.146 354.885 C 877.109 355.52 877.278 356.023 877.595 357.013 C 877.913 358.003 878.342 359.574 879.052 360.827 C 879.762 362.079 879.128 366.061 878.38 365.089 C 877.632 364.117 877.184 363.256 876.698 362.396 C 876.212 361.536 875.95 359.069 875.464 359.929 C 874.978 360.789 874.268 364.827 873.782 367.556 C 873.296 370.286 872.847 372.921 872.548 376.304 C 872.249 379.688 872.005 384.36 871.986 387.856 C 871.967 391.351 872.155 394.117 872.435 397.276 C 872.715 400.434 873.108 403.5 873.669 406.808 C 874.229 410.117 875.071 414.004 875.8 417.126 C 876.529 420.248 876.997 422.155 878.044 425.538 C 879.091 428.921 880.81 434.042 882.081 437.425 C 883.352 440.808 884.379 442.865 885.669 445.837 C 886.958 448.809 888.529 452.379 889.818 455.257 C 891.108 458.136 892.173 460.304 893.406 463.108 C 894.64 465.911 896.079 469.07 897.22 472.079 C 898.36 475.088 899.557 478.471 900.249 481.163 C 900.94 483.854 901.164 486.097 901.369 488.228 C 901.575 490.36 901.725 492.006 901.482 493.95 C 901.24 495.894 900.679 498.173 899.913 499.892 C 899.146 501.612 897.987 503.052 896.884 504.268 C 895.781 505.483 894.66 506.455 893.296 507.184 C 891.932 507.913 890.361 508.454 888.698 508.64 C 887.034 508.827 884.828 508.716 883.314 508.304 C 881.8 507.893 880.735 507.22 879.614 506.173 C 878.492 505.126 877.332 503.781 876.585 502.024 C 875.837 500.266 875.352 497.405 875.128 495.63 C 874.904 493.854 875.126 492.66 875.238 491.37 C 875.35 490.08 875.613 487.294 875.8 487.892 C 875.987 488.49 876.006 493.033 876.362 494.958 C 876.717 496.883 877.128 498.06 877.931 499.444 C 878.735 500.827 879.819 502.36 881.183 503.257 C 882.548 504.154 884.398 504.771 886.118 504.827 C 887.837 504.883 890.006 504.36 891.501 503.593 C 892.996 502.827 894.173 501.368 895.089 500.228 C 896.005 499.088 896.529 497.931 896.997 496.753 C 897.464 495.576 897.764 494.733 897.894 493.163 C 898.025 491.592 898.1 489.331 897.782 487.331 C 897.464 485.331 896.827 483.536 895.986 481.163 C 895.145 478.789 893.837 475.575 892.734 473.089 C 891.631 470.603 890.921 469.461 889.369 466.247 C 887.818 463.032 885.334 458.006 883.427 453.801 C 881.521 449.595 879.446 444.752 877.931 441.013 C 876.417 437.275 875.518 434.902 874.341 431.37 C 873.163 427.838 871.744 423.015 870.866 419.819 C 869.987 416.622 869.687 415.182 869.07 412.192 C 868.453 409.201 867.669 405.594 867.165 401.874 C 866.66 398.154 866.231 393.425 866.044 389.874 C 865.857 386.323 865.895 383.801 866.044 380.567 C 866.193 377.333 866.435 373.93 866.939 370.472 C 867.443 367.014 868.191 363.352 869.07 359.819 C 869.949 356.286 871.053 352.603 872.212 349.276 C 873.371 345.948 874.621 343.033 876.023 339.856 C 877.425 336.678 878.864 333.874 880.621 330.21 C 882.379 326.546 884.79 321.444 886.566 317.874 C 888.342 314.304 889.726 311.949 891.278 308.79 C 892.829 305.631 894.509 302.099 895.873 298.921 C 897.238 295.744 898.361 292.64 899.464 289.724 C 900.567 286.808 901.481 284.734 902.49 281.425 C 903.499 278.117 904.771 273.5 905.519 269.874 C 906.267 266.248 906.548 263.202 906.978 259.669 C 907.408 256.136 907.95 252.21 908.099 248.677 C 908.248 245.144 908.285 242.117 907.873 238.472 C 907.462 234.828 906.51 230.678 905.632 226.808 C 904.754 222.939 903.706 218.902 902.603 215.257 C 901.5 211.612 900.211 208.248 899.015 204.94 C 897.819 201.631 897.184 199.724 895.427 195.407 C 893.67 191.089 890.491 183.819 888.472 179.034 C 886.453 174.249 885.333 171.556 883.314 166.696 C 881.296 161.835 878.436 155.108 876.362 149.874 C 874.287 144.64 872.585 139.93 870.866 135.294 C 869.146 130.658 867.558 126.714 866.044 122.06 C 864.53 117.406 862.997 112.379 861.782 107.37 C 860.566 102.361 859.538 96.809 858.753 92.005 C 857.967 87.201 857.369 82.957 857.07 78.546 C 856.771 74.135 856.77 69.781 856.957 65.538 C 857.145 61.295 857.52 57.127 858.194 53.089 C 858.867 49.052 859.857 45.126 860.997 41.312 C 862.137 37.499 863.632 33.462 865.034 30.21 C 866.435 26.958 867.724 24.642 869.406 21.801 C 871.089 18.959 873.352 15.612 875.128 13.163 C 876.904 10.714 878.642 8.808 880.062 7.108 C 881.483 5.407 882.529 4.098 883.65 2.958 C 884.771 1.818 885.201 -0.237 886.789 0.268 Z" fill-rule="nonzero" style="transform-box: fill-box; transform-origin: 50% 50%;" transform="matrix(-1, 0, 0, -1, 0.000026, 0.000031)"/>
    <path fill="#ac0000" d="M 163.094 654.767 C 161.985 654.917 160.368 655.439 159.532 656.467 C 158.696 657.495 158.078 659.519 158.039 660.192 C 158 660.865 157.622 660.426 159.295 661.641 C 160.967 662.856 178.113 670.495 181.438 672.477 C 184.762 674.458 189.836 677.093 193.219 678.644 C 196.603 680.196 198.861 680.849 201.738 681.784 C 204.617 682.718 207.435 683.578 210.487 684.251 C 213.54 684.924 216.36 685.334 220.055 685.82 C 223.749 686.306 228.65 687.017 232.657 687.167 C 236.662 687.316 240.278 687.017 244.089 686.718 C 247.9 686.419 251.946 685.839 255.524 685.372 C 259.101 684.904 261.609 684.625 265.556 683.915 C 269.504 683.205 274.872 682.102 279.209 681.112 C 283.545 680.121 287.433 679.11 291.575 677.97 C 295.716 676.83 300.111 675.465 304.059 674.269 C 308.006 673.073 311.545 671.953 315.259 670.794 C 318.973 669.635 322.55 668.532 326.342 667.316 C 330.134 666.101 334.529 664.643 338.009 663.503 C 341.49 662.363 343.727 661.635 347.228 660.477 C 350.727 659.318 355.704 657.578 359.009 656.55 C 362.315 655.522 363.873 655.166 367.061 654.306 C 370.251 653.446 375.151 652.175 378.145 651.39 C 381.139 650.605 382.442 650.214 385.029 649.597 C 387.615 648.98 390.843 648.269 393.662 647.689 C 396.482 647.109 398.972 646.568 401.946 646.12 C 404.922 645.671 408.557 645.279 411.512 644.999 C 414.467 644.718 416.975 644.568 419.679 644.437 C 422.381 644.306 425.494 644.232 427.731 644.214 C 429.967 644.196 431.463 643.972 433.097 644.327 C 434.729 644.682 439.008 645.018 439.164 644.663 C 439.319 644.308 440.934 644.362 442.781 644.437 C 444.629 644.512 447.174 644.887 450.246 645.112 C 453.318 645.336 457.928 645.503 461.214 645.784 C 464.502 646.064 467.166 646.402 469.965 646.794 C 472.766 647.186 475.118 647.634 478.015 648.138 C 480.913 648.642 484.549 649.26 487.348 649.82 C 490.149 650.381 492.211 650.904 494.817 651.503 C 497.421 652.101 500.144 652.682 502.983 653.411 C 505.822 654.14 508.602 654.869 511.849 655.878 C 515.096 656.887 519.551 658.494 522.468 659.466 C 525.385 660.438 526.999 660.907 529.351 661.71 C 531.704 662.514 533.92 663.372 536.584 664.288 C 539.248 665.203 542.711 666.381 545.335 667.204 C 547.96 668.026 550.078 668.623 552.334 669.222 C 554.589 669.82 556.923 670.401 558.868 670.794 C 560.812 671.187 562.154 671.448 564.002 671.579 C 565.848 671.71 568.065 671.616 569.951 671.579 C 571.837 671.541 573.608 671.652 575.319 671.353 C 577.031 671.054 578.7 670.475 580.217 669.784 C 581.734 669.092 583.273 668.026 584.42 667.204 C 585.568 666.381 586.266 665.914 587.101 664.849 C 587.937 663.784 588.911 662.42 589.435 660.812 C 589.961 659.205 590.466 656.961 590.252 655.204 C 590.039 653.446 589.183 651.652 588.153 650.269 C 587.122 648.886 585.529 647.783 584.071 646.904 C 582.612 646.026 580.996 645.485 579.402 644.999 C 577.807 644.513 576.272 644.213 574.503 643.988 C 572.733 643.764 570.535 643.69 568.785 643.652 C 567.035 643.615 565.363 643.672 564.002 643.765 C 562.64 643.859 560.307 644.12 560.619 644.214 C 560.93 644.308 563.847 644.14 565.869 644.327 C 567.892 644.514 570.711 644.905 572.753 645.335 C 574.794 645.764 576.465 646.213 578.118 646.904 C 579.771 647.596 581.445 648.55 582.669 649.484 C 583.895 650.419 584.827 651.504 585.469 652.513 C 586.111 653.522 586.364 654.605 586.519 655.54 C 586.676 656.474 586.578 657.185 586.402 658.12 C 586.227 659.054 586.266 660.083 585.469 661.148 C 584.671 662.214 583.038 663.56 581.619 664.513 C 580.2 665.466 578.799 666.307 576.952 666.868 C 575.105 667.428 572.79 667.766 570.535 667.878 C 568.28 667.99 565.967 667.951 563.419 667.54 C 560.873 667.128 557.759 666.121 555.25 665.411 C 552.741 664.701 551.128 664.233 548.367 663.28 C 545.606 662.326 543.039 661.297 538.685 659.689 C 534.329 658.081 526.2 655.054 522.233 653.634 C 518.266 652.214 517.508 652.026 514.882 651.167 C 512.257 650.307 509.614 649.374 506.484 648.477 C 503.353 647.579 500.28 646.793 496.099 645.784 C 491.918 644.774 485.638 643.26 481.399 642.419 C 477.159 641.578 475.702 641.39 470.665 640.736 C 465.628 640.082 456.917 638.999 451.18 638.495 C 445.444 637.991 440.273 637.879 436.247 637.71 C 432.222 637.542 430.121 637.503 427.029 637.484 C 423.938 637.466 421.449 637.373 417.696 637.597 C 413.943 637.822 409.394 638.195 404.513 638.831 C 399.633 639.466 394.226 640.252 388.412 641.411 C 382.597 642.57 375.171 644.363 369.629 645.784 C 364.086 647.204 358.583 648.942 355.16 649.933 C 351.736 650.924 352.476 650.682 349.093 651.728 C 345.709 652.775 340.186 654.55 334.858 656.214 C 329.531 657.878 322.455 660.065 317.126 661.71 C 311.799 663.355 307.365 664.793 302.893 666.083 C 298.42 667.372 292.586 668.85 290.291 669.448 C 287.997 670.046 290.778 669.241 289.125 669.671 C 287.473 670.101 283.524 671.28 280.374 672.028 C 277.224 672.775 273.803 673.465 270.224 674.156 C 266.647 674.848 262.466 675.654 258.907 676.177 C 255.348 676.701 252.062 676.999 248.873 677.298 C 245.683 677.597 243.68 677.951 239.772 677.97 C 235.864 677.989 229.914 677.784 225.423 677.411 C 220.931 677.037 216.575 676.439 212.822 675.728 C 209.068 675.018 205.958 674.12 202.905 673.148 C 199.852 672.176 197.151 671.074 194.506 669.896 C 191.862 668.719 189.429 667.429 187.038 666.083 C 184.646 664.737 181.923 662.998 180.154 661.82 C 178.385 660.643 165.728 655.533 164.619 655.682 L 163.094 654.767 Z" fill-rule="nonzero" style="transform-box: fill-box; transform-origin: 50% 50%;" transform="matrix(-1, 0, 0, -1, 0.000003, 0.000002)"/>
    <path fill="#ac0000" d="M 540.21 687.576 C 542.346 687.742 544.472 687.345 545.952 687.215 C 547.432 687.086 553.092 685.496 556.052 684.664 C 559.011 683.832 561.1 683.148 563.708 682.223 C 566.315 681.298 568.886 680.336 571.697 679.116 C 574.509 677.895 577.747 676.304 580.577 674.898 C 583.406 673.492 585.791 672.234 588.676 670.68 C 591.562 669.126 594.819 667.387 597.889 665.575 C 600.959 663.763 604.14 661.637 607.099 659.806 C 610.058 657.975 612.944 656.181 615.645 654.591 C 618.345 653 620.619 651.798 623.301 650.263 C 625.983 648.727 628.405 647.228 631.734 645.378 C 635.063 643.528 639.966 640.791 643.277 639.163 C 646.588 637.535 648.844 636.74 651.6 635.612 C 654.356 634.483 656.78 633.392 659.813 632.394 C 662.846 631.395 666.785 630.322 669.8 629.62 C 672.814 628.917 674.903 628.53 677.899 628.179 C 680.896 627.827 684.78 627.531 687.776 627.512 C 690.773 627.493 692.771 627.677 695.878 628.066 C 698.986 628.454 703.629 629.269 706.422 629.843 C 709.214 630.416 710.489 630.749 712.634 631.507 C 714.78 632.265 717 633.355 719.293 634.391 C 721.587 635.427 724.398 636.668 726.395 637.722 C 728.393 638.776 730.221 639.652 731.701 640.577 C 733.181 641.501 729.27 639.903 729.899 639.572 C 730.528 639.241 736.745 642.71 735.45 643.58 C 734.155 644.449 734.827 645.444 733.773 645.24 C 732.719 645.037 732.779 645.179 732.003 644.217 C 731.226 643.255 730.631 642.993 729.947 642.16 C 729.263 641.328 727.322 640.459 725.731 639.719 C 724.141 638.98 722.142 638.332 720.403 637.722 C 718.665 637.112 717.425 636.613 715.298 636.058 C 713.172 635.503 710.269 634.872 707.642 634.391 C 705.016 633.91 702.296 633.43 699.54 633.171 C 696.784 632.912 694.084 632.745 691.107 632.837 C 688.129 632.93 685.059 633.154 681.674 633.727 C 678.289 634.301 674.422 635.243 670.797 636.278 C 667.172 637.314 663.419 638.553 659.923 639.94 C 656.427 641.327 653.097 643.029 649.823 644.601 C 646.549 646.173 643.646 647.56 640.28 649.373 C 636.914 651.186 633.381 653.221 629.626 655.478 C 625.872 657.735 621.581 660.509 617.752 662.913 C 613.924 665.318 610.687 667.462 606.655 669.903 C 602.623 672.344 597.778 675.194 593.561 677.562 C 589.344 679.929 585.034 682.258 581.354 684.108 C 577.673 685.957 574.418 687.382 571.477 688.659 C 568.536 689.935 566.408 690.879 563.708 691.766 C 561.007 692.654 558.141 693.337 555.275 693.984 C 552.408 694.632 549.486 695.281 546.508 695.651 C 543.53 696.021 540.588 696.224 537.406 696.205 C 534.224 696.186 530.711 695.945 527.419 695.538 C 524.127 695.131 520.501 694.43 517.653 693.764 C 514.805 693.098 512.882 692.524 510.33 691.543 C 507.778 690.563 504.819 689.14 502.34 687.882 C 499.862 686.624 497.845 685.477 495.458 683.997 C 493.072 682.518 490.242 680.575 488.023 679.003 C 485.803 677.431 484.305 676.247 482.141 674.564 C 479.977 672.882 475.908 670.182 475.039 668.906 C 474.169 667.63 475.89 667.574 476.926 666.908 C 477.962 666.242 479.903 664.93 481.254 664.911 C 482.604 664.892 483.326 665.76 485.028 666.795 C 486.73 667.831 489.633 669.865 491.464 671.123 C 493.295 672.382 494.369 673.271 496.015 674.344 C 497.661 675.417 499.399 676.489 501.34 677.562 C 503.282 678.634 505.705 679.892 507.666 680.78 C 509.626 681.667 510.996 682.166 513.104 682.887 C 515.213 683.609 517.931 684.479 520.317 685.108 C 522.703 685.737 524.959 686.292 527.419 686.661 C 529.879 687.031 533.08 687.307 535.078 687.326 C 537.076 687.344 538.074 687.41 540.21 687.576 Z" fill-rule="nonzero" style="transform-box: fill-box; transform-origin: 50% 50%;" transform="matrix(-1, 0, 0, -1, 0.000028, -0.000031)"/>
  </g>
  <g clip-path="url(#clip-1)" transform="matrix(-1.004977941513, 0, 0, -1.127655029297, -3.518928679747, 53.617768832482)" style="transform-origin: 480px 361.044px;">
    <path fill="#ac0000" d="M 803.563 653.348 C 804.761 652.91 807.553 649.931 808.626 649.035 C 809.699 648.139 809.949 648.316 810.001 647.972 C 810.053 647.628 809.584 647.514 808.938 646.972 C 808.292 646.431 807.364 645.692 806.124 644.723 C 804.885 643.754 803.166 642.346 801.5 641.159 C 799.833 639.971 797.885 638.722 796.124 637.597 C 794.364 636.472 792.771 635.418 790.938 634.408 C 789.105 633.397 786.843 632.346 785.124 631.534 C 783.406 630.722 782.178 630.159 780.626 629.534 C 779.074 628.909 777.323 628.294 775.812 627.783 C 774.302 627.273 772.865 626.835 771.563 626.471 C 770.261 626.106 769.012 625.836 768.001 625.597 C 766.991 625.358 766.687 625.243 765.5 625.035 C 764.312 624.827 762.271 624.546 760.875 624.348 C 759.479 624.149 758.624 623.982 757.124 623.846 C 755.624 623.711 753.354 623.586 751.875 623.534 C 750.396 623.482 749.677 623.534 748.25 623.534 C 746.823 623.534 744.907 623.461 743.313 623.534 C 741.72 623.607 740.522 623.701 738.689 623.972 C 736.855 624.243 734.532 624.721 732.313 625.159 C 730.095 625.596 727.47 626.086 725.376 626.597 C 723.283 627.107 721.565 627.648 719.752 628.222 C 717.939 628.795 716.01 629.514 714.5 630.035 C 712.989 630.556 711.939 630.869 710.689 631.348 C 709.439 631.827 708.451 632.288 707.492 632.725 C 706.534 633.163 704.747 634.17 704.57 633.972 C 704.393 633.774 702.145 635.165 701.082 635.79 C 700.02 636.415 698.583 636.946 696.999 637.602 C 695.416 638.258 696.094 638.024 692.563 639.972 C 689.032 641.92 681.293 646.305 675.752 649.597 C 670.21 652.889 663.939 656.848 659.313 659.723 C 654.688 662.598 651.199 664.867 648.001 666.846 C 644.803 668.825 642.458 670.211 640.124 671.597 C 637.791 672.982 636.095 674.013 634.001 675.159 C 631.907 676.304 629.844 677.356 627.563 678.471 C 625.281 679.586 622.522 680.95 620.313 681.846 C 618.105 682.742 616.022 683.325 614.313 683.846 C 612.605 684.367 609.453 685.219 608.479 685.45 C 607.505 685.681 601.894 686.619 600.418 686.699 C 598.942 686.779 587.635 689.229 587.6 688.488 C 587.565 687.747 587.709 691.255 587.865 692.171 C 588.021 693.088 588.215 696.075 587.963 696.649 C 587.711 697.223 600.813 695.529 603.037 695.226 C 605.261 694.923 611.778 694.008 613.577 693.843 C 615.376 693.678 619.418 692.242 621.626 691.471 C 623.834 690.7 625.114 690.212 627.187 689.348 C 629.26 688.483 631.803 687.399 634.064 686.285 C 636.325 685.17 637.169 684.649 640.752 682.66 C 644.335 680.67 649.636 677.9 655.563 674.348 C 661.49 670.795 670.668 664.827 676.313 661.348 C 681.959 657.868 685.676 655.627 689.437 653.471 C 693.197 651.314 695.792 650.002 698.875 648.408 C 701.959 646.814 705.042 645.222 707.938 643.909 C 710.834 642.597 713.688 641.523 716.25 640.534 C 718.813 639.544 720.657 638.806 723.313 637.972 C 725.97 637.139 729.719 636.169 732.187 635.534 C 734.656 634.898 736.083 634.523 738.124 634.159 C 740.166 633.794 742.166 633.535 744.437 633.348 C 746.708 633.16 749.033 632.983 751.752 633.035 C 754.471 633.087 757.846 633.274 760.752 633.66 C 763.658 634.045 766.823 634.764 769.187 635.348 C 771.552 635.931 772.844 636.409 774.938 637.159 C 777.032 637.908 779.523 638.857 781.752 639.846 C 783.981 640.836 786.439 642.085 788.313 643.096 C 790.188 644.106 791.303 644.847 793.001 645.909 C 794.699 646.972 797.094 648.512 798.5 649.471 C 799.906 650.429 800.593 651.014 801.437 651.66 C 802.281 652.306 802.365 653.785 803.563 653.348 Z" fill-rule="nonzero" style="transform-box: fill-box; transform-origin: 50% 50%;" transform="matrix(-1, 0, 0, -1, 0.00006, 0.00007)"/>
    <path fill="#ac0000" d="M 877.141 698.597 C 876.974 699.44 875.277 699.545 873.892 700.347 C 872.506 701.15 869.922 703.025 868.829 703.41 C 867.735 703.796 868.226 703.514 867.33 702.66 C 866.435 701.805 865.175 700.034 863.456 698.284 C 861.737 696.535 859.07 694.015 857.018 692.161 C 854.965 690.307 852.974 688.588 851.141 687.161 C 849.308 685.734 847.674 684.701 846.018 683.597 C 844.362 682.493 842.464 681.307 841.204 680.536 C 839.944 679.766 839.758 679.649 838.456 678.972 C 837.154 678.295 835.06 677.244 833.393 676.473 C 831.726 675.703 830.05 674.993 828.456 674.347 C 826.862 673.701 825.464 673.138 823.829 672.597 C 822.193 672.055 820.538 671.577 818.642 671.098 C 816.747 670.619 814.31 670.077 812.456 669.723 C 810.602 669.368 809.236 669.18 807.516 668.972 C 805.797 668.764 803.912 668.577 802.141 668.473 C 800.37 668.369 798.642 668.337 796.892 668.347 C 795.142 668.358 793.392 668.401 791.642 668.536 C 789.893 668.672 788.143 668.88 786.393 669.161 C 784.643 669.442 782.943 669.787 781.141 670.224 C 779.339 670.661 777.433 671.203 775.579 671.786 C 773.726 672.369 771.82 673.025 770.018 673.723 C 768.216 674.42 766.519 675.087 764.768 675.972 C 763.018 676.857 761.235 677.931 759.516 679.035 C 757.798 680.139 756.216 681.274 754.456 682.597 C 752.696 683.919 750.486 685.607 748.955 686.972 C 747.423 688.337 746.371 689.494 745.267 690.786 C 744.163 692.077 743.153 693.921 742.33 694.723 C 741.507 695.524 741.257 695.315 740.33 695.597 C 739.403 695.878 737.904 696.129 736.768 696.41 C 735.633 696.692 734.611 697.014 733.516 697.284 C 732.422 697.555 731.058 697.837 730.204 698.035 C 729.35 698.233 728.331 698.88 728.393 698.473 C 728.456 698.067 729.35 697.201 730.579 695.597 C 731.809 693.993 734.394 690.557 735.768 688.849 C 737.143 687.14 737.506 686.723 738.829 685.347 C 740.152 683.972 742.153 682.024 743.705 680.597 C 745.257 679.17 746.474 678.098 748.141 676.786 C 749.808 675.473 751.914 673.921 753.705 672.723 C 755.497 671.524 756.913 670.69 758.892 669.597 C 760.871 668.503 763.632 667.067 765.579 666.161 C 767.527 665.255 768.746 664.828 770.579 664.161 C 772.413 663.494 774.569 662.734 776.579 662.161 C 778.59 661.588 780.611 661.129 782.642 660.723 C 784.674 660.316 786.654 660.004 788.768 659.723 C 790.883 659.441 793.455 659.17 795.33 659.035 C 797.205 658.9 797.976 658.849 800.018 658.912 C 802.059 658.974 805.298 659.171 807.579 659.41 C 809.861 659.65 811.612 659.993 813.705 660.347 C 815.799 660.702 817.974 661.026 820.141 661.536 C 822.308 662.047 824.132 662.556 826.705 663.41 C 829.278 664.264 833.257 665.733 835.579 666.66 C 837.902 667.587 838.913 668.118 840.642 668.972 C 842.372 669.826 844.017 670.671 845.955 671.786 C 847.892 672.9 850.184 674.253 852.267 675.66 C 854.351 677.066 856.727 678.932 858.456 680.224 C 860.185 681.516 861.111 682.14 862.642 683.41 C 864.174 684.681 866.132 686.442 867.642 687.849 C 869.153 689.255 870.497 690.609 871.705 691.849 C 872.914 693.088 873.986 694.16 874.892 695.284 C 875.798 696.409 877.308 697.753 877.141 698.597 Z" fill-rule="nonzero" style="transform-box: fill-box; transform-origin: 50% 50%;" transform="matrix(-1, 0, 0, -1, 0.000013, -0.000005)"/>
    <path fill="#ac0000" d="M 808.291 609.835 C 807.968 610.22 808.737 611.636 809.039 612.772 C 809.341 613.907 809.873 615.753 810.102 616.648 C 810.331 617.544 810.039 617.72 810.414 618.147 C 810.789 618.574 811.528 618.835 812.351 619.21 C 813.174 619.585 814.205 619.813 815.351 620.396 C 816.497 620.98 818.04 621.896 819.228 622.709 C 820.415 623.522 821.467 624.315 822.477 625.273 C 823.488 626.232 824.416 627.345 825.291 628.459 C 826.166 629.574 826.987 630.68 827.726 631.961 C 828.466 633.242 829.195 634.824 829.726 636.147 C 830.258 637.47 830.53 638.346 830.915 639.898 C 831.301 641.45 831.778 643.72 832.039 645.459 C 832.299 647.199 832.383 648.594 832.477 650.333 C 832.571 652.073 832.634 654.158 832.603 655.898 C 832.572 657.638 832.395 659.137 832.291 660.772 C 832.186 662.407 832.101 664.177 831.976 665.709 C 831.851 667.24 831.654 668.929 831.54 669.961 C 831.426 670.992 830.791 671.481 831.291 671.898 C 831.791 672.314 833.363 672.366 834.54 672.459 C 835.717 672.553 837.466 672.501 838.351 672.459 C 839.236 672.418 839.561 672.522 839.852 672.21 C 840.144 671.898 839.904 672.232 840.102 670.585 C 840.299 668.939 840.799 664.719 841.039 662.333 C 841.278 659.948 841.467 658.502 841.54 656.273 C 841.613 654.044 841.571 651.315 841.477 648.961 C 841.383 646.606 841.257 644.231 840.976 642.147 C 840.694 640.064 840.227 638.199 839.789 636.459 C 839.352 634.72 839.059 633.396 838.351 631.709 C 837.643 630.021 836.603 628.021 835.54 626.333 C 834.478 624.646 833.184 622.929 831.976 621.585 C 830.768 620.242 829.582 619.273 828.291 618.273 C 826.999 617.273 825.728 616.429 824.228 615.585 C 822.728 614.742 820.76 613.856 819.291 613.21 C 817.822 612.564 816.8 612.167 815.414 611.709 C 814.028 611.25 812.163 610.772 810.976 610.459 C 809.789 610.147 808.614 609.449 808.291 609.835 Z" fill-rule="nonzero" style="transform-box: fill-box; transform-origin: 50% 50%;" transform="matrix(-1, 0, 0, -1, 0.000002, -0.000087)"/>
    <path fill="#ac0000" d="M 843.794 618.045 C 842.939 617.962 842.2 619.546 841.481 620.171 C 840.763 620.796 840.086 621.265 839.481 621.796 C 838.877 622.327 838.201 622.889 837.857 623.357 C 837.513 623.826 837.262 624.2 837.418 624.607 C 837.575 625.013 838.075 624.973 838.794 625.796 C 839.512 626.619 840.855 628.305 841.731 629.544 C 842.606 630.783 843.348 632.044 844.046 633.231 C 844.744 634.419 845.285 635.399 845.92 636.67 C 846.555 637.941 847.263 639.275 847.857 640.859 C 848.45 642.442 849.002 644.411 849.481 646.171 C 849.96 647.931 850.366 649.441 850.731 651.42 C 851.096 653.399 851.42 656.066 851.67 658.045 C 851.921 660.024 852.065 661.763 852.232 663.294 C 852.399 664.826 852.525 665.731 852.67 667.231 C 852.816 668.731 852.981 670.7 853.106 672.294 C 853.231 673.889 852.576 683.779 852.94 684.613 C 853.305 685.446 854.036 685.111 854.817 685.111 C 855.598 685.111 856.67 684.81 857.628 684.613 C 858.587 684.415 859.765 684.061 860.568 683.925 C 861.37 683.789 861.994 683.841 862.442 683.799 C 862.889 683.758 863.138 683.884 863.253 683.676 C 863.367 683.468 863.223 683.727 863.129 682.55 C 863.036 681.373 863.398 671.202 863.169 668.796 C 862.94 666.389 862.534 662.722 862.232 660.294 C 861.93 657.867 861.702 656.284 861.358 654.231 C 861.014 652.179 860.596 649.94 860.169 647.982 C 859.742 646.024 859.356 644.285 858.794 642.483 C 858.231 640.682 857.502 638.9 856.794 637.171 C 856.086 635.442 855.378 633.733 854.544 632.108 C 853.711 630.483 852.679 628.775 851.794 627.42 C 850.908 626.066 850.096 625.107 849.232 623.982 C 848.368 622.857 847.514 621.659 846.607 620.67 C 845.701 619.68 844.648 618.128 843.794 618.045 Z" fill-rule="nonzero" style="transform-box: fill-box; transform-origin: 50% 50%;" transform="matrix(-1, 0, 0, -1, -0.000056, -0.00006)"/>
    <path fill="#ac0000" d="M 921.196 650.815 C 921.196 650.242 920.123 648.345 919.758 647.314 C 919.393 646.283 919.268 645.441 919.007 644.629 C 918.747 643.817 918.331 642.93 918.196 642.44 C 918.061 641.95 918.353 641.825 918.196 641.689 C 918.04 641.554 918.194 641.619 917.257 641.629 C 916.319 641.64 914.342 641.648 912.572 641.752 C 910.801 641.857 908.737 641.983 906.632 642.254 C 904.527 642.525 902.257 642.909 899.944 643.377 C 897.632 643.846 895.352 644.284 892.758 645.065 C 890.164 645.846 886.831 647.096 884.383 648.065 C 881.935 649.034 880.039 649.909 878.07 650.878 C 876.102 651.847 874.363 652.806 872.572 653.878 C 870.78 654.951 868.986 656.106 867.32 657.314 C 865.653 658.522 863.884 660.003 862.572 661.128 C 861.259 662.253 860.227 663.325 859.446 664.065 C 858.664 664.805 857.968 665.087 857.884 665.566 C 857.8 666.046 858.278 666.327 858.944 666.941 C 859.611 667.556 860.936 668.472 861.884 669.254 C 862.832 670.035 863.976 671.077 864.632 671.629 C 865.288 672.181 865.384 672.504 865.821 672.566 C 866.258 672.628 866.34 672.731 867.257 672.002 C 868.173 671.273 869.986 669.357 871.32 668.191 C 872.653 667.024 873.892 666.033 875.257 665.002 C 876.621 663.97 878.071 662.939 879.509 662.002 C 880.947 661.064 882.436 660.148 883.884 659.377 C 885.332 658.606 886.78 658.023 888.196 657.377 C 889.613 656.731 890.893 656.086 892.383 655.503 C 893.872 654.92 895.581 654.347 897.133 653.878 C 898.685 653.409 900.174 653.044 901.695 652.689 C 903.216 652.335 904.996 651.992 906.257 651.752 C 907.517 651.513 908.152 651.399 909.257 651.254 C 910.361 651.108 911.613 650.951 912.884 650.878 C 914.155 650.805 915.738 650.836 916.884 650.815 C 918.03 650.794 919.039 650.752 919.758 650.752 C 920.477 650.752 921.196 651.388 921.196 650.815 Z" fill-rule="nonzero" style="transform-box: fill-box; transform-origin: 50% 50%;" transform="matrix(-1, 0, 0, -1, 0.000136, 0.000062)"/>
    <path fill="#ac0000" d="M 949.453 629.617 C 949.359 630.477 947.116 631.73 946.088 632.646 C 945.06 633.562 944.013 634.459 943.285 635.113 C 942.556 635.767 942.22 636.476 941.715 636.57 C 941.21 636.663 941.265 636.251 940.256 635.672 C 939.247 635.093 936.987 633.711 935.66 633.095 C 934.333 632.478 933.529 632.401 932.295 631.971 C 931.061 631.541 929.733 630.832 928.256 630.514 C 926.779 630.197 924.911 630.178 923.434 630.066 C 921.958 629.954 920.725 629.787 919.398 629.843 C 918.07 629.899 916.892 630.103 915.471 630.402 C 914.05 630.7 912.312 631.149 910.873 631.635 C 909.433 632.121 907.976 632.776 906.836 633.318 C 905.696 633.86 905.248 634.084 904.033 634.887 C 902.818 635.691 900.912 636.962 899.547 638.139 C 898.183 639.317 896.837 640.85 895.846 641.953 C 894.856 643.056 894.387 643.69 893.602 644.756 C 892.817 645.822 891.789 647.169 891.135 648.347 C 890.481 649.524 890.164 650.513 889.678 651.822 C 889.192 653.13 888.593 654.814 888.219 656.197 C 887.845 657.58 887.64 658.588 887.434 660.121 C 887.229 661.654 886.911 663.244 886.985 665.394 C 887.06 667.543 887.509 671 887.883 673.018 C 888.257 675.037 888.463 675.747 889.23 677.504 C 889.996 679.261 891.323 681.749 892.482 683.562 C 893.64 685.375 894.855 686.851 896.182 688.383 C 897.51 689.916 899.08 691.485 900.445 692.756 C 901.809 694.027 902.985 694.945 904.369 696.011 C 905.752 697.076 907.361 698.234 908.744 699.15 C 910.127 700.065 911.322 700.719 912.668 701.504 C 914.013 702.289 915.584 703.263 916.818 703.861 C 918.051 704.459 919.378 704.403 920.069 705.095 C 920.761 705.786 920.631 706.609 920.967 708.011 C 921.304 709.412 921.863 712.102 922.088 713.504 C 922.312 714.906 922.687 716.065 922.314 716.42 C 921.94 716.775 921.267 716.233 919.846 715.635 C 918.426 715.037 916.2 714.028 913.789 712.832 C 911.377 711.636 907.865 709.936 905.379 708.459 C 902.893 706.983 900.854 705.373 898.873 703.971 C 896.891 702.569 895.153 701.43 893.489 700.047 C 891.826 698.664 890.258 697.093 888.894 695.672 C 887.529 694.251 886.313 692.868 885.303 691.522 C 884.293 690.177 883.733 689.075 882.836 687.598 C 881.939 686.122 880.742 684.384 879.92 682.664 C 879.097 680.944 878.499 679.094 877.901 677.281 C 877.304 675.468 876.706 673.729 876.332 671.785 C 875.958 669.841 875.679 668.009 875.66 665.617 C 875.641 663.224 875.883 659.805 876.219 657.43 C 876.555 655.056 877.006 653.429 877.678 651.373 C 878.351 649.317 879.359 646.963 880.256 645.095 C 881.153 643.226 882.09 641.656 883.062 640.16 C 884.034 638.665 884.836 637.579 886.088 636.121 C 887.34 634.663 889.153 632.758 890.573 631.412 C 891.994 630.067 893.192 629.057 894.613 628.047 C 896.034 627.038 897.64 626.158 899.098 625.354 C 900.556 624.551 901.791 623.899 903.361 623.226 C 904.931 622.553 906.911 621.841 908.518 621.318 C 910.125 620.794 911.321 620.364 913.004 620.084 C 914.686 619.804 916.744 619.729 918.613 619.635 C 920.482 619.542 922.387 619.392 924.219 619.522 C 926.051 619.653 927.565 619.971 929.602 620.42 C 931.64 620.869 934.407 621.505 936.445 622.215 C 938.482 622.926 940.127 623.804 941.828 624.682 C 943.529 625.561 945.379 626.663 946.65 627.486 C 947.92 628.308 949.546 628.757 949.453 629.617 Z" fill-rule="nonzero" style="transform-box: fill-box; transform-origin: 50% 50%;" transform="matrix(-1, 0, 0, -1, 0.000023, 0.000012)"/>
    <path fill="#ac0000" d="M 867.37 589.665 C 865.614 589.833 857.988 593.16 855.819 594.599 C 853.651 596.039 854.771 596.77 854.36 598.303 C 853.949 599.835 853.52 601.815 853.352 603.796 C 853.184 605.777 853.296 607.891 853.352 610.19 C 853.408 612.489 853.37 615.031 853.688 617.591 C 854.006 620.152 854.51 623.069 855.258 625.555 C 856.005 628.041 857.033 630.339 858.174 632.507 C 859.314 634.675 860.661 636.693 862.1 638.563 C 863.539 640.432 865.202 642.265 866.809 643.723 C 868.416 645.181 870.023 646.301 871.743 647.311 C 873.463 648.32 875.388 649.105 877.126 649.778 C 878.865 650.451 880.51 650.88 882.174 651.347 C 883.837 651.814 885.388 652.263 887.108 652.581 C 888.828 652.899 890.79 653.143 892.491 653.255 C 894.192 653.368 896.38 653.91 897.315 653.255 C 898.25 652.601 897.801 650.881 898.1 649.329 C 898.399 647.777 899.501 644.843 899.108 643.946 C 898.715 643.049 897.126 644.039 895.743 643.946 C 894.36 643.853 892.472 643.723 890.809 643.387 C 889.146 643.05 887.465 642.526 885.764 641.927 C 884.063 641.329 882.212 640.619 880.604 639.796 C 878.996 638.974 877.52 638.096 876.118 636.993 C 874.716 635.89 873.314 634.507 872.192 633.179 C 871.07 631.852 870.192 630.357 869.389 629.03 C 868.585 627.702 868.024 626.767 867.37 625.216 C 866.716 623.665 865.895 621.498 865.465 619.723 C 865.035 617.947 864.978 616.245 864.79 614.563 C 864.603 612.88 864.379 611.198 864.342 609.628 C 864.304 608.058 864.362 606.974 864.567 605.143 C 864.773 603.311 865.276 600.564 865.575 598.639 C 865.874 596.713 866.061 595.087 866.36 593.591 C 866.659 592.096 869.127 589.497 867.37 589.665 Z" fill-rule="nonzero" style="transform-box: fill-box; transform-origin: 50% 50%;" transform="matrix(-1, 0, 0, -1, 0.000102, 0.000005)"/>
    <path fill="#ac0000" d="M 869.023 616.217 C 869.583 617.413 869.993 622.498 869.918 624.068 C 869.843 625.638 869.639 625.188 868.574 625.637 C 867.509 626.086 865.284 626.387 863.527 626.761 C 861.77 627.135 860.143 627.47 858.031 627.881 C 855.919 628.292 853.603 628.779 850.855 629.228 C 848.107 629.676 844.237 630.254 841.545 630.572 C 838.854 630.889 836.948 630.965 834.705 631.133 C 832.463 631.302 830.463 631.47 828.089 631.582 C 825.715 631.694 822.499 631.827 820.461 631.808 C 818.424 631.789 816.947 631.787 815.863 631.469 C 814.779 631.151 814.425 630.928 813.957 629.9 C 813.49 628.872 813.265 626.404 813.06 625.301 C 812.854 624.198 811.939 623.6 812.724 623.283 C 813.509 622.965 815.47 623.358 817.768 623.396 C 820.067 623.433 823.862 623.546 826.516 623.509 C 829.171 623.471 831.246 623.357 833.695 623.17 C 836.144 622.983 838.929 622.666 841.209 622.385 C 843.49 622.105 844.891 621.917 847.377 621.488 C 849.863 621.058 853.509 620.387 856.125 619.808 C 858.742 619.229 861.34 618.499 863.078 618.012 C 864.817 617.526 865.565 617.191 866.556 616.892 C 867.547 616.593 868.463 615.021 869.023 616.217 Z" fill-rule="nonzero" style="transform-box: fill-box; transform-origin: 50% 50%;" transform="matrix(-1, 0, 0, -1, -0.000049, 0.000004)"/>
    <path fill="#ac0000" d="M 873.704 503.266 C 874.657 502.238 878.282 502.48 879.534 502.255 C 880.786 502.031 880.636 502.031 881.216 501.919 C 881.796 501.807 882.693 501.359 883.011 501.584 C 883.329 501.808 883.143 501.883 883.124 503.266 C 883.105 504.649 882.778 525.139 882.665 528.148 C 882.553 531.157 882.347 536.203 882.217 539.586 C 882.086 542.969 882.123 545.195 881.881 548.447 C 881.638 551.699 881.171 556.091 880.76 559.1 C 880.349 562.11 879.955 564.109 879.413 566.502 C 878.871 568.895 878.218 571.121 877.508 573.457 C 876.797 575.794 876.161 578.109 875.151 580.52 C 874.141 582.932 872.945 585.307 871.45 587.925 C 869.955 590.542 867.974 593.682 866.18 596.224 C 864.385 598.766 862.366 601.214 860.684 603.177 C 859.002 605.139 858.219 605.998 856.088 607.998 C 853.957 609.998 849.899 613.419 847.899 615.177 C 845.899 616.934 844.948 618.205 844.088 618.541 C 843.228 618.878 843.302 617.905 842.742 617.195 C 842.181 616.485 841.415 615.307 840.723 614.279 C 840.032 613.251 838.461 611.943 838.592 611.027 C 838.723 610.111 840.013 610.166 841.508 608.783 C 843.003 607.4 845.227 605.214 847.563 602.728 C 849.899 600.242 853.321 596.689 855.526 593.867 C 857.732 591.044 859.432 587.961 860.797 585.793 C 862.161 583.625 862.685 582.803 863.713 580.859 C 864.741 578.915 866.03 576.429 866.965 574.129 C 867.899 571.83 868.63 569.606 869.322 567.064 C 870.013 564.522 870.591 561.494 871.114 558.877 C 871.637 556.261 872.161 553.83 872.461 551.363 C 872.76 548.896 872.779 546.785 872.909 544.074 C 873.04 541.364 873.133 537.998 873.245 535.1 C 873.357 532.203 873.544 528.953 873.581 526.691 C 873.619 524.429 872.751 504.294 873.704 503.266 Z" fill-rule="nonzero" style="transform-box: fill-box; transform-origin: 50% 50%;" transform="matrix(-1, 0, 0, -1, 0.00001, -0.000061)"/>
    <path fill="#ac0000" d="M 764.692 551.377 C 765.496 550.125 767.946 550.388 769.852 549.921 C 771.758 549.454 774.037 548.985 776.13 548.574 C 778.223 548.163 780.373 547.734 782.411 547.454 C 784.449 547.173 786.356 547.041 788.356 546.892 C 790.356 546.742 792.299 546.556 794.411 546.556 C 796.523 546.556 798.617 546.63 801.028 546.892 C 803.439 547.153 806.785 547.677 808.878 548.125 C 810.972 548.574 812.206 549.08 813.589 549.585 C 814.973 550.09 815.888 550.482 817.177 551.154 C 818.467 551.827 820.093 552.855 821.327 553.622 C 822.561 554.388 823.345 554.65 824.579 555.753 C 825.813 556.856 827.588 558.799 828.729 560.238 C 829.869 561.677 830.636 562.93 831.422 564.388 C 832.207 565.846 832.917 567.491 833.44 568.986 C 833.963 570.482 834.318 571.602 834.561 573.359 C 834.803 575.116 835.009 577.359 834.897 579.527 C 834.785 581.695 834.262 584.575 833.889 586.37 C 833.515 588.164 833.328 588.891 832.655 590.293 C 831.982 591.695 831.03 593.286 829.852 594.782 C 828.674 596.277 827.047 597.996 825.589 599.267 C 824.131 600.538 822.805 601.509 821.104 602.406 C 819.403 603.303 817.326 604.146 815.382 604.65 C 813.438 605.155 811.346 605.379 809.44 605.435 C 807.533 605.491 806 605.435 803.944 604.986 C 801.888 604.538 799.496 603.939 797.104 602.742 C 794.712 601.546 791.627 599.49 789.589 597.808 C 787.552 596.126 786.261 594.557 784.878 592.65 C 783.495 590.744 782.243 588.519 781.29 586.37 C 780.337 584.22 779.645 581.772 779.159 579.753 C 778.673 577.734 778.524 576.257 778.374 574.257 C 778.225 572.257 778.187 569.566 778.261 567.753 C 778.336 565.94 778.299 564.163 778.823 563.377 C 779.347 562.592 780.319 563.116 781.403 563.041 C 782.487 562.967 784.355 562.95 785.327 562.931 C 786.299 562.913 786.955 562.502 787.235 562.931 C 787.516 563.361 787.066 564.144 787.009 565.509 C 786.953 566.873 786.803 569.416 786.897 571.118 C 786.99 572.819 787.122 573.996 787.571 575.716 C 788.02 577.436 788.935 579.884 789.589 581.435 C 790.243 582.986 790.542 583.64 791.495 585.023 C 792.448 586.406 793.963 588.501 795.309 589.734 C 796.655 590.968 797.963 591.677 799.571 592.425 C 801.179 593.172 803.085 593.902 804.954 594.22 C 806.824 594.538 809.048 594.613 810.786 594.333 C 812.524 594.052 814.037 593.267 815.382 592.538 C 816.728 591.808 817.925 590.855 818.86 589.957 C 819.795 589.06 820.318 588.275 820.991 587.154 C 821.664 586.033 822.429 584.464 822.897 583.23 C 823.364 581.997 823.645 581.062 823.794 579.753 C 823.944 578.444 823.85 576.723 823.794 575.377 C 823.738 574.031 823.907 573.097 823.458 571.677 C 823.01 570.256 821.87 568.126 821.104 566.855 C 820.338 565.584 819.869 565.005 818.86 564.052 C 817.85 563.099 816.485 562.014 815.046 561.136 C 813.607 560.258 811.851 559.38 810.225 558.782 C 808.599 558.184 807.029 557.922 805.29 557.548 C 803.552 557.174 801.626 556.706 799.794 556.538 C 797.962 556.369 796.261 556.519 794.298 556.538 C 792.336 556.556 790.226 556.482 788.02 556.65 C 785.814 556.819 783.233 557.23 781.065 557.548 C 778.896 557.866 776.747 558.238 775.009 558.556 C 773.271 558.873 771.964 559.135 770.637 559.454 C 769.31 559.772 767.887 560.24 767.046 560.464 C 766.205 560.688 765.926 561.305 765.589 560.8 C 765.253 560.295 765.177 559.006 765.028 557.435 C 764.878 555.865 763.888 552.63 764.692 551.377 Z" fill-rule="nonzero" style="transform-box: fill-box; transform-origin: 50% 50%;" transform="matrix(-1, 0, 0, -1, -0.000102, -0.000123)"/>
    <path fill="#ac0000" d="M 884.039 445.865 C 884.974 447.398 885.872 448.127 887.068 449.23 C 888.265 450.333 891.984 455.23 894.134 457.865 C 896.283 460.5 897.816 462.349 899.966 465.041 C 902.116 467.732 904.92 471.192 907.032 474.015 C 909.143 476.837 911.236 479.959 912.638 481.978 C 914.039 483.997 914.301 484.352 915.441 486.127 C 916.581 487.903 918.15 490.239 919.478 492.631 C 920.805 495.024 922.021 497.585 923.404 500.482 C 924.787 503.379 926.599 507.024 927.777 510.015 C 928.955 513.005 929.647 515.284 930.47 518.424 C 931.292 521.564 932.169 525.808 932.711 528.854 C 933.253 531.901 933.553 534.069 933.722 536.705 C 933.89 539.34 933.797 541.677 933.722 544.668 C 933.647 547.659 933.609 551.584 933.273 554.65 C 932.937 557.715 932.32 560.109 931.703 563.062 C 931.087 566.015 930.283 569.79 929.572 572.369 C 928.862 574.948 928.507 575.696 927.441 578.537 C 926.375 581.378 924.431 586.388 923.178 589.416 C 921.926 592.444 921.141 594.256 919.927 596.705 C 918.712 599.153 917.404 601.396 915.89 604.106 C 914.376 606.817 912.263 610.575 910.843 612.967 C 909.422 615.36 908.638 616.613 907.367 618.463 C 906.097 620.314 903.741 622.743 903.218 624.07 C 902.694 625.396 903.796 625.265 904.226 626.424 C 904.656 627.583 905.443 629.882 905.798 631.022 C 906.153 632.163 905.946 633.323 906.357 633.267 C 906.768 633.211 906.882 632.631 908.265 630.687 C 909.648 628.742 912.544 624.761 914.656 621.602 C 916.768 618.444 918.993 614.893 920.937 611.734 C 922.881 608.575 924.432 606.127 926.32 602.65 C 928.208 599.173 930.657 594.35 932.265 590.873 C 933.873 587.396 934.77 585.153 935.966 581.789 C 937.162 578.424 938.413 574.331 939.441 570.687 C 940.469 567.042 941.535 562.836 942.134 559.92 C 942.732 557.004 942.733 556.144 943.032 553.19 C 943.33 550.237 943.908 546.294 943.927 542.201 C 943.945 538.108 943.646 532.706 943.142 528.631 C 942.637 524.557 941.797 521.341 940.9 517.752 C 940.003 514.163 938.88 510.239 937.759 507.099 C 936.637 503.959 935.273 501.305 934.171 498.912 C 933.068 496.52 932.619 495.455 931.142 492.744 C 929.665 490.034 927.422 486.015 925.31 482.65 C 923.198 479.285 920.75 475.789 918.47 472.555 C 916.189 469.322 914.319 466.743 911.627 463.248 C 908.936 459.753 904.993 454.911 902.32 451.584 C 899.647 448.257 897.834 446.07 895.591 443.285 C 893.347 440.5 891.253 437.957 888.861 434.873 C 886.469 431.789 883.61 428.071 881.236 424.781 C 878.863 421.491 876.433 418.07 874.619 415.135 C 872.806 412.2 871.609 409.77 870.357 407.172 C 869.105 404.574 868.021 402.052 867.105 399.547 C 866.189 397.043 865.441 394.576 864.861 392.146 C 864.281 389.716 863.814 387.622 863.627 384.967 C 863.441 382.313 863.553 378.836 863.74 376.219 C 863.927 373.603 864.209 371.491 864.751 369.267 C 865.293 367.042 866.114 365.134 866.992 362.873 C 867.871 360.611 869.741 357.08 870.021 355.697 C 870.301 354.314 869.46 355.284 868.675 354.574 C 867.889 353.863 866.506 352.463 865.31 351.435 C 864.114 350.407 862.339 348.462 861.499 348.406 C 860.658 348.35 860.994 349.397 860.265 351.099 C 859.536 352.8 857.927 356.576 857.123 358.613 C 856.319 360.65 856.058 361.21 855.441 363.322 C 854.824 365.434 853.89 369.005 853.423 371.285 C 852.955 373.565 852.75 374.593 852.638 377.004 C 852.526 379.415 852.508 382.874 852.751 385.752 C 852.993 388.631 853.534 391.583 854.095 394.274 C 854.655 396.966 855.069 398.967 856.116 401.902 C 857.162 404.837 859.011 409.023 860.375 411.883 C 861.74 414.743 862.993 416.912 864.302 419.062 C 865.61 421.211 866.693 422.538 868.226 424.781 C 869.759 427.024 871.723 430.107 873.499 432.519 C 875.275 434.93 877.125 437.024 878.882 439.248 C 880.639 441.473 883.105 444.332 884.039 445.865 Z" fill-rule="nonzero" style="transform-box: fill-box; transform-origin: 50% 50%;" transform="matrix(-1, 0, 0, -1, -0.000078, -0.000024)"/>
    <path fill="#ac0000" d="M 900.697 336.506 C 901.707 337.945 906.343 359.61 907.876 360.17 C 909.409 360.73 906.865 331.965 905.632 332.918 C 904.398 333.871 903.539 336.694 902.493 336.283 C 901.446 335.872 900.248 332.582 899.351 330.451 C 898.454 328.32 897.707 326.115 897.109 323.498 C 896.511 320.881 895.987 317.479 895.763 314.75 C 895.539 312.021 895.688 309.758 895.763 307.123 C 895.838 304.487 896.006 301.404 896.212 298.936 C 896.417 296.469 896.548 294.787 896.997 292.32 C 897.445 289.852 898.285 286.451 898.902 284.133 C 899.519 281.816 900.043 280.227 900.697 278.414 C 901.352 276.601 901.987 275.048 902.829 273.254 C 903.67 271.46 904.735 269.554 905.745 267.648 C 906.754 265.741 907.912 263.592 908.884 261.816 C 909.856 260.04 910.212 259.122 911.577 256.991 C 912.941 254.861 916.344 250.862 917.073 249.031 C 917.801 247.199 916.398 247.03 915.949 246.002 C 915.501 244.974 914.884 243.816 914.38 242.863 C 913.875 241.91 913.446 240.302 912.923 240.283 C 912.4 240.264 912.362 240.713 911.241 242.75 C 910.119 244.787 907.595 249.758 906.193 252.506 C 904.791 255.253 903.969 256.843 902.829 259.236 C 901.688 261.628 900.473 264.19 899.351 266.863 C 898.229 269.536 897.071 272.599 896.099 275.272 C 895.127 277.945 894.117 280.582 893.519 282.9 C 892.921 285.218 892.829 286.358 892.511 289.18 C 892.193 292.003 891.819 296.862 891.613 299.834 C 891.408 302.806 891.277 304.935 891.277 307.01 C 891.277 309.085 891.389 310.189 891.613 312.283 C 891.838 314.376 892.175 317.347 892.624 319.572 C 893.073 321.796 893.522 323.629 894.306 325.629 C 895.091 327.629 896.267 329.759 897.333 331.572 C 898.398 333.384 899.688 335.067 900.697 336.506 Z" fill-rule="nonzero" style="transform-box: fill-box; transform-origin: 50% 50%;" transform="matrix(-1, 0, 0, -1, 0.000114, -0.000027)"/>
    <path fill="#ac0000" d="M 886.789 0.268 C 888.378 0.773 892.379 4.604 893.183 5.987 C 893.987 7.37 892.828 7.072 891.614 8.567 C 890.399 10.062 887.67 12.752 885.894 14.958 C 884.118 17.164 882.359 19.745 880.957 21.801 C 879.555 23.857 878.659 25.22 877.482 27.294 C 876.305 29.368 874.885 32.209 873.894 34.247 C 872.904 36.284 872.229 37.762 871.537 39.52 C 870.846 41.277 870.343 42.828 869.745 44.79 C 869.147 46.752 868.51 48.958 867.95 51.294 C 867.389 53.63 866.623 56.864 866.38 58.808 C 866.137 60.752 865.409 62.619 865.449 62.958 C 865.489 63.297 864.956 68.829 864.988 69.144 C 865.02 69.459 864.969 75.502 865.09 75.73 C 865.211 75.958 865.595 78.174 865.931 81.352 C 866.268 84.529 867.145 90.734 867.724 94.36 C 868.303 97.986 868.696 100.098 869.406 103.108 C 870.117 106.117 871.014 109.203 871.986 112.417 C 872.958 115.632 874.229 119.387 875.238 122.396 C 876.248 125.406 877.034 127.631 878.044 130.472 C 879.054 133.314 879.39 134.658 881.296 139.444 C 883.202 144.229 887.352 154.156 889.482 159.184 C 891.613 164.212 892.716 166.397 894.081 169.612 C 895.445 172.826 896.173 174.809 897.669 178.472 C 899.164 182.136 901.5 187.556 903.052 191.593 C 904.604 195.63 905.838 199.312 906.978 202.696 C 908.119 206.079 909.035 208.902 909.894 211.892 C 910.754 214.883 911.388 217.5 912.136 220.64 C 912.883 223.781 913.969 227.95 914.38 230.735 C 914.791 233.52 914.51 234.922 914.603 237.352 C 914.696 239.781 914.901 242.789 914.939 245.312 C 914.977 247.835 915.016 249.668 914.829 252.491 C 914.642 255.313 914.286 258.975 913.818 262.247 C 913.351 265.518 912.584 269.258 912.023 272.118 C 911.462 274.978 911.163 276.603 910.453 279.407 C 909.743 282.21 908.772 285.837 907.763 288.94 C 906.754 292.042 905.651 294.884 904.398 298.024 C 903.146 301.164 901.651 304.733 900.249 307.78 C 898.847 310.826 897.706 313.052 895.986 316.304 C 894.267 319.557 891.576 324.247 889.931 327.294 C 888.286 330.341 887.239 332.398 886.118 334.585 C 884.996 336.773 884.173 338.38 883.201 340.417 C 882.229 342.455 881.183 344.678 880.285 346.808 C 879.388 348.939 878.341 351.856 877.818 353.202 C 877.295 354.548 877.184 354.249 877.146 354.885 C 877.109 355.52 877.278 356.023 877.595 357.013 C 877.913 358.003 878.342 359.574 879.052 360.827 C 879.762 362.079 879.128 366.061 878.38 365.089 C 877.632 364.117 877.184 363.256 876.698 362.396 C 876.212 361.536 875.95 359.069 875.464 359.929 C 874.978 360.789 874.268 364.827 873.782 367.556 C 873.296 370.286 872.847 372.921 872.548 376.304 C 872.249 379.688 872.005 384.36 871.986 387.856 C 871.967 391.351 872.155 394.117 872.435 397.276 C 872.715 400.434 873.108 403.5 873.669 406.808 C 874.229 410.117 875.071 414.004 875.8 417.126 C 876.529 420.248 876.997 422.155 878.044 425.538 C 879.091 428.921 880.81 434.042 882.081 437.425 C 883.352 440.808 884.379 442.865 885.669 445.837 C 886.958 448.809 888.529 452.379 889.818 455.257 C 891.108 458.136 892.173 460.304 893.406 463.108 C 894.64 465.911 896.079 469.07 897.22 472.079 C 898.36 475.088 899.557 478.471 900.249 481.163 C 900.94 483.854 901.164 486.097 901.369 488.228 C 901.575 490.36 901.725 492.006 901.482 493.95 C 901.24 495.894 900.679 498.173 899.913 499.892 C 899.146 501.612 897.987 503.052 896.884 504.268 C 895.781 505.483 894.66 506.455 893.296 507.184 C 891.932 507.913 890.361 508.454 888.698 508.64 C 887.034 508.827 884.828 508.716 883.314 508.304 C 881.8 507.893 880.735 507.22 879.614 506.173 C 878.492 505.126 877.332 503.781 876.585 502.024 C 875.837 500.266 875.352 497.405 875.128 495.63 C 874.904 493.854 875.126 492.66 875.238 491.37 C 875.35 490.08 875.613 487.294 875.8 487.892 C 875.987 488.49 876.006 493.033 876.362 494.958 C 876.717 496.883 877.128 498.06 877.931 499.444 C 878.735 500.827 879.819 502.36 881.183 503.257 C 882.548 504.154 884.398 504.771 886.118 504.827 C 887.837 504.883 890.006 504.36 891.501 503.593 C 892.996 502.827 894.173 501.368 895.089 500.228 C 896.005 499.088 896.529 497.931 896.997 496.753 C 897.464 495.576 897.764 494.733 897.894 493.163 C 898.025 491.592 898.1 489.331 897.782 487.331 C 897.464 485.331 896.827 483.536 895.986 481.163 C 895.145 478.789 893.837 475.575 892.734 473.089 C 891.631 470.603 890.921 469.461 889.369 466.247 C 887.818 463.032 885.334 458.006 883.427 453.801 C 881.521 449.595 879.446 444.752 877.931 441.013 C 876.417 437.275 875.518 434.902 874.341 431.37 C 873.163 427.838 871.744 423.015 870.866 419.819 C 869.987 416.622 869.687 415.182 869.07 412.192 C 868.453 409.201 867.669 405.594 867.165 401.874 C 866.66 398.154 866.231 393.425 866.044 389.874 C 865.857 386.323 865.895 383.801 866.044 380.567 C 866.193 377.333 866.435 373.93 866.939 370.472 C 867.443 367.014 868.191 363.352 869.07 359.819 C 869.949 356.286 871.053 352.603 872.212 349.276 C 873.371 345.948 874.621 343.033 876.023 339.856 C 877.425 336.678 878.864 333.874 880.621 330.21 C 882.379 326.546 884.79 321.444 886.566 317.874 C 888.342 314.304 889.726 311.949 891.278 308.79 C 892.829 305.631 894.509 302.099 895.873 298.921 C 897.238 295.744 898.361 292.64 899.464 289.724 C 900.567 286.808 901.481 284.734 902.49 281.425 C 903.499 278.117 904.771 273.5 905.519 269.874 C 906.267 266.248 906.548 263.202 906.978 259.669 C 907.408 256.136 907.95 252.21 908.099 248.677 C 908.248 245.144 908.285 242.117 907.873 238.472 C 907.462 234.828 906.51 230.678 905.632 226.808 C 904.754 222.939 903.706 218.902 902.603 215.257 C 901.5 211.612 900.211 208.248 899.015 204.94 C 897.819 201.631 897.184 199.724 895.427 195.407 C 893.67 191.089 890.491 183.819 888.472 179.034 C 886.453 174.249 885.333 171.556 883.314 166.696 C 881.296 161.835 878.436 155.108 876.362 149.874 C 874.287 144.64 872.585 139.93 870.866 135.294 C 869.146 130.658 867.558 126.714 866.044 122.06 C 864.53 117.406 862.997 112.379 861.782 107.37 C 860.566 102.361 859.538 96.809 858.753 92.005 C 857.967 87.201 857.369 82.957 857.07 78.546 C 856.771 74.135 856.77 69.781 856.957 65.538 C 857.145 61.295 857.52 57.127 858.194 53.089 C 858.867 49.052 859.857 45.126 860.997 41.312 C 862.137 37.499 863.632 33.462 865.034 30.21 C 866.435 26.958 867.724 24.642 869.406 21.801 C 871.089 18.959 873.352 15.612 875.128 13.163 C 876.904 10.714 878.642 8.808 880.062 7.108 C 881.483 5.407 882.529 4.098 883.65 2.958 C 884.771 1.818 885.201 -0.237 886.789 0.268 Z" fill-rule="nonzero" style="transform-box: fill-box; transform-origin: 50% 50%;" transform="matrix(-1, 0, 0, -1, 0.000026, 0.000031)"/>
    <path fill="#ac0000" d="M 163.094 654.767 C 161.985 654.917 160.368 655.439 159.532 656.467 C 158.696 657.495 158.078 659.519 158.039 660.192 C 158 660.865 157.622 660.426 159.295 661.641 C 160.967 662.856 178.113 670.495 181.438 672.477 C 184.762 674.458 189.836 677.093 193.219 678.644 C 196.603 680.196 198.861 680.849 201.738 681.784 C 204.617 682.718 207.435 683.578 210.487 684.251 C 213.54 684.924 216.36 685.334 220.055 685.82 C 223.749 686.306 228.65 687.017 232.657 687.167 C 236.662 687.316 240.278 687.017 244.089 686.718 C 247.9 686.419 251.946 685.839 255.524 685.372 C 259.101 684.904 261.609 684.625 265.556 683.915 C 269.504 683.205 274.872 682.102 279.209 681.112 C 283.545 680.121 287.433 679.11 291.575 677.97 C 295.716 676.83 300.111 675.465 304.059 674.269 C 308.006 673.073 311.545 671.953 315.259 670.794 C 318.973 669.635 322.55 668.532 326.342 667.316 C 330.134 666.101 334.529 664.643 338.009 663.503 C 341.49 662.363 343.727 661.635 347.228 660.477 C 350.727 659.318 355.704 657.578 359.009 656.55 C 362.315 655.522 363.873 655.166 367.061 654.306 C 370.251 653.446 375.151 652.175 378.145 651.39 C 381.139 650.605 382.442 650.214 385.029 649.597 C 387.615 648.98 390.843 648.269 393.662 647.689 C 396.482 647.109 398.972 646.568 401.946 646.12 C 404.922 645.671 408.557 645.279 411.512 644.999 C 414.467 644.718 416.975 644.568 419.679 644.437 C 422.381 644.306 425.494 644.232 427.731 644.214 C 429.967 644.196 431.463 643.972 433.097 644.327 C 434.729 644.682 439.008 645.018 439.164 644.663 C 439.319 644.308 440.934 644.362 442.781 644.437 C 444.629 644.512 447.174 644.887 450.246 645.112 C 453.318 645.336 457.928 645.503 461.214 645.784 C 464.502 646.064 467.166 646.402 469.965 646.794 C 472.766 647.186 475.118 647.634 478.015 648.138 C 480.913 648.642 484.549 649.26 487.348 649.82 C 490.149 650.381 492.211 650.904 494.817 651.503 C 497.421 652.101 500.144 652.682 502.983 653.411 C 505.822 654.14 508.602 654.869 511.849 655.878 C 515.096 656.887 519.551 658.494 522.468 659.466 C 525.385 660.438 526.999 660.907 529.351 661.71 C 531.704 662.514 533.92 663.372 536.584 664.288 C 539.248 665.203 542.711 666.381 545.335 667.204 C 547.96 668.026 550.078 668.623 552.334 669.222 C 554.589 669.82 556.923 670.401 558.868 670.794 C 560.812 671.187 562.154 671.448 564.002 671.579 C 565.848 671.71 568.065 671.616 569.951 671.579 C 571.837 671.541 573.608 671.652 575.319 671.353 C 577.031 671.054 578.7 670.475 580.217 669.784 C 581.734 669.092 583.273 668.026 584.42 667.204 C 585.568 666.381 586.266 665.914 587.101 664.849 C 587.937 663.784 588.911 662.42 589.435 660.812 C 589.961 659.205 590.466 656.961 590.252 655.204 C 590.039 653.446 589.183 651.652 588.153 650.269 C 587.122 648.886 585.529 647.783 584.071 646.904 C 582.612 646.026 580.996 645.485 579.402 644.999 C 577.807 644.513 576.272 644.213 574.503 643.988 C 572.733 643.764 570.535 643.69 568.785 643.652 C 567.035 643.615 565.363 643.672 564.002 643.765 C 562.64 643.859 560.307 644.12 560.619 644.214 C 560.93 644.308 563.847 644.14 565.869 644.327 C 567.892 644.514 570.711 644.905 572.753 645.335 C 574.794 645.764 576.465 646.213 578.118 646.904 C 579.771 647.596 581.445 648.55 582.669 649.484 C 583.895 650.419 584.827 651.504 585.469 652.513 C 586.111 653.522 586.364 654.605 586.519 655.54 C 586.676 656.474 586.578 657.185 586.402 658.12 C 586.227 659.054 586.266 660.083 585.469 661.148 C 584.671 662.214 583.038 663.56 581.619 664.513 C 580.2 665.466 578.799 666.307 576.952 666.868 C 575.105 667.428 572.79 667.766 570.535 667.878 C 568.28 667.99 565.967 667.951 563.419 667.54 C 560.873 667.128 557.759 666.121 555.25 665.411 C 552.741 664.701 551.128 664.233 548.367 663.28 C 545.606 662.326 543.039 661.297 538.685 659.689 C 534.329 658.081 526.2 655.054 522.233 653.634 C 518.266 652.214 517.508 652.026 514.882 651.167 C 512.257 650.307 509.614 649.374 506.484 648.477 C 503.353 647.579 500.28 646.793 496.099 645.784 C 491.918 644.774 485.638 643.26 481.399 642.419 C 477.159 641.578 475.702 641.39 470.665 640.736 C 465.628 640.082 456.917 638.999 451.18 638.495 C 445.444 637.991 440.273 637.879 436.247 637.71 C 432.222 637.542 430.121 637.503 427.029 637.484 C 423.938 637.466 421.449 637.373 417.696 637.597 C 413.943 637.822 409.394 638.195 404.513 638.831 C 399.633 639.466 394.226 640.252 388.412 641.411 C 382.597 642.57 375.171 644.363 369.629 645.784 C 364.086 647.204 358.583 648.942 355.16 649.933 C 351.736 650.924 352.476 650.682 349.093 651.728 C 345.709 652.775 340.186 654.55 334.858 656.214 C 329.531 657.878 322.455 660.065 317.126 661.71 C 311.799 663.355 307.365 664.793 302.893 666.083 C 298.42 667.372 292.586 668.85 290.291 669.448 C 287.997 670.046 290.778 669.241 289.125 669.671 C 287.473 670.101 283.524 671.28 280.374 672.028 C 277.224 672.775 273.803 673.465 270.224 674.156 C 266.647 674.848 262.466 675.654 258.907 676.177 C 255.348 676.701 252.062 676.999 248.873 677.298 C 245.683 677.597 243.68 677.951 239.772 677.97 C 235.864 677.989 229.914 677.784 225.423 677.411 C 220.931 677.037 216.575 676.439 212.822 675.728 C 209.068 675.018 205.958 674.12 202.905 673.148 C 199.852 672.176 197.151 671.074 194.506 669.896 C 191.862 668.719 189.429 667.429 187.038 666.083 C 184.646 664.737 181.923 662.998 180.154 661.82 C 178.385 660.643 165.728 655.533 164.619 655.682 L 163.094 654.767 Z" fill-rule="nonzero" style="transform-box: fill-box; transform-origin: 50% 50%;" transform="matrix(-1, 0, 0, -1, 0.000003, 0.000002)"/>
    <path fill="#ac0000" d="M 540.21 687.576 C 542.346 687.742 544.472 687.345 545.952 687.215 C 547.432 687.086 553.092 685.496 556.052 684.664 C 559.011 683.832 561.1 683.148 563.708 682.223 C 566.315 681.298 568.886 680.336 571.697 679.116 C 574.509 677.895 577.747 676.304 580.577 674.898 C 583.406 673.492 585.791 672.234 588.676 670.68 C 591.562 669.126 594.819 667.387 597.889 665.575 C 600.959 663.763 604.14 661.637 607.099 659.806 C 610.058 657.975 612.944 656.181 615.645 654.591 C 618.345 653 620.619 651.798 623.301 650.263 C 625.983 648.727 628.405 647.228 631.734 645.378 C 635.063 643.528 639.966 640.791 643.277 639.163 C 646.588 637.535 648.844 636.74 651.6 635.612 C 654.356 634.483 656.78 633.392 659.813 632.394 C 662.846 631.395 666.785 630.322 669.8 629.62 C 672.814 628.917 674.903 628.53 677.899 628.179 C 680.896 627.827 684.78 627.531 687.776 627.512 C 690.773 627.493 692.771 627.677 695.878 628.066 C 698.986 628.454 703.629 629.269 706.422 629.843 C 709.214 630.416 710.489 630.749 712.634 631.507 C 714.78 632.265 717 633.355 719.293 634.391 C 721.587 635.427 724.398 636.668 726.395 637.722 C 728.393 638.776 730.221 639.652 731.701 640.577 C 733.181 641.501 729.27 639.903 729.899 639.572 C 730.528 639.241 736.745 642.71 735.45 643.58 C 734.155 644.449 734.827 645.444 733.773 645.24 C 732.719 645.037 732.779 645.179 732.003 644.217 C 731.226 643.255 730.631 642.993 729.947 642.16 C 729.263 641.328 727.322 640.459 725.731 639.719 C 724.141 638.98 722.142 638.332 720.403 637.722 C 718.665 637.112 717.425 636.613 715.298 636.058 C 713.172 635.503 710.269 634.872 707.642 634.391 C 705.016 633.91 702.296 633.43 699.54 633.171 C 696.784 632.912 694.084 632.745 691.107 632.837 C 688.129 632.93 685.059 633.154 681.674 633.727 C 678.289 634.301 674.422 635.243 670.797 636.278 C 667.172 637.314 663.419 638.553 659.923 639.94 C 656.427 641.327 653.097 643.029 649.823 644.601 C 646.549 646.173 643.646 647.56 640.28 649.373 C 636.914 651.186 633.381 653.221 629.626 655.478 C 625.872 657.735 621.581 660.509 617.752 662.913 C 613.924 665.318 610.687 667.462 606.655 669.903 C 602.623 672.344 597.778 675.194 593.561 677.562 C 589.344 679.929 585.034 682.258 581.354 684.108 C 577.673 685.957 574.418 687.382 571.477 688.659 C 568.536 689.935 566.408 690.879 563.708 691.766 C 561.007 692.654 558.141 693.337 555.275 693.984 C 552.408 694.632 549.486 695.281 546.508 695.651 C 543.53 696.021 540.588 696.224 537.406 696.205 C 534.224 696.186 530.711 695.945 527.419 695.538 C 524.127 695.131 520.501 694.43 517.653 693.764 C 514.805 693.098 512.882 692.524 510.33 691.543 C 507.778 690.563 504.819 689.14 502.34 687.882 C 499.862 686.624 497.845 685.477 495.458 683.997 C 493.072 682.518 490.242 680.575 488.023 679.003 C 485.803 677.431 484.305 676.247 482.141 674.564 C 479.977 672.882 475.908 670.182 475.039 668.906 C 474.169 667.63 475.89 667.574 476.926 666.908 C 477.962 666.242 479.903 664.93 481.254 664.911 C 482.604 664.892 483.326 665.76 485.028 666.795 C 486.73 667.831 489.633 669.865 491.464 671.123 C 493.295 672.382 494.369 673.271 496.015 674.344 C 497.661 675.417 499.399 676.489 501.34 677.562 C 503.282 678.634 505.705 679.892 507.666 680.78 C 509.626 681.667 510.996 682.166 513.104 682.887 C 515.213 683.609 517.931 684.479 520.317 685.108 C 522.703 685.737 524.959 686.292 527.419 686.661 C 529.879 687.031 533.08 687.307 535.078 687.326 C 537.076 687.344 538.074 687.41 540.21 687.576 Z" fill-rule="nonzero" style="transform-box: fill-box; transform-origin: 50% 50%;" transform="matrix(-1, 0, 0, -1, 0.000028, -0.000031)"/>
  </g>
</svg>