<?xml version="1.0" encoding="utf-8"?>
<svg viewBox="238.057 6.278 1336.284 858.198" fill="none" stroke="none" stroke-linecap="square" stroke-miterlimit="10" xmlns="http://www.w3.org/2000/svg">
  <clipPath id="clip-2">
    <path d="m0 0l960.0 0l0 720.0l-960.0 0l0 -720.0z" clip-rule="nonzero"/>
  </clipPath>
  <clipPath id="clip-1">
    <path d="m0 0l960.0 0l0 720.0l-960.0 0l0 -720.0z" clip-rule="nonzero"/>
  </clipPath>
  <path style="stroke: rgb(172, 0, 0); fill: rgb(255, 255, 255);" d="M 394.393 143.569 L 427.219 135.188 L 480.299 133.093 L 572.49 107.251 L 626.269 79.314 L 692.618 61.854 L 754.778 66.044 L 843.477 104.457 L 893.065 117.727 L 952.431 116.331 L 1117.956 83.505 L 1173.83 71.632 L 1192.687 85.6 L 1249.957 103.061 L 1306.529 99.569 C 1306.529 99.569 1404.308 59.759 1404.308 59.06 C 1404.308 58.361 1477.642 33.917 1477.642 33.917 L 1516.753 34.616 L 1504.182 42.298 L 1497.198 50.679 L 1498.595 65.346 C 1498.595 65.346 1515.357 90.489 1514.658 90.489 C 1513.959 90.489 1536.309 133.093 1536.309 133.093 L 1545.389 164.522 L 1538.404 210.617 L 1511.166 258.11 L 1481.833 306.301 L 1480.436 351.698 L 1507.862 415.839 L 1490.214 439 L 1451.8 490.683 L 1442.6 551.714 L 1492.219 630.002 L 1469.959 642.939 L 1440.626 675.765 L 1432.245 705.098 L 1428.054 744.21 L 1389.641 749.099 L 1342.847 751.194 L 1236.687 784.718 L 1186.401 757.48 L 1122.845 755.384 C 1122.845 755.384 1020.876 795.893 1020.177 795.893 C 1019.478 795.893 934.97 767.258 934.97 767.258 L 862.334 769.353 L 643.031 812.655 L 617.189 795.893 L 559.22 780.528 L 511.029 786.813 L 476.108 797.988 C 476.108 797.988 442.584 816.147 441.886 816.147 C 441.188 816.147 365.06 844.782 365.06 844.782 L 324.551 851.068 C 324.551 851.068 299.408 847.576 300.107 847.576 C 300.806 847.576 320.361 837.1 320.361 837.1 L 323.155 823.131 C 323.155 823.131 283.345 755.384 283.345 754.686 C 283.345 753.988 279.154 692.527 279.154 692.527 L 294.519 651.32 L 328.742 602.431 L 339.917 545.859 L 327.345 499.064 L 311.281 468.334 L 357.377 411.064 L 381.822 342.619 C 381.822 342.619 365.758 304.205 365.758 303.507 C 365.758 302.809 328.742 258.808 328.742 258.808 L 344.806 242.046 L 380.425 209.919 C 380.425 209.919 391.6 167.315 391.6 165.918 C 391.6 164.521 393.695 144.267 394.393 143.569 Z" transform="matrix(1, 0, 0, 1, -5.684341886080802e-14, 0)"/>
  <g clip-path="url(#clip-2)" transform="matrix(1.519122123718, 0, 0, 1.14216697216, 374.098022460938, 84.071632411731)" style="transform-origin: 480px 361.044px;">
    <path fill="#ac0000" d="M 803.563 653.348 C 804.761 652.91 807.553 649.931 808.626 649.035 C 809.699 648.139 809.949 648.316 810.001 647.972 C 810.053 647.628 809.584 647.514 808.938 646.972 C 808.292 646.431 807.364 645.692 806.124 644.723 C 804.885 643.754 803.166 642.346 801.5 641.159 C 799.833 639.971 797.885 638.722 796.124 637.597 C 794.364 636.472 792.771 635.418 790.938 634.408 C 789.105 633.397 786.843 632.346 785.124 631.534 C 783.406 630.722 782.178 630.159 780.626 629.534 C 779.074 628.909 777.323 628.294 775.812 627.783 C 774.302 627.273 772.865 626.835 771.563 626.471 C 770.261 626.106 769.012 625.836 768.001 625.597 C 766.991 625.358 766.687 625.243 765.5 625.035 C 764.312 624.827 762.271 624.546 760.875 624.348 C 759.479 624.149 758.624 623.982 757.124 623.846 C 755.624 623.711 753.354 623.586 751.875 623.534 C 750.396 623.482 749.677 623.534 748.25 623.534 C 746.823 623.534 744.907 623.461 743.313 623.534 C 741.72 623.607 740.522 623.701 738.689 623.972 C 736.855 624.243 734.532 624.721 732.313 625.159 C 730.095 625.596 727.47 626.086 725.376 626.597 C 723.283 627.107 721.565 627.648 719.752 628.222 C 717.939 628.795 716.01 629.514 714.5 630.035 C 712.989 630.556 711.939 630.869 710.689 631.348 C 709.439 631.827 708.451 632.288 707.492 632.725 C 706.534 633.163 704.747 634.17 704.57 633.972 C 704.393 633.774 702.145 635.165 701.082 635.79 C 700.02 636.415 698.583 636.946 696.999 637.602 C 695.416 638.258 696.094 638.024 692.563 639.972 C 689.032 641.92 681.293 646.305 675.752 649.597 C 670.21 652.889 663.939 656.848 659.313 659.723 C 654.688 662.598 651.199 664.867 648.001 666.846 C 644.803 668.825 642.458 670.211 640.124 671.597 C 637.791 672.982 636.095 674.013 634.001 675.159 C 631.907 676.304 629.844 677.356 627.563 678.471 C 625.281 679.586 622.522 680.95 620.313 681.846 C 618.105 682.742 616.022 683.325 614.313 683.846 C 612.605 684.367 609.453 685.219 608.479 685.45 C 607.505 685.681 601.894 686.619 600.418 686.699 C 598.942 686.779 587.635 689.229 587.6 688.488 C 587.565 687.747 587.709 691.255 587.865 692.171 C 588.021 693.088 588.215 696.075 587.963 696.649 C 587.711 697.223 600.813 695.529 603.037 695.226 C 605.261 694.923 611.778 694.008 613.577 693.843 C 615.376 693.678 619.418 692.242 621.626 691.471 C 623.834 690.7 625.114 690.212 627.187 689.348 C 629.26 688.483 631.803 687.399 634.064 686.285 C 636.325 685.17 637.169 684.649 640.752 682.66 C 644.335 680.67 649.636 677.9 655.563 674.348 C 661.49 670.795 670.668 664.827 676.313 661.348 C 681.959 657.868 685.676 655.627 689.437 653.471 C 693.197 651.314 695.792 650.002 698.875 648.408 C 701.959 646.814 705.042 645.222 707.938 643.909 C 710.834 642.597 713.688 641.523 716.25 640.534 C 718.813 639.544 720.657 638.806 723.313 637.972 C 725.97 637.139 729.719 636.169 732.187 635.534 C 734.656 634.898 736.083 634.523 738.124 634.159 C 740.166 633.794 742.166 633.535 744.437 633.348 C 746.708 633.16 749.033 632.983 751.752 633.035 C 754.471 633.087 757.846 633.274 760.752 633.66 C 763.658 634.045 766.823 634.764 769.187 635.348 C 771.552 635.931 772.844 636.409 774.938 637.159 C 777.032 637.908 779.523 638.857 781.752 639.846 C 783.981 640.836 786.439 642.085 788.313 643.096 C 790.188 644.106 791.303 644.847 793.001 645.909 C 794.699 646.972 797.094 648.512 798.5 649.471 C 799.906 650.429 800.593 651.014 801.437 651.66 C 802.281 652.306 802.365 653.785 803.563 653.348 Z" fill-rule="nonzero" style="transform-box: fill-box; transform-origin: 50% 50%;" transform="matrix(-1, 0, 0, -1, 0.00006, 0.00007)"/>
    <path fill="#ac0000" d="M 877.141 698.597 C 876.974 699.44 875.277 699.545 873.892 700.347 C 872.506 701.15 869.922 703.025 868.829 703.41 C 867.735 703.796 868.226 703.514 867.33 702.66 C 866.435 701.805 865.175 700.034 863.456 698.284 C 861.737 696.535 859.07 694.015 857.018 692.161 C 854.965 690.307 852.974 688.588 851.141 687.161 C 849.308 685.734 847.674 684.701 846.018 683.597 C 844.362 682.493 842.464 681.307 841.204 680.536 C 839.944 679.766 839.758 679.649 838.456 678.972 C 837.154 678.295 835.06 677.244 833.393 676.473 C 831.726 675.703 830.05 674.993 828.456 674.347 C 826.862 673.701 825.464 673.138 823.829 672.597 C 822.193 672.055 820.538 671.577 818.642 671.098 C 816.747 670.619 814.31 670.077 812.456 669.723 C 810.602 669.368 809.236 669.18 807.516 668.972 C 805.797 668.764 803.912 668.577 802.141 668.473 C 800.37 668.369 798.642 668.337 796.892 668.347 C 795.142 668.358 793.392 668.401 791.642 668.536 C 789.893 668.672 788.143 668.88 786.393 669.161 C 784.643 669.442 782.943 669.787 781.141 670.224 C 779.339 670.661 777.433 671.203 775.579 671.786 C 773.726 672.369 771.82 673.025 770.018 673.723 C 768.216 674.42 766.519 675.087 764.768 675.972 C 763.018 676.857 761.235 677.931 759.516 679.035 C 757.798 680.139 756.216 681.274 754.456 682.597 C 752.696 683.919 750.486 685.607 748.955 686.972 C 747.423 688.337 746.371 689.494 745.267 690.786 C 744.163 692.077 743.153 693.921 742.33 694.723 C 741.507 695.524 741.257 695.315 740.33 695.597 C 739.403 695.878 737.904 696.129 736.768 696.41 C 735.633 696.692 734.611 697.014 733.516 697.284 C 732.422 697.555 731.058 697.837 730.204 698.035 C 729.35 698.233 728.331 698.88 728.393 698.473 C 728.456 698.067 729.35 697.201 730.579 695.597 C 731.809 693.993 734.394 690.557 735.768 688.849 C 737.143 687.14 737.506 686.723 738.829 685.347 C 740.152 683.972 742.153 682.024 743.705 680.597 C 745.257 679.17 746.474 678.098 748.141 676.786 C 749.808 675.473 751.914 673.921 753.705 672.723 C 755.497 671.524 756.913 670.69 758.892 669.597 C 760.871 668.503 763.632 667.067 765.579 666.161 C 767.527 665.255 768.746 664.828 770.579 664.161 C 772.413 663.494 774.569 662.734 776.579 662.161 C 778.59 661.588 780.611 661.129 782.642 660.723 C 784.674 660.316 786.654 660.004 788.768 659.723 C 790.883 659.441 793.455 659.17 795.33 659.035 C 797.205 658.9 797.976 658.849 800.018 658.912 C 802.059 658.974 805.298 659.171 807.579 659.41 C 809.861 659.65 811.612 659.993 813.705 660.347 C 815.799 660.702 817.974 661.026 820.141 661.536 C 822.308 662.047 824.132 662.556 826.705 663.41 C 829.278 664.264 833.257 665.733 835.579 666.66 C 837.902 667.587 838.913 668.118 840.642 668.972 C 842.372 669.826 844.017 670.671 845.955 671.786 C 847.892 672.9 850.184 674.253 852.267 675.66 C 854.351 677.066 856.727 678.932 858.456 680.224 C 860.185 681.516 861.111 682.14 862.642 683.41 C 864.174 684.681 866.132 686.442 867.642 687.849 C 869.153 689.255 870.497 690.609 871.705 691.849 C 872.914 693.088 873.986 694.16 874.892 695.284 C 875.798 696.409 877.308 697.753 877.141 698.597 Z" fill-rule="nonzero" style="transform-box: fill-box; transform-origin: 50% 50%;" transform="matrix(-1, 0, 0, -1, 0.000013, -0.000005)"/>
    <path fill="#ac0000" d="M 817.503 616.843 C 817.18 617.228 817.949 618.644 818.251 619.78 C 818.553 620.915 819.085 622.761 819.314 623.656 C 819.543 624.552 819.251 624.728 819.626 625.155 C 820.001 625.582 820.74 625.843 821.563 626.218 C 822.386 626.593 823.417 626.821 824.563 627.404 C 825.709 627.988 827.252 628.904 828.44 629.717 C 829.627 630.53 830.679 631.323 831.689 632.281 C 832.7 633.24 833.628 634.353 834.503 635.467 C 835.378 636.582 836.199 637.688 836.938 638.969 C 837.678 640.25 838.407 641.832 838.938 643.155 C 839.47 644.478 839.742 645.354 840.127 646.906 C 840.513 648.458 840.99 650.728 841.251 652.467 C 841.511 654.207 841.595 655.602 841.689 657.341 C 841.783 659.081 841.846 661.166 841.815 662.906 C 841.784 664.646 841.607 666.145 841.503 667.78 C 841.398 669.415 841.313 671.185 841.188 672.717 C 841.063 674.248 840.866 675.937 840.752 676.969 C 840.638 678 840.003 678.489 840.503 678.906 C 841.003 679.322 842.575 679.374 843.752 679.467 C 844.929 679.561 846.678 679.509 847.563 679.467 C 848.448 679.426 848.773 679.53 849.064 679.218 C 849.356 678.906 849.116 679.24 849.314 677.593 C 849.511 675.947 850.011 671.727 850.251 669.341 C 850.49 666.956 850.679 665.51 850.752 663.281 C 850.825 661.052 850.783 658.323 850.689 655.969 C 850.595 653.614 850.469 651.239 850.188 649.155 C 849.906 647.072 849.439 645.207 849.001 643.467 C 848.564 641.728 848.271 640.404 847.563 638.717 C 846.855 637.029 845.815 635.029 844.752 633.341 C 843.69 631.654 842.396 629.937 841.188 628.593 C 839.98 627.25 838.794 626.281 837.503 625.281 C 836.211 624.281 834.94 623.437 833.44 622.593 C 831.94 621.75 829.972 620.864 828.503 620.218 C 827.034 619.572 826.012 619.175 824.626 618.717 C 823.24 618.258 821.375 617.78 820.188 617.467 C 819.001 617.155 817.826 616.457 817.503 616.843 Z" fill-rule="nonzero" style="transform-box: fill-box; transform-origin: 50% 50%;" transform="matrix(-1, 0, 0, -1, 0.000062, 0.000061)"/>
    <path fill="#ac0000" d="M 924.486 672.716 C 924.486 672.143 923.413 670.246 923.048 669.215 C 922.683 668.184 922.558 667.342 922.297 666.53 C 922.037 665.718 921.621 664.831 921.486 664.341 C 921.351 663.851 921.643 663.726 921.486 663.59 C 921.33 663.455 921.484 663.52 920.547 663.53 C 919.609 663.541 917.632 663.549 915.862 663.653 C 914.091 663.758 912.027 663.884 909.922 664.155 C 907.817 664.426 905.547 664.81 903.234 665.278 C 900.922 665.747 898.642 666.185 896.048 666.966 C 893.454 667.747 890.121 668.997 887.673 669.966 C 885.225 670.935 883.329 671.81 881.36 672.779 C 879.392 673.748 877.653 674.707 875.862 675.779 C 874.07 676.852 872.276 678.007 870.61 679.215 C 868.943 680.423 867.174 681.904 865.862 683.029 C 864.549 684.154 863.517 685.226 862.736 685.966 C 861.954 686.706 861.258 686.988 861.174 687.467 C 861.09 687.947 861.568 688.228 862.234 688.842 C 862.901 689.457 864.226 690.373 865.174 691.155 C 866.122 691.936 867.266 692.978 867.922 693.53 C 868.578 694.082 868.674 694.405 869.111 694.467 C 869.548 694.529 869.63 694.632 870.547 693.903 C 871.463 693.174 873.276 691.258 874.61 690.092 C 875.943 688.925 877.182 687.934 878.547 686.903 C 879.911 685.871 881.361 684.84 882.799 683.903 C 884.237 682.965 885.726 682.049 887.174 681.278 C 888.622 680.507 890.07 679.924 891.486 679.278 C 892.903 678.632 894.183 677.987 895.673 677.404 C 897.162 676.821 898.871 676.248 900.423 675.779 C 901.975 675.31 903.464 674.945 904.985 674.59 C 906.506 674.236 908.286 673.893 909.547 673.653 C 910.807 673.414 911.442 673.3 912.547 673.155 C 913.651 673.009 914.903 672.852 916.174 672.779 C 917.445 672.706 919.028 672.737 920.174 672.716 C 921.32 672.695 922.329 672.653 923.048 672.653 C 923.767 672.653 924.486 673.289 924.486 672.716 Z" fill-rule="nonzero" style="transform-box: fill-box; transform-origin: 50% 50%;" transform="matrix(-1, 0, 0, -1, 0.000058, -0.000009)"/>
    <path fill="#ac0000" d="M 949.453 629.617 C 949.359 630.477 947.116 631.73 946.088 632.646 C 945.06 633.562 944.013 634.459 943.285 635.113 C 942.556 635.767 942.22 636.476 941.715 636.57 C 941.21 636.663 941.265 636.251 940.256 635.672 C 939.247 635.093 936.987 633.711 935.66 633.095 C 934.333 632.478 933.529 632.401 932.295 631.971 C 931.061 631.541 929.733 630.832 928.256 630.514 C 926.779 630.197 924.911 630.178 923.434 630.066 C 921.958 629.954 920.725 629.787 919.398 629.843 C 918.07 629.899 916.892 630.103 915.471 630.402 C 914.05 630.7 912.312 631.149 910.873 631.635 C 909.433 632.121 907.976 632.776 906.836 633.318 C 905.696 633.86 905.248 634.084 904.033 634.887 C 902.818 635.691 900.912 636.962 899.547 638.139 C 898.183 639.317 896.837 640.85 895.846 641.953 C 894.856 643.056 894.387 643.69 893.602 644.756 C 892.817 645.822 891.789 647.169 891.135 648.347 C 890.481 649.524 890.164 650.513 889.678 651.822 C 889.192 653.13 888.593 654.814 888.219 656.197 C 887.845 657.58 887.64 658.588 887.434 660.121 C 887.229 661.654 886.911 663.244 886.985 665.394 C 887.06 667.543 887.509 671 887.883 673.018 C 888.257 675.037 888.463 675.747 889.23 677.504 C 889.996 679.261 891.323 681.749 892.482 683.562 C 893.64 685.375 894.855 686.851 896.182 688.383 C 897.51 689.916 899.08 691.485 900.445 692.756 C 901.809 694.027 902.985 694.945 904.369 696.011 C 905.752 697.076 907.361 698.234 908.744 699.15 C 910.127 700.065 910.474 700.558 911.82 701.343 C 913.165 702.128 913.646 706.645 914.396 708.209 C 915.146 709.773 914.813 712.977 913.392 712.379 C 911.972 711.781 911.526 712.252 909.115 711.056 C 906.703 709.86 907.865 709.936 905.379 708.459 C 902.893 706.983 900.854 705.373 898.873 703.971 C 896.891 702.569 895.153 701.43 893.489 700.047 C 891.826 698.664 890.258 697.093 888.894 695.672 C 887.529 694.251 886.313 692.868 885.303 691.522 C 884.293 690.177 883.733 689.075 882.836 687.598 C 881.939 686.122 880.742 684.384 879.92 682.664 C 879.097 680.944 878.499 679.094 877.901 677.281 C 877.304 675.468 876.706 673.729 876.332 671.785 C 875.958 669.841 875.679 668.009 875.66 665.617 C 875.641 663.224 875.883 659.805 876.219 657.43 C 876.555 655.056 877.006 653.429 877.678 651.373 C 878.351 649.317 879.359 646.963 880.256 645.095 C 881.153 643.226 882.09 641.656 883.062 640.16 C 884.034 638.665 884.836 637.579 886.088 636.121 C 887.34 634.663 889.153 632.758 890.573 631.412 C 891.994 630.067 893.192 629.057 894.613 628.047 C 896.034 627.038 897.64 626.158 899.098 625.354 C 900.556 624.551 901.791 623.899 903.361 623.226 C 904.931 622.553 906.911 621.841 908.518 621.318 C 910.125 620.794 911.321 620.364 913.004 620.084 C 914.686 619.804 916.744 619.729 918.613 619.635 C 920.482 619.542 922.387 619.392 924.219 619.522 C 926.051 619.653 927.565 619.971 929.602 620.42 C 931.64 620.869 934.407 621.505 936.445 622.215 C 938.482 622.926 940.127 623.804 941.828 624.682 C 943.529 625.561 945.379 626.663 946.65 627.486 C 947.92 628.308 949.546 628.757 949.453 629.617 Z" fill-rule="nonzero" style="transform-box: fill-box; transform-origin: 50% 50%;" transform="matrix(-1, 0, 0, -1, 0.000023, 0.000012)"/>
    <path fill="#ac0000" d="M 879.214 596.673 C 877.458 596.841 869.832 600.168 867.663 601.607 C 865.495 603.047 866.615 603.778 866.204 605.311 C 865.793 606.843 865.364 608.823 865.196 610.804 C 865.028 612.785 865.14 614.899 865.196 617.198 C 865.252 619.497 865.214 622.039 865.532 624.599 C 865.85 627.16 866.354 630.077 867.102 632.563 C 867.849 635.049 868.877 637.347 870.018 639.515 C 871.158 641.683 872.505 643.701 873.944 645.571 C 875.383 647.44 877.046 649.273 878.653 650.731 C 880.26 652.189 881.867 653.309 883.587 654.319 C 885.307 655.328 887.232 656.113 888.97 656.786 C 890.709 657.459 892.354 657.888 894.018 658.355 C 895.681 658.822 897.232 659.271 898.952 659.589 C 900.672 659.907 902.634 660.151 904.335 660.263 C 906.036 660.376 908.224 660.918 909.159 660.263 C 910.094 659.609 909.645 657.889 909.944 656.337 C 910.243 654.785 911.345 651.851 910.952 650.954 C 910.559 650.057 908.97 651.047 907.587 650.954 C 906.204 650.861 904.316 650.731 902.653 650.395 C 900.99 650.058 899.309 649.534 897.608 648.935 C 895.907 648.337 894.056 647.627 892.448 646.804 C 890.84 645.982 889.364 645.104 887.962 644.001 C 886.56 642.898 885.158 641.515 884.036 640.187 C 882.914 638.86 882.036 637.365 881.233 636.038 C 880.429 634.71 879.868 633.775 879.214 632.224 C 878.56 630.673 877.739 628.506 877.309 626.731 C 876.879 624.955 876.822 623.253 876.634 621.571 C 876.447 619.888 876.223 618.206 876.186 616.636 C 876.148 615.066 876.206 613.982 876.411 612.151 C 876.617 610.319 877.12 607.572 877.419 605.647 C 877.718 603.721 877.905 602.095 878.204 600.599 C 878.503 599.104 880.971 596.505 879.214 596.673 Z" fill-rule="nonzero" style="transform-box: fill-box; transform-origin: 50% 50%;" transform="matrix(-1, 0, 0, -1, -0.00006, 0.000003)"/>
    <path fill="#ac0000" d="M 886.789 617.093 C 887.349 618.289 887.759 623.374 887.684 624.944 C 887.609 626.514 887.405 626.064 886.34 626.513 C 885.275 626.962 883.05 627.263 881.293 627.637 C 879.536 628.011 877.909 628.346 875.797 628.757 C 873.685 629.168 871.369 629.655 868.621 630.104 C 865.873 630.552 862.003 631.13 859.311 631.448 C 856.62 631.765 854.714 631.841 852.471 632.009 C 850.229 632.178 848.229 632.346 845.855 632.458 C 843.481 632.57 840.265 632.703 838.227 632.684 C 836.19 632.665 834.713 632.663 833.629 632.345 C 832.545 632.027 832.191 631.804 831.723 630.776 C 831.256 629.748 831.031 627.28 830.826 626.177 C 830.62 625.074 829.705 624.476 830.49 624.159 C 831.275 623.841 833.236 624.234 835.534 624.272 C 837.833 624.309 841.628 624.422 844.282 624.385 C 846.937 624.347 849.012 624.233 851.461 624.046 C 853.91 623.859 856.695 623.542 858.975 623.261 C 861.256 622.981 862.657 622.793 865.143 622.364 C 867.629 621.934 871.275 621.263 873.891 620.684 C 876.508 620.105 879.106 619.375 880.844 618.888 C 882.583 618.402 883.331 618.067 884.322 617.768 C 885.313 617.469 886.229 615.897 886.789 617.093 Z" fill-rule="nonzero" style="transform-box: fill-box; transform-origin: 50% 50%;" transform="matrix(-1, 0, 0, -1, -0.000061, -0.00006)"/>
    <path fill="#ac0000" d="M 888.838 534.277 C 889.791 533.249 893.416 523.504 894.668 523.279 C 895.92 523.055 895.77 523.055 896.35 522.943 C 896.93 522.831 897.827 522.383 898.145 522.608 C 898.463 522.832 898.277 522.907 898.258 524.29 C 898.239 525.673 897.912 546.163 897.799 549.172 C 897.687 552.181 897.481 557.227 897.351 560.61 C 897.22 563.993 897.257 566.219 897.015 569.471 C 896.772 572.723 896.305 577.115 895.894 580.124 C 895.483 583.134 895.089 585.133 894.547 587.526 C 894.005 589.919 893.352 592.145 892.642 594.481 C 891.931 596.818 891.295 599.133 890.285 601.544 C 889.275 603.956 888.079 606.331 886.584 608.949 C 885.089 611.566 883.108 614.706 881.314 617.248 C 879.519 619.79 877.5 622.238 875.818 624.201 C 874.136 626.163 873.353 627.022 871.222 629.022 C 869.091 631.022 865.033 634.443 863.033 636.201 C 861.033 637.958 860.082 639.229 859.222 639.565 C 858.362 639.902 858.436 638.929 857.876 638.219 C 857.315 637.509 856.549 636.331 855.857 635.303 C 855.166 634.275 853.595 632.967 853.726 632.051 C 853.857 631.135 855.147 631.19 856.642 629.807 C 858.137 628.424 860.361 626.238 862.697 623.752 C 865.033 621.266 868.455 617.713 870.66 614.891 C 872.866 612.068 874.566 608.985 875.931 606.817 C 877.295 604.649 877.819 603.827 878.847 601.883 C 879.875 599.939 881.164 597.453 882.099 595.153 C 883.033 592.854 883.764 590.63 884.456 588.088 C 885.147 585.546 885.725 582.518 886.248 579.901 C 886.771 577.285 887.295 574.854 887.595 572.387 C 887.894 569.92 887.913 567.809 888.043 565.098 C 888.174 562.388 888.267 559.022 888.379 556.124 C 888.491 553.227 888.678 549.977 888.715 547.715 C 888.753 545.453 887.885 535.305 888.838 534.277 Z" fill-rule="nonzero" style="transform-box: fill-box; transform-origin: 50% 50%;" transform="matrix(-1, 0, 0, -1, -0.000062, 0.00006)"/>
    <path fill="#ac0000" d="M 893.251 446.741 C 894.186 448.274 895.084 449.003 896.28 450.106 C 897.477 451.209 901.196 456.106 903.346 458.741 C 905.495 461.376 907.028 463.225 909.178 465.917 C 911.328 468.608 914.132 472.068 916.244 474.891 C 918.355 477.713 920.448 480.835 921.85 482.854 C 923.251 484.873 923.513 485.228 924.653 487.003 C 925.793 488.779 927.362 491.115 928.69 493.507 C 930.017 495.9 931.233 498.461 932.616 501.358 C 933.999 504.255 935.811 507.9 936.989 510.891 C 938.167 513.881 938.859 516.16 939.682 519.3 C 940.504 522.44 941.381 526.684 941.923 529.73 C 942.465 532.777 942.765 534.945 942.934 537.581 C 943.102 540.216 943.009 542.553 942.934 545.544 C 942.859 548.535 942.821 552.46 942.485 555.526 C 942.149 558.591 941.532 560.985 940.915 563.938 C 940.299 566.891 939.495 570.666 938.784 573.245 C 938.074 575.824 937.719 576.572 936.653 579.413 C 935.587 582.254 933.643 587.264 932.39 590.292 C 931.138 593.32 930.353 595.132 929.139 597.581 C 927.924 600.029 926.616 602.272 925.102 604.982 C 923.588 607.693 921.475 611.451 920.055 613.843 C 918.634 616.236 917.85 617.489 916.579 619.339 C 915.309 621.19 912.953 623.619 912.43 624.946 C 911.906 626.272 913.008 626.141 913.438 627.3 C 913.868 628.459 914.655 630.758 915.01 631.898 C 915.365 633.039 915.158 634.199 915.569 634.143 C 915.98 634.087 916.094 633.507 917.477 631.563 C 918.86 629.618 921.756 625.637 923.868 622.478 C 925.98 619.32 928.205 615.769 930.149 612.61 C 932.093 609.451 933.644 607.003 935.532 603.526 C 937.42 600.049 939.869 595.226 941.477 591.749 C 943.085 588.272 943.982 586.029 945.178 582.665 C 946.374 579.3 947.625 575.207 948.653 571.563 C 949.681 567.918 950.747 563.712 951.346 560.796 C 951.944 557.88 951.945 557.02 952.244 554.066 C 952.542 551.113 953.12 547.17 953.139 543.077 C 953.157 538.984 952.858 533.582 952.354 529.507 C 951.849 525.433 951.009 522.217 950.112 518.628 C 949.215 515.039 948.092 511.115 946.971 507.975 C 945.849 504.835 944.485 502.181 943.383 499.788 C 942.28 497.396 941.831 496.331 940.354 493.62 C 938.877 490.91 936.634 486.891 934.522 483.526 C 932.41 480.161 929.962 476.665 927.682 473.431 C 925.401 470.198 923.531 467.619 920.839 464.124 C 918.148 460.629 914.205 455.787 911.532 452.46 C 908.859 449.133 907.046 446.946 904.803 444.161 C 902.559 441.376 900.465 438.833 898.073 435.749 C 895.681 432.665 892.822 428.947 890.448 425.657 C 888.075 422.367 885.645 418.946 883.831 416.011 C 882.018 413.076 880.821 410.646 879.569 408.048 C 878.317 405.45 877.233 402.928 876.317 400.423 C 875.401 397.919 874.653 395.452 874.073 393.022 C 873.493 390.592 873.026 388.498 872.839 385.843 C 872.653 383.189 872.765 379.712 872.952 377.095 C 873.139 374.479 873.421 372.367 873.963 370.143 C 874.505 367.918 875.326 366.01 876.204 363.749 C 877.083 361.487 878.953 357.956 879.233 356.573 C 879.513 355.19 878.672 356.16 877.887 355.45 C 877.101 354.739 875.718 353.339 874.522 352.311 C 873.326 351.283 871.551 349.338 870.711 349.282 C 869.87 349.226 870.206 350.273 869.477 351.975 C 868.748 353.676 867.139 357.452 866.335 359.489 C 865.531 361.526 865.27 362.086 864.653 364.198 C 864.036 366.31 863.102 369.881 862.635 372.161 C 862.167 374.441 861.962 375.469 861.85 377.88 C 861.738 380.291 861.72 383.75 861.963 386.628 C 862.205 389.507 862.746 392.459 863.307 395.15 C 863.867 397.842 864.281 399.843 865.328 402.778 C 866.374 405.713 868.223 409.899 869.587 412.759 C 870.952 415.619 872.205 417.788 873.514 419.938 C 874.822 422.087 875.905 423.414 877.438 425.657 C 878.971 427.9 880.935 430.983 882.711 433.395 C 884.487 435.806 886.337 437.9 888.094 440.124 C 889.851 442.349 892.317 445.208 893.251 446.741 Z" fill-rule="nonzero" style="transform-box: fill-box; transform-origin: 50% 50%;" transform="matrix(-1, 0, 0, -1, 0.000048, 0.000043)"/>
    <path fill="#ac0000" d="M 906.619 336.506 C 907.629 337.945 912.265 359.61 913.798 360.17 C 915.331 360.73 912.787 331.965 911.554 332.918 C 910.32 333.871 909.461 336.694 908.415 336.283 C 907.368 335.872 906.17 332.582 905.273 330.451 C 904.376 328.32 903.629 326.115 903.031 323.498 C 902.433 320.881 901.909 317.479 901.685 314.75 C 901.461 312.021 901.61 309.758 901.685 307.123 C 901.76 304.487 901.928 301.404 902.134 298.936 C 902.339 296.469 902.47 294.787 902.919 292.32 C 903.367 289.852 904.207 286.451 904.824 284.133 C 905.441 281.816 905.965 280.227 906.619 278.414 C 907.274 276.601 907.909 275.048 908.751 273.254 C 909.592 271.46 910.657 269.554 911.667 267.648 C 912.676 265.741 913.834 263.592 914.806 261.816 C 915.778 260.04 916.134 259.122 917.499 256.991 C 918.863 254.861 922.266 250.862 922.995 249.031 C 923.723 247.199 922.32 247.03 921.871 246.002 C 921.423 244.974 920.806 243.816 920.302 242.863 C 919.797 241.91 919.368 240.302 918.845 240.283 C 918.322 240.264 918.284 240.713 917.163 242.75 C 916.041 244.787 913.517 249.758 912.115 252.506 C 910.713 255.253 909.891 256.843 908.751 259.236 C 907.61 261.628 906.395 264.19 905.273 266.863 C 904.151 269.536 902.993 272.599 902.021 275.272 C 901.049 277.945 900.039 280.582 899.441 282.9 C 898.843 285.218 898.751 286.358 898.433 289.18 C 898.115 292.003 897.741 296.862 897.535 299.834 C 897.33 302.806 897.199 304.935 897.199 307.01 C 897.199 309.085 897.311 310.189 897.535 312.283 C 897.76 314.376 898.097 317.347 898.546 319.572 C 898.995 321.796 899.444 323.629 900.228 325.629 C 901.013 327.629 902.189 329.759 903.255 331.572 C 904.32 333.384 905.61 335.067 906.619 336.506 Z" fill-rule="nonzero" style="transform-box: fill-box; transform-origin: 50% 50%;" transform="matrix(-1, 0, 0, -1, 0.00006, -0.000051)"/>
    <path fill="#ac0000" d="M 918.373 2.02 C 919.962 2.525 923.963 6.356 924.767 7.739 C 925.571 9.122 924.412 8.824 923.198 10.319 C 921.983 11.814 919.254 14.504 917.478 16.71 C 915.702 18.916 913.943 21.497 912.541 23.553 C 911.139 25.609 910.243 26.972 909.066 29.046 C 907.889 31.12 906.469 33.961 905.478 35.999 C 904.488 38.036 903.813 39.514 903.121 41.272 C 902.43 43.029 901.927 44.58 901.329 46.542 C 900.731 48.504 900.094 50.71 899.534 53.046 C 898.973 55.382 898.207 58.616 897.964 60.56 C 897.721 62.504 896.993 64.371 897.033 64.71 C 897.073 65.049 896.54 70.581 896.572 70.896 C 896.604 71.211 896.553 77.254 896.674 77.482 C 896.795 77.71 897.179 79.926 897.515 83.104 C 897.852 86.281 898.729 92.486 899.308 96.112 C 899.887 99.738 900.28 101.85 900.99 104.86 C 901.701 107.869 902.598 110.955 903.57 114.169 C 904.542 117.384 905.813 121.139 906.822 124.148 C 907.832 127.158 908.618 129.383 909.628 132.224 C 910.638 135.066 910.974 136.41 912.88 141.196 C 914.786 145.981 918.936 155.908 921.066 160.936 C 923.197 165.964 924.3 168.149 925.665 171.364 C 927.029 174.578 927.757 176.561 929.253 180.224 C 930.748 183.888 933.084 189.308 934.636 193.345 C 936.188 197.382 937.422 201.064 938.562 204.448 C 939.703 207.831 940.619 210.654 941.478 213.644 C 942.338 216.635 942.972 219.252 943.72 222.392 C 944.467 225.533 945.553 229.702 945.964 232.487 C 946.375 235.272 946.094 236.674 946.187 239.104 C 946.28 241.533 946.485 244.541 946.523 247.064 C 946.561 249.587 946.6 251.42 946.413 254.243 C 946.226 257.065 945.87 260.727 945.402 263.999 C 944.935 267.27 944.168 271.01 943.607 273.87 C 943.046 276.73 942.747 278.355 942.037 281.159 C 941.327 283.962 940.356 287.589 939.347 290.692 C 938.338 293.794 937.235 296.636 935.982 299.776 C 934.73 302.916 933.235 306.485 931.833 309.532 C 930.431 312.578 929.29 314.804 927.57 318.056 C 925.851 321.309 923.16 325.999 921.515 329.046 C 919.87 332.093 918.823 334.15 917.702 336.337 C 916.58 338.525 915.757 340.132 914.785 342.169 C 913.813 344.207 912.767 346.43 911.869 348.56 C 910.972 350.691 909.925 353.608 909.402 354.954 C 908.879 356.3 908.768 356.001 908.73 356.637 C 908.693 357.272 908.862 357.775 909.179 358.765 C 909.497 359.755 909.926 361.326 910.636 362.579 C 911.346 363.831 910.712 367.813 909.964 366.841 C 909.216 365.869 908.768 365.008 908.282 364.148 C 907.796 363.288 907.534 360.821 907.048 361.681 C 906.562 362.541 905.852 366.579 905.366 369.308 C 904.88 372.038 904.431 374.673 904.132 378.056 C 903.833 381.44 903.589 386.112 903.57 389.608 C 903.551 393.103 903.739 395.869 904.019 399.028 C 904.299 402.186 904.692 405.252 905.253 408.56 C 905.813 411.869 906.655 415.756 907.384 418.878 C 908.113 422 908.581 423.907 909.628 427.29 C 910.675 430.673 912.394 435.794 913.665 439.177 C 914.936 442.56 915.963 444.617 917.253 447.589 C 918.542 450.561 920.113 454.131 921.402 457.009 C 922.692 459.888 923.757 462.056 924.99 464.86 C 926.224 467.663 927.663 470.822 928.804 473.831 C 929.944 476.84 931.141 480.223 931.833 482.915 C 932.524 485.606 932.748 487.849 932.953 489.98 C 933.159 492.112 933.309 493.758 933.066 495.702 C 932.824 497.646 932.263 499.925 931.497 501.644 C 930.73 503.364 929.571 504.804 928.468 506.02 C 927.365 507.235 926.244 508.207 924.88 508.936 C 923.516 509.665 921.945 510.206 920.282 510.392 C 918.618 510.579 916.412 510.468 914.898 510.056 C 913.384 509.645 912.319 508.972 911.198 507.925 C 910.076 506.878 908.916 505.533 908.169 503.776 C 907.421 502.018 906.936 499.157 906.712 497.382 C 906.488 495.606 906.71 494.412 906.822 493.122 C 906.934 491.832 907.197 489.046 907.384 489.644 C 907.571 490.242 907.59 494.785 907.946 496.71 C 908.301 498.635 908.712 499.812 909.515 501.196 C 910.319 502.579 911.403 504.112 912.767 505.009 C 914.132 505.906 915.982 506.523 917.702 506.579 C 919.421 506.635 921.59 506.112 923.085 505.345 C 924.58 504.579 925.757 503.12 926.673 501.98 C 927.589 500.84 928.113 499.683 928.581 498.505 C 929.048 497.328 929.348 496.485 929.478 494.915 C 929.609 493.344 929.684 491.083 929.366 489.083 C 929.048 487.083 928.411 485.288 927.57 482.915 C 926.729 480.541 925.421 477.327 924.318 474.841 C 923.215 472.355 922.505 471.213 920.953 467.999 C 919.402 464.784 916.918 459.758 915.011 455.553 C 913.105 451.347 911.03 446.504 909.515 442.765 C 908.001 439.027 907.102 436.654 905.925 433.122 C 904.747 429.59 903.328 424.767 902.45 421.571 C 901.571 418.374 901.271 416.934 900.654 413.944 C 900.037 410.953 899.253 407.346 898.749 403.626 C 898.244 399.906 897.815 395.177 897.628 391.626 C 897.441 388.075 897.479 385.553 897.628 382.319 C 897.777 379.085 898.019 375.682 898.523 372.224 C 899.027 368.766 899.775 365.104 900.654 361.571 C 901.533 358.038 902.637 354.355 903.796 351.028 C 904.955 347.7 906.205 344.785 907.607 341.608 C 909.009 338.43 910.448 335.626 912.205 331.962 C 913.963 328.298 916.374 323.196 918.15 319.626 C 919.926 316.056 921.31 313.701 922.862 310.542 C 924.413 307.383 926.093 303.851 927.457 300.673 C 928.822 297.496 929.945 294.392 931.048 291.476 C 932.151 288.56 933.065 286.486 934.074 283.177 C 935.083 279.869 936.355 275.252 937.103 271.626 C 937.851 268 938.132 264.954 938.562 261.421 C 938.992 257.888 939.534 253.962 939.683 250.429 C 939.832 246.896 939.869 243.869 939.457 240.224 C 939.046 236.58 938.094 232.43 937.216 228.56 C 936.338 224.691 935.29 220.654 934.187 217.009 C 933.084 213.364 931.795 210 930.599 206.692 C 929.403 203.383 928.768 201.476 927.011 197.159 C 925.254 192.841 922.075 185.571 920.056 180.786 C 918.037 176.001 916.917 173.308 914.898 168.448 C 912.88 163.587 910.02 156.86 907.946 151.626 C 905.871 146.392 904.169 141.682 902.45 137.046 C 900.73 132.41 899.142 128.466 897.628 123.812 C 896.114 119.158 894.581 114.131 893.366 109.122 C 892.15 104.113 891.122 98.561 890.337 93.757 C 889.551 88.953 888.953 84.709 888.654 80.298 C 888.355 75.887 888.354 71.533 888.541 67.29 C 888.729 63.047 889.104 58.879 889.778 54.841 C 890.451 50.804 891.441 46.878 892.581 43.064 C 893.721 39.251 895.216 35.214 896.618 31.962 C 898.019 28.71 899.308 26.394 900.99 23.553 C 902.673 20.711 904.936 17.364 906.712 14.915 C 908.488 12.466 910.226 10.56 911.646 8.86 C 913.067 7.159 914.113 5.85 915.234 4.71 C 916.355 3.57 916.785 1.515 918.373 2.02 Z" fill-rule="nonzero" style="transform-box: fill-box; transform-origin: 50% 50%;" transform="matrix(-1, 0, 0, -1, -0.000045, -0.000048)"/>
    <path fill="#ac0000" d="M 163.094 654.767 C 161.985 654.917 160.368 655.439 159.532 656.467 C 158.696 657.495 158.078 659.519 158.039 660.192 C 158 660.865 157.622 660.426 159.295 661.641 C 160.967 662.856 178.113 670.495 181.438 672.477 C 184.762 674.458 189.836 677.093 193.219 678.644 C 196.603 680.196 198.861 680.849 201.738 681.784 C 204.617 682.718 207.435 683.578 210.487 684.251 C 213.54 684.924 216.36 685.334 220.055 685.82 C 223.749 686.306 228.65 687.017 232.657 687.167 C 236.662 687.316 240.278 687.017 244.089 686.718 C 247.9 686.419 251.946 685.839 255.524 685.372 C 259.101 684.904 261.609 684.625 265.556 683.915 C 269.504 683.205 274.872 682.102 279.209 681.112 C 283.545 680.121 287.433 679.11 291.575 677.97 C 295.716 676.83 300.111 675.465 304.059 674.269 C 308.006 673.073 311.545 671.953 315.259 670.794 C 318.973 669.635 322.55 668.532 326.342 667.316 C 330.134 666.101 334.529 664.643 338.009 663.503 C 341.49 662.363 343.727 661.635 347.228 660.477 C 350.727 659.318 355.704 657.578 359.009 656.55 C 362.315 655.522 363.873 655.166 367.061 654.306 C 370.251 653.446 375.151 652.175 378.145 651.39 C 381.139 650.605 382.442 650.214 385.029 649.597 C 387.615 648.98 390.843 648.269 393.662 647.689 C 396.482 647.109 398.972 646.568 401.946 646.12 C 404.922 645.671 408.557 645.279 411.512 644.999 C 414.467 644.718 416.975 644.568 419.679 644.437 C 422.381 644.306 425.494 644.232 427.731 644.214 C 429.967 644.196 431.463 643.972 433.097 644.327 C 434.729 644.682 439.008 645.018 439.164 644.663 C 439.319 644.308 440.934 644.362 442.781 644.437 C 444.629 644.512 447.174 644.887 450.246 645.112 C 453.318 645.336 457.928 645.503 461.214 645.784 C 464.502 646.064 467.166 646.402 469.965 646.794 C 472.766 647.186 475.118 647.634 478.015 648.138 C 480.913 648.642 484.549 649.26 487.348 649.82 C 490.149 650.381 492.211 650.904 494.817 651.503 C 497.421 652.101 500.144 652.682 502.983 653.411 C 505.822 654.14 508.602 654.869 511.849 655.878 C 515.096 656.887 519.551 658.494 522.468 659.466 C 525.385 660.438 526.999 660.907 529.351 661.71 C 531.704 662.514 533.92 663.372 536.584 664.288 C 539.248 665.203 542.711 666.381 545.335 667.204 C 547.96 668.026 550.078 668.623 552.334 669.222 C 554.589 669.82 556.923 670.401 558.868 670.794 C 560.812 671.187 562.154 671.448 564.002 671.579 C 565.848 671.71 568.065 671.616 569.951 671.579 C 571.837 671.541 573.608 671.652 575.319 671.353 C 577.031 671.054 578.7 670.475 580.217 669.784 C 581.734 669.092 583.273 668.026 584.42 667.204 C 585.568 666.381 586.266 665.914 587.101 664.849 C 587.937 663.784 588.911 662.42 589.435 660.812 C 589.961 659.205 590.466 656.961 590.252 655.204 C 590.039 653.446 589.183 651.652 588.153 650.269 C 587.122 648.886 585.529 647.783 584.071 646.904 C 582.612 646.026 580.996 645.485 579.402 644.999 C 577.807 644.513 576.272 644.213 574.503 643.988 C 572.733 643.764 570.535 643.69 568.785 643.652 C 567.035 643.615 565.363 643.672 564.002 643.765 C 562.64 643.859 560.307 644.12 560.619 644.214 C 560.93 644.308 563.847 644.14 565.869 644.327 C 567.892 644.514 570.711 644.905 572.753 645.335 C 574.794 645.764 576.465 646.213 578.118 646.904 C 579.771 647.596 581.445 648.55 582.669 649.484 C 583.895 650.419 584.827 651.504 585.469 652.513 C 586.111 653.522 586.364 654.605 586.519 655.54 C 586.676 656.474 586.578 657.185 586.402 658.12 C 586.227 659.054 586.266 660.083 585.469 661.148 C 584.671 662.214 583.038 663.56 581.619 664.513 C 580.2 665.466 578.799 666.307 576.952 666.868 C 575.105 667.428 572.79 667.766 570.535 667.878 C 568.28 667.99 565.967 667.951 563.419 667.54 C 560.873 667.128 557.759 666.121 555.25 665.411 C 552.741 664.701 551.128 664.233 548.367 663.28 C 545.606 662.326 543.039 661.297 538.685 659.689 C 534.329 658.081 526.2 655.054 522.233 653.634 C 518.266 652.214 517.508 652.026 514.882 651.167 C 512.257 650.307 509.614 649.374 506.484 648.477 C 503.353 647.579 500.28 646.793 496.099 645.784 C 491.918 644.774 485.638 643.26 481.399 642.419 C 477.159 641.578 475.702 641.39 470.665 640.736 C 465.628 640.082 456.917 638.999 451.18 638.495 C 445.444 637.991 440.273 637.879 436.247 637.71 C 432.222 637.542 430.121 637.503 427.029 637.484 C 423.938 637.466 421.449 637.373 417.696 637.597 C 413.943 637.822 409.394 638.195 404.513 638.831 C 399.633 639.466 394.226 640.252 388.412 641.411 C 382.597 642.57 375.171 644.363 369.629 645.784 C 364.086 647.204 358.583 648.942 355.16 649.933 C 351.736 650.924 352.476 650.682 349.093 651.728 C 345.709 652.775 340.186 654.55 334.858 656.214 C 329.531 657.878 322.455 660.065 317.126 661.71 C 311.799 663.355 307.365 664.793 302.893 666.083 C 298.42 667.372 292.586 668.85 290.291 669.448 C 287.997 670.046 290.778 669.241 289.125 669.671 C 287.473 670.101 283.524 671.28 280.374 672.028 C 277.224 672.775 273.803 673.465 270.224 674.156 C 266.647 674.848 262.466 675.654 258.907 676.177 C 255.348 676.701 252.062 676.999 248.873 677.298 C 245.683 677.597 243.68 677.951 239.772 677.97 C 235.864 677.989 229.914 677.784 225.423 677.411 C 220.931 677.037 216.575 676.439 212.822 675.728 C 209.068 675.018 205.958 674.12 202.905 673.148 C 199.852 672.176 197.151 671.074 194.506 669.896 C 191.862 668.719 189.429 667.429 187.038 666.083 C 184.646 664.737 181.923 662.998 180.154 661.82 C 178.385 660.643 165.728 655.533 164.619 655.682 L 163.094 654.767 Z" fill-rule="nonzero" style="transform-box: fill-box; transform-origin: 50% 50%;" transform="matrix(-1, 0, 0, -1, 0.000003, 0.000002)"/>
    <path fill="#ac0000" d="M 540.21 687.576 C 542.346 687.742 544.472 687.345 545.952 687.215 C 547.432 687.086 553.092 685.496 556.052 684.664 C 559.011 683.832 561.1 683.148 563.708 682.223 C 566.315 681.298 568.886 680.336 571.697 679.116 C 574.509 677.895 577.747 676.304 580.577 674.898 C 583.406 673.492 585.791 672.234 588.676 670.68 C 591.562 669.126 594.819 667.387 597.889 665.575 C 600.959 663.763 604.14 661.637 607.099 659.806 C 610.058 657.975 612.944 656.181 615.645 654.591 C 618.345 653 620.619 651.798 623.301 650.263 C 625.983 648.727 628.405 647.228 631.734 645.378 C 635.063 643.528 639.966 640.791 643.277 639.163 C 646.588 637.535 648.844 636.74 651.6 635.612 C 654.356 634.483 656.78 633.392 659.813 632.394 C 662.846 631.395 666.785 630.322 669.8 629.62 C 672.814 628.917 674.903 628.53 677.899 628.179 C 680.896 627.827 684.78 627.531 687.776 627.512 C 690.773 627.493 692.771 627.677 695.878 628.066 C 698.986 628.454 703.629 629.269 706.422 629.843 C 709.214 630.416 710.489 630.749 712.634 631.507 C 714.78 632.265 717 633.355 719.293 634.391 C 721.587 635.427 724.398 636.668 726.395 637.722 C 728.393 638.776 730.221 639.652 731.701 640.577 C 733.181 641.501 729.27 639.903 729.899 639.572 C 730.528 639.241 736.745 642.71 735.45 643.58 C 734.155 644.449 734.827 645.444 733.773 645.24 C 732.719 645.037 732.779 645.179 732.003 644.217 C 731.226 643.255 730.631 642.993 729.947 642.16 C 729.263 641.328 727.322 640.459 725.731 639.719 C 724.141 638.98 722.142 638.332 720.403 637.722 C 718.665 637.112 717.425 636.613 715.298 636.058 C 713.172 635.503 710.269 634.872 707.642 634.391 C 705.016 633.91 702.296 633.43 699.54 633.171 C 696.784 632.912 694.084 632.745 691.107 632.837 C 688.129 632.93 685.059 633.154 681.674 633.727 C 678.289 634.301 674.422 635.243 670.797 636.278 C 667.172 637.314 663.419 638.553 659.923 639.94 C 656.427 641.327 653.097 643.029 649.823 644.601 C 646.549 646.173 643.646 647.56 640.28 649.373 C 636.914 651.186 633.381 653.221 629.626 655.478 C 625.872 657.735 621.581 660.509 617.752 662.913 C 613.924 665.318 610.687 667.462 606.655 669.903 C 602.623 672.344 597.778 675.194 593.561 677.562 C 589.344 679.929 585.034 682.258 581.354 684.108 C 577.673 685.957 574.418 687.382 571.477 688.659 C 568.536 689.935 566.408 690.879 563.708 691.766 C 561.007 692.654 558.141 693.337 555.275 693.984 C 552.408 694.632 549.486 695.281 546.508 695.651 C 543.53 696.021 540.588 696.224 537.406 696.205 C 534.224 696.186 530.711 695.945 527.419 695.538 C 524.127 695.131 520.501 694.43 517.653 693.764 C 514.805 693.098 512.882 692.524 510.33 691.543 C 507.778 690.563 504.819 689.14 502.34 687.882 C 499.862 686.624 497.845 685.477 495.458 683.997 C 493.072 682.518 490.242 680.575 488.023 679.003 C 485.803 677.431 484.305 676.247 482.141 674.564 C 479.977 672.882 475.908 670.182 475.039 668.906 C 474.169 667.63 475.89 667.574 476.926 666.908 C 477.962 666.242 479.903 664.93 481.254 664.911 C 482.604 664.892 483.326 665.76 485.028 666.795 C 486.73 667.831 489.633 669.865 491.464 671.123 C 493.295 672.382 494.369 673.271 496.015 674.344 C 497.661 675.417 499.399 676.489 501.34 677.562 C 503.282 678.634 505.705 679.892 507.666 680.78 C 509.626 681.667 510.996 682.166 513.104 682.887 C 515.213 683.609 517.931 684.479 520.317 685.108 C 522.703 685.737 524.959 686.292 527.419 686.661 C 529.879 687.031 533.08 687.307 535.078 687.326 C 537.076 687.344 538.074 687.41 540.21 687.576 Z" fill-rule="nonzero" style="transform-box: fill-box; transform-origin: 50% 50%;" transform="matrix(-1, 0, 0, -1, 0.000028, -0.000031)"/>
    <path fill="#ac0000" d="M 148.886 710.356 C 151.022 710.522 153.148 710.125 154.628 709.995 C 156.108 709.866 161.768 708.276 164.728 707.444 C 167.687 706.612 169.776 705.928 172.384 705.003 C 174.991 704.078 177.562 703.116 180.373 701.896 C 183.185 700.675 186.423 699.084 189.253 697.678 C 192.082 696.272 194.467 695.014 197.352 693.46 C 200.238 691.906 203.495 690.167 206.565 688.355 C 209.635 686.543 212.816 684.417 215.775 682.586 C 218.734 680.755 221.62 678.961 224.321 677.371 C 227.021 675.78 229.295 674.578 231.977 673.043 C 234.659 671.507 237.081 670.008 240.41 668.158 C 243.739 666.308 248.642 663.571 251.953 661.943 C 255.264 660.315 257.52 659.52 260.276 658.392 C 263.032 657.263 265.456 656.172 268.489 655.174 C 271.522 654.175 275.461 653.102 278.476 652.4 C 281.49 651.697 283.579 651.31 286.575 650.959 C 289.572 650.607 293.456 650.311 296.452 650.292 C 299.449 650.273 301.447 650.457 304.554 650.846 C 307.662 651.234 312.305 652.049 315.098 652.623 C 317.89 653.196 319.165 653.529 321.31 654.287 C 323.456 655.045 325.676 656.135 327.969 657.171 C 330.263 658.207 333.074 659.448 335.071 660.502 C 337.069 661.556 338.897 662.432 340.377 663.357 C 341.857 664.281 337.946 662.683 338.575 662.352 C 339.204 662.021 345.421 665.49 344.126 666.36 C 342.831 667.229 343.503 668.224 342.449 668.02 C 341.395 667.817 341.455 667.959 340.679 666.997 C 339.902 666.035 339.307 665.773 338.623 664.94 C 337.939 664.108 335.998 663.239 334.407 662.499 C 332.817 661.76 330.818 661.112 329.079 660.502 C 327.341 659.892 326.101 659.393 323.974 658.838 C 321.848 658.283 318.945 657.652 316.318 657.171 C 313.692 656.69 310.972 656.21 308.216 655.951 C 305.46 655.692 302.76 655.525 299.783 655.617 C 296.805 655.71 293.735 655.934 290.35 656.507 C 286.965 657.081 283.098 658.023 279.473 659.058 C 275.848 660.094 272.095 661.333 268.599 662.72 C 265.103 664.107 261.773 665.809 258.499 667.381 C 255.225 668.953 252.322 670.34 248.956 672.153 C 245.59 673.966 242.057 676.001 238.302 678.258 C 234.548 680.515 230.257 683.289 226.428 685.693 C 222.6 688.098 219.363 690.242 215.331 692.683 C 211.299 695.124 206.454 697.974 202.237 700.342 C 198.02 702.709 193.71 705.038 190.03 706.888 C 186.349 708.737 183.094 710.162 180.153 711.439 C 177.212 712.715 175.084 713.659 172.384 714.546 C 169.683 715.434 166.817 716.117 163.951 716.764 C 161.084 717.412 158.162 718.061 155.184 718.431 C 152.206 718.801 149.264 719.004 146.082 718.985 C 142.9 718.966 139.387 718.725 136.095 718.318 C 132.803 717.911 129.177 717.21 126.329 716.544 C 123.481 715.878 121.558 715.304 119.006 714.323 C 116.454 713.343 113.495 711.92 111.016 710.662 C 108.538 709.404 106.521 708.257 104.134 706.777 C 101.748 705.298 98.918 703.355 96.699 701.783 C 94.479 700.211 92.981 699.027 90.817 697.344 C 88.653 695.662 84.584 692.962 83.715 691.686 C 82.845 690.41 84.566 690.354 85.602 689.688 C 86.638 689.022 88.579 687.71 89.93 687.691 C 91.28 687.672 92.002 688.54 93.704 689.575 C 95.406 690.611 98.309 692.645 100.14 693.903 C 101.971 695.162 103.045 696.051 104.691 697.124 C 106.337 698.197 108.075 699.269 110.016 700.342 C 111.958 701.414 114.381 702.672 116.342 703.56 C 118.302 704.447 119.672 704.946 121.78 705.667 C 123.889 706.389 126.607 707.259 128.993 707.888 C 131.379 708.517 133.635 709.072 136.095 709.441 C 138.555 709.811 141.756 710.087 143.754 710.106 C 145.752 710.124 146.75 710.19 148.886 710.356 Z" fill-rule="nonzero" style="transform-origin: 213.89px 684.638px;" transform="matrix(-1, 0, 0, -1, 0.000001, 0.000006)"/>
  </g>
  <g clip-path="url(#clip-1)" transform="matrix(-1.519122123718, 0, 0, -1.14216697216, 485.739914523991, 78.17366406654)" style="transform-origin: 480px 361.044px;">
    <path fill="#ac0000" d="M 803.563 653.348 C 804.761 652.91 807.553 649.931 808.626 649.035 C 809.699 648.139 809.949 648.316 810.001 647.972 C 810.053 647.628 809.584 647.514 808.938 646.972 C 808.292 646.431 807.364 645.692 806.124 644.723 C 804.885 643.754 803.166 642.346 801.5 641.159 C 799.833 639.971 797.885 638.722 796.124 637.597 C 794.364 636.472 792.771 635.418 790.938 634.408 C 789.105 633.397 786.843 632.346 785.124 631.534 C 783.406 630.722 782.178 630.159 780.626 629.534 C 779.074 628.909 777.323 628.294 775.812 627.783 C 774.302 627.273 772.865 626.835 771.563 626.471 C 770.261 626.106 769.012 625.836 768.001 625.597 C 766.991 625.358 766.687 625.243 765.5 625.035 C 764.312 624.827 762.271 624.546 760.875 624.348 C 759.479 624.149 758.624 623.982 757.124 623.846 C 755.624 623.711 753.354 623.586 751.875 623.534 C 750.396 623.482 749.677 623.534 748.25 623.534 C 746.823 623.534 744.907 623.461 743.313 623.534 C 741.72 623.607 740.522 623.701 738.689 623.972 C 736.855 624.243 734.532 624.721 732.313 625.159 C 730.095 625.596 727.47 626.086 725.376 626.597 C 723.283 627.107 721.565 627.648 719.752 628.222 C 717.939 628.795 716.01 629.514 714.5 630.035 C 712.989 630.556 711.939 630.869 710.689 631.348 C 709.439 631.827 708.451 632.288 707.492 632.725 C 706.534 633.163 704.747 634.17 704.57 633.972 C 704.393 633.774 702.145 635.165 701.082 635.79 C 700.02 636.415 698.583 636.946 696.999 637.602 C 695.416 638.258 696.094 638.024 692.563 639.972 C 689.032 641.92 681.293 646.305 675.752 649.597 C 670.21 652.889 663.939 656.848 659.313 659.723 C 654.688 662.598 651.199 664.867 648.001 666.846 C 644.803 668.825 642.458 670.211 640.124 671.597 C 637.791 672.982 636.095 674.013 634.001 675.159 C 631.907 676.304 629.844 677.356 627.563 678.471 C 625.281 679.586 622.522 680.95 620.313 681.846 C 618.105 682.742 616.022 683.325 614.313 683.846 C 612.605 684.367 609.453 685.219 608.479 685.45 C 607.505 685.681 601.894 686.619 600.418 686.699 C 598.942 686.779 587.635 689.229 587.6 688.488 C 587.565 687.747 587.709 691.255 587.865 692.171 C 588.021 693.088 588.215 696.075 587.963 696.649 C 587.711 697.223 600.813 695.529 603.037 695.226 C 605.261 694.923 611.778 694.008 613.577 693.843 C 615.376 693.678 619.418 692.242 621.626 691.471 C 623.834 690.7 625.114 690.212 627.187 689.348 C 629.26 688.483 631.803 687.399 634.064 686.285 C 636.325 685.17 637.169 684.649 640.752 682.66 C 644.335 680.67 649.636 677.9 655.563 674.348 C 661.49 670.795 670.668 664.827 676.313 661.348 C 681.959 657.868 685.676 655.627 689.437 653.471 C 693.197 651.314 695.792 650.002 698.875 648.408 C 701.959 646.814 705.042 645.222 707.938 643.909 C 710.834 642.597 713.688 641.523 716.25 640.534 C 718.813 639.544 720.657 638.806 723.313 637.972 C 725.97 637.139 729.719 636.169 732.187 635.534 C 734.656 634.898 736.083 634.523 738.124 634.159 C 740.166 633.794 742.166 633.535 744.437 633.348 C 746.708 633.16 749.033 632.983 751.752 633.035 C 754.471 633.087 757.846 633.274 760.752 633.66 C 763.658 634.045 766.823 634.764 769.187 635.348 C 771.552 635.931 772.844 636.409 774.938 637.159 C 777.032 637.908 779.523 638.857 781.752 639.846 C 783.981 640.836 786.439 642.085 788.313 643.096 C 790.188 644.106 791.303 644.847 793.001 645.909 C 794.699 646.972 797.094 648.512 798.5 649.471 C 799.906 650.429 800.593 651.014 801.437 651.66 C 802.281 652.306 802.365 653.785 803.563 653.348 Z" fill-rule="nonzero" style="transform-box: fill-box; transform-origin: 50% 50%;" transform="matrix(-1, 0, 0, -1, 0.00006, 0.00007)"/>
    <path fill="#ac0000" d="M 877.141 698.597 C 876.974 699.44 875.277 699.545 873.892 700.347 C 872.506 701.15 869.922 703.025 868.829 703.41 C 867.735 703.796 868.226 703.514 867.33 702.66 C 866.435 701.805 865.175 700.034 863.456 698.284 C 861.737 696.535 859.07 694.015 857.018 692.161 C 854.965 690.307 852.974 688.588 851.141 687.161 C 849.308 685.734 847.674 684.701 846.018 683.597 C 844.362 682.493 842.464 681.307 841.204 680.536 C 839.944 679.766 839.758 679.649 838.456 678.972 C 837.154 678.295 835.06 677.244 833.393 676.473 C 831.726 675.703 830.05 674.993 828.456 674.347 C 826.862 673.701 825.464 673.138 823.829 672.597 C 822.193 672.055 820.538 671.577 818.642 671.098 C 816.747 670.619 814.31 670.077 812.456 669.723 C 810.602 669.368 809.236 669.18 807.516 668.972 C 805.797 668.764 803.912 668.577 802.141 668.473 C 800.37 668.369 798.642 668.337 796.892 668.347 C 795.142 668.358 793.392 668.401 791.642 668.536 C 789.893 668.672 788.143 668.88 786.393 669.161 C 784.643 669.442 782.943 669.787 781.141 670.224 C 779.339 670.661 777.433 671.203 775.579 671.786 C 773.726 672.369 771.82 673.025 770.018 673.723 C 768.216 674.42 766.519 675.087 764.768 675.972 C 763.018 676.857 761.235 677.931 759.516 679.035 C 757.798 680.139 756.216 681.274 754.456 682.597 C 752.696 683.919 750.486 685.607 748.955 686.972 C 747.423 688.337 746.371 689.494 745.267 690.786 C 744.163 692.077 743.153 693.921 742.33 694.723 C 741.507 695.524 741.257 695.315 740.33 695.597 C 739.403 695.878 737.904 696.129 736.768 696.41 C 735.633 696.692 734.611 697.014 733.516 697.284 C 732.422 697.555 731.058 697.837 730.204 698.035 C 729.35 698.233 728.331 698.88 728.393 698.473 C 728.456 698.067 729.35 697.201 730.579 695.597 C 731.809 693.993 734.394 690.557 735.768 688.849 C 737.143 687.14 737.506 686.723 738.829 685.347 C 740.152 683.972 742.153 682.024 743.705 680.597 C 745.257 679.17 746.474 678.098 748.141 676.786 C 749.808 675.473 751.914 673.921 753.705 672.723 C 755.497 671.524 756.913 670.69 758.892 669.597 C 760.871 668.503 763.632 667.067 765.579 666.161 C 767.527 665.255 768.746 664.828 770.579 664.161 C 772.413 663.494 774.569 662.734 776.579 662.161 C 778.59 661.588 780.611 661.129 782.642 660.723 C 784.674 660.316 786.654 660.004 788.768 659.723 C 790.883 659.441 793.455 659.17 795.33 659.035 C 797.205 658.9 797.976 658.849 800.018 658.912 C 802.059 658.974 805.298 659.171 807.579 659.41 C 809.861 659.65 811.612 659.993 813.705 660.347 C 815.799 660.702 817.974 661.026 820.141 661.536 C 822.308 662.047 824.132 662.556 826.705 663.41 C 829.278 664.264 833.257 665.733 835.579 666.66 C 837.902 667.587 838.913 668.118 840.642 668.972 C 842.372 669.826 844.017 670.671 845.955 671.786 C 847.892 672.9 850.184 674.253 852.267 675.66 C 854.351 677.066 856.727 678.932 858.456 680.224 C 860.185 681.516 861.111 682.14 862.642 683.41 C 864.174 684.681 866.132 686.442 867.642 687.849 C 869.153 689.255 870.497 690.609 871.705 691.849 C 872.914 693.088 873.986 694.16 874.892 695.284 C 875.798 696.409 877.308 697.753 877.141 698.597 Z" fill-rule="nonzero" style="transform-box: fill-box; transform-origin: 50% 50%;" transform="matrix(-1, 0, 0, -1, 0.000013, -0.000005)"/>
    <path fill="#ac0000" d="M 817.503 616.843 C 817.18 617.228 817.949 618.644 818.251 619.78 C 818.553 620.915 819.085 622.761 819.314 623.656 C 819.543 624.552 819.251 624.728 819.626 625.155 C 820.001 625.582 820.74 625.843 821.563 626.218 C 822.386 626.593 823.417 626.821 824.563 627.404 C 825.709 627.988 827.252 628.904 828.44 629.717 C 829.627 630.53 830.679 631.323 831.689 632.281 C 832.7 633.24 833.628 634.353 834.503 635.467 C 835.378 636.582 836.199 637.688 836.938 638.969 C 837.678 640.25 838.407 641.832 838.938 643.155 C 839.47 644.478 839.742 645.354 840.127 646.906 C 840.513 648.458 840.99 650.728 841.251 652.467 C 841.511 654.207 841.595 655.602 841.689 657.341 C 841.783 659.081 841.846 661.166 841.815 662.906 C 841.784 664.646 841.607 666.145 841.503 667.78 C 841.398 669.415 841.313 671.185 841.188 672.717 C 841.063 674.248 840.866 675.937 840.752 676.969 C 840.638 678 840.003 678.489 840.503 678.906 C 841.003 679.322 842.575 679.374 843.752 679.467 C 844.929 679.561 846.678 679.509 847.563 679.467 C 848.448 679.426 848.773 679.53 849.064 679.218 C 849.356 678.906 849.116 679.24 849.314 677.593 C 849.511 675.947 850.011 671.727 850.251 669.341 C 850.49 666.956 850.679 665.51 850.752 663.281 C 850.825 661.052 850.783 658.323 850.689 655.969 C 850.595 653.614 850.469 651.239 850.188 649.155 C 849.906 647.072 849.439 645.207 849.001 643.467 C 848.564 641.728 848.271 640.404 847.563 638.717 C 846.855 637.029 845.815 635.029 844.752 633.341 C 843.69 631.654 842.396 629.937 841.188 628.593 C 839.98 627.25 838.794 626.281 837.503 625.281 C 836.211 624.281 834.94 623.437 833.44 622.593 C 831.94 621.75 829.972 620.864 828.503 620.218 C 827.034 619.572 826.012 619.175 824.626 618.717 C 823.24 618.258 821.375 617.78 820.188 617.467 C 819.001 617.155 817.826 616.457 817.503 616.843 Z" fill-rule="nonzero" style="transform-box: fill-box; transform-origin: 50% 50%;" transform="matrix(-1, 0, 0, -1, 0.000062, 0.000061)"/>
    <path fill="#ac0000" d="M 924.486 672.716 C 924.486 672.143 923.413 670.246 923.048 669.215 C 922.683 668.184 922.558 667.342 922.297 666.53 C 922.037 665.718 921.621 664.831 921.486 664.341 C 921.351 663.851 921.643 663.726 921.486 663.59 C 921.33 663.455 921.484 663.52 920.547 663.53 C 919.609 663.541 917.632 663.549 915.862 663.653 C 914.091 663.758 912.027 663.884 909.922 664.155 C 907.817 664.426 905.547 664.81 903.234 665.278 C 900.922 665.747 898.642 666.185 896.048 666.966 C 893.454 667.747 890.121 668.997 887.673 669.966 C 885.225 670.935 883.329 671.81 881.36 672.779 C 879.392 673.748 877.653 674.707 875.862 675.779 C 874.07 676.852 872.276 678.007 870.61 679.215 C 868.943 680.423 867.174 681.904 865.862 683.029 C 864.549 684.154 863.517 685.226 862.736 685.966 C 861.954 686.706 861.258 686.988 861.174 687.467 C 861.09 687.947 861.568 688.228 862.234 688.842 C 862.901 689.457 864.226 690.373 865.174 691.155 C 866.122 691.936 867.266 692.978 867.922 693.53 C 868.578 694.082 868.674 694.405 869.111 694.467 C 869.548 694.529 869.63 694.632 870.547 693.903 C 871.463 693.174 873.276 691.258 874.61 690.092 C 875.943 688.925 877.182 687.934 878.547 686.903 C 879.911 685.871 881.361 684.84 882.799 683.903 C 884.237 682.965 885.726 682.049 887.174 681.278 C 888.622 680.507 890.07 679.924 891.486 679.278 C 892.903 678.632 894.183 677.987 895.673 677.404 C 897.162 676.821 898.871 676.248 900.423 675.779 C 901.975 675.31 903.464 674.945 904.985 674.59 C 906.506 674.236 908.286 673.893 909.547 673.653 C 910.807 673.414 911.442 673.3 912.547 673.155 C 913.651 673.009 914.903 672.852 916.174 672.779 C 917.445 672.706 919.028 672.737 920.174 672.716 C 921.32 672.695 922.329 672.653 923.048 672.653 C 923.767 672.653 924.486 673.289 924.486 672.716 Z" fill-rule="nonzero" style="transform-box: fill-box; transform-origin: 50% 50%;" transform="matrix(-1, 0, 0, -1, 0.000058, -0.000009)"/>
    <path fill="#ac0000" d="M 949.453 629.617 C 949.359 630.477 947.116 631.73 946.088 632.646 C 945.06 633.562 944.013 634.459 943.285 635.113 C 942.556 635.767 942.22 636.476 941.715 636.57 C 941.21 636.663 941.265 636.251 940.256 635.672 C 939.247 635.093 936.987 633.711 935.66 633.095 C 934.333 632.478 933.529 632.401 932.295 631.971 C 931.061 631.541 929.733 630.832 928.256 630.514 C 926.779 630.197 924.911 630.178 923.434 630.066 C 921.958 629.954 920.725 629.787 919.398 629.843 C 918.07 629.899 916.892 630.103 915.471 630.402 C 914.05 630.7 912.312 631.149 910.873 631.635 C 909.433 632.121 907.976 632.776 906.836 633.318 C 905.696 633.86 905.248 634.084 904.033 634.887 C 902.818 635.691 900.912 636.962 899.547 638.139 C 898.183 639.317 896.837 640.85 895.846 641.953 C 894.856 643.056 894.387 643.69 893.602 644.756 C 892.817 645.822 891.789 647.169 891.135 648.347 C 890.481 649.524 890.164 650.513 889.678 651.822 C 889.192 653.13 888.593 654.814 888.219 656.197 C 887.845 657.58 887.64 658.588 887.434 660.121 C 887.229 661.654 886.911 663.244 886.985 665.394 C 887.06 667.543 887.509 671 887.883 673.018 C 888.257 675.037 888.463 675.747 889.23 677.504 C 889.996 679.261 891.323 681.749 892.482 683.562 C 893.64 685.375 894.855 686.851 896.182 688.383 C 897.51 689.916 899.08 691.485 900.445 692.756 C 901.809 694.027 902.985 694.945 904.369 696.011 C 905.752 697.076 907.361 698.234 908.744 699.15 C 910.127 700.065 910.474 700.558 911.82 701.343 C 913.165 702.128 913.646 706.645 914.396 708.209 C 915.146 709.773 914.813 712.977 913.392 712.379 C 911.972 711.781 911.526 712.252 909.115 711.056 C 906.703 709.86 907.865 709.936 905.379 708.459 C 902.893 706.983 900.854 705.373 898.873 703.971 C 896.891 702.569 895.153 701.43 893.489 700.047 C 891.826 698.664 890.258 697.093 888.894 695.672 C 887.529 694.251 886.313 692.868 885.303 691.522 C 884.293 690.177 883.733 689.075 882.836 687.598 C 881.939 686.122 880.742 684.384 879.92 682.664 C 879.097 680.944 878.499 679.094 877.901 677.281 C 877.304 675.468 876.706 673.729 876.332 671.785 C 875.958 669.841 875.679 668.009 875.66 665.617 C 875.641 663.224 875.883 659.805 876.219 657.43 C 876.555 655.056 877.006 653.429 877.678 651.373 C 878.351 649.317 879.359 646.963 880.256 645.095 C 881.153 643.226 882.09 641.656 883.062 640.16 C 884.034 638.665 884.836 637.579 886.088 636.121 C 887.34 634.663 889.153 632.758 890.573 631.412 C 891.994 630.067 893.192 629.057 894.613 628.047 C 896.034 627.038 897.64 626.158 899.098 625.354 C 900.556 624.551 901.791 623.899 903.361 623.226 C 904.931 622.553 906.911 621.841 908.518 621.318 C 910.125 620.794 911.321 620.364 913.004 620.084 C 914.686 619.804 916.744 619.729 918.613 619.635 C 920.482 619.542 922.387 619.392 924.219 619.522 C 926.051 619.653 927.565 619.971 929.602 620.42 C 931.64 620.869 934.407 621.505 936.445 622.215 C 938.482 622.926 940.127 623.804 941.828 624.682 C 943.529 625.561 945.379 626.663 946.65 627.486 C 947.92 628.308 949.546 628.757 949.453 629.617 Z" fill-rule="nonzero" style="transform-box: fill-box; transform-origin: 50% 50%;" transform="matrix(-1, 0, 0, -1, 0.000023, 0.000012)"/>
    <path fill="#ac0000" d="M 879.214 596.673 C 877.458 596.841 869.832 600.168 867.663 601.607 C 865.495 603.047 866.615 603.778 866.204 605.311 C 865.793 606.843 865.364 608.823 865.196 610.804 C 865.028 612.785 865.14 614.899 865.196 617.198 C 865.252 619.497 865.214 622.039 865.532 624.599 C 865.85 627.16 866.354 630.077 867.102 632.563 C 867.849 635.049 868.877 637.347 870.018 639.515 C 871.158 641.683 872.505 643.701 873.944 645.571 C 875.383 647.44 877.046 649.273 878.653 650.731 C 880.26 652.189 881.867 653.309 883.587 654.319 C 885.307 655.328 887.232 656.113 888.97 656.786 C 890.709 657.459 892.354 657.888 894.018 658.355 C 895.681 658.822 897.232 659.271 898.952 659.589 C 900.672 659.907 902.634 660.151 904.335 660.263 C 906.036 660.376 908.224 660.918 909.159 660.263 C 910.094 659.609 909.645 657.889 909.944 656.337 C 910.243 654.785 911.345 651.851 910.952 650.954 C 910.559 650.057 908.97 651.047 907.587 650.954 C 906.204 650.861 904.316 650.731 902.653 650.395 C 900.99 650.058 899.309 649.534 897.608 648.935 C 895.907 648.337 894.056 647.627 892.448 646.804 C 890.84 645.982 889.364 645.104 887.962 644.001 C 886.56 642.898 885.158 641.515 884.036 640.187 C 882.914 638.86 882.036 637.365 881.233 636.038 C 880.429 634.71 879.868 633.775 879.214 632.224 C 878.56 630.673 877.739 628.506 877.309 626.731 C 876.879 624.955 876.822 623.253 876.634 621.571 C 876.447 619.888 876.223 618.206 876.186 616.636 C 876.148 615.066 876.206 613.982 876.411 612.151 C 876.617 610.319 877.12 607.572 877.419 605.647 C 877.718 603.721 877.905 602.095 878.204 600.599 C 878.503 599.104 880.971 596.505 879.214 596.673 Z" fill-rule="nonzero" style="transform-box: fill-box; transform-origin: 50% 50%;" transform="matrix(-1, 0, 0, -1, -0.00006, 0.000003)"/>
    <path fill="#ac0000" d="M 886.789 617.093 C 887.349 618.289 887.759 623.374 887.684 624.944 C 887.609 626.514 887.405 626.064 886.34 626.513 C 885.275 626.962 883.05 627.263 881.293 627.637 C 879.536 628.011 877.909 628.346 875.797 628.757 C 873.685 629.168 871.369 629.655 868.621 630.104 C 865.873 630.552 862.003 631.13 859.311 631.448 C 856.62 631.765 854.714 631.841 852.471 632.009 C 850.229 632.178 848.229 632.346 845.855 632.458 C 843.481 632.57 840.265 632.703 838.227 632.684 C 836.19 632.665 834.713 632.663 833.629 632.345 C 832.545 632.027 832.191 631.804 831.723 630.776 C 831.256 629.748 831.031 627.28 830.826 626.177 C 830.62 625.074 829.705 624.476 830.49 624.159 C 831.275 623.841 833.236 624.234 835.534 624.272 C 837.833 624.309 841.628 624.422 844.282 624.385 C 846.937 624.347 849.012 624.233 851.461 624.046 C 853.91 623.859 856.695 623.542 858.975 623.261 C 861.256 622.981 862.657 622.793 865.143 622.364 C 867.629 621.934 871.275 621.263 873.891 620.684 C 876.508 620.105 879.106 619.375 880.844 618.888 C 882.583 618.402 883.331 618.067 884.322 617.768 C 885.313 617.469 886.229 615.897 886.789 617.093 Z" fill-rule="nonzero" style="transform-box: fill-box; transform-origin: 50% 50%;" transform="matrix(-1, 0, 0, -1, -0.000061, -0.00006)"/>
    <path fill="#ac0000" d="M 888.838 534.277 C 889.791 533.249 893.416 523.504 894.668 523.279 C 895.92 523.055 895.77 523.055 896.35 522.943 C 896.93 522.831 897.827 522.383 898.145 522.608 C 898.463 522.832 898.277 522.907 898.258 524.29 C 898.239 525.673 897.912 546.163 897.799 549.172 C 897.687 552.181 897.481 557.227 897.351 560.61 C 897.22 563.993 897.257 566.219 897.015 569.471 C 896.772 572.723 896.305 577.115 895.894 580.124 C 895.483 583.134 895.089 585.133 894.547 587.526 C 894.005 589.919 893.352 592.145 892.642 594.481 C 891.931 596.818 891.295 599.133 890.285 601.544 C 889.275 603.956 888.079 606.331 886.584 608.949 C 885.089 611.566 883.108 614.706 881.314 617.248 C 879.519 619.79 877.5 622.238 875.818 624.201 C 874.136 626.163 873.353 627.022 871.222 629.022 C 869.091 631.022 865.033 634.443 863.033 636.201 C 861.033 637.958 860.082 639.229 859.222 639.565 C 858.362 639.902 858.436 638.929 857.876 638.219 C 857.315 637.509 856.549 636.331 855.857 635.303 C 855.166 634.275 853.595 632.967 853.726 632.051 C 853.857 631.135 855.147 631.19 856.642 629.807 C 858.137 628.424 860.361 626.238 862.697 623.752 C 865.033 621.266 868.455 617.713 870.66 614.891 C 872.866 612.068 874.566 608.985 875.931 606.817 C 877.295 604.649 877.819 603.827 878.847 601.883 C 879.875 599.939 881.164 597.453 882.099 595.153 C 883.033 592.854 883.764 590.63 884.456 588.088 C 885.147 585.546 885.725 582.518 886.248 579.901 C 886.771 577.285 887.295 574.854 887.595 572.387 C 887.894 569.92 887.913 567.809 888.043 565.098 C 888.174 562.388 888.267 559.022 888.379 556.124 C 888.491 553.227 888.678 549.977 888.715 547.715 C 888.753 545.453 887.885 535.305 888.838 534.277 Z" fill-rule="nonzero" style="transform-box: fill-box; transform-origin: 50% 50%;" transform="matrix(-1, 0, 0, -1, -0.000062, 0.00006)"/>
    <path fill="#ac0000" d="M 893.251 446.741 C 894.186 448.274 895.084 449.003 896.28 450.106 C 897.477 451.209 901.196 456.106 903.346 458.741 C 905.495 461.376 907.028 463.225 909.178 465.917 C 911.328 468.608 914.132 472.068 916.244 474.891 C 918.355 477.713 920.448 480.835 921.85 482.854 C 923.251 484.873 923.513 485.228 924.653 487.003 C 925.793 488.779 927.362 491.115 928.69 493.507 C 930.017 495.9 931.233 498.461 932.616 501.358 C 933.999 504.255 935.811 507.9 936.989 510.891 C 938.167 513.881 938.859 516.16 939.682 519.3 C 940.504 522.44 941.381 526.684 941.923 529.73 C 942.465 532.777 942.765 534.945 942.934 537.581 C 943.102 540.216 943.009 542.553 942.934 545.544 C 942.859 548.535 942.821 552.46 942.485 555.526 C 942.149 558.591 941.532 560.985 940.915 563.938 C 940.299 566.891 939.495 570.666 938.784 573.245 C 938.074 575.824 937.719 576.572 936.653 579.413 C 935.587 582.254 933.643 587.264 932.39 590.292 C 931.138 593.32 930.353 595.132 929.139 597.581 C 927.924 600.029 926.616 602.272 925.102 604.982 C 923.588 607.693 921.475 611.451 920.055 613.843 C 918.634 616.236 917.85 617.489 916.579 619.339 C 915.309 621.19 912.953 623.619 912.43 624.946 C 911.906 626.272 913.008 626.141 913.438 627.3 C 913.868 628.459 914.655 630.758 915.01 631.898 C 915.365 633.039 915.158 634.199 915.569 634.143 C 915.98 634.087 916.094 633.507 917.477 631.563 C 918.86 629.618 921.756 625.637 923.868 622.478 C 925.98 619.32 928.205 615.769 930.149 612.61 C 932.093 609.451 933.644 607.003 935.532 603.526 C 937.42 600.049 939.869 595.226 941.477 591.749 C 943.085 588.272 943.982 586.029 945.178 582.665 C 946.374 579.3 947.625 575.207 948.653 571.563 C 949.681 567.918 950.747 563.712 951.346 560.796 C 951.944 557.88 951.945 557.02 952.244 554.066 C 952.542 551.113 953.12 547.17 953.139 543.077 C 953.157 538.984 952.858 533.582 952.354 529.507 C 951.849 525.433 951.009 522.217 950.112 518.628 C 949.215 515.039 948.092 511.115 946.971 507.975 C 945.849 504.835 944.485 502.181 943.383 499.788 C 942.28 497.396 941.831 496.331 940.354 493.62 C 938.877 490.91 936.634 486.891 934.522 483.526 C 932.41 480.161 929.962 476.665 927.682 473.431 C 925.401 470.198 923.531 467.619 920.839 464.124 C 918.148 460.629 914.205 455.787 911.532 452.46 C 908.859 449.133 907.046 446.946 904.803 444.161 C 902.559 441.376 900.465 438.833 898.073 435.749 C 895.681 432.665 892.822 428.947 890.448 425.657 C 888.075 422.367 885.645 418.946 883.831 416.011 C 882.018 413.076 880.821 410.646 879.569 408.048 C 878.317 405.45 877.233 402.928 876.317 400.423 C 875.401 397.919 874.653 395.452 874.073 393.022 C 873.493 390.592 873.026 388.498 872.839 385.843 C 872.653 383.189 872.765 379.712 872.952 377.095 C 873.139 374.479 873.421 372.367 873.963 370.143 C 874.505 367.918 875.326 366.01 876.204 363.749 C 877.083 361.487 878.953 357.956 879.233 356.573 C 879.513 355.19 878.672 356.16 877.887 355.45 C 877.101 354.739 875.718 353.339 874.522 352.311 C 873.326 351.283 871.551 349.338 870.711 349.282 C 869.87 349.226 870.206 350.273 869.477 351.975 C 868.748 353.676 867.139 357.452 866.335 359.489 C 865.531 361.526 865.27 362.086 864.653 364.198 C 864.036 366.31 863.102 369.881 862.635 372.161 C 862.167 374.441 861.962 375.469 861.85 377.88 C 861.738 380.291 861.72 383.75 861.963 386.628 C 862.205 389.507 862.746 392.459 863.307 395.15 C 863.867 397.842 864.281 399.843 865.328 402.778 C 866.374 405.713 868.223 409.899 869.587 412.759 C 870.952 415.619 872.205 417.788 873.514 419.938 C 874.822 422.087 875.905 423.414 877.438 425.657 C 878.971 427.9 880.935 430.983 882.711 433.395 C 884.487 435.806 886.337 437.9 888.094 440.124 C 889.851 442.349 892.317 445.208 893.251 446.741 Z" fill-rule="nonzero" style="transform-box: fill-box; transform-origin: 50% 50%;" transform="matrix(-1, 0, 0, -1, 0.000048, 0.000043)"/>
    <path fill="#ac0000" d="M 906.619 336.506 C 907.629 337.945 912.265 359.61 913.798 360.17 C 915.331 360.73 912.787 331.965 911.554 332.918 C 910.32 333.871 909.461 336.694 908.415 336.283 C 907.368 335.872 906.17 332.582 905.273 330.451 C 904.376 328.32 903.629 326.115 903.031 323.498 C 902.433 320.881 901.909 317.479 901.685 314.75 C 901.461 312.021 901.61 309.758 901.685 307.123 C 901.76 304.487 901.928 301.404 902.134 298.936 C 902.339 296.469 902.47 294.787 902.919 292.32 C 903.367 289.852 904.207 286.451 904.824 284.133 C 905.441 281.816 905.965 280.227 906.619 278.414 C 907.274 276.601 907.909 275.048 908.751 273.254 C 909.592 271.46 910.657 269.554 911.667 267.648 C 912.676 265.741 913.834 263.592 914.806 261.816 C 915.778 260.04 916.134 259.122 917.499 256.991 C 918.863 254.861 922.266 250.862 922.995 249.031 C 923.723 247.199 922.32 247.03 921.871 246.002 C 921.423 244.974 920.806 243.816 920.302 242.863 C 919.797 241.91 919.368 240.302 918.845 240.283 C 918.322 240.264 918.284 240.713 917.163 242.75 C 916.041 244.787 913.517 249.758 912.115 252.506 C 910.713 255.253 909.891 256.843 908.751 259.236 C 907.61 261.628 906.395 264.19 905.273 266.863 C 904.151 269.536 902.993 272.599 902.021 275.272 C 901.049 277.945 900.039 280.582 899.441 282.9 C 898.843 285.218 898.751 286.358 898.433 289.18 C 898.115 292.003 897.741 296.862 897.535 299.834 C 897.33 302.806 897.199 304.935 897.199 307.01 C 897.199 309.085 897.311 310.189 897.535 312.283 C 897.76 314.376 898.097 317.347 898.546 319.572 C 898.995 321.796 899.444 323.629 900.228 325.629 C 901.013 327.629 902.189 329.759 903.255 331.572 C 904.32 333.384 905.61 335.067 906.619 336.506 Z" fill-rule="nonzero" style="transform-box: fill-box; transform-origin: 50% 50%;" transform="matrix(-1, 0, 0, -1, 0.00006, -0.000051)"/>
    <path fill="#ac0000" d="M 918.373 2.02 C 919.962 2.525 923.963 6.356 924.767 7.739 C 925.571 9.122 924.412 8.824 923.198 10.319 C 921.983 11.814 919.254 14.504 917.478 16.71 C 915.702 18.916 913.943 21.497 912.541 23.553 C 911.139 25.609 910.243 26.972 909.066 29.046 C 907.889 31.12 906.469 33.961 905.478 35.999 C 904.488 38.036 903.813 39.514 903.121 41.272 C 902.43 43.029 901.927 44.58 901.329 46.542 C 900.731 48.504 900.094 50.71 899.534 53.046 C 898.973 55.382 898.207 58.616 897.964 60.56 C 897.721 62.504 896.993 64.371 897.033 64.71 C 897.073 65.049 896.54 70.581 896.572 70.896 C 896.604 71.211 896.553 77.254 896.674 77.482 C 896.795 77.71 897.179 79.926 897.515 83.104 C 897.852 86.281 898.729 92.486 899.308 96.112 C 899.887 99.738 900.28 101.85 900.99 104.86 C 901.701 107.869 902.598 110.955 903.57 114.169 C 904.542 117.384 905.813 121.139 906.822 124.148 C 907.832 127.158 908.618 129.383 909.628 132.224 C 910.638 135.066 910.974 136.41 912.88 141.196 C 914.786 145.981 918.936 155.908 921.066 160.936 C 923.197 165.964 924.3 168.149 925.665 171.364 C 927.029 174.578 927.757 176.561 929.253 180.224 C 930.748 183.888 933.084 189.308 934.636 193.345 C 936.188 197.382 937.422 201.064 938.562 204.448 C 939.703 207.831 940.619 210.654 941.478 213.644 C 942.338 216.635 942.972 219.252 943.72 222.392 C 944.467 225.533 945.553 229.702 945.964 232.487 C 946.375 235.272 946.094 236.674 946.187 239.104 C 946.28 241.533 946.485 244.541 946.523 247.064 C 946.561 249.587 946.6 251.42 946.413 254.243 C 946.226 257.065 945.87 260.727 945.402 263.999 C 944.935 267.27 944.168 271.01 943.607 273.87 C 943.046 276.73 942.747 278.355 942.037 281.159 C 941.327 283.962 940.356 287.589 939.347 290.692 C 938.338 293.794 937.235 296.636 935.982 299.776 C 934.73 302.916 933.235 306.485 931.833 309.532 C 930.431 312.578 929.29 314.804 927.57 318.056 C 925.851 321.309 923.16 325.999 921.515 329.046 C 919.87 332.093 918.823 334.15 917.702 336.337 C 916.58 338.525 915.757 340.132 914.785 342.169 C 913.813 344.207 912.767 346.43 911.869 348.56 C 910.972 350.691 909.925 353.608 909.402 354.954 C 908.879 356.3 908.768 356.001 908.73 356.637 C 908.693 357.272 908.862 357.775 909.179 358.765 C 909.497 359.755 909.926 361.326 910.636 362.579 C 911.346 363.831 910.712 367.813 909.964 366.841 C 909.216 365.869 908.768 365.008 908.282 364.148 C 907.796 363.288 907.534 360.821 907.048 361.681 C 906.562 362.541 905.852 366.579 905.366 369.308 C 904.88 372.038 904.431 374.673 904.132 378.056 C 903.833 381.44 903.589 386.112 903.57 389.608 C 903.551 393.103 903.739 395.869 904.019 399.028 C 904.299 402.186 904.692 405.252 905.253 408.56 C 905.813 411.869 906.655 415.756 907.384 418.878 C 908.113 422 908.581 423.907 909.628 427.29 C 910.675 430.673 912.394 435.794 913.665 439.177 C 914.936 442.56 915.963 444.617 917.253 447.589 C 918.542 450.561 920.113 454.131 921.402 457.009 C 922.692 459.888 923.757 462.056 924.99 464.86 C 926.224 467.663 927.663 470.822 928.804 473.831 C 929.944 476.84 931.141 480.223 931.833 482.915 C 932.524 485.606 932.748 487.849 932.953 489.98 C 933.159 492.112 933.309 493.758 933.066 495.702 C 932.824 497.646 932.263 499.925 931.497 501.644 C 930.73 503.364 929.571 504.804 928.468 506.02 C 927.365 507.235 926.244 508.207 924.88 508.936 C 923.516 509.665 921.945 510.206 920.282 510.392 C 918.618 510.579 916.412 510.468 914.898 510.056 C 913.384 509.645 912.319 508.972 911.198 507.925 C 910.076 506.878 908.916 505.533 908.169 503.776 C 907.421 502.018 906.936 499.157 906.712 497.382 C 906.488 495.606 906.71 494.412 906.822 493.122 C 906.934 491.832 907.197 489.046 907.384 489.644 C 907.571 490.242 907.59 494.785 907.946 496.71 C 908.301 498.635 908.712 499.812 909.515 501.196 C 910.319 502.579 911.403 504.112 912.767 505.009 C 914.132 505.906 915.982 506.523 917.702 506.579 C 919.421 506.635 921.59 506.112 923.085 505.345 C 924.58 504.579 925.757 503.12 926.673 501.98 C 927.589 500.84 928.113 499.683 928.581 498.505 C 929.048 497.328 929.348 496.485 929.478 494.915 C 929.609 493.344 929.684 491.083 929.366 489.083 C 929.048 487.083 928.411 485.288 927.57 482.915 C 926.729 480.541 925.421 477.327 924.318 474.841 C 923.215 472.355 922.505 471.213 920.953 467.999 C 919.402 464.784 916.918 459.758 915.011 455.553 C 913.105 451.347 911.03 446.504 909.515 442.765 C 908.001 439.027 907.102 436.654 905.925 433.122 C 904.747 429.59 903.328 424.767 902.45 421.571 C 901.571 418.374 901.271 416.934 900.654 413.944 C 900.037 410.953 899.253 407.346 898.749 403.626 C 898.244 399.906 897.815 395.177 897.628 391.626 C 897.441 388.075 897.479 385.553 897.628 382.319 C 897.777 379.085 898.019 375.682 898.523 372.224 C 899.027 368.766 899.775 365.104 900.654 361.571 C 901.533 358.038 902.637 354.355 903.796 351.028 C 904.955 347.7 906.205 344.785 907.607 341.608 C 909.009 338.43 910.448 335.626 912.205 331.962 C 913.963 328.298 916.374 323.196 918.15 319.626 C 919.926 316.056 921.31 313.701 922.862 310.542 C 924.413 307.383 926.093 303.851 927.457 300.673 C 928.822 297.496 929.945 294.392 931.048 291.476 C 932.151 288.56 933.065 286.486 934.074 283.177 C 935.083 279.869 936.355 275.252 937.103 271.626 C 937.851 268 938.132 264.954 938.562 261.421 C 938.992 257.888 939.534 253.962 939.683 250.429 C 939.832 246.896 939.869 243.869 939.457 240.224 C 939.046 236.58 938.094 232.43 937.216 228.56 C 936.338 224.691 935.29 220.654 934.187 217.009 C 933.084 213.364 931.795 210 930.599 206.692 C 929.403 203.383 928.768 201.476 927.011 197.159 C 925.254 192.841 922.075 185.571 920.056 180.786 C 918.037 176.001 916.917 173.308 914.898 168.448 C 912.88 163.587 910.02 156.86 907.946 151.626 C 905.871 146.392 904.169 141.682 902.45 137.046 C 900.73 132.41 899.142 128.466 897.628 123.812 C 896.114 119.158 894.581 114.131 893.366 109.122 C 892.15 104.113 891.122 98.561 890.337 93.757 C 889.551 88.953 888.953 84.709 888.654 80.298 C 888.355 75.887 888.354 71.533 888.541 67.29 C 888.729 63.047 889.104 58.879 889.778 54.841 C 890.451 50.804 891.441 46.878 892.581 43.064 C 893.721 39.251 895.216 35.214 896.618 31.962 C 898.019 28.71 899.308 26.394 900.99 23.553 C 902.673 20.711 904.936 17.364 906.712 14.915 C 908.488 12.466 910.226 10.56 911.646 8.86 C 913.067 7.159 914.113 5.85 915.234 4.71 C 916.355 3.57 916.785 1.515 918.373 2.02 Z" fill-rule="nonzero" style="transform-box: fill-box; transform-origin: 50% 50%;" transform="matrix(-1, 0, 0, -1, -0.000045, -0.000048)"/>
    <path fill="#ac0000" d="M 163.094 654.767 C 161.985 654.917 160.368 655.439 159.532 656.467 C 158.696 657.495 158.078 659.519 158.039 660.192 C 158 660.865 157.622 660.426 159.295 661.641 C 160.967 662.856 178.113 670.495 181.438 672.477 C 184.762 674.458 189.836 677.093 193.219 678.644 C 196.603 680.196 198.861 680.849 201.738 681.784 C 204.617 682.718 207.435 683.578 210.487 684.251 C 213.54 684.924 216.36 685.334 220.055 685.82 C 223.749 686.306 228.65 687.017 232.657 687.167 C 236.662 687.316 240.278 687.017 244.089 686.718 C 247.9 686.419 251.946 685.839 255.524 685.372 C 259.101 684.904 261.609 684.625 265.556 683.915 C 269.504 683.205 274.872 682.102 279.209 681.112 C 283.545 680.121 287.433 679.11 291.575 677.97 C 295.716 676.83 300.111 675.465 304.059 674.269 C 308.006 673.073 311.545 671.953 315.259 670.794 C 318.973 669.635 322.55 668.532 326.342 667.316 C 330.134 666.101 334.529 664.643 338.009 663.503 C 341.49 662.363 343.727 661.635 347.228 660.477 C 350.727 659.318 355.704 657.578 359.009 656.55 C 362.315 655.522 363.873 655.166 367.061 654.306 C 370.251 653.446 375.151 652.175 378.145 651.39 C 381.139 650.605 382.442 650.214 385.029 649.597 C 387.615 648.98 390.843 648.269 393.662 647.689 C 396.482 647.109 398.972 646.568 401.946 646.12 C 404.922 645.671 408.557 645.279 411.512 644.999 C 414.467 644.718 416.975 644.568 419.679 644.437 C 422.381 644.306 425.494 644.232 427.731 644.214 C 429.967 644.196 431.463 643.972 433.097 644.327 C 434.729 644.682 439.008 645.018 439.164 644.663 C 439.319 644.308 440.934 644.362 442.781 644.437 C 444.629 644.512 447.174 644.887 450.246 645.112 C 453.318 645.336 457.928 645.503 461.214 645.784 C 464.502 646.064 467.166 646.402 469.965 646.794 C 472.766 647.186 475.118 647.634 478.015 648.138 C 480.913 648.642 484.549 649.26 487.348 649.82 C 490.149 650.381 492.211 650.904 494.817 651.503 C 497.421 652.101 500.144 652.682 502.983 653.411 C 505.822 654.14 508.602 654.869 511.849 655.878 C 515.096 656.887 519.551 658.494 522.468 659.466 C 525.385 660.438 526.999 660.907 529.351 661.71 C 531.704 662.514 533.92 663.372 536.584 664.288 C 539.248 665.203 542.711 666.381 545.335 667.204 C 547.96 668.026 550.078 668.623 552.334 669.222 C 554.589 669.82 556.923 670.401 558.868 670.794 C 560.812 671.187 562.154 671.448 564.002 671.579 C 565.848 671.71 568.065 671.616 569.951 671.579 C 571.837 671.541 573.608 671.652 575.319 671.353 C 577.031 671.054 578.7 670.475 580.217 669.784 C 581.734 669.092 583.273 668.026 584.42 667.204 C 585.568 666.381 586.266 665.914 587.101 664.849 C 587.937 663.784 588.911 662.42 589.435 660.812 C 589.961 659.205 590.466 656.961 590.252 655.204 C 590.039 653.446 589.183 651.652 588.153 650.269 C 587.122 648.886 585.529 647.783 584.071 646.904 C 582.612 646.026 580.996 645.485 579.402 644.999 C 577.807 644.513 576.272 644.213 574.503 643.988 C 572.733 643.764 570.535 643.69 568.785 643.652 C 567.035 643.615 565.363 643.672 564.002 643.765 C 562.64 643.859 560.307 644.12 560.619 644.214 C 560.93 644.308 563.847 644.14 565.869 644.327 C 567.892 644.514 570.711 644.905 572.753 645.335 C 574.794 645.764 576.465 646.213 578.118 646.904 C 579.771 647.596 581.445 648.55 582.669 649.484 C 583.895 650.419 584.827 651.504 585.469 652.513 C 586.111 653.522 586.364 654.605 586.519 655.54 C 586.676 656.474 586.578 657.185 586.402 658.12 C 586.227 659.054 586.266 660.083 585.469 661.148 C 584.671 662.214 583.038 663.56 581.619 664.513 C 580.2 665.466 578.799 666.307 576.952 666.868 C 575.105 667.428 572.79 667.766 570.535 667.878 C 568.28 667.99 565.967 667.951 563.419 667.54 C 560.873 667.128 557.759 666.121 555.25 665.411 C 552.741 664.701 551.128 664.233 548.367 663.28 C 545.606 662.326 543.039 661.297 538.685 659.689 C 534.329 658.081 526.2 655.054 522.233 653.634 C 518.266 652.214 517.508 652.026 514.882 651.167 C 512.257 650.307 509.614 649.374 506.484 648.477 C 503.353 647.579 500.28 646.793 496.099 645.784 C 491.918 644.774 485.638 643.26 481.399 642.419 C 477.159 641.578 475.702 641.39 470.665 640.736 C 465.628 640.082 456.917 638.999 451.18 638.495 C 445.444 637.991 440.273 637.879 436.247 637.71 C 432.222 637.542 430.121 637.503 427.029 637.484 C 423.938 637.466 421.449 637.373 417.696 637.597 C 413.943 637.822 409.394 638.195 404.513 638.831 C 399.633 639.466 394.226 640.252 388.412 641.411 C 382.597 642.57 375.171 644.363 369.629 645.784 C 364.086 647.204 358.583 648.942 355.16 649.933 C 351.736 650.924 352.476 650.682 349.093 651.728 C 345.709 652.775 340.186 654.55 334.858 656.214 C 329.531 657.878 322.455 660.065 317.126 661.71 C 311.799 663.355 307.365 664.793 302.893 666.083 C 298.42 667.372 292.586 668.85 290.291 669.448 C 287.997 670.046 290.778 669.241 289.125 669.671 C 287.473 670.101 283.524 671.28 280.374 672.028 C 277.224 672.775 273.803 673.465 270.224 674.156 C 266.647 674.848 262.466 675.654 258.907 676.177 C 255.348 676.701 252.062 676.999 248.873 677.298 C 245.683 677.597 243.68 677.951 239.772 677.97 C 235.864 677.989 229.914 677.784 225.423 677.411 C 220.931 677.037 216.575 676.439 212.822 675.728 C 209.068 675.018 205.958 674.12 202.905 673.148 C 199.852 672.176 197.151 671.074 194.506 669.896 C 191.862 668.719 189.429 667.429 187.038 666.083 C 184.646 664.737 181.923 662.998 180.154 661.82 C 178.385 660.643 165.728 655.533 164.619 655.682 L 163.094 654.767 Z" fill-rule="nonzero" style="transform-box: fill-box; transform-origin: 50% 50%;" transform="matrix(-1, 0, 0, -1, 0.000003, 0.000002)"/>
    <path fill="#ac0000" d="M 540.21 687.576 C 542.346 687.742 544.472 687.345 545.952 687.215 C 547.432 687.086 553.092 685.496 556.052 684.664 C 559.011 683.832 561.1 683.148 563.708 682.223 C 566.315 681.298 568.886 680.336 571.697 679.116 C 574.509 677.895 577.747 676.304 580.577 674.898 C 583.406 673.492 585.791 672.234 588.676 670.68 C 591.562 669.126 594.819 667.387 597.889 665.575 C 600.959 663.763 604.14 661.637 607.099 659.806 C 610.058 657.975 612.944 656.181 615.645 654.591 C 618.345 653 620.619 651.798 623.301 650.263 C 625.983 648.727 628.405 647.228 631.734 645.378 C 635.063 643.528 639.966 640.791 643.277 639.163 C 646.588 637.535 648.844 636.74 651.6 635.612 C 654.356 634.483 656.78 633.392 659.813 632.394 C 662.846 631.395 666.785 630.322 669.8 629.62 C 672.814 628.917 674.903 628.53 677.899 628.179 C 680.896 627.827 684.78 627.531 687.776 627.512 C 690.773 627.493 692.771 627.677 695.878 628.066 C 698.986 628.454 703.629 629.269 706.422 629.843 C 709.214 630.416 710.489 630.749 712.634 631.507 C 714.78 632.265 717 633.355 719.293 634.391 C 721.587 635.427 724.398 636.668 726.395 637.722 C 728.393 638.776 730.221 639.652 731.701 640.577 C 733.181 641.501 729.27 639.903 729.899 639.572 C 730.528 639.241 736.745 642.71 735.45 643.58 C 734.155 644.449 734.827 645.444 733.773 645.24 C 732.719 645.037 732.779 645.179 732.003 644.217 C 731.226 643.255 730.631 642.993 729.947 642.16 C 729.263 641.328 727.322 640.459 725.731 639.719 C 724.141 638.98 722.142 638.332 720.403 637.722 C 718.665 637.112 717.425 636.613 715.298 636.058 C 713.172 635.503 710.269 634.872 707.642 634.391 C 705.016 633.91 702.296 633.43 699.54 633.171 C 696.784 632.912 694.084 632.745 691.107 632.837 C 688.129 632.93 685.059 633.154 681.674 633.727 C 678.289 634.301 674.422 635.243 670.797 636.278 C 667.172 637.314 663.419 638.553 659.923 639.94 C 656.427 641.327 653.097 643.029 649.823 644.601 C 646.549 646.173 643.646 647.56 640.28 649.373 C 636.914 651.186 633.381 653.221 629.626 655.478 C 625.872 657.735 621.581 660.509 617.752 662.913 C 613.924 665.318 610.687 667.462 606.655 669.903 C 602.623 672.344 597.778 675.194 593.561 677.562 C 589.344 679.929 585.034 682.258 581.354 684.108 C 577.673 685.957 574.418 687.382 571.477 688.659 C 568.536 689.935 566.408 690.879 563.708 691.766 C 561.007 692.654 558.141 693.337 555.275 693.984 C 552.408 694.632 549.486 695.281 546.508 695.651 C 543.53 696.021 540.588 696.224 537.406 696.205 C 534.224 696.186 530.711 695.945 527.419 695.538 C 524.127 695.131 520.501 694.43 517.653 693.764 C 514.805 693.098 512.882 692.524 510.33 691.543 C 507.778 690.563 504.819 689.14 502.34 687.882 C 499.862 686.624 497.845 685.477 495.458 683.997 C 493.072 682.518 490.242 680.575 488.023 679.003 C 485.803 677.431 484.305 676.247 482.141 674.564 C 479.977 672.882 475.908 670.182 475.039 668.906 C 474.169 667.63 475.89 667.574 476.926 666.908 C 477.962 666.242 479.903 664.93 481.254 664.911 C 482.604 664.892 483.326 665.76 485.028 666.795 C 486.73 667.831 489.633 669.865 491.464 671.123 C 493.295 672.382 494.369 673.271 496.015 674.344 C 497.661 675.417 499.399 676.489 501.34 677.562 C 503.282 678.634 505.705 679.892 507.666 680.78 C 509.626 681.667 510.996 682.166 513.104 682.887 C 515.213 683.609 517.931 684.479 520.317 685.108 C 522.703 685.737 524.959 686.292 527.419 686.661 C 529.879 687.031 533.08 687.307 535.078 687.326 C 537.076 687.344 538.074 687.41 540.21 687.576 Z" fill-rule="nonzero" style="transform-box: fill-box; transform-origin: 50% 50%;" transform="matrix(-1, 0, 0, -1, 0.000028, -0.000031)"/>
    <path fill="#ac0000" d="M 148.886 710.356 C 151.022 710.522 153.148 710.125 154.628 709.995 C 156.108 709.866 161.768 708.276 164.728 707.444 C 167.687 706.612 169.776 705.928 172.384 705.003 C 174.991 704.078 177.562 703.116 180.373 701.896 C 183.185 700.675 186.423 699.084 189.253 697.678 C 192.082 696.272 194.467 695.014 197.352 693.46 C 200.238 691.906 203.495 690.167 206.565 688.355 C 209.635 686.543 212.816 684.417 215.775 682.586 C 218.734 680.755 221.62 678.961 224.321 677.371 C 227.021 675.78 229.295 674.578 231.977 673.043 C 234.659 671.507 237.081 670.008 240.41 668.158 C 243.739 666.308 248.642 663.571 251.953 661.943 C 255.264 660.315 257.52 659.52 260.276 658.392 C 263.032 657.263 265.456 656.172 268.489 655.174 C 271.522 654.175 275.461 653.102 278.476 652.4 C 281.49 651.697 283.579 651.31 286.575 650.959 C 289.572 650.607 293.456 650.311 296.452 650.292 C 299.449 650.273 301.447 650.457 304.554 650.846 C 307.662 651.234 312.305 652.049 315.098 652.623 C 317.89 653.196 319.165 653.529 321.31 654.287 C 323.456 655.045 325.676 656.135 327.969 657.171 C 330.263 658.207 333.074 659.448 335.071 660.502 C 337.069 661.556 338.897 662.432 340.377 663.357 C 341.857 664.281 337.946 662.683 338.575 662.352 C 339.204 662.021 345.421 665.49 344.126 666.36 C 342.831 667.229 343.503 668.224 342.449 668.02 C 341.395 667.817 341.455 667.959 340.679 666.997 C 339.902 666.035 339.307 665.773 338.623 664.94 C 337.939 664.108 335.998 663.239 334.407 662.499 C 332.817 661.76 330.818 661.112 329.079 660.502 C 327.341 659.892 326.101 659.393 323.974 658.838 C 321.848 658.283 318.945 657.652 316.318 657.171 C 313.692 656.69 310.972 656.21 308.216 655.951 C 305.46 655.692 302.76 655.525 299.783 655.617 C 296.805 655.71 293.735 655.934 290.35 656.507 C 286.965 657.081 283.098 658.023 279.473 659.058 C 275.848 660.094 272.095 661.333 268.599 662.72 C 265.103 664.107 261.773 665.809 258.499 667.381 C 255.225 668.953 252.322 670.34 248.956 672.153 C 245.59 673.966 242.057 676.001 238.302 678.258 C 234.548 680.515 230.257 683.289 226.428 685.693 C 222.6 688.098 219.363 690.242 215.331 692.683 C 211.299 695.124 206.454 697.974 202.237 700.342 C 198.02 702.709 193.71 705.038 190.03 706.888 C 186.349 708.737 183.094 710.162 180.153 711.439 C 177.212 712.715 175.084 713.659 172.384 714.546 C 169.683 715.434 166.817 716.117 163.951 716.764 C 161.084 717.412 158.162 718.061 155.184 718.431 C 152.206 718.801 149.264 719.004 146.082 718.985 C 142.9 718.966 139.387 718.725 136.095 718.318 C 132.803 717.911 129.177 717.21 126.329 716.544 C 123.481 715.878 121.558 715.304 119.006 714.323 C 116.454 713.343 113.495 711.92 111.016 710.662 C 108.538 709.404 106.521 708.257 104.134 706.777 C 101.748 705.298 98.918 703.355 96.699 701.783 C 94.479 700.211 92.981 699.027 90.817 697.344 C 88.653 695.662 84.584 692.962 83.715 691.686 C 82.845 690.41 84.566 690.354 85.602 689.688 C 86.638 689.022 88.579 687.71 89.93 687.691 C 91.28 687.672 92.002 688.54 93.704 689.575 C 95.406 690.611 98.309 692.645 100.14 693.903 C 101.971 695.162 103.045 696.051 104.691 697.124 C 106.337 698.197 108.075 699.269 110.016 700.342 C 111.958 701.414 114.381 702.672 116.342 703.56 C 118.302 704.447 119.672 704.946 121.78 705.667 C 123.889 706.389 126.607 707.259 128.993 707.888 C 131.379 708.517 133.635 709.072 136.095 709.441 C 138.555 709.811 141.756 710.087 143.754 710.106 C 145.752 710.124 146.75 710.19 148.886 710.356 Z" fill-rule="nonzero" style="transform-origin: 213.89px 684.638px;" transform="matrix(-1, 0, 0, -1, 0.000001, 0.000006)"/>
  </g>
</svg>