<?xml version="1.0" encoding="utf-8"?>
<svg viewBox="0 4.647 611.484 775.762" fill="none" stroke="none" stroke-linecap="square" stroke-miterlimit="10" xmlns="http://www.w3.org/2000/svg">
  <clipPath id="clip-1">
    <path d="m0 0l960.0 0l0 720.0l-960.0 0l0 -720.0z" clip-rule="nonzero"/>
  </clipPath>
  <clipPath id="clip-2">
    <path d="m0 0l960.0 0l0 720.0l-960.0 0l0 -720.0z" clip-rule="nonzero"/>
  </clipPath>
  <g clip-path="url(#clip-1)" transform="matrix(-0.713818013668, 0, 0, -0.997045099735, -139.642952768494, 2.446853912752)" style="transform-origin: 480px 361.044px;">
    <path fill="#000000" fill-opacity="0.0" d="M 0 2.088 L 960 2.088 L 960 722.088 L 0 722.088 L 0 2.088 Z" fill-rule="nonzero" style="transform-box: fill-box; transform-origin: 50% 50%;" transform="matrix(-1, 0, 0, -1, -0.000039, -0.000006)"/>
    <path fill="#ac0000" d="M 797.959 657.36 C 799.157 656.922 801.949 653.943 803.022 653.047 C 804.095 652.151 804.345 652.328 804.397 651.984 C 804.449 651.64 803.98 651.526 803.334 650.984 C 802.688 650.443 801.76 649.704 800.52 648.735 C 799.281 647.766 797.562 646.358 795.896 645.171 C 794.229 643.983 792.281 642.734 790.52 641.609 C 788.76 640.484 787.167 639.43 785.334 638.42 C 783.501 637.409 781.239 636.358 779.52 635.546 C 777.802 634.734 776.574 634.171 775.022 633.546 C 773.47 632.921 771.719 632.306 770.208 631.795 C 768.698 631.285 767.261 630.847 765.959 630.483 C 764.657 630.118 763.408 629.848 762.397 629.609 C 761.387 629.37 761.083 629.255 759.896 629.047 C 758.708 628.839 756.667 628.558 755.271 628.36 C 753.875 628.161 753.02 627.994 751.52 627.858 C 750.02 627.723 747.75 627.598 746.271 627.546 C 744.792 627.494 744.073 627.546 742.646 627.546 C 741.219 627.546 739.303 627.473 737.709 627.546 C 736.116 627.619 734.918 627.713 733.085 627.984 C 731.251 628.255 728.928 628.733 726.709 629.171 C 724.491 629.608 721.866 630.098 719.772 630.609 C 717.679 631.119 715.961 631.66 714.148 632.234 C 712.335 632.807 710.406 633.526 708.896 634.047 C 707.385 634.568 706.335 634.881 705.085 635.36 C 703.835 635.839 702.847 636.3 701.888 636.737 C 700.93 637.175 699.143 638.182 698.966 637.984 C 698.789 637.786 696.541 639.177 695.478 639.802 C 694.416 640.427 692.979 640.958 691.395 641.614 C 689.812 642.27 690.49 642.036 686.959 643.984 C 683.428 645.932 675.689 650.317 670.148 653.609 C 664.606 656.901 658.335 660.86 653.709 663.735 C 649.084 666.61 645.595 668.879 642.397 670.858 C 639.199 672.837 636.854 674.223 634.52 675.609 C 632.187 676.994 630.491 678.025 628.397 679.171 C 626.303 680.316 624.24 681.368 621.959 682.483 C 619.677 683.598 616.918 684.962 614.709 685.858 C 612.501 686.754 610.418 687.337 608.709 687.858 C 607.001 688.379 605.523 688.724 604.46 688.984 C 603.398 689.244 602.626 688.92 602.334 689.42 C 602.042 689.92 602.564 691.046 602.709 691.984 C 602.855 692.922 603.052 694.131 603.208 695.047 C 603.364 695.964 603.49 696.858 603.646 697.483 C 603.803 698.108 603.366 698.712 604.148 698.795 C 604.929 698.879 606.355 698.536 608.334 697.984 C 610.313 697.432 613.814 696.254 616.022 695.483 C 618.23 694.712 619.51 694.224 621.583 693.36 C 623.656 692.495 626.199 691.411 628.46 690.297 C 630.721 689.182 631.565 688.661 635.148 686.672 C 638.731 684.682 644.032 681.912 649.959 678.36 C 655.886 674.807 665.064 668.839 670.709 665.36 C 676.355 661.88 680.072 659.639 683.833 657.483 C 687.593 655.326 690.188 654.014 693.271 652.42 C 696.355 650.826 699.438 649.234 702.334 647.921 C 705.23 646.609 708.084 645.535 710.646 644.546 C 713.209 643.556 715.053 642.818 717.709 641.984 C 720.366 641.151 724.115 640.181 726.583 639.546 C 729.052 638.91 730.479 638.535 732.52 638.171 C 734.562 637.806 736.562 637.547 738.833 637.36 C 741.104 637.172 743.429 636.995 746.148 637.047 C 748.867 637.099 752.242 637.286 755.148 637.672 C 758.054 638.057 761.219 638.776 763.583 639.36 C 765.948 639.943 767.24 640.421 769.334 641.171 C 771.428 641.92 773.919 642.869 776.148 643.858 C 778.377 644.848 780.835 646.097 782.709 647.108 C 784.584 648.118 785.699 648.859 787.397 649.921 C 789.095 650.984 791.49 652.524 792.896 653.483 C 794.302 654.441 794.989 655.026 795.833 655.672 C 796.677 656.318 796.761 657.797 797.959 657.36 Z" fill-rule="nonzero" style="transform-box: fill-box; transform-origin: 50% 50%;" transform="matrix(-1, 0, 0, -1, -0.00012, 0.000015)"/>
    <path fill="#ac0000" d="M 892.552 709.63 C 892.385 710.473 890.688 710.578 889.303 711.38 C 887.917 712.183 885.333 714.058 884.24 714.443 C 883.146 714.829 883.637 714.547 882.741 713.693 C 881.846 712.838 880.586 711.067 878.867 709.317 C 877.148 707.568 874.481 705.048 872.429 703.194 C 870.376 701.34 868.385 699.621 866.552 698.194 C 864.719 696.767 863.085 695.734 861.429 694.63 C 859.773 693.526 857.875 692.34 856.615 691.569 C 855.355 690.799 855.169 690.682 853.867 690.005 C 852.565 689.328 850.471 688.277 848.804 687.506 C 847.137 686.736 845.461 686.026 843.867 685.38 C 842.273 684.734 840.875 684.171 839.24 683.63 C 837.604 683.088 835.949 682.61 834.053 682.131 C 832.158 681.652 829.721 681.11 827.867 680.756 C 826.013 680.401 824.647 680.213 822.927 680.005 C 821.208 679.797 819.323 679.61 817.552 679.506 C 815.781 679.402 814.053 679.37 812.303 679.38 C 810.553 679.391 808.803 679.434 807.053 679.569 C 805.304 679.705 803.554 679.913 801.804 680.194 C 800.054 680.475 798.354 680.82 796.552 681.257 C 794.75 681.694 792.844 682.236 790.99 682.819 C 789.137 683.402 787.231 684.058 785.429 684.756 C 783.627 685.453 781.93 686.12 780.179 687.005 C 778.429 687.89 776.646 688.964 774.927 690.068 C 773.209 691.172 771.627 692.307 769.867 693.63 C 768.107 694.952 765.897 696.64 764.366 698.005 C 762.834 699.37 761.782 700.527 760.678 701.819 C 759.574 703.11 758.564 704.954 757.741 705.756 C 756.918 706.557 756.668 706.348 755.741 706.63 C 754.814 706.911 753.315 707.162 752.179 707.443 C 751.044 707.725 750.022 708.047 748.927 708.317 C 747.833 708.588 746.469 708.87 745.615 709.068 C 744.761 709.266 743.742 709.913 743.804 709.506 C 743.867 709.1 744.761 708.234 745.99 706.63 C 747.22 705.026 749.805 701.59 751.179 699.882 C 752.554 698.173 752.917 697.756 754.24 696.38 C 755.563 695.005 757.564 693.057 759.116 691.63 C 760.668 690.203 761.885 689.131 763.552 687.819 C 765.219 686.506 767.325 684.954 769.116 683.756 C 770.908 682.557 772.324 681.723 774.303 680.63 C 776.282 679.536 779.043 678.1 780.99 677.194 C 782.938 676.288 784.157 675.861 785.99 675.194 C 787.824 674.527 789.98 673.767 791.99 673.194 C 794.001 672.621 796.022 672.162 798.053 671.756 C 800.085 671.349 802.065 671.037 804.179 670.756 C 806.294 670.474 808.866 670.203 810.741 670.068 C 812.616 669.933 813.387 669.882 815.429 669.945 C 817.47 670.007 820.709 670.204 822.99 670.443 C 825.272 670.683 827.023 671.026 829.116 671.38 C 831.21 671.735 833.385 672.059 835.552 672.569 C 837.719 673.08 839.543 673.589 842.116 674.443 C 844.689 675.297 848.668 676.766 850.99 677.693 C 853.313 678.62 854.324 679.151 856.053 680.005 C 857.783 680.859 859.428 681.704 861.366 682.819 C 863.303 683.933 865.595 685.286 867.678 686.693 C 869.762 688.099 872.138 689.965 873.867 691.257 C 875.596 692.549 876.522 693.173 878.053 694.443 C 879.585 695.714 881.543 697.475 883.053 698.882 C 884.564 700.288 885.908 701.642 887.116 702.882 C 888.325 704.121 889.397 705.193 890.303 706.317 C 891.209 707.442 892.719 708.786 892.552 709.63 Z" fill-rule="nonzero" style="transform-box: fill-box; transform-origin: 50% 50%;" transform="matrix(-1, 0, 0, -1, -0.000066, 0.000044)"/>
    <path fill="#ac0000" d="M 808.291 609.835 C 807.968 610.22 808.737 611.636 809.039 612.772 C 809.341 613.907 809.873 615.753 810.102 616.648 C 810.331 617.544 810.039 617.72 810.414 618.147 C 810.789 618.574 811.528 618.835 812.351 619.21 C 813.174 619.585 814.205 619.813 815.351 620.396 C 816.497 620.98 818.04 621.896 819.228 622.709 C 820.415 623.522 821.467 624.315 822.477 625.273 C 823.488 626.232 824.416 627.345 825.291 628.459 C 826.166 629.574 826.987 630.68 827.726 631.961 C 828.466 633.242 829.195 634.824 829.726 636.147 C 830.258 637.47 830.53 638.346 830.915 639.898 C 831.301 641.45 831.778 643.72 832.039 645.459 C 832.299 647.199 832.383 648.594 832.477 650.333 C 832.571 652.073 832.634 654.158 832.603 655.898 C 832.572 657.638 832.395 659.137 832.291 660.772 C 832.186 662.407 832.101 664.177 831.976 665.709 C 831.851 667.24 831.654 668.929 831.54 669.961 C 831.426 670.992 830.791 671.481 831.291 671.898 C 831.791 672.314 833.363 672.366 834.54 672.459 C 835.717 672.553 837.466 672.501 838.351 672.459 C 839.236 672.418 839.561 672.522 839.852 672.21 C 840.144 671.898 839.904 672.232 840.102 670.585 C 840.299 668.939 840.799 664.719 841.039 662.333 C 841.278 659.948 841.467 658.502 841.54 656.273 C 841.613 654.044 841.571 651.315 841.477 648.961 C 841.383 646.606 841.257 644.231 840.976 642.147 C 840.694 640.064 840.227 638.199 839.789 636.459 C 839.352 634.72 839.059 633.396 838.351 631.709 C 837.643 630.021 836.603 628.021 835.54 626.333 C 834.478 624.646 833.184 622.929 831.976 621.585 C 830.768 620.242 829.582 619.273 828.291 618.273 C 826.999 617.273 825.728 616.429 824.228 615.585 C 822.728 614.742 820.76 613.856 819.291 613.21 C 817.822 612.564 816.8 612.167 815.414 611.709 C 814.028 611.25 812.163 610.772 810.976 610.459 C 809.789 610.147 808.614 609.449 808.291 609.835 Z" fill-rule="nonzero" style="transform-box: fill-box; transform-origin: 50% 50%;" transform="matrix(-1, 0, 0, -1, 0.000002, -0.000087)"/>
    <path fill="#ac0000" d="M 845.195 632.087 C 844.34 632.004 843.601 633.588 842.882 634.213 C 842.164 634.838 841.487 635.307 840.882 635.838 C 840.278 636.369 839.602 636.931 839.258 637.399 C 838.914 637.868 838.663 638.242 838.819 638.649 C 838.976 639.055 839.476 639.015 840.195 639.838 C 840.913 640.661 842.256 642.347 843.132 643.586 C 844.007 644.825 844.749 646.086 845.447 647.273 C 846.145 648.461 846.686 649.441 847.321 650.712 C 847.956 651.983 848.664 653.317 849.258 654.901 C 849.851 656.484 850.403 658.453 850.882 660.213 C 851.361 661.973 851.767 663.483 852.132 665.462 C 852.497 667.441 852.821 670.108 853.071 672.087 C 853.322 674.066 853.466 675.805 853.633 677.336 C 853.8 678.868 853.926 679.773 854.071 681.273 C 854.217 682.773 854.382 684.742 854.507 686.336 C 854.632 687.931 854.455 690.004 854.819 690.838 C 855.184 691.671 855.915 691.336 856.696 691.336 C 857.477 691.336 858.549 691.035 859.507 690.838 C 860.466 690.64 861.644 690.286 862.447 690.15 C 863.249 690.014 863.873 690.066 864.321 690.024 C 864.768 689.983 865.017 690.109 865.132 689.901 C 865.246 689.693 865.102 689.952 865.008 688.775 C 864.915 687.598 864.799 685.244 864.57 682.838 C 864.341 680.431 863.935 676.764 863.633 674.336 C 863.331 671.909 863.103 670.326 862.759 668.273 C 862.415 666.221 861.997 663.982 861.57 662.024 C 861.143 660.066 860.757 658.327 860.195 656.525 C 859.632 654.724 858.903 652.942 858.195 651.213 C 857.487 649.484 856.779 647.775 855.945 646.15 C 855.112 644.525 854.08 642.817 853.195 641.462 C 852.309 640.108 851.497 639.149 850.633 638.024 C 849.769 636.899 848.915 635.701 848.008 634.712 C 847.102 633.722 846.049 632.17 845.195 632.087 Z" fill-rule="nonzero" style="transform-box: fill-box; transform-origin: 50% 50%;" transform="matrix(-1, 0, 0, -1, 0.000121, -0.000019)"/>
    <path fill="#ac0000" d="M 921.196 650.815 C 921.196 650.242 920.123 648.345 919.758 647.314 C 919.393 646.283 919.268 645.441 919.007 644.629 C 918.747 643.817 918.331 642.93 918.196 642.44 C 918.061 641.95 918.353 641.825 918.196 641.689 C 918.04 641.554 918.194 641.619 917.257 641.629 C 916.319 641.64 914.342 641.648 912.572 641.752 C 910.801 641.857 908.737 641.983 906.632 642.254 C 904.527 642.525 902.257 642.909 899.944 643.377 C 897.632 643.846 895.352 644.284 892.758 645.065 C 890.164 645.846 886.831 647.096 884.383 648.065 C 881.935 649.034 880.039 649.909 878.07 650.878 C 876.102 651.847 874.363 652.806 872.572 653.878 C 870.78 654.951 868.986 656.106 867.32 657.314 C 865.653 658.522 863.884 660.003 862.572 661.128 C 861.259 662.253 860.227 663.325 859.446 664.065 C 858.664 664.805 857.968 665.087 857.884 665.566 C 857.8 666.046 858.278 666.327 858.944 666.941 C 859.611 667.556 860.936 668.472 861.884 669.254 C 862.832 670.035 863.976 671.077 864.632 671.629 C 865.288 672.181 865.384 672.504 865.821 672.566 C 866.258 672.628 866.34 672.731 867.257 672.002 C 868.173 671.273 869.986 669.357 871.32 668.191 C 872.653 667.024 873.892 666.033 875.257 665.002 C 876.621 663.97 878.071 662.939 879.509 662.002 C 880.947 661.064 882.436 660.148 883.884 659.377 C 885.332 658.606 886.78 658.023 888.196 657.377 C 889.613 656.731 890.893 656.086 892.383 655.503 C 893.872 654.92 895.581 654.347 897.133 653.878 C 898.685 653.409 900.174 653.044 901.695 652.689 C 903.216 652.335 904.996 651.992 906.257 651.752 C 907.517 651.513 908.152 651.399 909.257 651.254 C 910.361 651.108 911.613 650.951 912.884 650.878 C 914.155 650.805 915.738 650.836 916.884 650.815 C 918.03 650.794 919.039 650.752 919.758 650.752 C 920.477 650.752 921.196 651.388 921.196 650.815 Z" fill-rule="nonzero" style="transform-box: fill-box; transform-origin: 50% 50%;" transform="matrix(-1, 0, 0, -1, 0.000136, 0.000062)"/>
    <path fill="#ac0000" d="M 949.453 629.617 C 949.359 630.477 947.116 631.73 946.088 632.646 C 945.06 633.562 944.013 634.459 943.285 635.113 C 942.556 635.767 942.22 636.476 941.715 636.57 C 941.21 636.663 941.265 636.251 940.256 635.672 C 939.247 635.093 936.987 633.711 935.66 633.095 C 934.333 632.478 933.529 632.401 932.295 631.971 C 931.061 631.541 929.733 630.832 928.256 630.514 C 926.779 630.197 924.911 630.178 923.434 630.066 C 921.958 629.954 920.725 629.787 919.398 629.843 C 918.07 629.899 916.892 630.103 915.471 630.402 C 914.05 630.7 912.312 631.149 910.873 631.635 C 909.433 632.121 907.976 632.776 906.836 633.318 C 905.696 633.86 905.248 634.084 904.033 634.887 C 902.818 635.691 900.912 636.962 899.547 638.139 C 898.183 639.317 896.837 640.85 895.846 641.953 C 894.856 643.056 894.387 643.69 893.602 644.756 C 892.817 645.822 891.789 647.169 891.135 648.347 C 890.481 649.524 890.164 650.513 889.678 651.822 C 889.192 653.13 888.593 654.814 888.219 656.197 C 887.845 657.58 887.64 658.588 887.434 660.121 C 887.229 661.654 886.911 663.244 886.985 665.394 C 887.06 667.543 887.509 671 887.883 673.018 C 888.257 675.037 888.463 675.747 889.23 677.504 C 889.996 679.261 891.323 681.749 892.482 683.562 C 893.64 685.375 894.855 686.851 896.182 688.383 C 897.51 689.916 899.08 691.485 900.445 692.756 C 901.809 694.027 902.985 694.945 904.369 696.011 C 905.752 697.076 907.361 698.234 908.744 699.15 C 910.127 700.065 911.322 700.719 912.668 701.504 C 914.013 702.289 915.584 703.263 916.818 703.861 C 918.051 704.459 919.378 704.403 920.069 705.095 C 920.761 705.786 920.631 706.609 920.967 708.011 C 921.304 709.412 921.863 712.102 922.088 713.504 C 922.312 714.906 922.687 716.065 922.314 716.42 C 921.94 716.775 921.267 716.233 919.846 715.635 C 918.426 715.037 916.2 714.028 913.789 712.832 C 911.377 711.636 907.865 709.936 905.379 708.459 C 902.893 706.983 900.854 705.373 898.873 703.971 C 896.891 702.569 895.153 701.43 893.489 700.047 C 891.826 698.664 890.258 697.093 888.894 695.672 C 887.529 694.251 886.313 692.868 885.303 691.522 C 884.293 690.177 883.733 689.075 882.836 687.598 C 881.939 686.122 880.742 684.384 879.92 682.664 C 879.097 680.944 878.499 679.094 877.901 677.281 C 877.304 675.468 876.706 673.729 876.332 671.785 C 875.958 669.841 875.679 668.009 875.66 665.617 C 875.641 663.224 875.883 659.805 876.219 657.43 C 876.555 655.056 877.006 653.429 877.678 651.373 C 878.351 649.317 879.359 646.963 880.256 645.095 C 881.153 643.226 882.09 641.656 883.062 640.16 C 884.034 638.665 884.836 637.579 886.088 636.121 C 887.34 634.663 889.153 632.758 890.573 631.412 C 891.994 630.067 893.192 629.057 894.613 628.047 C 896.034 627.038 897.64 626.158 899.098 625.354 C 900.556 624.551 901.791 623.899 903.361 623.226 C 904.931 622.553 906.911 621.841 908.518 621.318 C 910.125 620.794 911.321 620.364 913.004 620.084 C 914.686 619.804 916.744 619.729 918.613 619.635 C 920.482 619.542 922.387 619.392 924.219 619.522 C 926.051 619.653 927.565 619.971 929.602 620.42 C 931.64 620.869 934.407 621.505 936.445 622.215 C 938.482 622.926 940.127 623.804 941.828 624.682 C 943.529 625.561 945.379 626.663 946.65 627.486 C 947.92 628.308 949.546 628.757 949.453 629.617 Z" fill-rule="nonzero" style="transform-box: fill-box; transform-origin: 50% 50%;" transform="matrix(-1, 0, 0, -1, 0.000023, 0.000012)"/>
    <path fill="#ac0000" d="M 867.37 589.665 C 865.614 589.833 857.988 593.16 855.819 594.599 C 853.651 596.039 854.771 596.77 854.36 598.303 C 853.949 599.835 853.52 601.815 853.352 603.796 C 853.184 605.777 853.296 607.891 853.352 610.19 C 853.408 612.489 853.37 615.031 853.688 617.591 C 854.006 620.152 854.51 623.069 855.258 625.555 C 856.005 628.041 857.033 630.339 858.174 632.507 C 859.314 634.675 860.661 636.693 862.1 638.563 C 863.539 640.432 865.202 642.265 866.809 643.723 C 868.416 645.181 870.023 646.301 871.743 647.311 C 873.463 648.32 875.388 649.105 877.126 649.778 C 878.865 650.451 880.51 650.88 882.174 651.347 C 883.837 651.814 885.388 652.263 887.108 652.581 C 888.828 652.899 890.79 653.143 892.491 653.255 C 894.192 653.368 896.38 653.91 897.315 653.255 C 898.25 652.601 897.801 650.881 898.1 649.329 C 898.399 647.777 899.501 644.843 899.108 643.946 C 898.715 643.049 897.126 644.039 895.743 643.946 C 894.36 643.853 892.472 643.723 890.809 643.387 C 889.146 643.05 887.465 642.526 885.764 641.927 C 884.063 641.329 882.212 640.619 880.604 639.796 C 878.996 638.974 877.52 638.096 876.118 636.993 C 874.716 635.89 873.314 634.507 872.192 633.179 C 871.07 631.852 870.192 630.357 869.389 629.03 C 868.585 627.702 868.024 626.767 867.37 625.216 C 866.716 623.665 865.895 621.498 865.465 619.723 C 865.035 617.947 864.978 616.245 864.79 614.563 C 864.603 612.88 864.379 611.198 864.342 609.628 C 864.304 608.058 864.362 606.974 864.567 605.143 C 864.773 603.311 865.276 600.564 865.575 598.639 C 865.874 596.713 866.061 595.087 866.36 593.591 C 866.659 592.096 869.127 589.497 867.37 589.665 Z" fill-rule="nonzero" style="transform-box: fill-box; transform-origin: 50% 50%;" transform="matrix(-1, 0, 0, -1, 0.000102, 0.000005)"/>
    <path fill="#ac0000" d="M 880.231 617.22 C 880.791 618.416 881.201 623.501 881.126 625.071 C 881.051 626.641 880.847 626.191 879.782 626.64 C 878.717 627.089 876.492 627.39 874.735 627.764 C 872.978 628.138 871.351 628.473 869.239 628.884 C 867.127 629.295 864.811 629.782 862.063 630.231 C 859.315 630.679 855.445 631.257 852.753 631.575 C 850.062 631.892 848.156 631.968 845.913 632.136 C 843.671 632.305 841.671 632.473 839.297 632.585 C 836.923 632.697 833.707 632.83 831.669 632.811 C 829.632 632.792 828.155 632.79 827.071 632.472 C 825.987 632.154 825.633 631.931 825.165 630.903 C 824.698 629.875 824.473 627.407 824.268 626.304 C 824.062 625.201 823.147 624.603 823.932 624.286 C 824.717 623.968 826.678 624.361 828.976 624.399 C 831.275 624.436 835.07 624.549 837.724 624.512 C 840.379 624.474 842.454 624.36 844.903 624.173 C 847.352 623.986 850.137 623.669 852.417 623.388 C 854.698 623.108 856.099 622.92 858.585 622.491 C 861.071 622.061 864.717 621.39 867.333 620.811 C 869.95 620.232 872.548 619.502 874.286 619.015 C 876.025 618.529 876.773 618.194 877.764 617.895 C 878.755 617.596 879.671 616.024 880.231 617.22 Z" fill-rule="nonzero" style="transform-box: fill-box; transform-origin: 50% 50%;" transform="matrix(-1, 0, 0, -1, 0.000111, 0.000025)"/>
    <path fill="#ac0000" d="M 873.471 517.519 C 874.424 516.491 878.049 516.733 879.301 516.508 C 880.553 516.284 880.403 516.284 880.983 516.172 C 881.563 516.06 882.46 515.612 882.778 515.837 C 883.096 516.061 882.91 516.136 882.891 517.519 C 882.872 518.902 882.778 521.127 882.665 524.136 C 882.553 527.145 882.347 532.191 882.217 535.574 C 882.086 538.957 882.123 541.183 881.881 544.435 C 881.638 547.687 881.171 552.079 880.76 555.088 C 880.349 558.098 879.955 560.097 879.413 562.49 C 878.871 564.883 878.218 567.109 877.508 569.445 C 876.797 571.782 876.161 574.097 875.151 576.508 C 874.141 578.92 872.945 581.295 871.45 583.913 C 869.955 586.53 867.974 589.67 866.18 592.212 C 864.385 594.754 862.366 597.202 860.684 599.165 C 859.002 601.127 858.219 601.986 856.088 603.986 C 853.957 605.986 849.899 609.407 847.899 611.165 C 845.899 612.922 844.948 614.193 844.088 614.529 C 843.228 614.866 843.302 613.893 842.742 613.183 C 842.181 612.473 841.415 611.295 840.723 610.267 C 840.032 609.239 838.461 607.931 838.592 607.015 C 838.723 606.099 840.013 606.154 841.508 604.771 C 843.003 603.388 845.227 601.202 847.563 598.716 C 849.899 596.23 853.321 592.677 855.526 589.855 C 857.732 587.032 859.432 583.949 860.797 581.781 C 862.161 579.613 862.685 578.791 863.713 576.847 C 864.741 574.903 866.03 572.417 866.965 570.117 C 867.899 567.818 868.63 565.594 869.322 563.052 C 870.013 560.51 870.591 557.482 871.114 554.865 C 871.637 552.249 872.161 549.818 872.461 547.351 C 872.76 544.884 872.779 542.773 872.909 540.062 C 873.04 537.352 873.133 533.986 873.245 531.088 C 873.357 528.191 873.544 524.941 873.581 522.679 C 873.619 520.417 872.518 518.547 873.471 517.519 Z" fill-rule="nonzero" style="transform-box: fill-box; transform-origin: 50% 50%;" transform="matrix(-1, 0, 0, -1, -0.000119, -0.000076)"/>
    <path fill="#ac0000" d="M 764.692 551.377 C 765.496 550.125 767.946 550.388 769.852 549.921 C 771.758 549.454 774.037 548.985 776.13 548.574 C 778.223 548.163 780.373 547.734 782.411 547.454 C 784.449 547.173 786.356 547.041 788.356 546.892 C 790.356 546.742 792.299 546.556 794.411 546.556 C 796.523 546.556 798.617 546.63 801.028 546.892 C 803.439 547.153 806.785 547.677 808.878 548.125 C 810.972 548.574 812.206 549.08 813.589 549.585 C 814.973 550.09 815.888 550.482 817.177 551.154 C 818.467 551.827 820.093 552.855 821.327 553.622 C 822.561 554.388 823.345 554.65 824.579 555.753 C 825.813 556.856 827.588 558.799 828.729 560.238 C 829.869 561.677 830.636 562.93 831.422 564.388 C 832.207 565.846 832.917 567.491 833.44 568.986 C 833.963 570.482 834.318 571.602 834.561 573.359 C 834.803 575.116 835.009 577.359 834.897 579.527 C 834.785 581.695 834.262 584.575 833.889 586.37 C 833.515 588.164 833.328 588.891 832.655 590.293 C 831.982 591.695 831.03 593.286 829.852 594.782 C 828.674 596.277 827.047 597.996 825.589 599.267 C 824.131 600.538 822.805 601.509 821.104 602.406 C 819.403 603.303 817.326 604.146 815.382 604.65 C 813.438 605.155 811.346 605.379 809.44 605.435 C 807.533 605.491 806 605.435 803.944 604.986 C 801.888 604.538 799.496 603.939 797.104 602.742 C 794.712 601.546 791.627 599.49 789.589 597.808 C 787.552 596.126 786.261 594.557 784.878 592.65 C 783.495 590.744 782.243 588.519 781.29 586.37 C 780.337 584.22 779.645 581.772 779.159 579.753 C 778.673 577.734 778.524 576.257 778.374 574.257 C 778.225 572.257 778.187 569.566 778.261 567.753 C 778.336 565.94 778.299 564.163 778.823 563.377 C 779.347 562.592 780.319 563.116 781.403 563.041 C 782.487 562.967 784.355 562.95 785.327 562.931 C 786.299 562.913 786.955 562.502 787.235 562.931 C 787.516 563.361 787.066 564.144 787.009 565.509 C 786.953 566.873 786.803 569.416 786.897 571.118 C 786.99 572.819 787.122 573.996 787.571 575.716 C 788.02 577.436 788.935 579.884 789.589 581.435 C 790.243 582.986 790.542 583.64 791.495 585.023 C 792.448 586.406 793.963 588.501 795.309 589.734 C 796.655 590.968 797.963 591.677 799.571 592.425 C 801.179 593.172 803.085 593.902 804.954 594.22 C 806.824 594.538 809.048 594.613 810.786 594.333 C 812.524 594.052 814.037 593.267 815.382 592.538 C 816.728 591.808 817.925 590.855 818.86 589.957 C 819.795 589.06 820.318 588.275 820.991 587.154 C 821.664 586.033 822.429 584.464 822.897 583.23 C 823.364 581.997 823.645 581.062 823.794 579.753 C 823.944 578.444 823.85 576.723 823.794 575.377 C 823.738 574.031 823.907 573.097 823.458 571.677 C 823.01 570.256 821.87 568.126 821.104 566.855 C 820.338 565.584 819.869 565.005 818.86 564.052 C 817.85 563.099 816.485 562.014 815.046 561.136 C 813.607 560.258 811.851 559.38 810.225 558.782 C 808.599 558.184 807.029 557.922 805.29 557.548 C 803.552 557.174 801.626 556.706 799.794 556.538 C 797.962 556.369 796.261 556.519 794.298 556.538 C 792.336 556.556 790.226 556.482 788.02 556.65 C 785.814 556.819 783.233 557.23 781.065 557.548 C 778.896 557.866 776.747 558.238 775.009 558.556 C 773.271 558.873 771.964 559.135 770.637 559.454 C 769.31 559.772 767.887 560.24 767.046 560.464 C 766.205 560.688 765.926 561.305 765.589 560.8 C 765.253 560.295 765.177 559.006 765.028 557.435 C 764.878 555.865 763.888 552.63 764.692 551.377 Z" fill-rule="nonzero" style="transform-box: fill-box; transform-origin: 50% 50%;" transform="matrix(-1, 0, 0, -1, -0.000102, -0.000123)"/>
    <path fill="#ac0000" d="M 884.039 445.865 C 884.974 447.398 885.872 448.127 887.068 449.23 C 888.265 450.333 891.984 455.23 894.134 457.865 C 896.283 460.5 897.816 462.349 899.966 465.041 C 902.116 467.732 904.92 471.192 907.032 474.015 C 909.143 476.837 911.236 479.959 912.638 481.978 C 914.039 483.997 914.301 484.352 915.441 486.127 C 916.581 487.903 918.15 490.239 919.478 492.631 C 920.805 495.024 922.021 497.585 923.404 500.482 C 924.787 503.379 926.599 507.024 927.777 510.015 C 928.955 513.005 929.647 515.284 930.47 518.424 C 931.292 521.564 932.169 525.808 932.711 528.854 C 933.253 531.901 933.553 534.069 933.722 536.705 C 933.89 539.34 933.797 541.677 933.722 544.668 C 933.647 547.659 933.609 551.584 933.273 554.65 C 932.937 557.715 932.32 560.109 931.703 563.062 C 931.087 566.015 930.283 569.79 929.572 572.369 C 928.862 574.948 928.507 575.696 927.441 578.537 C 926.375 581.378 924.431 586.388 923.178 589.416 C 921.926 592.444 921.141 594.256 919.927 596.705 C 918.712 599.153 917.404 601.396 915.89 604.106 C 914.376 606.817 912.263 610.575 910.843 612.967 C 909.422 615.36 908.638 616.613 907.367 618.463 C 906.097 620.314 903.741 622.743 903.218 624.07 C 902.694 625.396 903.796 625.265 904.226 626.424 C 904.656 627.583 905.443 629.882 905.798 631.022 C 906.153 632.163 905.946 633.323 906.357 633.267 C 906.768 633.211 906.882 632.631 908.265 630.687 C 909.648 628.742 912.544 624.761 914.656 621.602 C 916.768 618.444 918.993 614.893 920.937 611.734 C 922.881 608.575 924.432 606.127 926.32 602.65 C 928.208 599.173 930.657 594.35 932.265 590.873 C 933.873 587.396 934.77 585.153 935.966 581.789 C 937.162 578.424 938.413 574.331 939.441 570.687 C 940.469 567.042 941.535 562.836 942.134 559.92 C 942.732 557.004 942.733 556.144 943.032 553.19 C 943.33 550.237 943.908 546.294 943.927 542.201 C 943.945 538.108 943.646 532.706 943.142 528.631 C 942.637 524.557 941.797 521.341 940.9 517.752 C 940.003 514.163 938.88 510.239 937.759 507.099 C 936.637 503.959 935.273 501.305 934.171 498.912 C 933.068 496.52 932.619 495.455 931.142 492.744 C 929.665 490.034 927.422 486.015 925.31 482.65 C 923.198 479.285 920.75 475.789 918.47 472.555 C 916.189 469.322 914.319 466.743 911.627 463.248 C 908.936 459.753 904.993 454.911 902.32 451.584 C 899.647 448.257 897.834 446.07 895.591 443.285 C 893.347 440.5 891.253 437.957 888.861 434.873 C 886.469 431.789 883.61 428.071 881.236 424.781 C 878.863 421.491 876.433 418.07 874.619 415.135 C 872.806 412.2 871.609 409.77 870.357 407.172 C 869.105 404.574 868.021 402.052 867.105 399.547 C 866.189 397.043 865.441 394.576 864.861 392.146 C 864.281 389.716 863.814 387.622 863.627 384.967 C 863.441 382.313 863.553 378.836 863.74 376.219 C 863.927 373.603 864.209 371.491 864.751 369.267 C 865.293 367.042 866.114 365.134 866.992 362.873 C 867.871 360.611 869.741 357.08 870.021 355.697 C 870.301 354.314 869.46 355.284 868.675 354.574 C 867.889 353.863 866.506 352.463 865.31 351.435 C 864.114 350.407 862.339 348.462 861.499 348.406 C 860.658 348.35 860.994 349.397 860.265 351.099 C 859.536 352.8 857.927 356.576 857.123 358.613 C 856.319 360.65 856.058 361.21 855.441 363.322 C 854.824 365.434 853.89 369.005 853.423 371.285 C 852.955 373.565 852.75 374.593 852.638 377.004 C 852.526 379.415 852.508 382.874 852.751 385.752 C 852.993 388.631 853.534 391.583 854.095 394.274 C 854.655 396.966 855.069 398.967 856.116 401.902 C 857.162 404.837 859.011 409.023 860.375 411.883 C 861.74 414.743 862.993 416.912 864.302 419.062 C 865.61 421.211 866.693 422.538 868.226 424.781 C 869.759 427.024 871.723 430.107 873.499 432.519 C 875.275 434.93 877.125 437.024 878.882 439.248 C 880.639 441.473 883.105 444.332 884.039 445.865 Z" fill-rule="nonzero" style="transform-box: fill-box; transform-origin: 50% 50%;" transform="matrix(-1, 0, 0, -1, -0.000078, -0.000024)"/>
    <path fill="#ac0000" d="M 911.905 318.452 C 912.915 319.891 917.551 341.556 919.084 342.116 C 920.617 342.676 918.073 313.911 916.84 314.864 C 915.606 315.817 914.747 318.64 913.701 318.229 C 912.654 317.818 911.456 314.528 910.559 312.397 C 909.662 310.266 908.915 308.061 908.317 305.444 C 907.719 302.827 907.195 299.425 906.971 296.696 C 906.747 293.967 906.896 291.704 906.971 289.069 C 907.046 286.433 907.214 283.35 907.42 280.882 C 907.625 278.415 907.756 276.733 908.205 274.266 C 908.653 271.798 909.493 268.397 910.11 266.079 C 910.727 263.762 911.251 262.173 911.905 260.36 C 912.56 258.547 913.195 256.994 914.037 255.2 C 914.878 253.406 915.943 251.5 916.953 249.594 C 917.962 247.687 919.12 245.538 920.092 243.762 C 921.064 241.986 921.42 241.068 922.785 238.937 C 924.149 236.807 927.552 232.808 928.281 230.977 C 929.009 229.145 927.606 228.976 927.157 227.948 C 926.709 226.92 926.092 225.762 925.588 224.809 C 925.083 223.856 924.654 222.248 924.131 222.229 C 923.608 222.21 923.57 222.659 922.449 224.696 C 921.327 226.733 918.803 231.704 917.401 234.452 C 915.999 237.199 915.177 238.789 914.037 241.182 C 912.896 243.574 911.681 246.136 910.559 248.809 C 909.437 251.482 908.279 254.545 907.307 257.218 C 906.335 259.891 905.325 262.528 904.727 264.846 C 904.129 267.164 904.037 268.304 903.719 271.126 C 903.401 273.949 903.027 278.808 902.821 281.78 C 902.616 284.752 902.485 286.881 902.485 288.956 C 902.485 291.031 902.597 292.135 902.821 294.229 C 903.046 296.322 903.383 299.293 903.832 301.518 C 904.281 303.742 904.73 305.575 905.514 307.575 C 906.299 309.575 907.475 311.705 908.541 313.518 C 909.606 315.33 910.896 317.013 911.905 318.452 Z" fill-rule="nonzero" style="transform-box: fill-box; transform-origin: 50% 50%;" transform="matrix(-1, 0, 0, -1, -0.000064, -0.000019)"/>
    <path fill="#ac0000" d="M 899.875 3.079 C 901.464 3.584 905.465 7.415 906.269 8.798 C 907.073 10.181 905.914 9.883 904.7 11.378 C 903.485 12.873 900.756 15.563 898.98 17.769 C 897.204 19.975 895.445 22.556 894.043 24.612 C 892.641 26.668 891.745 28.031 890.568 30.105 C 889.391 32.179 887.971 35.02 886.98 37.058 C 885.99 39.095 885.315 40.573 884.623 42.331 C 883.932 44.088 883.429 45.639 882.831 47.601 C 882.233 49.563 881.596 51.769 881.036 54.105 C 880.475 56.441 879.709 59.675 879.466 61.619 C 879.223 63.563 878.495 65.43 878.535 65.769 C 878.575 66.108 878.042 71.64 878.074 71.955 C 878.106 72.27 878.055 78.313 878.176 78.541 C 878.297 78.769 878.681 80.985 879.017 84.163 C 879.354 87.34 880.231 93.545 880.81 97.171 C 881.389 100.797 881.782 102.909 882.492 105.919 C 883.203 108.928 884.1 112.014 885.072 115.228 C 886.044 118.443 887.315 122.198 888.324 125.207 C 889.334 128.217 890.12 130.442 891.13 133.283 C 892.14 136.125 892.476 137.469 894.382 142.255 C 896.288 147.04 900.438 156.967 902.568 161.995 C 904.699 167.023 905.802 169.208 907.167 172.423 C 908.531 175.637 909.259 177.62 910.755 181.283 C 912.25 184.947 914.586 190.367 916.138 194.404 C 917.69 198.441 918.924 202.123 920.064 205.507 C 921.205 208.89 922.121 211.713 922.98 214.703 C 923.84 217.694 924.474 220.311 925.222 223.451 C 925.969 226.592 927.055 230.761 927.466 233.546 C 927.877 236.331 927.596 237.733 927.689 240.163 C 927.782 242.592 927.987 245.6 928.025 248.123 C 928.063 250.646 928.102 252.479 927.915 255.302 C 927.728 258.124 927.372 261.786 926.904 265.058 C 926.437 268.329 925.67 272.069 925.109 274.929 C 924.548 277.789 924.249 279.414 923.539 282.218 C 922.829 285.021 921.858 288.648 920.849 291.751 C 919.84 294.853 918.737 297.695 917.484 300.835 C 916.232 303.975 914.737 307.544 913.335 310.591 C 911.933 313.637 910.792 315.863 909.072 319.115 C 907.353 322.368 904.662 327.058 903.017 330.105 C 901.372 333.152 900.325 335.209 899.204 337.396 C 898.082 339.584 897.259 341.191 896.287 343.228 C 895.315 345.266 894.269 347.489 893.371 349.619 C 892.474 351.75 891.427 354.667 890.904 356.013 C 890.381 357.359 890.27 357.06 890.232 357.696 C 890.195 358.331 890.364 358.834 890.681 359.824 C 890.999 360.814 891.428 362.385 892.138 363.638 C 892.848 364.89 892.214 368.872 891.466 367.9 C 890.718 366.928 890.27 366.067 889.784 365.207 C 889.298 364.347 889.036 361.88 888.55 362.74 C 888.064 363.6 887.354 367.638 886.868 370.367 C 886.382 373.097 885.933 375.732 885.634 379.115 C 885.335 382.499 885.091 387.171 885.072 390.667 C 885.053 394.162 885.241 396.928 885.521 400.087 C 885.801 403.245 886.194 406.311 886.755 409.619 C 887.315 412.928 888.157 416.815 888.886 419.937 C 889.615 423.059 890.083 424.966 891.13 428.349 C 892.177 431.732 893.896 436.853 895.167 440.236 C 896.438 443.619 897.465 445.676 898.755 448.648 C 900.044 451.62 901.615 455.19 902.904 458.068 C 904.194 460.947 905.259 463.115 906.492 465.919 C 907.726 468.722 909.165 471.881 910.306 474.89 C 911.446 477.899 912.643 481.282 913.335 483.974 C 914.026 486.665 914.25 488.908 914.455 491.039 C 914.661 493.171 914.811 494.817 914.568 496.761 C 914.326 498.705 913.765 500.984 912.999 502.703 C 912.232 504.423 911.073 505.863 909.97 507.079 C 908.867 508.294 907.746 509.266 906.382 509.995 C 905.018 510.724 903.447 511.265 901.784 511.451 C 900.12 511.638 897.914 511.527 896.4 511.115 C 894.886 510.704 893.821 510.031 892.7 508.984 C 891.578 507.937 890.418 506.592 889.671 504.835 C 888.923 503.077 888.438 500.216 888.214 498.441 C 887.99 496.665 888.212 495.471 888.324 494.181 C 888.436 492.891 888.699 490.105 888.886 490.703 C 889.073 491.301 889.092 495.844 889.448 497.769 C 889.803 499.694 890.214 500.871 891.017 502.255 C 891.821 503.638 892.905 505.171 894.269 506.068 C 895.634 506.965 897.484 507.582 899.204 507.638 C 900.923 507.694 903.092 507.171 904.587 506.404 C 906.082 505.638 907.259 504.179 908.175 503.039 C 909.091 501.899 909.615 500.742 910.083 499.564 C 910.55 498.387 910.85 497.544 910.98 495.974 C 911.111 494.403 911.186 492.142 910.868 490.142 C 910.55 488.142 909.913 486.347 909.072 483.974 C 908.231 481.6 906.923 478.386 905.82 475.9 C 904.717 473.414 904.007 472.272 902.455 469.058 C 900.904 465.843 898.42 460.817 896.513 456.612 C 894.607 452.406 892.532 447.563 891.017 443.824 C 889.503 440.086 888.604 437.713 887.427 434.181 C 886.249 430.649 884.83 425.826 883.952 422.63 C 883.073 419.433 882.773 417.993 882.156 415.003 C 881.539 412.012 880.755 408.405 880.251 404.685 C 879.746 400.965 879.317 396.236 879.13 392.685 C 878.943 389.134 878.981 386.612 879.13 383.378 C 879.279 380.144 879.521 376.741 880.025 373.283 C 880.529 369.825 881.277 366.163 882.156 362.63 C 883.035 359.097 884.139 355.414 885.298 352.087 C 886.457 348.759 887.707 345.844 889.109 342.667 C 890.511 339.489 891.95 336.685 893.707 333.021 C 895.465 329.357 897.876 324.255 899.652 320.685 C 901.428 317.115 902.812 314.76 904.364 311.601 C 905.915 308.442 907.595 304.91 908.959 301.732 C 910.324 298.555 911.447 295.451 912.55 292.535 C 913.653 289.619 914.567 287.545 915.576 284.236 C 916.585 280.928 917.857 276.311 918.605 272.685 C 919.353 269.059 919.634 266.013 920.064 262.48 C 920.494 258.947 921.036 255.021 921.185 251.488 C 921.334 247.955 921.371 244.928 920.959 241.283 C 920.548 237.639 919.596 233.489 918.718 229.619 C 917.84 225.75 916.792 221.713 915.689 218.068 C 914.586 214.423 913.297 211.059 912.101 207.751 C 910.905 204.442 910.27 202.535 908.513 198.218 C 906.756 193.9 903.577 186.63 901.558 181.845 C 899.539 177.06 898.419 174.367 896.4 169.507 C 894.382 164.646 891.522 157.919 889.448 152.685 C 887.373 147.451 885.671 142.741 883.952 138.105 C 882.232 133.469 880.644 129.525 879.13 124.871 C 877.616 120.217 876.083 115.19 874.868 110.181 C 873.652 105.172 872.624 99.62 871.839 94.816 C 871.053 90.012 870.455 85.768 870.156 81.357 C 869.857 76.946 869.856 72.592 870.043 68.349 C 870.231 64.106 870.606 59.938 871.28 55.9 C 871.953 51.863 872.943 47.937 874.083 44.123 C 875.223 40.31 876.718 36.273 878.12 33.021 C 879.521 29.769 880.81 27.453 882.492 24.612 C 884.175 21.77 886.438 18.423 888.214 15.974 C 889.99 13.525 891.728 11.619 893.148 9.919 C 894.569 8.218 895.615 6.909 896.736 5.769 C 897.857 4.629 898.287 2.574 899.875 3.079 Z" fill-rule="nonzero" style="transform-box: fill-box; transform-origin: 50% 50%;" transform="matrix(-1, 0, 0, -1, -0.000024, 0.000027)"/>
    <path fill="#ac0000" d="M 191.061 652.999 C 189.995 653.149 189.059 655.672 188.255 656.7 C 187.451 657.728 186.274 658.494 186.236 659.167 C 186.199 659.84 186.424 659.522 188.032 660.737 C 189.639 661.952 192.686 664.477 195.882 666.459 C 199.078 668.44 203.955 671.075 207.207 672.626 C 210.46 674.178 212.63 674.831 215.396 675.766 C 218.163 676.7 220.872 677.56 223.806 678.233 C 226.74 678.906 229.451 679.316 233.003 679.802 C 236.554 680.288 241.265 680.999 245.116 681.149 C 248.966 681.298 252.442 680.999 256.105 680.7 C 259.769 680.401 263.658 679.821 267.097 679.354 C 270.536 678.886 272.946 678.607 276.74 677.897 C 280.535 677.187 285.695 676.084 289.864 675.094 C 294.032 674.103 297.77 673.092 301.751 671.952 C 305.732 670.812 309.956 669.447 313.751 668.251 C 317.545 667.055 320.947 665.935 324.517 664.776 C 328.087 663.617 331.526 662.514 335.171 661.298 C 338.816 660.083 343.04 658.625 346.386 657.485 C 349.732 656.345 351.882 655.617 355.247 654.459 C 358.611 653.3 363.395 651.56 366.572 650.532 C 369.75 649.504 371.247 649.148 374.312 648.288 C 377.378 647.428 382.088 646.157 384.966 645.372 C 387.844 644.587 389.097 644.196 391.583 643.579 C 394.069 642.962 397.172 642.251 399.882 641.671 C 402.592 641.091 404.986 640.55 407.845 640.102 C 410.705 639.653 414.199 639.261 417.04 638.981 C 419.88 638.7 422.291 638.55 424.89 638.419 C 427.488 638.288 430.48 638.214 432.63 638.196 C 434.78 638.178 436.218 637.954 437.788 638.309 C 439.357 638.664 443.47 639 443.62 638.645 C 443.769 638.29 445.322 638.344 447.097 638.419 C 448.873 638.494 451.32 638.869 454.273 639.094 C 457.226 639.318 461.657 639.485 464.816 639.766 C 467.976 640.046 470.537 640.384 473.228 640.776 C 475.92 641.168 478.181 641.616 480.966 642.12 C 483.751 642.624 487.246 643.242 489.937 643.802 C 492.629 644.363 494.611 644.886 497.116 645.485 C 499.62 646.083 502.237 646.664 504.966 647.393 C 507.695 648.122 510.367 648.851 513.488 649.86 C 516.61 650.869 520.892 652.476 523.696 653.448 C 526.5 654.42 528.051 654.889 530.312 655.692 C 532.574 656.496 534.704 657.354 537.265 658.27 C 539.826 659.185 543.154 660.363 545.677 661.186 C 548.2 662.008 550.236 662.605 552.404 663.204 C 554.572 663.802 556.816 664.383 558.685 664.776 C 560.554 665.169 561.844 665.43 563.62 665.561 C 565.395 665.692 567.526 665.598 569.339 665.561 C 571.152 665.523 572.854 665.634 574.499 665.335 C 576.144 665.036 577.749 664.457 579.207 663.766 C 580.665 663.074 582.144 662.008 583.247 661.186 C 584.35 660.363 585.021 659.896 585.824 658.831 C 586.628 657.766 587.564 656.402 588.068 654.794 C 588.573 653.187 589.059 650.943 588.853 649.186 C 588.648 647.428 587.825 645.634 586.835 644.251 C 585.844 642.868 584.313 641.765 582.911 640.886 C 581.509 640.008 579.956 639.467 578.423 638.981 C 576.89 638.495 575.415 638.195 573.714 637.97 C 572.013 637.746 569.9 637.672 568.218 637.634 C 566.536 637.597 564.928 637.654 563.62 637.747 C 562.311 637.841 560.068 638.102 560.368 638.196 C 560.667 638.29 563.471 638.122 565.415 638.309 C 567.359 638.496 570.069 638.887 572.032 639.317 C 573.994 639.746 575.6 640.195 577.189 640.886 C 578.778 641.578 580.387 642.532 581.564 643.466 C 582.742 644.401 583.638 645.486 584.255 646.495 C 584.872 647.504 585.116 648.587 585.265 649.522 C 585.415 650.456 585.321 651.167 585.152 652.102 C 584.984 653.036 585.021 654.065 584.255 655.13 C 583.488 656.196 581.918 657.542 580.554 658.495 C 579.19 659.448 577.844 660.289 576.068 660.85 C 574.293 661.41 572.068 661.748 569.9 661.86 C 567.732 661.972 565.509 661.933 563.06 661.522 C 560.612 661.11 557.619 660.103 555.207 659.393 C 552.796 658.683 551.245 658.215 548.591 657.262 C 545.937 656.308 543.47 655.279 539.284 653.671 C 535.097 652.063 527.283 649.036 523.47 647.616 C 519.657 646.196 518.928 646.008 516.404 645.149 C 513.881 644.289 511.34 643.356 508.331 642.459 C 505.322 641.561 502.368 640.775 498.349 639.766 C 494.33 638.756 488.293 637.242 484.218 636.401 C 480.143 635.56 478.742 635.372 473.9 634.718 C 469.059 634.064 460.685 632.981 455.171 632.477 C 449.657 631.973 444.686 631.861 440.816 631.692 C 436.947 631.524 434.928 631.485 431.956 631.466 C 428.984 631.448 426.592 631.355 422.984 631.579 C 419.377 631.804 415.004 632.177 410.312 632.813 C 405.621 633.448 400.424 634.234 394.835 635.393 C 389.246 636.552 382.107 638.345 376.78 639.766 C 371.452 641.186 366.162 642.924 362.872 643.915 C 359.581 644.906 360.292 644.664 357.04 645.71 C 353.787 646.757 348.478 648.532 343.357 650.196 C 338.236 651.86 331.434 654.047 326.312 655.692 C 321.191 657.337 316.929 658.775 312.63 660.065 C 308.331 661.354 302.723 662.832 300.517 663.43 C 298.312 664.028 300.985 663.223 299.396 663.653 C 297.808 664.083 294.012 665.262 290.984 666.01 C 287.956 666.757 284.668 667.447 281.228 668.138 C 277.789 668.83 273.77 669.636 270.349 670.159 C 266.928 670.683 263.769 670.981 260.704 671.28 C 257.638 671.579 255.712 671.933 251.956 671.952 C 248.199 671.971 242.48 671.766 238.163 671.393 C 233.845 671.019 229.658 670.421 226.05 669.71 C 222.442 669 219.452 668.102 216.517 667.13 C 213.583 666.158 210.986 665.056 208.444 663.878 C 205.902 662.701 203.564 661.411 201.265 660.065 C 198.966 658.719 196.349 656.98 194.648 655.802 C 192.948 654.625 192.126 652.85 191.06 652.999 L 191.061 652.999 Z" fill-rule="nonzero" style="transform-box: fill-box; transform-origin: 50% 50%;" transform="matrix(-1, 0, 0, -1, 0.000027, 0.000048)"/>
    <path fill="#ac0000" d="M 540.21 687.576 C 542.346 687.742 544.472 687.345 545.952 687.215 C 547.432 687.086 553.092 685.496 556.052 684.664 C 559.011 683.832 561.1 683.148 563.708 682.223 C 566.315 681.298 568.886 680.336 571.697 679.116 C 574.509 677.895 577.747 676.304 580.577 674.898 C 583.406 673.492 585.791 672.234 588.676 670.68 C 591.562 669.126 594.819 667.387 597.889 665.575 C 600.959 663.763 604.14 661.637 607.099 659.806 C 610.058 657.975 612.944 656.181 615.645 654.591 C 618.345 653 620.619 651.798 623.301 650.263 C 625.983 648.727 628.405 647.228 631.734 645.378 C 635.063 643.528 639.966 640.791 643.277 639.163 C 646.588 637.535 648.844 636.74 651.6 635.612 C 654.356 634.483 656.78 633.392 659.813 632.394 C 662.846 631.395 666.785 630.322 669.8 629.62 C 672.814 628.917 674.903 628.53 677.899 628.179 C 680.896 627.827 684.78 627.531 687.776 627.512 C 690.773 627.493 692.771 627.677 695.878 628.066 C 698.986 628.454 703.629 629.269 706.422 629.843 C 709.214 630.416 710.489 630.749 712.634 631.507 C 714.78 632.265 717 633.355 719.293 634.391 C 721.587 635.427 724.398 636.668 726.395 637.722 C 728.393 638.776 730.221 639.652 731.701 640.577 C 733.181 641.501 729.27 639.903 729.899 639.572 C 730.528 639.241 736.745 642.71 735.45 643.58 C 734.155 644.449 734.827 645.444 733.773 645.24 C 732.719 645.037 732.779 645.179 732.003 644.217 C 731.226 643.255 730.631 642.993 729.947 642.16 C 729.263 641.328 727.322 640.459 725.731 639.719 C 724.141 638.98 722.142 638.332 720.403 637.722 C 718.665 637.112 717.425 636.613 715.298 636.058 C 713.172 635.503 710.269 634.872 707.642 634.391 C 705.016 633.91 702.296 633.43 699.54 633.171 C 696.784 632.912 694.084 632.745 691.107 632.837 C 688.129 632.93 685.059 633.154 681.674 633.727 C 678.289 634.301 674.422 635.243 670.797 636.278 C 667.172 637.314 663.419 638.553 659.923 639.94 C 656.427 641.327 653.097 643.029 649.823 644.601 C 646.549 646.173 643.646 647.56 640.28 649.373 C 636.914 651.186 633.381 653.221 629.626 655.478 C 625.872 657.735 621.581 660.509 617.752 662.913 C 613.924 665.318 610.687 667.462 606.655 669.903 C 602.623 672.344 597.778 675.194 593.561 677.562 C 589.344 679.929 585.034 682.258 581.354 684.108 C 577.673 685.957 574.418 687.382 571.477 688.659 C 568.536 689.935 566.408 690.879 563.708 691.766 C 561.007 692.654 558.141 693.337 555.275 693.984 C 552.408 694.632 549.486 695.281 546.508 695.651 C 543.53 696.021 540.588 696.224 537.406 696.205 C 534.224 696.186 530.711 695.945 527.419 695.538 C 524.127 695.131 520.501 694.43 517.653 693.764 C 514.805 693.098 512.882 692.524 510.33 691.543 C 507.778 690.563 504.819 689.14 502.34 687.882 C 499.862 686.624 497.845 685.477 495.458 683.997 C 493.072 682.518 490.242 680.575 488.023 679.003 C 485.803 677.431 484.305 676.247 482.141 674.564 C 479.977 672.882 475.908 670.182 475.039 668.906 C 474.169 667.63 475.89 667.574 476.926 666.908 C 477.962 666.242 479.903 664.93 481.254 664.911 C 482.604 664.892 483.326 665.76 485.028 666.795 C 486.73 667.831 489.633 669.865 491.464 671.123 C 493.295 672.382 494.369 673.271 496.015 674.344 C 497.661 675.417 499.399 676.489 501.34 677.562 C 503.282 678.634 505.705 679.892 507.666 680.78 C 509.626 681.667 510.996 682.166 513.104 682.887 C 515.213 683.609 517.931 684.479 520.317 685.108 C 522.703 685.737 524.959 686.292 527.419 686.661 C 529.879 687.031 533.08 687.307 535.078 687.326 C 537.076 687.344 538.074 687.41 540.21 687.576 Z" fill-rule="nonzero" style="transform-box: fill-box; transform-origin: 50% 50%;" transform="matrix(-1, 0, 0, -1, 0.000028, -0.000031)"/>
  </g>
  <g clip-path="url(#clip-2)" transform="matrix(0.713818013668, 0, 0, 0.997045099735, -212.403211593628, 60.805511289729)" style="transform-origin: 480px 361.044px;">
    <path fill="#000000" fill-opacity="0.0" d="M 0 2.088 L 960 2.088 L 960 722.088 L 0 722.088 L 0 2.088 Z" fill-rule="nonzero" style="transform-box: fill-box; transform-origin: 50% 50%;" transform="matrix(-1, 0, 0, -1, -0.000039, -0.000006)"/>
    <path fill="#ac0000" d="M 797.959 657.36 C 799.157 656.922 801.949 653.943 803.022 653.047 C 804.095 652.151 804.345 652.328 804.397 651.984 C 804.449 651.64 803.98 651.526 803.334 650.984 C 802.688 650.443 801.76 649.704 800.52 648.735 C 799.281 647.766 797.562 646.358 795.896 645.171 C 794.229 643.983 792.281 642.734 790.52 641.609 C 788.76 640.484 787.167 639.43 785.334 638.42 C 783.501 637.409 781.239 636.358 779.52 635.546 C 777.802 634.734 776.574 634.171 775.022 633.546 C 773.47 632.921 771.719 632.306 770.208 631.795 C 768.698 631.285 767.261 630.847 765.959 630.483 C 764.657 630.118 763.408 629.848 762.397 629.609 C 761.387 629.37 761.083 629.255 759.896 629.047 C 758.708 628.839 756.667 628.558 755.271 628.36 C 753.875 628.161 753.02 627.994 751.52 627.858 C 750.02 627.723 747.75 627.598 746.271 627.546 C 744.792 627.494 744.073 627.546 742.646 627.546 C 741.219 627.546 739.303 627.473 737.709 627.546 C 736.116 627.619 734.918 627.713 733.085 627.984 C 731.251 628.255 728.928 628.733 726.709 629.171 C 724.491 629.608 721.866 630.098 719.772 630.609 C 717.679 631.119 715.961 631.66 714.148 632.234 C 712.335 632.807 710.406 633.526 708.896 634.047 C 707.385 634.568 706.335 634.881 705.085 635.36 C 703.835 635.839 702.847 636.3 701.888 636.737 C 700.93 637.175 699.143 638.182 698.966 637.984 C 698.789 637.786 696.541 639.177 695.478 639.802 C 694.416 640.427 692.979 640.958 691.395 641.614 C 689.812 642.27 690.49 642.036 686.959 643.984 C 683.428 645.932 675.689 650.317 670.148 653.609 C 664.606 656.901 658.335 660.86 653.709 663.735 C 649.084 666.61 645.595 668.879 642.397 670.858 C 639.199 672.837 636.854 674.223 634.52 675.609 C 632.187 676.994 630.491 678.025 628.397 679.171 C 626.303 680.316 624.24 681.368 621.959 682.483 C 619.677 683.598 616.918 684.962 614.709 685.858 C 612.501 686.754 610.418 687.337 608.709 687.858 C 607.001 688.379 605.523 688.724 604.46 688.984 C 603.398 689.244 602.626 688.92 602.334 689.42 C 602.042 689.92 602.564 691.046 602.709 691.984 C 602.855 692.922 603.052 694.131 603.208 695.047 C 603.364 695.964 603.49 696.858 603.646 697.483 C 603.803 698.108 603.366 698.712 604.148 698.795 C 604.929 698.879 606.355 698.536 608.334 697.984 C 610.313 697.432 613.814 696.254 616.022 695.483 C 618.23 694.712 619.51 694.224 621.583 693.36 C 623.656 692.495 626.199 691.411 628.46 690.297 C 630.721 689.182 631.565 688.661 635.148 686.672 C 638.731 684.682 644.032 681.912 649.959 678.36 C 655.886 674.807 665.064 668.839 670.709 665.36 C 676.355 661.88 680.072 659.639 683.833 657.483 C 687.593 655.326 690.188 654.014 693.271 652.42 C 696.355 650.826 699.438 649.234 702.334 647.921 C 705.23 646.609 708.084 645.535 710.646 644.546 C 713.209 643.556 715.053 642.818 717.709 641.984 C 720.366 641.151 724.115 640.181 726.583 639.546 C 729.052 638.91 730.479 638.535 732.52 638.171 C 734.562 637.806 736.562 637.547 738.833 637.36 C 741.104 637.172 743.429 636.995 746.148 637.047 C 748.867 637.099 752.242 637.286 755.148 637.672 C 758.054 638.057 761.219 638.776 763.583 639.36 C 765.948 639.943 767.24 640.421 769.334 641.171 C 771.428 641.92 773.919 642.869 776.148 643.858 C 778.377 644.848 780.835 646.097 782.709 647.108 C 784.584 648.118 785.699 648.859 787.397 649.921 C 789.095 650.984 791.49 652.524 792.896 653.483 C 794.302 654.441 794.989 655.026 795.833 655.672 C 796.677 656.318 796.761 657.797 797.959 657.36 Z" fill-rule="nonzero" style="transform-box: fill-box; transform-origin: 50% 50%;" transform="matrix(-1, 0, 0, -1, -0.00012, 0.000015)"/>
    <path fill="#ac0000" d="M 892.552 709.63 C 892.385 710.473 890.688 710.578 889.303 711.38 C 887.917 712.183 885.333 714.058 884.24 714.443 C 883.146 714.829 883.637 714.547 882.741 713.693 C 881.846 712.838 880.586 711.067 878.867 709.317 C 877.148 707.568 874.481 705.048 872.429 703.194 C 870.376 701.34 868.385 699.621 866.552 698.194 C 864.719 696.767 863.085 695.734 861.429 694.63 C 859.773 693.526 857.875 692.34 856.615 691.569 C 855.355 690.799 855.169 690.682 853.867 690.005 C 852.565 689.328 850.471 688.277 848.804 687.506 C 847.137 686.736 845.461 686.026 843.867 685.38 C 842.273 684.734 840.875 684.171 839.24 683.63 C 837.604 683.088 835.949 682.61 834.053 682.131 C 832.158 681.652 829.721 681.11 827.867 680.756 C 826.013 680.401 824.647 680.213 822.927 680.005 C 821.208 679.797 819.323 679.61 817.552 679.506 C 815.781 679.402 814.053 679.37 812.303 679.38 C 810.553 679.391 808.803 679.434 807.053 679.569 C 805.304 679.705 803.554 679.913 801.804 680.194 C 800.054 680.475 798.354 680.82 796.552 681.257 C 794.75 681.694 792.844 682.236 790.99 682.819 C 789.137 683.402 787.231 684.058 785.429 684.756 C 783.627 685.453 781.93 686.12 780.179 687.005 C 778.429 687.89 776.646 688.964 774.927 690.068 C 773.209 691.172 771.627 692.307 769.867 693.63 C 768.107 694.952 765.897 696.64 764.366 698.005 C 762.834 699.37 761.782 700.527 760.678 701.819 C 759.574 703.11 758.564 704.954 757.741 705.756 C 756.918 706.557 756.668 706.348 755.741 706.63 C 754.814 706.911 753.315 707.162 752.179 707.443 C 751.044 707.725 750.022 708.047 748.927 708.317 C 747.833 708.588 746.469 708.87 745.615 709.068 C 744.761 709.266 743.742 709.913 743.804 709.506 C 743.867 709.1 744.761 708.234 745.99 706.63 C 747.22 705.026 749.805 701.59 751.179 699.882 C 752.554 698.173 752.917 697.756 754.24 696.38 C 755.563 695.005 757.564 693.057 759.116 691.63 C 760.668 690.203 761.885 689.131 763.552 687.819 C 765.219 686.506 767.325 684.954 769.116 683.756 C 770.908 682.557 772.324 681.723 774.303 680.63 C 776.282 679.536 779.043 678.1 780.99 677.194 C 782.938 676.288 784.157 675.861 785.99 675.194 C 787.824 674.527 789.98 673.767 791.99 673.194 C 794.001 672.621 796.022 672.162 798.053 671.756 C 800.085 671.349 802.065 671.037 804.179 670.756 C 806.294 670.474 808.866 670.203 810.741 670.068 C 812.616 669.933 813.387 669.882 815.429 669.945 C 817.47 670.007 820.709 670.204 822.99 670.443 C 825.272 670.683 827.023 671.026 829.116 671.38 C 831.21 671.735 833.385 672.059 835.552 672.569 C 837.719 673.08 839.543 673.589 842.116 674.443 C 844.689 675.297 848.668 676.766 850.99 677.693 C 853.313 678.62 854.324 679.151 856.053 680.005 C 857.783 680.859 859.428 681.704 861.366 682.819 C 863.303 683.933 865.595 685.286 867.678 686.693 C 869.762 688.099 872.138 689.965 873.867 691.257 C 875.596 692.549 876.522 693.173 878.053 694.443 C 879.585 695.714 881.543 697.475 883.053 698.882 C 884.564 700.288 885.908 701.642 887.116 702.882 C 888.325 704.121 889.397 705.193 890.303 706.317 C 891.209 707.442 892.719 708.786 892.552 709.63 Z" fill-rule="nonzero" style="transform-box: fill-box; transform-origin: 50% 50%;" transform="matrix(-1, 0, 0, -1, -0.000066, 0.000044)"/>
    <path fill="#ac0000" d="M 808.291 609.835 C 807.968 610.22 808.737 611.636 809.039 612.772 C 809.341 613.907 809.873 615.753 810.102 616.648 C 810.331 617.544 810.039 617.72 810.414 618.147 C 810.789 618.574 811.528 618.835 812.351 619.21 C 813.174 619.585 814.205 619.813 815.351 620.396 C 816.497 620.98 818.04 621.896 819.228 622.709 C 820.415 623.522 821.467 624.315 822.477 625.273 C 823.488 626.232 824.416 627.345 825.291 628.459 C 826.166 629.574 826.987 630.68 827.726 631.961 C 828.466 633.242 829.195 634.824 829.726 636.147 C 830.258 637.47 830.53 638.346 830.915 639.898 C 831.301 641.45 831.778 643.72 832.039 645.459 C 832.299 647.199 832.383 648.594 832.477 650.333 C 832.571 652.073 832.634 654.158 832.603 655.898 C 832.572 657.638 832.395 659.137 832.291 660.772 C 832.186 662.407 832.101 664.177 831.976 665.709 C 831.851 667.24 831.654 668.929 831.54 669.961 C 831.426 670.992 830.791 671.481 831.291 671.898 C 831.791 672.314 833.363 672.366 834.54 672.459 C 835.717 672.553 837.466 672.501 838.351 672.459 C 839.236 672.418 839.561 672.522 839.852 672.21 C 840.144 671.898 839.904 672.232 840.102 670.585 C 840.299 668.939 840.799 664.719 841.039 662.333 C 841.278 659.948 841.467 658.502 841.54 656.273 C 841.613 654.044 841.571 651.315 841.477 648.961 C 841.383 646.606 841.257 644.231 840.976 642.147 C 840.694 640.064 840.227 638.199 839.789 636.459 C 839.352 634.72 839.059 633.396 838.351 631.709 C 837.643 630.021 836.603 628.021 835.54 626.333 C 834.478 624.646 833.184 622.929 831.976 621.585 C 830.768 620.242 829.582 619.273 828.291 618.273 C 826.999 617.273 825.728 616.429 824.228 615.585 C 822.728 614.742 820.76 613.856 819.291 613.21 C 817.822 612.564 816.8 612.167 815.414 611.709 C 814.028 611.25 812.163 610.772 810.976 610.459 C 809.789 610.147 808.614 609.449 808.291 609.835 Z" fill-rule="nonzero" style="transform-box: fill-box; transform-origin: 50% 50%;" transform="matrix(-1, 0, 0, -1, 0.000002, -0.000087)"/>
    <path fill="#ac0000" d="M 845.195 632.087 C 844.34 632.004 843.601 633.588 842.882 634.213 C 842.164 634.838 841.487 635.307 840.882 635.838 C 840.278 636.369 839.602 636.931 839.258 637.399 C 838.914 637.868 838.663 638.242 838.819 638.649 C 838.976 639.055 839.476 639.015 840.195 639.838 C 840.913 640.661 842.256 642.347 843.132 643.586 C 844.007 644.825 844.749 646.086 845.447 647.273 C 846.145 648.461 846.686 649.441 847.321 650.712 C 847.956 651.983 848.664 653.317 849.258 654.901 C 849.851 656.484 850.403 658.453 850.882 660.213 C 851.361 661.973 851.767 663.483 852.132 665.462 C 852.497 667.441 852.821 670.108 853.071 672.087 C 853.322 674.066 853.466 675.805 853.633 677.336 C 853.8 678.868 853.926 679.773 854.071 681.273 C 854.217 682.773 854.382 684.742 854.507 686.336 C 854.632 687.931 854.455 690.004 854.819 690.838 C 855.184 691.671 855.915 691.336 856.696 691.336 C 857.477 691.336 858.549 691.035 859.507 690.838 C 860.466 690.64 861.644 690.286 862.447 690.15 C 863.249 690.014 863.873 690.066 864.321 690.024 C 864.768 689.983 865.017 690.109 865.132 689.901 C 865.246 689.693 865.102 689.952 865.008 688.775 C 864.915 687.598 864.799 685.244 864.57 682.838 C 864.341 680.431 863.935 676.764 863.633 674.336 C 863.331 671.909 863.103 670.326 862.759 668.273 C 862.415 666.221 861.997 663.982 861.57 662.024 C 861.143 660.066 860.757 658.327 860.195 656.525 C 859.632 654.724 858.903 652.942 858.195 651.213 C 857.487 649.484 856.779 647.775 855.945 646.15 C 855.112 644.525 854.08 642.817 853.195 641.462 C 852.309 640.108 851.497 639.149 850.633 638.024 C 849.769 636.899 848.915 635.701 848.008 634.712 C 847.102 633.722 846.049 632.17 845.195 632.087 Z" fill-rule="nonzero" style="transform-box: fill-box; transform-origin: 50% 50%;" transform="matrix(-1, 0, 0, -1, 0.000121, -0.000019)"/>
    <path fill="#ac0000" d="M 921.196 650.815 C 921.196 650.242 920.123 648.345 919.758 647.314 C 919.393 646.283 919.268 645.441 919.007 644.629 C 918.747 643.817 918.331 642.93 918.196 642.44 C 918.061 641.95 918.353 641.825 918.196 641.689 C 918.04 641.554 918.194 641.619 917.257 641.629 C 916.319 641.64 914.342 641.648 912.572 641.752 C 910.801 641.857 908.737 641.983 906.632 642.254 C 904.527 642.525 902.257 642.909 899.944 643.377 C 897.632 643.846 895.352 644.284 892.758 645.065 C 890.164 645.846 886.831 647.096 884.383 648.065 C 881.935 649.034 880.039 649.909 878.07 650.878 C 876.102 651.847 874.363 652.806 872.572 653.878 C 870.78 654.951 868.986 656.106 867.32 657.314 C 865.653 658.522 863.884 660.003 862.572 661.128 C 861.259 662.253 860.227 663.325 859.446 664.065 C 858.664 664.805 857.968 665.087 857.884 665.566 C 857.8 666.046 858.278 666.327 858.944 666.941 C 859.611 667.556 860.936 668.472 861.884 669.254 C 862.832 670.035 863.976 671.077 864.632 671.629 C 865.288 672.181 865.384 672.504 865.821 672.566 C 866.258 672.628 866.34 672.731 867.257 672.002 C 868.173 671.273 869.986 669.357 871.32 668.191 C 872.653 667.024 873.892 666.033 875.257 665.002 C 876.621 663.97 878.071 662.939 879.509 662.002 C 880.947 661.064 882.436 660.148 883.884 659.377 C 885.332 658.606 886.78 658.023 888.196 657.377 C 889.613 656.731 890.893 656.086 892.383 655.503 C 893.872 654.92 895.581 654.347 897.133 653.878 C 898.685 653.409 900.174 653.044 901.695 652.689 C 903.216 652.335 904.996 651.992 906.257 651.752 C 907.517 651.513 908.152 651.399 909.257 651.254 C 910.361 651.108 911.613 650.951 912.884 650.878 C 914.155 650.805 915.738 650.836 916.884 650.815 C 918.03 650.794 919.039 650.752 919.758 650.752 C 920.477 650.752 921.196 651.388 921.196 650.815 Z" fill-rule="nonzero" style="transform-box: fill-box; transform-origin: 50% 50%;" transform="matrix(-1, 0, 0, -1, 0.000136, 0.000062)"/>
    <path fill="#ac0000" d="M 949.453 629.617 C 949.359 630.477 947.116 631.73 946.088 632.646 C 945.06 633.562 944.013 634.459 943.285 635.113 C 942.556 635.767 942.22 636.476 941.715 636.57 C 941.21 636.663 941.265 636.251 940.256 635.672 C 939.247 635.093 936.987 633.711 935.66 633.095 C 934.333 632.478 933.529 632.401 932.295 631.971 C 931.061 631.541 929.733 630.832 928.256 630.514 C 926.779 630.197 924.911 630.178 923.434 630.066 C 921.958 629.954 920.725 629.787 919.398 629.843 C 918.07 629.899 916.892 630.103 915.471 630.402 C 914.05 630.7 912.312 631.149 910.873 631.635 C 909.433 632.121 907.976 632.776 906.836 633.318 C 905.696 633.86 905.248 634.084 904.033 634.887 C 902.818 635.691 900.912 636.962 899.547 638.139 C 898.183 639.317 896.837 640.85 895.846 641.953 C 894.856 643.056 894.387 643.69 893.602 644.756 C 892.817 645.822 891.789 647.169 891.135 648.347 C 890.481 649.524 890.164 650.513 889.678 651.822 C 889.192 653.13 888.593 654.814 888.219 656.197 C 887.845 657.58 887.64 658.588 887.434 660.121 C 887.229 661.654 886.911 663.244 886.985 665.394 C 887.06 667.543 887.509 671 887.883 673.018 C 888.257 675.037 888.463 675.747 889.23 677.504 C 889.996 679.261 891.323 681.749 892.482 683.562 C 893.64 685.375 894.855 686.851 896.182 688.383 C 897.51 689.916 899.08 691.485 900.445 692.756 C 901.809 694.027 902.985 694.945 904.369 696.011 C 905.752 697.076 907.361 698.234 908.744 699.15 C 910.127 700.065 911.322 700.719 912.668 701.504 C 914.013 702.289 915.584 703.263 916.818 703.861 C 918.051 704.459 919.378 704.403 920.069 705.095 C 920.761 705.786 920.631 706.609 920.967 708.011 C 921.304 709.412 921.863 712.102 922.088 713.504 C 922.312 714.906 922.687 716.065 922.314 716.42 C 921.94 716.775 921.267 716.233 919.846 715.635 C 918.426 715.037 916.2 714.028 913.789 712.832 C 911.377 711.636 907.865 709.936 905.379 708.459 C 902.893 706.983 900.854 705.373 898.873 703.971 C 896.891 702.569 895.153 701.43 893.489 700.047 C 891.826 698.664 890.258 697.093 888.894 695.672 C 887.529 694.251 886.313 692.868 885.303 691.522 C 884.293 690.177 883.733 689.075 882.836 687.598 C 881.939 686.122 880.742 684.384 879.92 682.664 C 879.097 680.944 878.499 679.094 877.901 677.281 C 877.304 675.468 876.706 673.729 876.332 671.785 C 875.958 669.841 875.679 668.009 875.66 665.617 C 875.641 663.224 875.883 659.805 876.219 657.43 C 876.555 655.056 877.006 653.429 877.678 651.373 C 878.351 649.317 879.359 646.963 880.256 645.095 C 881.153 643.226 882.09 641.656 883.062 640.16 C 884.034 638.665 884.836 637.579 886.088 636.121 C 887.34 634.663 889.153 632.758 890.573 631.412 C 891.994 630.067 893.192 629.057 894.613 628.047 C 896.034 627.038 897.64 626.158 899.098 625.354 C 900.556 624.551 901.791 623.899 903.361 623.226 C 904.931 622.553 906.911 621.841 908.518 621.318 C 910.125 620.794 911.321 620.364 913.004 620.084 C 914.686 619.804 916.744 619.729 918.613 619.635 C 920.482 619.542 922.387 619.392 924.219 619.522 C 926.051 619.653 927.565 619.971 929.602 620.42 C 931.64 620.869 934.407 621.505 936.445 622.215 C 938.482 622.926 940.127 623.804 941.828 624.682 C 943.529 625.561 945.379 626.663 946.65 627.486 C 947.92 628.308 949.546 628.757 949.453 629.617 Z" fill-rule="nonzero" style="transform-box: fill-box; transform-origin: 50% 50%;" transform="matrix(-1, 0, 0, -1, 0.000023, 0.000012)"/>
    <path fill="#ac0000" d="M 867.37 589.665 C 865.614 589.833 857.988 593.16 855.819 594.599 C 853.651 596.039 854.771 596.77 854.36 598.303 C 853.949 599.835 853.52 601.815 853.352 603.796 C 853.184 605.777 853.296 607.891 853.352 610.19 C 853.408 612.489 853.37 615.031 853.688 617.591 C 854.006 620.152 854.51 623.069 855.258 625.555 C 856.005 628.041 857.033 630.339 858.174 632.507 C 859.314 634.675 860.661 636.693 862.1 638.563 C 863.539 640.432 865.202 642.265 866.809 643.723 C 868.416 645.181 870.023 646.301 871.743 647.311 C 873.463 648.32 875.388 649.105 877.126 649.778 C 878.865 650.451 880.51 650.88 882.174 651.347 C 883.837 651.814 885.388 652.263 887.108 652.581 C 888.828 652.899 890.79 653.143 892.491 653.255 C 894.192 653.368 896.38 653.91 897.315 653.255 C 898.25 652.601 897.801 650.881 898.1 649.329 C 898.399 647.777 899.501 644.843 899.108 643.946 C 898.715 643.049 897.126 644.039 895.743 643.946 C 894.36 643.853 892.472 643.723 890.809 643.387 C 889.146 643.05 887.465 642.526 885.764 641.927 C 884.063 641.329 882.212 640.619 880.604 639.796 C 878.996 638.974 877.52 638.096 876.118 636.993 C 874.716 635.89 873.314 634.507 872.192 633.179 C 871.07 631.852 870.192 630.357 869.389 629.03 C 868.585 627.702 868.024 626.767 867.37 625.216 C 866.716 623.665 865.895 621.498 865.465 619.723 C 865.035 617.947 864.978 616.245 864.79 614.563 C 864.603 612.88 864.379 611.198 864.342 609.628 C 864.304 608.058 864.362 606.974 864.567 605.143 C 864.773 603.311 865.276 600.564 865.575 598.639 C 865.874 596.713 866.061 595.087 866.36 593.591 C 866.659 592.096 869.127 589.497 867.37 589.665 Z" fill-rule="nonzero" style="transform-box: fill-box; transform-origin: 50% 50%;" transform="matrix(-1, 0, 0, -1, 0.000102, 0.000005)"/>
    <path fill="#ac0000" d="M 880.231 617.22 C 880.791 618.416 881.201 623.501 881.126 625.071 C 881.051 626.641 880.847 626.191 879.782 626.64 C 878.717 627.089 876.492 627.39 874.735 627.764 C 872.978 628.138 871.351 628.473 869.239 628.884 C 867.127 629.295 864.811 629.782 862.063 630.231 C 859.315 630.679 855.445 631.257 852.753 631.575 C 850.062 631.892 848.156 631.968 845.913 632.136 C 843.671 632.305 841.671 632.473 839.297 632.585 C 836.923 632.697 833.707 632.83 831.669 632.811 C 829.632 632.792 828.155 632.79 827.071 632.472 C 825.987 632.154 825.633 631.931 825.165 630.903 C 824.698 629.875 824.473 627.407 824.268 626.304 C 824.062 625.201 823.147 624.603 823.932 624.286 C 824.717 623.968 826.678 624.361 828.976 624.399 C 831.275 624.436 835.07 624.549 837.724 624.512 C 840.379 624.474 842.454 624.36 844.903 624.173 C 847.352 623.986 850.137 623.669 852.417 623.388 C 854.698 623.108 856.099 622.92 858.585 622.491 C 861.071 622.061 864.717 621.39 867.333 620.811 C 869.95 620.232 872.548 619.502 874.286 619.015 C 876.025 618.529 876.773 618.194 877.764 617.895 C 878.755 617.596 879.671 616.024 880.231 617.22 Z" fill-rule="nonzero" style="transform-box: fill-box; transform-origin: 50% 50%;" transform="matrix(-1, 0, 0, -1, 0.000111, 0.000025)"/>
    <path fill="#ac0000" d="M 873.471 517.519 C 874.424 516.491 878.049 516.733 879.301 516.508 C 880.553 516.284 880.403 516.284 880.983 516.172 C 881.563 516.06 882.46 515.612 882.778 515.837 C 883.096 516.061 882.91 516.136 882.891 517.519 C 882.872 518.902 882.778 521.127 882.665 524.136 C 882.553 527.145 882.347 532.191 882.217 535.574 C 882.086 538.957 882.123 541.183 881.881 544.435 C 881.638 547.687 881.171 552.079 880.76 555.088 C 880.349 558.098 879.955 560.097 879.413 562.49 C 878.871 564.883 878.218 567.109 877.508 569.445 C 876.797 571.782 876.161 574.097 875.151 576.508 C 874.141 578.92 872.945 581.295 871.45 583.913 C 869.955 586.53 867.974 589.67 866.18 592.212 C 864.385 594.754 862.366 597.202 860.684 599.165 C 859.002 601.127 858.219 601.986 856.088 603.986 C 853.957 605.986 849.899 609.407 847.899 611.165 C 845.899 612.922 844.948 614.193 844.088 614.529 C 843.228 614.866 843.302 613.893 842.742 613.183 C 842.181 612.473 841.415 611.295 840.723 610.267 C 840.032 609.239 838.461 607.931 838.592 607.015 C 838.723 606.099 840.013 606.154 841.508 604.771 C 843.003 603.388 845.227 601.202 847.563 598.716 C 849.899 596.23 853.321 592.677 855.526 589.855 C 857.732 587.032 859.432 583.949 860.797 581.781 C 862.161 579.613 862.685 578.791 863.713 576.847 C 864.741 574.903 866.03 572.417 866.965 570.117 C 867.899 567.818 868.63 565.594 869.322 563.052 C 870.013 560.51 870.591 557.482 871.114 554.865 C 871.637 552.249 872.161 549.818 872.461 547.351 C 872.76 544.884 872.779 542.773 872.909 540.062 C 873.04 537.352 873.133 533.986 873.245 531.088 C 873.357 528.191 873.544 524.941 873.581 522.679 C 873.619 520.417 872.518 518.547 873.471 517.519 Z" fill-rule="nonzero" style="transform-box: fill-box; transform-origin: 50% 50%;" transform="matrix(-1, 0, 0, -1, -0.000119, -0.000076)"/>
    <path fill="#ac0000" d="M 764.692 551.377 C 765.496 550.125 767.946 550.388 769.852 549.921 C 771.758 549.454 774.037 548.985 776.13 548.574 C 778.223 548.163 780.373 547.734 782.411 547.454 C 784.449 547.173 786.356 547.041 788.356 546.892 C 790.356 546.742 792.299 546.556 794.411 546.556 C 796.523 546.556 798.617 546.63 801.028 546.892 C 803.439 547.153 806.785 547.677 808.878 548.125 C 810.972 548.574 812.206 549.08 813.589 549.585 C 814.973 550.09 815.888 550.482 817.177 551.154 C 818.467 551.827 820.093 552.855 821.327 553.622 C 822.561 554.388 823.345 554.65 824.579 555.753 C 825.813 556.856 827.588 558.799 828.729 560.238 C 829.869 561.677 830.636 562.93 831.422 564.388 C 832.207 565.846 832.917 567.491 833.44 568.986 C 833.963 570.482 834.318 571.602 834.561 573.359 C 834.803 575.116 835.009 577.359 834.897 579.527 C 834.785 581.695 834.262 584.575 833.889 586.37 C 833.515 588.164 833.328 588.891 832.655 590.293 C 831.982 591.695 831.03 593.286 829.852 594.782 C 828.674 596.277 827.047 597.996 825.589 599.267 C 824.131 600.538 822.805 601.509 821.104 602.406 C 819.403 603.303 817.326 604.146 815.382 604.65 C 813.438 605.155 811.346 605.379 809.44 605.435 C 807.533 605.491 806 605.435 803.944 604.986 C 801.888 604.538 799.496 603.939 797.104 602.742 C 794.712 601.546 791.627 599.49 789.589 597.808 C 787.552 596.126 786.261 594.557 784.878 592.65 C 783.495 590.744 782.243 588.519 781.29 586.37 C 780.337 584.22 779.645 581.772 779.159 579.753 C 778.673 577.734 778.524 576.257 778.374 574.257 C 778.225 572.257 778.187 569.566 778.261 567.753 C 778.336 565.94 778.299 564.163 778.823 563.377 C 779.347 562.592 780.319 563.116 781.403 563.041 C 782.487 562.967 784.355 562.95 785.327 562.931 C 786.299 562.913 786.955 562.502 787.235 562.931 C 787.516 563.361 787.066 564.144 787.009 565.509 C 786.953 566.873 786.803 569.416 786.897 571.118 C 786.99 572.819 787.122 573.996 787.571 575.716 C 788.02 577.436 788.935 579.884 789.589 581.435 C 790.243 582.986 790.542 583.64 791.495 585.023 C 792.448 586.406 793.963 588.501 795.309 589.734 C 796.655 590.968 797.963 591.677 799.571 592.425 C 801.179 593.172 803.085 593.902 804.954 594.22 C 806.824 594.538 809.048 594.613 810.786 594.333 C 812.524 594.052 814.037 593.267 815.382 592.538 C 816.728 591.808 817.925 590.855 818.86 589.957 C 819.795 589.06 820.318 588.275 820.991 587.154 C 821.664 586.033 822.429 584.464 822.897 583.23 C 823.364 581.997 823.645 581.062 823.794 579.753 C 823.944 578.444 823.85 576.723 823.794 575.377 C 823.738 574.031 823.907 573.097 823.458 571.677 C 823.01 570.256 821.87 568.126 821.104 566.855 C 820.338 565.584 819.869 565.005 818.86 564.052 C 817.85 563.099 816.485 562.014 815.046 561.136 C 813.607 560.258 811.851 559.38 810.225 558.782 C 808.599 558.184 807.029 557.922 805.29 557.548 C 803.552 557.174 801.626 556.706 799.794 556.538 C 797.962 556.369 796.261 556.519 794.298 556.538 C 792.336 556.556 790.226 556.482 788.02 556.65 C 785.814 556.819 783.233 557.23 781.065 557.548 C 778.896 557.866 776.747 558.238 775.009 558.556 C 773.271 558.873 771.964 559.135 770.637 559.454 C 769.31 559.772 767.887 560.24 767.046 560.464 C 766.205 560.688 765.926 561.305 765.589 560.8 C 765.253 560.295 765.177 559.006 765.028 557.435 C 764.878 555.865 763.888 552.63 764.692 551.377 Z" fill-rule="nonzero" style="transform-box: fill-box; transform-origin: 50% 50%;" transform="matrix(-1, 0, 0, -1, -0.000102, -0.000123)"/>
    <path fill="#ac0000" d="M 884.039 445.865 C 884.974 447.398 885.872 448.127 887.068 449.23 C 888.265 450.333 891.984 455.23 894.134 457.865 C 896.283 460.5 897.816 462.349 899.966 465.041 C 902.116 467.732 904.92 471.192 907.032 474.015 C 909.143 476.837 911.236 479.959 912.638 481.978 C 914.039 483.997 914.301 484.352 915.441 486.127 C 916.581 487.903 918.15 490.239 919.478 492.631 C 920.805 495.024 922.021 497.585 923.404 500.482 C 924.787 503.379 926.599 507.024 927.777 510.015 C 928.955 513.005 929.647 515.284 930.47 518.424 C 931.292 521.564 932.169 525.808 932.711 528.854 C 933.253 531.901 933.553 534.069 933.722 536.705 C 933.89 539.34 933.797 541.677 933.722 544.668 C 933.647 547.659 933.609 551.584 933.273 554.65 C 932.937 557.715 932.32 560.109 931.703 563.062 C 931.087 566.015 930.283 569.79 929.572 572.369 C 928.862 574.948 928.507 575.696 927.441 578.537 C 926.375 581.378 924.431 586.388 923.178 589.416 C 921.926 592.444 921.141 594.256 919.927 596.705 C 918.712 599.153 917.404 601.396 915.89 604.106 C 914.376 606.817 912.263 610.575 910.843 612.967 C 909.422 615.36 908.638 616.613 907.367 618.463 C 906.097 620.314 903.741 622.743 903.218 624.07 C 902.694 625.396 903.796 625.265 904.226 626.424 C 904.656 627.583 905.443 629.882 905.798 631.022 C 906.153 632.163 905.946 633.323 906.357 633.267 C 906.768 633.211 906.882 632.631 908.265 630.687 C 909.648 628.742 912.544 624.761 914.656 621.602 C 916.768 618.444 918.993 614.893 920.937 611.734 C 922.881 608.575 924.432 606.127 926.32 602.65 C 928.208 599.173 930.657 594.35 932.265 590.873 C 933.873 587.396 934.77 585.153 935.966 581.789 C 937.162 578.424 938.413 574.331 939.441 570.687 C 940.469 567.042 941.535 562.836 942.134 559.92 C 942.732 557.004 942.733 556.144 943.032 553.19 C 943.33 550.237 943.908 546.294 943.927 542.201 C 943.945 538.108 943.646 532.706 943.142 528.631 C 942.637 524.557 941.797 521.341 940.9 517.752 C 940.003 514.163 938.88 510.239 937.759 507.099 C 936.637 503.959 935.273 501.305 934.171 498.912 C 933.068 496.52 932.619 495.455 931.142 492.744 C 929.665 490.034 927.422 486.015 925.31 482.65 C 923.198 479.285 920.75 475.789 918.47 472.555 C 916.189 469.322 914.319 466.743 911.627 463.248 C 908.936 459.753 904.993 454.911 902.32 451.584 C 899.647 448.257 897.834 446.07 895.591 443.285 C 893.347 440.5 891.253 437.957 888.861 434.873 C 886.469 431.789 883.61 428.071 881.236 424.781 C 878.863 421.491 876.433 418.07 874.619 415.135 C 872.806 412.2 871.609 409.77 870.357 407.172 C 869.105 404.574 868.021 402.052 867.105 399.547 C 866.189 397.043 865.441 394.576 864.861 392.146 C 864.281 389.716 863.814 387.622 863.627 384.967 C 863.441 382.313 863.553 378.836 863.74 376.219 C 863.927 373.603 864.209 371.491 864.751 369.267 C 865.293 367.042 866.114 365.134 866.992 362.873 C 867.871 360.611 869.741 357.08 870.021 355.697 C 870.301 354.314 869.46 355.284 868.675 354.574 C 867.889 353.863 866.506 352.463 865.31 351.435 C 864.114 350.407 862.339 348.462 861.499 348.406 C 860.658 348.35 860.994 349.397 860.265 351.099 C 859.536 352.8 857.927 356.576 857.123 358.613 C 856.319 360.65 856.058 361.21 855.441 363.322 C 854.824 365.434 853.89 369.005 853.423 371.285 C 852.955 373.565 852.75 374.593 852.638 377.004 C 852.526 379.415 852.508 382.874 852.751 385.752 C 852.993 388.631 853.534 391.583 854.095 394.274 C 854.655 396.966 855.069 398.967 856.116 401.902 C 857.162 404.837 859.011 409.023 860.375 411.883 C 861.74 414.743 862.993 416.912 864.302 419.062 C 865.61 421.211 866.693 422.538 868.226 424.781 C 869.759 427.024 871.723 430.107 873.499 432.519 C 875.275 434.93 877.125 437.024 878.882 439.248 C 880.639 441.473 883.105 444.332 884.039 445.865 Z" fill-rule="nonzero" style="transform-box: fill-box; transform-origin: 50% 50%;" transform="matrix(-1, 0, 0, -1, -0.000078, -0.000024)"/>
    <path fill="#ac0000" d="M 911.905 318.452 C 912.915 319.891 917.551 341.556 919.084 342.116 C 920.617 342.676 918.073 313.911 916.84 314.864 C 915.606 315.817 914.747 318.64 913.701 318.229 C 912.654 317.818 911.456 314.528 910.559 312.397 C 909.662 310.266 908.915 308.061 908.317 305.444 C 907.719 302.827 907.195 299.425 906.971 296.696 C 906.747 293.967 906.896 291.704 906.971 289.069 C 907.046 286.433 907.214 283.35 907.42 280.882 C 907.625 278.415 907.756 276.733 908.205 274.266 C 908.653 271.798 909.493 268.397 910.11 266.079 C 910.727 263.762 911.251 262.173 911.905 260.36 C 912.56 258.547 913.195 256.994 914.037 255.2 C 914.878 253.406 915.943 251.5 916.953 249.594 C 917.962 247.687 919.12 245.538 920.092 243.762 C 921.064 241.986 921.42 241.068 922.785 238.937 C 924.149 236.807 927.552 232.808 928.281 230.977 C 929.009 229.145 927.606 228.976 927.157 227.948 C 926.709 226.92 926.092 225.762 925.588 224.809 C 925.083 223.856 924.654 222.248 924.131 222.229 C 923.608 222.21 923.57 222.659 922.449 224.696 C 921.327 226.733 918.803 231.704 917.401 234.452 C 915.999 237.199 915.177 238.789 914.037 241.182 C 912.896 243.574 911.681 246.136 910.559 248.809 C 909.437 251.482 908.279 254.545 907.307 257.218 C 906.335 259.891 905.325 262.528 904.727 264.846 C 904.129 267.164 904.037 268.304 903.719 271.126 C 903.401 273.949 903.027 278.808 902.821 281.78 C 902.616 284.752 902.485 286.881 902.485 288.956 C 902.485 291.031 902.597 292.135 902.821 294.229 C 903.046 296.322 903.383 299.293 903.832 301.518 C 904.281 303.742 904.73 305.575 905.514 307.575 C 906.299 309.575 907.475 311.705 908.541 313.518 C 909.606 315.33 910.896 317.013 911.905 318.452 Z" fill-rule="nonzero" style="transform-box: fill-box; transform-origin: 50% 50%;" transform="matrix(-1, 0, 0, -1, -0.000064, -0.000019)"/>
    <path fill="#ac0000" d="M 899.875 3.079 C 901.464 3.584 905.465 7.415 906.269 8.798 C 907.073 10.181 905.914 9.883 904.7 11.378 C 903.485 12.873 900.756 15.563 898.98 17.769 C 897.204 19.975 895.445 22.556 894.043 24.612 C 892.641 26.668 891.745 28.031 890.568 30.105 C 889.391 32.179 887.971 35.02 886.98 37.058 C 885.99 39.095 885.315 40.573 884.623 42.331 C 883.932 44.088 883.429 45.639 882.831 47.601 C 882.233 49.563 881.596 51.769 881.036 54.105 C 880.475 56.441 879.709 59.675 879.466 61.619 C 879.223 63.563 878.495 65.43 878.535 65.769 C 878.575 66.108 878.042 71.64 878.074 71.955 C 878.106 72.27 878.055 78.313 878.176 78.541 C 878.297 78.769 878.681 80.985 879.017 84.163 C 879.354 87.34 880.231 93.545 880.81 97.171 C 881.389 100.797 881.782 102.909 882.492 105.919 C 883.203 108.928 884.1 112.014 885.072 115.228 C 886.044 118.443 887.315 122.198 888.324 125.207 C 889.334 128.217 890.12 130.442 891.13 133.283 C 892.14 136.125 892.476 137.469 894.382 142.255 C 896.288 147.04 900.438 156.967 902.568 161.995 C 904.699 167.023 905.802 169.208 907.167 172.423 C 908.531 175.637 909.259 177.62 910.755 181.283 C 912.25 184.947 914.586 190.367 916.138 194.404 C 917.69 198.441 918.924 202.123 920.064 205.507 C 921.205 208.89 922.121 211.713 922.98 214.703 C 923.84 217.694 924.474 220.311 925.222 223.451 C 925.969 226.592 927.055 230.761 927.466 233.546 C 927.877 236.331 927.596 237.733 927.689 240.163 C 927.782 242.592 927.987 245.6 928.025 248.123 C 928.063 250.646 928.102 252.479 927.915 255.302 C 927.728 258.124 927.372 261.786 926.904 265.058 C 926.437 268.329 925.67 272.069 925.109 274.929 C 924.548 277.789 924.249 279.414 923.539 282.218 C 922.829 285.021 921.858 288.648 920.849 291.751 C 919.84 294.853 918.737 297.695 917.484 300.835 C 916.232 303.975 914.737 307.544 913.335 310.591 C 911.933 313.637 910.792 315.863 909.072 319.115 C 907.353 322.368 904.662 327.058 903.017 330.105 C 901.372 333.152 900.325 335.209 899.204 337.396 C 898.082 339.584 897.259 341.191 896.287 343.228 C 895.315 345.266 894.269 347.489 893.371 349.619 C 892.474 351.75 891.427 354.667 890.904 356.013 C 890.381 357.359 890.27 357.06 890.232 357.696 C 890.195 358.331 890.364 358.834 890.681 359.824 C 890.999 360.814 891.428 362.385 892.138 363.638 C 892.848 364.89 892.214 368.872 891.466 367.9 C 890.718 366.928 890.27 366.067 889.784 365.207 C 889.298 364.347 889.036 361.88 888.55 362.74 C 888.064 363.6 887.354 367.638 886.868 370.367 C 886.382 373.097 885.933 375.732 885.634 379.115 C 885.335 382.499 885.091 387.171 885.072 390.667 C 885.053 394.162 885.241 396.928 885.521 400.087 C 885.801 403.245 886.194 406.311 886.755 409.619 C 887.315 412.928 888.157 416.815 888.886 419.937 C 889.615 423.059 890.083 424.966 891.13 428.349 C 892.177 431.732 893.896 436.853 895.167 440.236 C 896.438 443.619 897.465 445.676 898.755 448.648 C 900.044 451.62 901.615 455.19 902.904 458.068 C 904.194 460.947 905.259 463.115 906.492 465.919 C 907.726 468.722 909.165 471.881 910.306 474.89 C 911.446 477.899 912.643 481.282 913.335 483.974 C 914.026 486.665 914.25 488.908 914.455 491.039 C 914.661 493.171 914.811 494.817 914.568 496.761 C 914.326 498.705 913.765 500.984 912.999 502.703 C 912.232 504.423 911.073 505.863 909.97 507.079 C 908.867 508.294 907.746 509.266 906.382 509.995 C 905.018 510.724 903.447 511.265 901.784 511.451 C 900.12 511.638 897.914 511.527 896.4 511.115 C 894.886 510.704 893.821 510.031 892.7 508.984 C 891.578 507.937 890.418 506.592 889.671 504.835 C 888.923 503.077 888.438 500.216 888.214 498.441 C 887.99 496.665 888.212 495.471 888.324 494.181 C 888.436 492.891 888.699 490.105 888.886 490.703 C 889.073 491.301 889.092 495.844 889.448 497.769 C 889.803 499.694 890.214 500.871 891.017 502.255 C 891.821 503.638 892.905 505.171 894.269 506.068 C 895.634 506.965 897.484 507.582 899.204 507.638 C 900.923 507.694 903.092 507.171 904.587 506.404 C 906.082 505.638 907.259 504.179 908.175 503.039 C 909.091 501.899 909.615 500.742 910.083 499.564 C 910.55 498.387 910.85 497.544 910.98 495.974 C 911.111 494.403 911.186 492.142 910.868 490.142 C 910.55 488.142 909.913 486.347 909.072 483.974 C 908.231 481.6 906.923 478.386 905.82 475.9 C 904.717 473.414 904.007 472.272 902.455 469.058 C 900.904 465.843 898.42 460.817 896.513 456.612 C 894.607 452.406 892.532 447.563 891.017 443.824 C 889.503 440.086 888.604 437.713 887.427 434.181 C 886.249 430.649 884.83 425.826 883.952 422.63 C 883.073 419.433 882.773 417.993 882.156 415.003 C 881.539 412.012 880.755 408.405 880.251 404.685 C 879.746 400.965 879.317 396.236 879.13 392.685 C 878.943 389.134 878.981 386.612 879.13 383.378 C 879.279 380.144 879.521 376.741 880.025 373.283 C 880.529 369.825 881.277 366.163 882.156 362.63 C 883.035 359.097 884.139 355.414 885.298 352.087 C 886.457 348.759 887.707 345.844 889.109 342.667 C 890.511 339.489 891.95 336.685 893.707 333.021 C 895.465 329.357 897.876 324.255 899.652 320.685 C 901.428 317.115 902.812 314.76 904.364 311.601 C 905.915 308.442 907.595 304.91 908.959 301.732 C 910.324 298.555 911.447 295.451 912.55 292.535 C 913.653 289.619 914.567 287.545 915.576 284.236 C 916.585 280.928 917.857 276.311 918.605 272.685 C 919.353 269.059 919.634 266.013 920.064 262.48 C 920.494 258.947 921.036 255.021 921.185 251.488 C 921.334 247.955 921.371 244.928 920.959 241.283 C 920.548 237.639 919.596 233.489 918.718 229.619 C 917.84 225.75 916.792 221.713 915.689 218.068 C 914.586 214.423 913.297 211.059 912.101 207.751 C 910.905 204.442 910.27 202.535 908.513 198.218 C 906.756 193.9 903.577 186.63 901.558 181.845 C 899.539 177.06 898.419 174.367 896.4 169.507 C 894.382 164.646 891.522 157.919 889.448 152.685 C 887.373 147.451 885.671 142.741 883.952 138.105 C 882.232 133.469 880.644 129.525 879.13 124.871 C 877.616 120.217 876.083 115.19 874.868 110.181 C 873.652 105.172 872.624 99.62 871.839 94.816 C 871.053 90.012 870.455 85.768 870.156 81.357 C 869.857 76.946 869.856 72.592 870.043 68.349 C 870.231 64.106 870.606 59.938 871.28 55.9 C 871.953 51.863 872.943 47.937 874.083 44.123 C 875.223 40.31 876.718 36.273 878.12 33.021 C 879.521 29.769 880.81 27.453 882.492 24.612 C 884.175 21.77 886.438 18.423 888.214 15.974 C 889.99 13.525 891.728 11.619 893.148 9.919 C 894.569 8.218 895.615 6.909 896.736 5.769 C 897.857 4.629 898.287 2.574 899.875 3.079 Z" fill-rule="nonzero" style="transform-box: fill-box; transform-origin: 50% 50%;" transform="matrix(-1, 0, 0, -1, -0.000024, 0.000027)"/>
    <path fill="#ac0000" d="M 191.061 652.999 C 189.995 653.149 189.059 655.672 188.255 656.7 C 187.451 657.728 186.274 658.494 186.236 659.167 C 186.199 659.84 186.424 659.522 188.032 660.737 C 189.639 661.952 192.686 664.477 195.882 666.459 C 199.078 668.44 203.955 671.075 207.207 672.626 C 210.46 674.178 212.63 674.831 215.396 675.766 C 218.163 676.7 220.872 677.56 223.806 678.233 C 226.74 678.906 229.451 679.316 233.003 679.802 C 236.554 680.288 241.265 680.999 245.116 681.149 C 248.966 681.298 252.442 680.999 256.105 680.7 C 259.769 680.401 263.658 679.821 267.097 679.354 C 270.536 678.886 272.946 678.607 276.74 677.897 C 280.535 677.187 285.695 676.084 289.864 675.094 C 294.032 674.103 297.77 673.092 301.751 671.952 C 305.732 670.812 309.956 669.447 313.751 668.251 C 317.545 667.055 320.947 665.935 324.517 664.776 C 328.087 663.617 331.526 662.514 335.171 661.298 C 338.816 660.083 343.04 658.625 346.386 657.485 C 349.732 656.345 351.882 655.617 355.247 654.459 C 358.611 653.3 363.395 651.56 366.572 650.532 C 369.75 649.504 371.247 649.148 374.312 648.288 C 377.378 647.428 382.088 646.157 384.966 645.372 C 387.844 644.587 389.097 644.196 391.583 643.579 C 394.069 642.962 397.172 642.251 399.882 641.671 C 402.592 641.091 404.986 640.55 407.845 640.102 C 410.705 639.653 414.199 639.261 417.04 638.981 C 419.88 638.7 422.291 638.55 424.89 638.419 C 427.488 638.288 430.48 638.214 432.63 638.196 C 434.78 638.178 436.218 637.954 437.788 638.309 C 439.357 638.664 443.47 639 443.62 638.645 C 443.769 638.29 445.322 638.344 447.097 638.419 C 448.873 638.494 451.32 638.869 454.273 639.094 C 457.226 639.318 461.657 639.485 464.816 639.766 C 467.976 640.046 470.537 640.384 473.228 640.776 C 475.92 641.168 478.181 641.616 480.966 642.12 C 483.751 642.624 487.246 643.242 489.937 643.802 C 492.629 644.363 494.611 644.886 497.116 645.485 C 499.62 646.083 502.237 646.664 504.966 647.393 C 507.695 648.122 510.367 648.851 513.488 649.86 C 516.61 650.869 520.892 652.476 523.696 653.448 C 526.5 654.42 528.051 654.889 530.312 655.692 C 532.574 656.496 534.704 657.354 537.265 658.27 C 539.826 659.185 543.154 660.363 545.677 661.186 C 548.2 662.008 550.236 662.605 552.404 663.204 C 554.572 663.802 556.816 664.383 558.685 664.776 C 560.554 665.169 561.844 665.43 563.62 665.561 C 565.395 665.692 567.526 665.598 569.339 665.561 C 571.152 665.523 572.854 665.634 574.499 665.335 C 576.144 665.036 577.749 664.457 579.207 663.766 C 580.665 663.074 582.144 662.008 583.247 661.186 C 584.35 660.363 585.021 659.896 585.824 658.831 C 586.628 657.766 587.564 656.402 588.068 654.794 C 588.573 653.187 589.059 650.943 588.853 649.186 C 588.648 647.428 587.825 645.634 586.835 644.251 C 585.844 642.868 584.313 641.765 582.911 640.886 C 581.509 640.008 579.956 639.467 578.423 638.981 C 576.89 638.495 575.415 638.195 573.714 637.97 C 572.013 637.746 569.9 637.672 568.218 637.634 C 566.536 637.597 564.928 637.654 563.62 637.747 C 562.311 637.841 560.068 638.102 560.368 638.196 C 560.667 638.29 563.471 638.122 565.415 638.309 C 567.359 638.496 570.069 638.887 572.032 639.317 C 573.994 639.746 575.6 640.195 577.189 640.886 C 578.778 641.578 580.387 642.532 581.564 643.466 C 582.742 644.401 583.638 645.486 584.255 646.495 C 584.872 647.504 585.116 648.587 585.265 649.522 C 585.415 650.456 585.321 651.167 585.152 652.102 C 584.984 653.036 585.021 654.065 584.255 655.13 C 583.488 656.196 581.918 657.542 580.554 658.495 C 579.19 659.448 577.844 660.289 576.068 660.85 C 574.293 661.41 572.068 661.748 569.9 661.86 C 567.732 661.972 565.509 661.933 563.06 661.522 C 560.612 661.11 557.619 660.103 555.207 659.393 C 552.796 658.683 551.245 658.215 548.591 657.262 C 545.937 656.308 543.47 655.279 539.284 653.671 C 535.097 652.063 527.283 649.036 523.47 647.616 C 519.657 646.196 518.928 646.008 516.404 645.149 C 513.881 644.289 511.34 643.356 508.331 642.459 C 505.322 641.561 502.368 640.775 498.349 639.766 C 494.33 638.756 488.293 637.242 484.218 636.401 C 480.143 635.56 478.742 635.372 473.9 634.718 C 469.059 634.064 460.685 632.981 455.171 632.477 C 449.657 631.973 444.686 631.861 440.816 631.692 C 436.947 631.524 434.928 631.485 431.956 631.466 C 428.984 631.448 426.592 631.355 422.984 631.579 C 419.377 631.804 415.004 632.177 410.312 632.813 C 405.621 633.448 400.424 634.234 394.835 635.393 C 389.246 636.552 382.107 638.345 376.78 639.766 C 371.452 641.186 366.162 642.924 362.872 643.915 C 359.581 644.906 360.292 644.664 357.04 645.71 C 353.787 646.757 348.478 648.532 343.357 650.196 C 338.236 651.86 331.434 654.047 326.312 655.692 C 321.191 657.337 316.929 658.775 312.63 660.065 C 308.331 661.354 302.723 662.832 300.517 663.43 C 298.312 664.028 300.985 663.223 299.396 663.653 C 297.808 664.083 294.012 665.262 290.984 666.01 C 287.956 666.757 284.668 667.447 281.228 668.138 C 277.789 668.83 273.77 669.636 270.349 670.159 C 266.928 670.683 263.769 670.981 260.704 671.28 C 257.638 671.579 255.712 671.933 251.956 671.952 C 248.199 671.971 242.48 671.766 238.163 671.393 C 233.845 671.019 229.658 670.421 226.05 669.71 C 222.442 669 219.452 668.102 216.517 667.13 C 213.583 666.158 210.986 665.056 208.444 663.878 C 205.902 662.701 203.564 661.411 201.265 660.065 C 198.966 658.719 196.349 656.98 194.648 655.802 C 192.948 654.625 192.126 652.85 191.06 652.999 L 191.061 652.999 Z" fill-rule="nonzero" style="transform-box: fill-box; transform-origin: 50% 50%;" transform="matrix(-1, 0, 0, -1, 0.000027, 0.000048)"/>
    <path fill="#ac0000" d="M 540.21 687.576 C 542.346 687.742 544.472 687.345 545.952 687.215 C 547.432 687.086 553.092 685.496 556.052 684.664 C 559.011 683.832 561.1 683.148 563.708 682.223 C 566.315 681.298 568.886 680.336 571.697 679.116 C 574.509 677.895 577.747 676.304 580.577 674.898 C 583.406 673.492 585.791 672.234 588.676 670.68 C 591.562 669.126 594.819 667.387 597.889 665.575 C 600.959 663.763 604.14 661.637 607.099 659.806 C 610.058 657.975 612.944 656.181 615.645 654.591 C 618.345 653 620.619 651.798 623.301 650.263 C 625.983 648.727 628.405 647.228 631.734 645.378 C 635.063 643.528 639.966 640.791 643.277 639.163 C 646.588 637.535 648.844 636.74 651.6 635.612 C 654.356 634.483 656.78 633.392 659.813 632.394 C 662.846 631.395 666.785 630.322 669.8 629.62 C 672.814 628.917 674.903 628.53 677.899 628.179 C 680.896 627.827 684.78 627.531 687.776 627.512 C 690.773 627.493 692.771 627.677 695.878 628.066 C 698.986 628.454 703.629 629.269 706.422 629.843 C 709.214 630.416 710.489 630.749 712.634 631.507 C 714.78 632.265 717 633.355 719.293 634.391 C 721.587 635.427 724.398 636.668 726.395 637.722 C 728.393 638.776 730.221 639.652 731.701 640.577 C 733.181 641.501 729.27 639.903 729.899 639.572 C 730.528 639.241 736.745 642.71 735.45 643.58 C 734.155 644.449 734.827 645.444 733.773 645.24 C 732.719 645.037 732.779 645.179 732.003 644.217 C 731.226 643.255 730.631 642.993 729.947 642.16 C 729.263 641.328 727.322 640.459 725.731 639.719 C 724.141 638.98 722.142 638.332 720.403 637.722 C 718.665 637.112 717.425 636.613 715.298 636.058 C 713.172 635.503 710.269 634.872 707.642 634.391 C 705.016 633.91 702.296 633.43 699.54 633.171 C 696.784 632.912 694.084 632.745 691.107 632.837 C 688.129 632.93 685.059 633.154 681.674 633.727 C 678.289 634.301 674.422 635.243 670.797 636.278 C 667.172 637.314 663.419 638.553 659.923 639.94 C 656.427 641.327 653.097 643.029 649.823 644.601 C 646.549 646.173 643.646 647.56 640.28 649.373 C 636.914 651.186 633.381 653.221 629.626 655.478 C 625.872 657.735 621.581 660.509 617.752 662.913 C 613.924 665.318 610.687 667.462 606.655 669.903 C 602.623 672.344 597.778 675.194 593.561 677.562 C 589.344 679.929 585.034 682.258 581.354 684.108 C 577.673 685.957 574.418 687.382 571.477 688.659 C 568.536 689.935 566.408 690.879 563.708 691.766 C 561.007 692.654 558.141 693.337 555.275 693.984 C 552.408 694.632 549.486 695.281 546.508 695.651 C 543.53 696.021 540.588 696.224 537.406 696.205 C 534.224 696.186 530.711 695.945 527.419 695.538 C 524.127 695.131 520.501 694.43 517.653 693.764 C 514.805 693.098 512.882 692.524 510.33 691.543 C 507.778 690.563 504.819 689.14 502.34 687.882 C 499.862 686.624 497.845 685.477 495.458 683.997 C 493.072 682.518 490.242 680.575 488.023 679.003 C 485.803 677.431 484.305 676.247 482.141 674.564 C 479.977 672.882 475.908 670.182 475.039 668.906 C 474.169 667.63 475.89 667.574 476.926 666.908 C 477.962 666.242 479.903 664.93 481.254 664.911 C 482.604 664.892 483.326 665.76 485.028 666.795 C 486.73 667.831 489.633 669.865 491.464 671.123 C 493.295 672.382 494.369 673.271 496.015 674.344 C 497.661 675.417 499.399 676.489 501.34 677.562 C 503.282 678.634 505.705 679.892 507.666 680.78 C 509.626 681.667 510.996 682.166 513.104 682.887 C 515.213 683.609 517.931 684.479 520.317 685.108 C 522.703 685.737 524.959 686.292 527.419 686.661 C 529.879 687.031 533.08 687.307 535.078 687.326 C 537.076 687.344 538.074 687.41 540.21 687.576 Z" fill-rule="nonzero" style="transform-box: fill-box; transform-origin: 50% 50%;" transform="matrix(-1, 0, 0, -1, 0.000028, -0.000031)"/>
  </g>
</svg>