<?xml version="1.0" encoding="utf-8"?>
<svg viewBox="0 0 935.4 158.305" fill="none" stroke="none" stroke-linecap="square" stroke-miterlimit="10" xmlns="http://www.w3.org/2000/svg">
  <clipPath id="p.0">
    <path d="m0 0l960.0 0l0 720.0l-960.0 0l0 -720.0z" clip-rule="nonzero"/>
  </clipPath>
  <g clip-path="url(#p.0)" transform="matrix(1.1792110204696655, 0, 0, 0.9999999999999999, -179.43186950683594, -6.4128828048706055)" style="">
    <path fill="#000000" fill-opacity="0.0" d="M -16.225 -562.341 L 943.775 -562.341 L 943.775 157.659 L -16.225 157.659 L -16.225 -562.341 Z" fill-rule="nonzero" style="transform-box: fill-box; transform-origin: 50% 50%;" transform="matrix(-1, 0, 0, -1, 0.000002, -0.000001)"/>
    <path fill="#ac0000" d="M 781.733 92.931 C 782.931 92.493 785.723 89.514 786.796 88.618 C 787.869 87.722 788.119 87.899 788.171 87.555 C 788.223 87.211 787.754 87.097 787.108 86.555 C 786.462 86.014 785.534 85.275 784.294 84.306 C 783.055 83.337 781.336 81.929 779.67 80.742 C 778.003 79.554 776.055 78.305 774.294 77.18 C 772.534 76.055 770.941 75.001 769.108 73.991 C 767.275 72.98 765.013 71.929 763.294 71.117 C 761.576 70.305 760.348 69.742 758.796 69.117 C 757.244 68.492 755.493 67.877 753.982 67.366 C 752.472 66.856 751.035 66.418 749.733 66.054 C 748.431 65.689 747.182 65.419 746.171 65.18 C 745.161 64.941 744.857 64.826 743.67 64.618 C 742.482 64.41 740.441 64.129 739.045 63.931 C 737.649 63.732 736.794 63.565 735.294 63.429 C 733.794 63.294 731.524 63.169 730.045 63.117 C 728.566 63.065 727.847 63.117 726.42 63.117 C 724.993 63.117 723.077 63.044 721.483 63.117 C 719.89 63.19 718.692 63.284 716.859 63.555 C 715.025 63.826 712.702 64.304 710.483 64.742 C 708.265 65.179 705.64 65.669 703.546 66.18 C 701.453 66.69 699.735 67.231 697.922 67.805 C 696.109 68.378 694.18 69.097 692.67 69.618 C 691.159 70.139 690.109 70.452 688.859 70.931 C 687.609 71.41 686.621 71.871 685.662 72.308 C 684.704 72.746 682.917 73.753 682.74 73.555 C 682.563 73.357 680.315 74.748 679.252 75.373 C 678.19 75.998 676.753 76.529 675.169 77.185 C 673.586 77.841 674.264 77.607 670.733 79.555 C 667.202 81.503 659.463 85.888 653.922 89.18 C 648.38 92.472 642.109 96.431 637.483 99.306 C 632.858 102.181 629.369 104.45 626.171 106.429 C 622.973 108.408 620.628 109.794 618.294 111.18 C 615.961 112.565 614.265 113.596 612.171 114.742 C 610.077 115.887 608.014 116.939 605.733 118.054 C 603.451 119.169 600.692 120.533 598.483 121.429 C 596.275 122.325 594.192 122.908 592.483 123.429 C 590.775 123.95 589.297 124.295 588.234 124.555 C 587.172 124.815 586.979 124.686 586.687 125.186 C 586.395 125.686 587.247 126.422 587.392 127.36 C 587.538 128.298 591.121 128.747 593.265 129.072 C 595.409 129.397 597.092 129.388 599.548 129.787 C 602.004 130.186 603.284 129.795 605.357 128.931 C 607.43 128.066 609.973 126.982 612.234 125.868 C 614.495 124.753 615.339 124.232 618.922 122.243 C 622.505 120.253 627.806 117.483 633.733 113.931 C 639.66 110.378 648.838 104.41 654.483 100.931 C 660.129 97.451 663.846 95.21 667.607 93.054 C 671.367 90.897 673.962 89.585 677.045 87.991 C 680.129 86.397 683.212 84.805 686.108 83.492 C 689.004 82.18 691.858 81.106 694.42 80.117 C 696.983 79.127 698.827 78.389 701.483 77.555 C 704.14 76.722 707.889 75.752 710.357 75.117 C 712.826 74.481 714.253 74.106 716.294 73.742 C 718.336 73.377 720.336 73.118 722.607 72.931 C 724.878 72.743 727.203 72.566 729.922 72.618 C 732.641 72.67 736.016 72.857 738.922 73.243 C 741.828 73.628 744.993 74.347 747.357 74.931 C 749.722 75.514 751.014 75.992 753.108 76.742 C 755.202 77.491 757.693 78.44 759.922 79.429 C 762.151 80.419 764.609 81.668 766.483 82.679 C 768.358 83.689 769.473 84.43 771.171 85.492 C 772.869 86.555 775.264 88.095 776.67 89.054 C 778.076 90.012 778.763 90.597 779.607 91.243 C 780.451 91.889 780.535 93.368 781.733 92.931 Z" fill-rule="nonzero" style="transform-box: fill-box; transform-origin: 50% 50%;" transform="matrix(-1, 0, 0, -1, 0.000108, 0.000004)"/>
    <path fill="#ac0000" d="M 876.327 145.201 C 876.16 146.044 874.463 146.149 873.078 146.951 C 871.692 147.754 869.108 149.629 868.015 150.014 C 866.921 150.4 867.412 150.118 866.516 149.264 C 865.621 148.409 864.361 146.638 862.642 144.888 C 860.923 143.139 858.256 140.619 856.204 138.765 C 854.151 136.911 852.16 135.192 850.327 133.765 C 848.494 132.338 846.86 131.305 845.204 130.201 C 843.548 129.097 841.65 127.911 840.39 127.14 C 839.13 126.37 838.944 126.253 837.642 125.576 C 836.34 124.899 834.246 123.848 832.579 123.077 C 830.912 122.307 829.236 121.597 827.642 120.951 C 826.048 120.305 824.65 119.742 823.015 119.201 C 821.379 118.659 819.724 118.181 817.828 117.702 C 815.933 117.223 813.496 116.681 811.642 116.327 C 809.788 115.972 808.422 115.784 806.702 115.576 C 804.983 115.368 803.098 115.181 801.327 115.077 C 799.556 114.973 797.828 114.941 796.078 114.951 C 794.328 114.962 792.578 115.005 790.828 115.14 C 789.079 115.276 787.329 115.484 785.579 115.765 C 783.829 116.046 782.129 116.391 780.327 116.828 C 778.525 117.265 776.619 117.807 774.765 118.39 C 772.912 118.973 771.006 119.629 769.204 120.327 C 767.402 121.024 765.705 121.691 763.954 122.576 C 762.204 123.461 760.421 124.535 758.702 125.639 C 756.984 126.743 755.402 127.878 753.642 129.201 C 751.882 130.523 749.672 132.211 748.141 133.576 C 746.609 134.941 745.557 136.098 744.453 137.39 C 743.349 138.681 740.102 140.913 739.175 141.195 C 738.248 141.476 736.521 142.196 735.385 142.477 C 734.25 142.759 728.536 143.805 729.765 142.201 C 730.995 140.597 733.58 137.161 734.954 135.453 C 736.329 133.744 736.692 133.327 738.015 131.951 C 739.338 130.576 741.339 128.628 742.891 127.201 C 744.443 125.774 745.66 124.702 747.327 123.39 C 748.994 122.077 751.1 120.525 752.891 119.327 C 754.683 118.128 756.099 117.294 758.078 116.201 C 760.057 115.107 762.818 113.671 764.765 112.765 C 766.713 111.859 767.932 111.432 769.765 110.765 C 771.599 110.098 773.755 109.338 775.765 108.765 C 777.776 108.192 779.797 107.733 781.828 107.327 C 783.86 106.92 785.84 106.608 787.954 106.327 C 790.069 106.045 792.641 105.774 794.516 105.639 C 796.391 105.504 797.162 105.453 799.204 105.516 C 801.245 105.578 804.484 105.775 806.765 106.014 C 809.047 106.254 810.798 106.597 812.891 106.951 C 814.985 107.306 817.16 107.63 819.327 108.14 C 821.494 108.651 823.318 109.16 825.891 110.014 C 828.464 110.868 832.443 112.337 834.765 113.264 C 837.088 114.191 838.099 114.722 839.828 115.576 C 841.558 116.43 843.203 117.275 845.141 118.39 C 847.078 119.504 849.37 120.857 851.453 122.264 C 853.537 123.67 855.913 125.536 857.642 126.828 C 859.371 128.12 860.297 128.744 861.828 130.014 C 863.36 131.285 865.318 133.046 866.828 134.453 C 868.339 135.859 869.683 137.213 870.891 138.453 C 872.1 139.692 873.172 140.764 874.078 141.888 C 874.984 143.013 876.494 144.357 876.327 145.201 Z" fill-rule="nonzero" style="transform-box: fill-box; transform-origin: 50% 50%;" transform="matrix(-1, 0, 0, -1, 0.000095, 0.000014)"/>
    <path fill="#ac0000" d="M 174.836 88.57 C 173.77 88.72 172.834 91.243 172.03 92.271 C 171.226 93.299 170.049 94.065 170.011 94.738 C 169.974 95.411 170.199 95.093 171.807 96.308 C 173.414 97.523 176.461 100.048 179.657 102.03 C 182.853 104.011 187.73 106.646 190.982 108.197 C 194.235 109.749 196.405 110.402 199.171 111.337 C 201.938 112.271 204.647 113.131 207.581 113.804 C 210.515 114.477 213.226 114.887 216.778 115.373 C 220.329 115.859 225.04 116.57 228.891 116.72 C 232.741 116.869 236.217 116.57 239.88 116.271 C 243.544 115.972 247.433 115.392 250.872 114.925 C 254.311 114.457 256.721 114.178 260.515 113.468 C 264.31 112.758 269.47 111.655 273.639 110.665 C 277.807 109.674 281.545 108.663 285.526 107.523 C 289.507 106.383 293.731 105.018 297.526 103.822 C 301.32 102.626 304.722 101.506 308.292 100.347 C 311.862 99.188 315.301 98.085 318.946 96.869 C 322.591 95.654 326.815 94.196 330.161 93.056 C 333.507 91.916 335.657 91.188 339.022 90.03 C 342.386 88.871 347.17 87.131 350.347 86.103 C 353.525 85.075 355.022 84.719 358.087 83.859 C 361.153 82.999 365.863 81.728 368.741 80.943 C 371.619 80.158 372.872 79.767 375.358 79.15 C 377.844 78.533 380.947 77.822 383.657 77.242 C 386.367 76.662 388.761 76.121 391.62 75.673 C 394.48 75.224 397.974 74.832 400.815 74.552 C 403.655 74.271 406.066 74.121 408.665 73.99 C 411.263 73.859 414.255 73.785 416.405 73.767 C 418.555 73.749 419.993 73.525 421.563 73.88 C 423.132 74.235 427.245 74.571 427.395 74.216 C 427.544 73.861 429.097 73.915 430.872 73.99 C 432.648 74.065 435.095 74.44 438.048 74.665 C 441.001 74.889 445.432 75.056 448.591 75.337 C 451.751 75.617 454.312 75.955 457.003 76.347 C 459.695 76.739 461.956 77.187 464.741 77.691 C 467.526 78.195 471.021 78.813 473.712 79.373 C 476.404 79.934 478.386 80.457 480.891 81.056 C 483.395 81.654 486.012 82.235 488.741 82.964 C 491.47 83.693 494.142 84.422 497.263 85.431 C 500.385 86.44 504.667 88.047 507.471 89.019 C 510.275 89.991 511.826 90.46 514.087 91.263 C 516.349 92.067 518.479 92.925 521.04 93.841 C 523.601 94.756 526.929 95.934 529.452 96.757 C 531.975 97.579 534.011 98.176 536.179 98.775 C 538.347 99.373 540.591 99.954 542.46 100.347 C 544.329 100.74 545.619 101.001 547.395 101.132 C 549.17 101.263 551.301 101.169 553.114 101.132 C 554.927 101.094 556.629 101.205 558.274 100.906 C 559.919 100.607 561.524 100.028 562.982 99.337 C 564.44 98.645 565.919 97.579 567.022 96.757 C 568.125 95.934 568.796 95.467 569.599 94.402 C 570.403 93.337 571.339 91.973 571.843 90.365 C 572.348 88.758 572.834 86.514 572.628 84.757 C 572.423 82.999 571.6 81.205 570.61 79.822 C 569.619 78.439 568.088 77.336 566.686 76.457 C 565.284 75.579 563.731 75.038 562.198 74.552 C 560.665 74.066 559.19 73.766 557.489 73.541 C 555.788 73.317 553.675 73.243 551.993 73.205 C 550.311 73.168 548.703 73.225 547.395 73.318 C 546.086 73.412 543.843 73.673 544.143 73.767 C 544.442 73.861 547.246 73.693 549.19 73.88 C 551.134 74.067 553.844 74.458 555.807 74.888 C 557.769 75.317 559.375 75.766 560.964 76.457 C 562.553 77.149 564.162 78.103 565.339 79.037 C 566.517 79.972 567.413 81.057 568.03 82.066 C 568.647 83.075 568.891 84.158 569.04 85.093 C 569.19 86.027 569.096 86.738 568.927 87.673 C 568.759 88.607 568.796 89.636 568.03 90.701 C 567.263 91.767 565.693 93.113 564.329 94.066 C 562.965 95.019 561.619 95.86 559.843 96.421 C 558.068 96.981 555.843 97.319 553.675 97.431 C 551.507 97.543 549.284 97.504 546.835 97.093 C 544.387 96.681 541.394 95.674 538.982 94.964 C 536.571 94.254 535.02 93.786 532.366 92.833 C 529.712 91.879 527.245 90.85 523.059 89.242 C 518.872 87.634 511.058 84.607 507.245 83.187 C 503.432 81.767 502.703 81.579 500.179 80.72 C 497.656 79.86 495.115 78.927 492.106 78.03 C 489.097 77.132 486.143 76.346 482.124 75.337 C 478.105 74.327 472.068 72.813 467.993 71.972 C 463.918 71.131 462.517 70.943 457.675 70.289 C 452.834 69.635 444.46 68.552 438.946 68.048 C 433.432 67.544 428.461 67.432 424.591 67.263 C 420.722 67.095 418.703 67.056 415.731 67.037 C 412.759 67.019 410.367 66.926 406.759 67.15 C 403.152 67.375 398.779 67.748 394.087 68.384 C 389.396 69.019 384.199 69.805 378.61 70.964 C 373.021 72.123 365.882 73.916 360.555 75.337 C 355.227 76.757 349.937 78.495 346.647 79.486 C 343.356 80.477 344.067 80.235 340.815 81.281 C 337.562 82.328 332.253 84.103 327.132 85.767 C 322.011 87.431 315.209 89.618 310.087 91.263 C 304.966 92.908 300.704 94.346 296.405 95.636 C 292.106 96.925 286.498 98.403 284.292 99.001 C 282.087 99.599 284.76 98.794 283.171 99.224 C 281.583 99.654 277.787 100.833 274.759 101.581 C 271.731 102.328 268.443 103.018 265.003 103.709 C 261.564 104.401 257.545 105.207 254.124 105.73 C 250.703 106.254 247.544 106.552 244.479 106.851 C 241.413 107.15 239.487 107.504 235.731 107.523 C 231.974 107.542 226.255 107.337 221.938 106.964 C 217.62 106.59 213.433 105.992 209.825 105.281 C 206.217 104.571 203.227 103.673 200.292 102.701 C 197.358 101.729 194.761 100.627 192.219 99.449 C 189.677 98.272 187.339 96.982 185.04 95.636 C 182.741 94.29 180.124 92.551 178.423 91.373 C 176.723 90.196 175.901 88.421 174.835 88.57 L 174.836 88.57 Z" fill-rule="nonzero" style="transform-box: fill-box; transform-origin: 50% 50%;" transform="matrix(-1, 0, 0, -1, 0.000009, -0.000007)"/>
    <path fill="#ac0000" d="M 523.985 123.147 C 526.121 123.313 528.247 122.916 529.727 122.786 C 531.207 122.657 536.867 121.067 539.827 120.235 C 542.786 119.403 544.875 118.719 547.483 117.794 C 550.09 116.869 552.661 115.907 555.472 114.687 C 558.284 113.466 561.522 111.875 564.352 110.469 C 567.181 109.063 569.566 107.805 572.451 106.251 C 575.337 104.697 578.594 102.958 581.664 101.146 C 584.734 99.334 587.915 97.208 590.874 95.377 C 593.833 93.546 596.719 91.752 599.42 90.162 C 602.12 88.571 604.394 87.369 607.076 85.834 C 609.758 84.298 612.18 82.799 615.509 80.949 C 618.838 79.099 623.741 76.362 627.052 74.734 C 630.363 73.106 632.619 72.311 635.375 71.183 C 638.131 70.054 640.555 68.963 643.588 67.965 C 646.621 66.966 650.56 65.893 653.575 65.191 C 656.589 64.488 658.678 64.101 661.674 63.75 C 664.671 63.398 668.555 63.102 671.551 63.083 C 674.548 63.064 676.546 63.248 679.653 63.637 C 682.761 64.025 687.404 64.84 690.197 65.414 C 692.989 65.987 694.264 66.32 696.409 67.078 C 698.555 67.836 700.775 68.926 703.068 69.962 C 705.362 70.998 708.173 72.239 710.17 73.293 C 712.168 74.347 713.996 75.223 715.476 76.148 C 716.956 77.072 713.045 75.474 713.674 75.143 C 714.303 74.812 720.52 78.281 719.225 79.151 C 717.93 80.02 718.602 81.015 717.548 80.811 C 716.494 80.608 716.554 80.75 715.778 79.788 C 715.001 78.826 714.406 78.564 713.722 77.731 C 713.038 76.899 711.097 76.03 709.506 75.29 C 707.916 74.551 705.917 73.903 704.178 73.293 C 702.44 72.683 701.2 72.184 699.073 71.629 C 696.947 71.074 694.044 70.443 691.417 69.962 C 688.791 69.481 686.071 69.001 683.315 68.742 C 680.559 68.483 677.859 68.316 674.882 68.408 C 671.904 68.501 668.834 68.725 665.449 69.298 C 662.064 69.872 658.197 70.814 654.572 71.849 C 650.947 72.885 647.194 74.124 643.698 75.511 C 640.202 76.898 636.872 78.6 633.598 80.172 C 630.324 81.744 627.421 83.131 624.055 84.944 C 620.689 86.757 617.156 88.792 613.401 91.049 C 609.647 93.306 605.356 96.08 601.527 98.484 C 597.699 100.889 594.462 103.033 590.43 105.474 C 586.398 107.915 581.553 110.765 577.336 113.133 C 573.119 115.5 568.809 117.829 565.129 119.679 C 561.448 121.528 558.193 122.953 555.252 124.23 C 552.311 125.506 550.183 126.45 547.483 127.337 C 544.782 128.225 541.916 128.908 539.05 129.555 C 536.183 130.203 533.261 130.852 530.283 131.222 C 527.305 131.592 524.363 131.795 521.181 131.776 C 517.999 131.757 514.486 131.516 511.194 131.109 C 507.902 130.702 504.276 130.001 501.428 129.335 C 498.58 128.669 496.657 128.095 494.105 127.114 C 491.553 126.134 488.594 124.711 486.115 123.453 C 483.637 122.195 481.62 121.048 479.233 119.568 C 476.847 118.089 474.017 116.146 471.798 114.574 C 469.578 113.002 468.08 111.818 465.916 110.135 C 463.752 108.453 459.683 105.753 458.814 104.477 C 457.944 103.201 459.665 103.145 460.701 102.479 C 461.737 101.813 463.678 100.501 465.029 100.482 C 466.379 100.463 467.101 101.331 468.803 102.366 C 470.505 103.402 473.408 105.436 475.239 106.694 C 477.07 107.953 478.144 108.842 479.79 109.915 C 481.436 110.988 483.174 112.06 485.115 113.133 C 487.057 114.205 489.48 115.463 491.441 116.351 C 493.401 117.238 494.771 117.737 496.879 118.458 C 498.988 119.18 501.706 120.05 504.092 120.679 C 506.478 121.308 508.734 121.863 511.194 122.232 C 513.654 122.602 516.855 122.878 518.853 122.897 C 520.851 122.915 521.849 122.981 523.985 123.147 Z" fill-rule="nonzero" style="transform-box: fill-box; transform-origin: 50% 50%;" transform="matrix(-1, 0, 0, -1, 0.000021, 0.000013)"/>
  </g>
</svg>