<?xml version="1.0" encoding="UTF-8" standalone="no"?>
<svg
   viewBox="0 0 200 200"
   version="1.1"
   id="svg12"
   sodipodi:docname="logoFichasDeNimb.svg"
   inkscape:version="1.4.2 (f4327f4, 2025-05-13)"
   xmlns:inkscape="http://www.inkscape.org/namespaces/inkscape"
   xmlns:sodipodi="http://sodipodi.sourceforge.net/DTD/sodipodi-0.dtd"
   xmlns:xlink="http://www.w3.org/1999/xlink"
   xmlns="http://www.w3.org/2000/svg"
   xmlns:svg="http://www.w3.org/2000/svg">
  <sodipodi:namedview
     id="namedview12"
     pagecolor="#505050"
     bordercolor="#eeeeee"
     borderopacity="1"
     inkscape:showpageshadow="0"
     inkscape:pageopacity="0"
     inkscape:pagecheckerboard="0"
     inkscape:deskcolor="#505050"
     showgrid="false"
     inkscape:zoom="4"
     inkscape:cx="52.125"
     inkscape:cy="97.375"
     inkscape:window-width="2560"
     inkscape:window-height="1369"
     inkscape:window-x="1358"
     inkscape:window-y="-8"
     inkscape:window-maximized="1"
     inkscape:current-layer="svg12">
    <inkscape:grid
       id="grid57"
       units="px"
       originx="0"
       originy="0"
       spacingx="1"
       spacingy="1"
       empcolor="#0099e5"
       empopacity="0.30196078"
       color="#0099e5"
       opacity="0.14901961"
       empspacing="5"
       enabled="true"
       visible="false" />
  </sodipodi:namedview>
  <defs
     id="defs5">
    <linearGradient
       id="linearGradient32"
       inkscape:collect="always">
      <stop
         style="stop-color:#282828;stop-opacity:1;"
         offset="0"
         id="stop33" />
      <stop
         style="stop-color:#b42b2e;stop-opacity:1;"
         offset="1"
         id="stop34" />
    </linearGradient>
    <linearGradient
       id="swatch20"
       inkscape:swatch="solid">
      <stop
         style="stop-color:#922325;stop-opacity:1;"
         offset="0"
         id="stop20" />
    </linearGradient>
    <linearGradient
       id="swatch19"
       inkscape:swatch="solid">
      <stop
         style="stop-color:#922325;stop-opacity:1;"
         offset="0"
         id="stop19" />
    </linearGradient>
    <linearGradient
       id="tormentaAvatar"
       x1="-52.454476"
       y1="-52.454476"
       x2="52.454476"
       y2="52.454476"
       gradientTransform="scale(0.93414336,1.0704995)"
       gradientUnits="userSpaceOnUse">
      <stop
         offset="0%"
         stop-color="#da5b5d"
         id="stop1" />
      <stop
         offset="50%"
         stop-color="#d13235"
         id="stop2" />
      <stop
         offset="100%"
         stop-color="#922325"
         id="stop3" />
    </linearGradient>
    <linearGradient
       id="bgGradAvatar"
       x1="0%"
       y1="0%"
       x2="100%"
       y2="100%">
      <stop
         offset="0%"
         stop-color="#1a1a1a"
         id="stop4" />
      <stop
         offset="100%"
         stop-color="#2d2d2d"
         id="stop5" />
    </linearGradient>
    <radialGradient
       inkscape:collect="always"
       xlink:href="#linearGradient32"
       id="radialGradient34"
       cx="98.453316"
       cy="103.25425"
       fx="98.453316"
       fy="103.25425"
       r="44.60421"
       gradientTransform="matrix(1,0,0,1.05442,0,-5.619098)"
       gradientUnits="userSpaceOnUse"
       spreadMethod="reflect" />
  </defs>
  <!-- Fundo escuro -->
  <circle
     cx="100"
     cy="100"
     r="100"
     fill="url(#bgGradAvatar)"
     id="circle5" />
  <!-- Borda vermelha -->
  <circle
     cx="100"
     cy="100"
     r="95"
     fill="none"
     stroke="#d13235"
     stroke-width="4"
     id="circle6" />
  <!-- D20 central -->
  <g
     transform="matrix(1.2124351,0,0,1.2124351,100,100)"
     id="g12">
    <!-- Sombra manual (círculo escuro atrás) -->
    <polygon
       points="0,-55 48,-27.5 48,27.5 0,55 -48,27.5 -48,-27.5 "
       fill="#000000"
       opacity="0.3"
       transform="translate(3,3)"
       id="polygon6" />
    <!-- D20 principal -->
    <polygon
       points="0,-55 48,-27.5 48,27.5 0,55 -48,27.5 -48,-27.5 "
       fill="url(#tormentaAvatar)"
       stroke="#da5b5d"
       stroke-width="2"
       id="polygon7"
       style="fill:url(#tormentaAvatar)" />
    <!-- Linhas do d20 - parte superior (mais visível) -->
    <line
       x1="0"
       y1="-55"
       x2="0"
       y2="0"
       stroke="#922325"
       stroke-width="2"
       id="line7" />
    <line
       x1="-48"
       y1="-27.5"
       x2="0"
       y2="0"
       stroke="#922325"
       stroke-width="2"
       id="line8" />
    <line
       x1="48"
       y1="-27.5"
       x2="0"
       y2="0"
       stroke="#922325"
       stroke-width="2"
       id="line9" />
    <!-- Linhas do d20 - parte inferior (mais transparente) -->
    <line
       x1="0"
       y1="0"
       x2="-48"
       y2="27.5"
       stroke="#922325"
       stroke-width="2"
       opacity="0.4"
       id="line10" />
    <line
       x1="0"
       y1="0"
       x2="48"
       y2="27.5"
       stroke="#922325"
       stroke-width="2"
       opacity="0.4"
       id="line11" />
    <line
       x1="0"
       y1="0"
       x2="0"
       y2="55"
       stroke="#922325"
       stroke-width="2"
       opacity="0.4"
       id="line12" />
  </g>
  <text
     xml:space="preserve"
     style="font-size:161.841px;font-family:Tormenta20;-inkscape-font-specification:Tormenta20;text-align:start;writing-mode:lr-tb;direction:ltr;text-anchor:start;display:none;fill:url(#radialGradient34);stroke:#1b1b1b;stroke-width:0.843;stroke-dasharray:none;stroke-opacity:1"
     x="50.062889"
     y="149.86432"
     id="text12"><tspan
       sodipodi:role="line"
       id="tspan12"
       x="50.062889"
       y="149.86432"
       style="fill:url(#radialGradient34);fill-opacity:1;stroke:#1b1b1b;stroke-width:0.843;stroke-dasharray:none;stroke-opacity:1">N</tspan></text>
  <path
     d="m 131.21438,62.205801 c 2.74187,1.585901 3.98724,2.254511 3.98724,2.254511 0,0 -0.76562,2.325625 -0.98141,3.512459 -0.10789,1.186834 -0.16184,2.427615 -0.16184,3.722343 v 78.169206 h -5.98812 v 0 0 c -2.26577,-0.10789 -4.53155,-0.64736 -6.79732,-1.61841 -1.8342,-0.86315 -3.88419,-2.15788 -6.14996,-3.88419 -2.26577,-1.7263 -4.42365,-4.20786 -6.47364,-7.44468 L 79.841634,87.879215 79.679793,87.393692 v 47.419418 c 0,1.29473 0.05395,2.53551 0.161841,3.72234 0.215788,1.18683 0.593417,2.37367 1.132887,3.5605 0.647364,1.18683 1.510516,2.42761 2.589456,3.72234 1.186834,1.18683 2.751297,2.53551 4.693389,4.04603 H 54.270755 c 1.942092,-1.51052 3.452608,-2.8592 4.531548,-4.04603 1.186834,-1.29473 2.049986,-2.53551 2.589456,-3.72234 0.647364,-1.18683 1.024993,-2.37367 1.132887,-3.5605 0.215788,-1.18683 0.323682,-2.42761 0.323682,-3.72234 V 71.695114 c 0,-1.294728 -1.410619,-5.534805 -1.262856,-5.418915 0,0 0.960267,-0.494771 3.470631,-1.937134 l 3.033305,-1.757164 3.93847,-2.272194 8.532862,-4.938235 36.66617,63.095688 V 56.643901 l 0.009,-2.509364 8.93729,5.184279 z"
     id="text34"
     style="font-size:161.841px;font-family:Tormenta20;-inkscape-font-specification:Tormenta20;display:none;fill:url(#radialGradient34);stroke:#1b1b1b;stroke-width:0.843"
     aria-label="N"
     sodipodi:nodetypes="cccscccscscccsccccccccsscccccccccc" />
  <path
     d="m 137.84541,54.176987 c 3.32434,1.922802 4.83427,2.733449 4.83427,2.733449 0,0 -0.92826,2.819669 -1.18989,4.258628 -0.13081,1.438959 -0.19622,2.943326 -0.19622,4.5131 v 94.775096 h -7.26021 v 0 0 c -2.7471,-0.13081 -5.49421,-0.78489 -8.24131,-1.96222 -2.22385,-1.04651 -4.70933,-2.61629 -7.45643,-4.70933 -2.7471,-2.09303 -5.36339,-5.10176 -7.84887,-9.02619 L 75.55929,85.304336 75.363069,84.715671 v 57.492969 c 0,1.56978 0.06541,3.07414 0.196221,4.5131 0.261629,1.43895 0.71948,2.87792 1.373552,4.31687 0.784887,1.43896 1.831403,2.94332 3.139548,4.5131 1.438959,1.43895 3.335769,3.07414 5.69043,4.90555 L 66.852485,148.85 c -0.143105,-0.25195 -4.115334,-2.4381 -4.64378,-2.81184 0,0 -2.858271,-1.96561 -2.774279,-1.68475 0,0 -2.834497,-1.7025 -3.805637,-2.11296 -0.32608,-0.52065 -0.26873,-2.34591 -0.26873,-2.34591 l -0.40405,-74.212376 c -0.0085,-1.569751 -1.710284,-6.710592 -1.531131,-6.570083 0,0 1.164262,-0.599878 4.207915,-2.34865 l 3.677686,-2.130447 4.775139,-2.754888 10.345542,-5.987289 44.45535,76.499433 V 47.433544 l 0.0109,-3.042441 10.83589,6.285602 z"
     id="path34"
     style="font-size:161.841px;font-family:Tormenta20;-inkscape-font-specification:Tormenta20;display:inline;fill:#922325;fill-opacity:1;fill-rule:nonzero;stroke:#ffffff;stroke-width:1.02208;stroke-linecap:butt;stroke-linejoin:miter;stroke-opacity:0.803089;paint-order:normal"
     aria-label="N"
     sodipodi:nodetypes="cccscccscscccscccccccccscccccccccc" />
</svg>
