<?xml version="1.0" encoding="UTF-8" standalone="no"?>
<svg
   viewBox="0 0 200 200"
   version="1.1"
   id="svg12"
   sodipodi:docname="logoFichasDeNimbSmallv4.svg"
   inkscape:version="1.4.2 (f4327f4, 2025-05-13)"
   inkscape:export-filename="logoFichasDeNimbv4brancoborda.png"
   inkscape:export-xdpi="1000"
   inkscape:export-ydpi="1000"
   xmlns:inkscape="http://www.inkscape.org/namespaces/inkscape"
   xmlns:sodipodi="http://sodipodi.sourceforge.net/DTD/sodipodi-0.dtd"
   xmlns:xlink="http://www.w3.org/1999/xlink"
   xmlns="http://www.w3.org/2000/svg"
   xmlns:svg="http://www.w3.org/2000/svg">
  <sodipodi:namedview
     id="namedview12"
     pagecolor="#505050"
     bordercolor="#eeeeee"
     borderopacity="1"
     inkscape:showpageshadow="0"
     inkscape:pageopacity="0"
     inkscape:pagecheckerboard="0"
     inkscape:deskcolor="#505050"
     showgrid="false"
     inkscape:zoom="2.8284271"
     inkscape:cx="82.201164"
     inkscape:cy="113.66742"
     inkscape:window-width="2560"
     inkscape:window-height="1369"
     inkscape:window-x="1358"
     inkscape:window-y="-8"
     inkscape:window-maximized="1"
     inkscape:current-layer="svg12">
    <inkscape:grid
       id="grid57"
       units="px"
       originx="0"
       originy="0"
       spacingx="1"
       spacingy="1"
       empcolor="#0099e5"
       empopacity="0.30196078"
       color="#0099e5"
       opacity="0.14901961"
       empspacing="5"
       enabled="true"
       visible="false" />
  </sodipodi:namedview>
  <defs
     id="defs5">
    <linearGradient
       id="swatch20"
       inkscape:swatch="solid">
      <stop
         style="stop-color:#922325;stop-opacity:1;"
         offset="0"
         id="stop20" />
    </linearGradient>
    <linearGradient
       id="swatch19"
       inkscape:swatch="solid">
      <stop
         style="stop-color:#922325;stop-opacity:1;"
         offset="0"
         id="stop19" />
    </linearGradient>
    <linearGradient
       id="tormentaAvatar"
       x1="-52.454476"
       y1="-52.454476"
       x2="52.454476"
       y2="52.454476"
       gradientTransform="scale(0.93414336,1.0704995)"
       gradientUnits="userSpaceOnUse">
      <stop
         offset="0%"
         stop-color="#da5b5d"
         id="stop1" />
      <stop
         offset="50%"
         stop-color="#d13235"
         id="stop2" />
      <stop
         offset="100%"
         stop-color="#922325"
         id="stop3" />
    </linearGradient>
    <linearGradient
       id="bgGradAvatar"
       x1="0%"
       y1="0%"
       x2="100%"
       y2="100%">
      <stop
         offset="0%"
         stop-color="#1a1a1a"
         id="stop4" />
      <stop
         offset="100%"
         stop-color="#2d2d2d"
         id="stop5" />
    </linearGradient>
    <linearGradient
       inkscape:collect="always"
       xlink:href="#tormentaAvatar"
       id="linearGradient59"
       gradientUnits="userSpaceOnUse"
       gradientTransform="scale(0.93414336,1.0704995)"
       x1="-52.454476"
       y1="-52.454476"
       x2="52.454476"
       y2="52.454476" />
  </defs>
  <!-- Fundo escuro -->
  <circle
     cx="100"
     cy="100"
     r="100"
     fill="url(#bgGradAvatar)"
     id="circle5"
     style="display:none" />
  <!-- Borda vermelha -->
  <circle
     cx="100"
     cy="100"
     r="95"
     fill="none"
     stroke="#d13235"
     stroke-width="4"
     id="circle6"
     style="display:none" />
  <!-- D20 central -->
  <g
     transform="matrix(1.2124351,0,0,1.2124351,100,100)"
     id="g12"
     style="display:none">
    <!-- Sombra manual (círculo escuro atrás) -->
    <polygon
       points="48,-27.5 48,27.5 0,55 -48,27.5 -48,-27.5 0,-55 "
       fill="#000000"
       opacity="0.3"
       transform="translate(3,3)"
       id="polygon6" />
    <!-- D20 principal -->
    <polygon
       points="48,-27.5 48,27.5 0,55 -48,27.5 -48,-27.5 0,-55 "
       fill="url(#tormentaAvatar)"
       stroke="#da5b5d"
       stroke-width="2"
       id="polygon7"
       style="fill:url(#tormentaAvatar)" />
    <!-- Linhas do d20 - parte superior (mais visível) -->
    <line
       x1="0"
       y1="-55"
       x2="0"
       y2="0"
       stroke="#922325"
       stroke-width="2"
       id="line7" />
    <line
       x1="-48"
       y1="-27.5"
       x2="0"
       y2="0"
       stroke="#922325"
       stroke-width="2"
       id="line8" />
    <line
       x1="48"
       y1="-27.5"
       x2="0"
       y2="0"
       stroke="#922325"
       stroke-width="2"
       id="line9" />
    <!-- Linhas do d20 - parte inferior (mais transparente) -->
    <line
       x1="0"
       y1="0"
       x2="-48"
       y2="27.5"
       stroke="#922325"
       stroke-width="2"
       opacity="0.4"
       id="line10" />
    <line
       x1="0"
       y1="0"
       x2="48"
       y2="27.5"
       stroke="#922325"
       stroke-width="2"
       opacity="0.4"
       id="line11" />
    <line
       x1="0"
       y1="0"
       x2="0"
       y2="55"
       stroke="#922325"
       stroke-width="2"
       opacity="0.4"
       id="line12" />
  </g>
  <g
     transform="matrix(1.7520424,0,0,1.7520424,99.085985,98.381541)"
     id="g19"
     style="display:inline">
    <!-- Sombra manual (círculo escuro atrás) -->
    <polygon
       points="0,55 -48,27.5 -48,-27.5 0,-55 48,-27.5 48,27.5 "
       fill="#000000"
       opacity="0.3"
       transform="translate(3,3)"
       id="polygon13" />
    <!-- D20 principal -->
    <polygon
       points="0,55 -48,27.5 -48,-27.5 0,-55 48,-27.5 48,27.5 "
       fill="url(#tormentaAvatar)"
       stroke="#da5b5d"
       stroke-width="2"
       id="polygon14"
       style="fill:url(#linearGradient59)" />
    <path
       style="fill:#d2383b;fill-opacity:1;stroke:#922325;stroke-width:0.843;stroke-opacity:1"
       d="M 100,33.316069 99.875,47.375"
       id="path37"
       transform="matrix(0.82478642,0,0,0.82478642,-82.478642,-82.478642)" />
    <path
       style="fill:#d2383b;fill-opacity:1;stroke:#922325;stroke-width:0.843;stroke-opacity:1"
       d="M 41.803115,66.658035 99.875,47.375"
       id="path38"
       transform="matrix(0.82478642,0,0,0.82478642,-82.478642,-82.478642)" />
    <path
       style="fill:#d2383b;fill-opacity:1;stroke:#922325;stroke-width:0.843;stroke-opacity:1"
       d="M 158.19688,66.658035 99.875,47.375"
       id="path39"
       transform="matrix(0.82478642,0,0,0.82478642,-82.478642,-82.478642)" />
    <path
       style="fill:#d2383b;fill-opacity:1;stroke:#922325;stroke-width:0.843;stroke-opacity:1"
       d="M 41.803115,133.34197 60.25,123.125"
       id="path40"
       transform="matrix(0.82478642,0,0,0.82478642,-82.478642,-82.478642)" />
    <path
       style="fill:#d2383b;fill-opacity:1;stroke:#922325;stroke-width:0.843;stroke-opacity:1"
       d="M 41.803115,66.658035 60.25,123.125"
       id="path41"
       transform="matrix(0.82478642,0,0,0.82478642,-82.478642,-82.478642)" />
    <path
       style="fill:#d2383b;fill-opacity:1;stroke:#922325;stroke-width:0.843;stroke-opacity:1"
       d="M 99.875,47.375 60.25,123.125"
       id="path42"
       transform="matrix(0.82478642,0,0,0.82478642,-82.478642,-82.478642)" />
    <path
       style="fill:#d2383b;fill-opacity:1;stroke:#922325;stroke-width:0.843;stroke-opacity:1"
       d="M 100,166.68393 60.25,123.125"
       id="path43"
       transform="matrix(0.82478642,0,0,0.82478642,-82.478642,-82.478642)" />
    <path
       style="fill:#d2383b;fill-opacity:1;stroke:#922325;stroke-width:0.843;stroke-opacity:1"
       d="M 158.19688,133.34197 139.75,123.125"
       id="path44"
       transform="matrix(0.82478642,0,0,0.82478642,-82.478642,-82.478642)" />
    <path
       style="fill:#d2383b;fill-opacity:1;stroke:#922325;stroke-width:0.843;stroke-opacity:1"
       d="m 60.25,123.125 h 79.5"
       id="path45"
       transform="matrix(0.82478642,0,0,0.82478642,-82.478642,-82.478642)" />
    <path
       style="fill:#d2383b;fill-opacity:1;stroke:#922325;stroke-width:0.843;stroke-opacity:1"
       d="m 99.875,47.375 39.875,75.75"
       id="path46"
       transform="matrix(0.82478642,0,0,0.82478642,-82.478642,-82.478642)" />
    <path
       style="fill:#d2383b;fill-opacity:1;stroke:#922325;stroke-width:0.843;stroke-opacity:1"
       d="M 158.19688,66.658035 139.75,123.125"
       id="path47"
       transform="matrix(0.82478642,0,0,0.82478642,-82.478642,-82.478642)" />
    <path
       style="fill:#d2383b;fill-opacity:1;stroke:#922325;stroke-width:0.843;stroke-opacity:1"
       d="M 100,166.68393 139.75,123.125"
       id="path48"
       transform="matrix(0.82478642,0,0,0.82478642,-82.478642,-82.478642)" />
    <path
       style="fill:#d2383b;fill-opacity:1;stroke:#922325;stroke-width:2.643;stroke-linecap:round;stroke-dasharray:none;stroke-opacity:1"
       d="M 100,33.316069 41.803115,66.658035"
       id="path54"
       transform="matrix(0.82478642,0,0,0.82478642,-82.478642,-82.478642)" />
    <path
       style="fill:#d2383b;fill-opacity:1;stroke:#922325;stroke-width:2.643;stroke-linecap:round;stroke-dasharray:none;stroke-opacity:1"
       d="m 100,33.316069 58.19688,33.341966"
       id="path55"
       transform="matrix(0.82478642,0,0,0.82478642,-82.478642,-82.478642)" />
    <path
       style="fill:#d2383b;fill-opacity:1;stroke:#922325;stroke-width:2.643;stroke-linecap:round;stroke-dasharray:none;stroke-opacity:1"
       d="M 41.803115,66.658035 V 133.34197"
       id="path56"
       transform="matrix(0.82478642,0,0,0.82478642,-82.478642,-82.478642)" />
    <path
       style="fill:#d2383b;fill-opacity:1;stroke:#922325;stroke-width:2.643;stroke-dasharray:none;stroke-opacity:1"
       d="M 100,166.68393 41.803115,133.34197"
       id="path57"
       transform="matrix(0.82478642,0,0,0.82478642,-82.478642,-82.478642)" />
    <path
       style="fill:#d2383b;fill-opacity:1;stroke:#922325;stroke-width:2.643;stroke-linecap:round;stroke-dasharray:none;stroke-opacity:1"
       d="M 158.19688,66.658035 V 133.34197"
       id="path58"
       transform="matrix(0.82478642,0,0,0.82478642,-82.478642,-82.478642)" />
    <path
       style="fill:#d2383b;fill-opacity:1;stroke:#922325;stroke-width:2.643;stroke-linecap:round;stroke-dasharray:none;stroke-opacity:1"
       d="m 100,166.68393 58.19688,-33.34196"
       id="path59"
       transform="matrix(0.82478642,0,0,0.82478642,-82.478642,-82.478642)" />
    <!-- Linhas do d20 - parte superior (mais visível) -->
    <!-- Linhas do d20 - parte inferior (mais transparente) -->
  </g>
  <path
     d="m 153.77491,32.164508 c 4.80387,2.778568 6.98583,3.95 6.98583,3.95 0,0 -1.34142,4.074594 -1.7195,6.153976 -0.18901,2.079378 -0.28354,4.253289 -0.28354,6.5217 V 185.74597 h -10.49145 v 0 0 c -3.96973,-0.18902 -7.93946,-1.13421 -11.90918,-2.83553 -3.21359,-1.51226 -6.80529,-3.78068 -10.775,-6.80526 -3.96973,-3.02456 -7.75042,-7.37235 -11.3421,-13.04338 L 63.767665,77.145412 63.484114,76.294763 v 83.080847 c 0,2.26844 0.09452,4.44231 0.283551,6.52171 0.378069,2.07936 1.039693,4.15876 1.984866,6.23815 1.134209,2.07937 2.64649,4.25326 4.536837,6.52171 2.079385,2.07936 4.820392,4.44231 8.223023,7.08881 l -27.326589,-16.7732 c -0.206795,-0.36409 -5.946907,-3.52321 -6.710545,-4.06328 0,0 -4.130376,-2.84043 -4.009003,-2.43458 0,0 -4.09602,-2.46021 -5.499378,-3.05336 -0.471204,-0.75237 -0.38833,-3.38999 -0.38833,-3.38999 L 33.994669,48.790184 c -0.01233,-2.268381 -2.471465,-9.697208 -2.212577,-9.494163 0,0 1.682431,-0.866861 6.080694,-3.393943 l 5.314478,-3.078627 6.900369,-3.98098 14.949938,-8.651996 64.240679,110.546345 V 22.419822 l 0.0157,-4.396512 15.65851,9.083079 z"
     id="path34"
     style="font-size:161.841px;font-family:Tormenta20;-inkscape-font-specification:Tormenta20;display:inline;fill:#ffffff;fill-opacity:1;fill-rule:nonzero;stroke:#000000;stroke-width:1.47696;stroke-linecap:butt;stroke-linejoin:miter;stroke-opacity:1;paint-order:normal"
     aria-label="N"
     sodipodi:nodetypes="cccscccscscccscccccccccscccccccccc" />
</svg>
