<?xml version="1.0" encoding="UTF-8" standalone="no"?>
<svg
   viewBox="0 0 200 200"
   version="1.1"
   id="svg12"
   sodipodi:docname="logoFichasDeNimbv4.svg"
   inkscape:version="1.4.2 (f4327f4, 2025-05-13)"
   inkscape:export-filename="logoFichasDeNimbv4brancoborda.png"
   inkscape:export-xdpi="1000"
   inkscape:export-ydpi="1000"
   xmlns:inkscape="http://www.inkscape.org/namespaces/inkscape"
   xmlns:sodipodi="http://sodipodi.sourceforge.net/DTD/sodipodi-0.dtd"
   xmlns:xlink="http://www.w3.org/1999/xlink"
   xmlns="http://www.w3.org/2000/svg"
   xmlns:svg="http://www.w3.org/2000/svg">
  <sodipodi:namedview
     id="namedview12"
     pagecolor="#505050"
     bordercolor="#eeeeee"
     borderopacity="1"
     inkscape:showpageshadow="0"
     inkscape:pageopacity="0"
     inkscape:pagecheckerboard="0"
     inkscape:deskcolor="#505050"
     showgrid="false"
     inkscape:zoom="2.8284271"
     inkscape:cx="59.9273"
     inkscape:cy="93.161319"
     inkscape:window-width="2560"
     inkscape:window-height="1369"
     inkscape:window-x="1358"
     inkscape:window-y="-8"
     inkscape:window-maximized="1"
     inkscape:current-layer="svg12">
    <inkscape:grid
       id="grid57"
       units="px"
       originx="0"
       originy="0"
       spacingx="1"
       spacingy="1"
       empcolor="#0099e5"
       empopacity="0.30196078"
       color="#0099e5"
       opacity="0.14901961"
       empspacing="5"
       enabled="true"
       visible="false" />
  </sodipodi:namedview>
  <defs
     id="defs5">
    <linearGradient
       id="swatch20"
       inkscape:swatch="solid">
      <stop
         style="stop-color:#922325;stop-opacity:1;"
         offset="0"
         id="stop20" />
    </linearGradient>
    <linearGradient
       id="swatch19"
       inkscape:swatch="solid">
      <stop
         style="stop-color:#922325;stop-opacity:1;"
         offset="0"
         id="stop19" />
    </linearGradient>
    <linearGradient
       id="tormentaAvatar"
       x1="-52.454476"
       y1="-52.454476"
       x2="52.454476"
       y2="52.454476"
       gradientTransform="scale(0.93414336,1.0704995)"
       gradientUnits="userSpaceOnUse">
      <stop
         offset="0%"
         stop-color="#da5b5d"
         id="stop1" />
      <stop
         offset="50%"
         stop-color="#d13235"
         id="stop2" />
      <stop
         offset="100%"
         stop-color="#922325"
         id="stop3" />
    </linearGradient>
    <linearGradient
       id="bgGradAvatar"
       x1="0%"
       y1="0%"
       x2="100%"
       y2="100%">
      <stop
         offset="0%"
         stop-color="#1a1a1a"
         id="stop4" />
      <stop
         offset="100%"
         stop-color="#2d2d2d"
         id="stop5" />
    </linearGradient>
    <linearGradient
       inkscape:collect="always"
       xlink:href="#tormentaAvatar"
       id="linearGradient59"
       gradientUnits="userSpaceOnUse"
       gradientTransform="scale(0.93414336,1.0704995)"
       x1="-52.454476"
       y1="-52.454476"
       x2="52.454476"
       y2="52.454476" />
  </defs>
  <!-- Fundo escuro -->
  <circle
     cx="100"
     cy="100"
     r="100"
     fill="url(#bgGradAvatar)"
     id="circle5"
     style="display:inline" />
  <!-- Borda vermelha -->
  <circle
     cx="100"
     cy="100"
     r="95"
     fill="none"
     stroke="#d13235"
     stroke-width="4"
     id="circle6"
     style="display:inline" />
  <!-- D20 central -->
  <g
     transform="matrix(1.2124351,0,0,1.2124351,100,100)"
     id="g12"
     style="display:none">
    <!-- Sombra manual (círculo escuro atrás) -->
    <polygon
       points="48,-27.5 48,27.5 0,55 -48,27.5 -48,-27.5 0,-55 "
       fill="#000000"
       opacity="0.3"
       transform="translate(3,3)"
       id="polygon6" />
    <!-- D20 principal -->
    <polygon
       points="48,-27.5 48,27.5 0,55 -48,27.5 -48,-27.5 0,-55 "
       fill="url(#tormentaAvatar)"
       stroke="#da5b5d"
       stroke-width="2"
       id="polygon7"
       style="fill:url(#tormentaAvatar)" />
    <!-- Linhas do d20 - parte superior (mais visível) -->
    <line
       x1="0"
       y1="-55"
       x2="0"
       y2="0"
       stroke="#922325"
       stroke-width="2"
       id="line7" />
    <line
       x1="-48"
       y1="-27.5"
       x2="0"
       y2="0"
       stroke="#922325"
       stroke-width="2"
       id="line8" />
    <line
       x1="48"
       y1="-27.5"
       x2="0"
       y2="0"
       stroke="#922325"
       stroke-width="2"
       id="line9" />
    <!-- Linhas do d20 - parte inferior (mais transparente) -->
    <line
       x1="0"
       y1="0"
       x2="-48"
       y2="27.5"
       stroke="#922325"
       stroke-width="2"
       opacity="0.4"
       id="line10" />
    <line
       x1="0"
       y1="0"
       x2="48"
       y2="27.5"
       stroke="#922325"
       stroke-width="2"
       opacity="0.4"
       id="line11" />
    <line
       x1="0"
       y1="0"
       x2="0"
       y2="55"
       stroke="#922325"
       stroke-width="2"
       opacity="0.4"
       id="line12" />
  </g>
  <g
     transform="matrix(1.207076,0,0,1.207076,98.437319,98.498817)"
     id="g19"
     style="display:inline">
    <!-- Sombra manual (círculo escuro atrás) -->
    <polygon
       points="-48,-27.5 0,-55 48,-27.5 48,27.5 0,55 -48,27.5 "
       fill="#000000"
       opacity="0.3"
       transform="translate(3,3)"
       id="polygon13" />
    <!-- D20 principal -->
    <polygon
       points="-48,-27.5 0,-55 48,-27.5 48,27.5 0,55 -48,27.5 "
       fill="url(#tormentaAvatar)"
       stroke="#da5b5d"
       stroke-width="2"
       id="polygon14"
       style="fill:url(#linearGradient59)" />
    <path
       style="fill:#d2383b;fill-opacity:1;stroke:#922325;stroke-width:0.843;stroke-opacity:1"
       d="M 100,33.316069 99.875,47.375"
       id="path37"
       transform="matrix(0.82478642,0,0,0.82478642,-82.478642,-82.478642)" />
    <path
       style="fill:#d2383b;fill-opacity:1;stroke:#922325;stroke-width:0.843;stroke-opacity:1"
       d="M 41.803115,66.658035 99.875,47.375"
       id="path38"
       transform="matrix(0.82478642,0,0,0.82478642,-82.478642,-82.478642)" />
    <path
       style="fill:#d2383b;fill-opacity:1;stroke:#922325;stroke-width:0.843;stroke-opacity:1"
       d="M 158.19688,66.658035 99.875,47.375"
       id="path39"
       transform="matrix(0.82478642,0,0,0.82478642,-82.478642,-82.478642)" />
    <path
       style="fill:#d2383b;fill-opacity:1;stroke:#922325;stroke-width:0.843;stroke-opacity:1"
       d="M 41.803115,133.34197 60.25,123.125"
       id="path40"
       transform="matrix(0.82478642,0,0,0.82478642,-82.478642,-82.478642)" />
    <path
       style="fill:#d2383b;fill-opacity:1;stroke:#922325;stroke-width:0.843;stroke-opacity:1"
       d="M 41.803115,66.658035 60.25,123.125"
       id="path41"
       transform="matrix(0.82478642,0,0,0.82478642,-82.478642,-82.478642)" />
    <path
       style="fill:#d2383b;fill-opacity:1;stroke:#922325;stroke-width:0.843;stroke-opacity:1"
       d="M 99.875,47.375 60.25,123.125"
       id="path42"
       transform="matrix(0.82478642,0,0,0.82478642,-82.478642,-82.478642)" />
    <path
       style="fill:#d2383b;fill-opacity:1;stroke:#922325;stroke-width:0.843;stroke-opacity:1"
       d="M 100,166.68393 60.25,123.125"
       id="path43"
       transform="matrix(0.82478642,0,0,0.82478642,-82.478642,-82.478642)" />
    <path
       style="fill:#d2383b;fill-opacity:1;stroke:#922325;stroke-width:0.843;stroke-opacity:1"
       d="M 158.19688,133.34197 139.75,123.125"
       id="path44"
       transform="matrix(0.82478642,0,0,0.82478642,-82.478642,-82.478642)" />
    <path
       style="fill:#d2383b;fill-opacity:1;stroke:#922325;stroke-width:0.843;stroke-opacity:1"
       d="m 60.25,123.125 h 79.5"
       id="path45"
       transform="matrix(0.82478642,0,0,0.82478642,-82.478642,-82.478642)" />
    <path
       style="fill:#d2383b;fill-opacity:1;stroke:#922325;stroke-width:0.843;stroke-opacity:1"
       d="m 99.875,47.375 39.875,75.75"
       id="path46"
       transform="matrix(0.82478642,0,0,0.82478642,-82.478642,-82.478642)" />
    <path
       style="fill:#d2383b;fill-opacity:1;stroke:#922325;stroke-width:0.843;stroke-opacity:1"
       d="M 158.19688,66.658035 139.75,123.125"
       id="path47"
       transform="matrix(0.82478642,0,0,0.82478642,-82.478642,-82.478642)" />
    <path
       style="fill:#d2383b;fill-opacity:1;stroke:#922325;stroke-width:0.843;stroke-opacity:1"
       d="M 100,166.68393 139.75,123.125"
       id="path48"
       transform="matrix(0.82478642,0,0,0.82478642,-82.478642,-82.478642)" />
    <path
       style="fill:#d2383b;fill-opacity:1;stroke:#922325;stroke-width:2.643;stroke-linecap:round;stroke-dasharray:none;stroke-opacity:1"
       d="M 100,33.316069 41.803115,66.658035"
       id="path54"
       transform="matrix(0.82478642,0,0,0.82478642,-82.478642,-82.478642)" />
    <path
       style="fill:#d2383b;fill-opacity:1;stroke:#922325;stroke-width:2.643;stroke-linecap:round;stroke-dasharray:none;stroke-opacity:1"
       d="m 100,33.316069 58.19688,33.341966"
       id="path55"
       transform="matrix(0.82478642,0,0,0.82478642,-82.478642,-82.478642)" />
    <path
       style="fill:#d2383b;fill-opacity:1;stroke:#922325;stroke-width:2.643;stroke-linecap:round;stroke-dasharray:none;stroke-opacity:1"
       d="M 41.803115,66.658035 V 133.34197"
       id="path56"
       transform="matrix(0.82478642,0,0,0.82478642,-82.478642,-82.478642)" />
    <path
       style="fill:#d2383b;fill-opacity:1;stroke:#922325;stroke-width:2.643;stroke-dasharray:none;stroke-opacity:1"
       d="M 100,166.68393 41.803115,133.34197"
       id="path57"
       transform="matrix(0.82478642,0,0,0.82478642,-82.478642,-82.478642)" />
    <path
       style="fill:#d2383b;fill-opacity:1;stroke:#922325;stroke-width:2.643;stroke-linecap:round;stroke-dasharray:none;stroke-opacity:1"
       d="M 158.19688,66.658035 V 133.34197"
       id="path58"
       transform="matrix(0.82478642,0,0,0.82478642,-82.478642,-82.478642)" />
    <path
       style="fill:#d2383b;fill-opacity:1;stroke:#922325;stroke-width:2.643;stroke-linecap:round;stroke-dasharray:none;stroke-opacity:1"
       d="m 100,166.68393 58.19688,-33.34196"
       id="path59"
       transform="matrix(0.82478642,0,0,0.82478642,-82.478642,-82.478642)" />
    <!-- Linhas do d20 - parte superior (mais visível) -->
    <!-- Linhas do d20 - parte inferior (mais transparente) -->
  </g>
  <path
     d="m 136.11545,52.87835 c 3.30964,1.914304 4.81291,2.721367 4.81291,2.721367 0,0 -0.92417,2.807206 -1.18465,4.239804 -0.13022,1.432595 -0.19535,2.930319 -0.19535,4.493149 v 94.35619 h -7.22812 v 0 0 c -2.73496,-0.13023 -5.46992,-0.78142 -8.20487,-1.95355 -2.21402,-1.04188 -4.68853,-2.60472 -7.42348,-4.68851 -2.73496,-2.08378 -5.33968,-5.07921 -7.81418,-8.98629 L 74.104634,83.868108 73.90928,83.28205 v 57.23885 c 0,1.56285 0.06512,3.06055 0.195354,4.49315 0.260472,1.43259 0.7163,2.8652 1.36748,4.2978 0.781418,1.43259 1.823309,2.9303 3.125671,4.49316 1.4326,1.43258 3.321025,3.06054 5.665279,4.88386 L 65.436313,147.13291 c -0.142472,-0.25084 -4.097143,-2.42733 -4.623254,-2.79941 0,0 -2.845638,-1.95692 -2.762017,-1.67731 0,0 -2.821968,-1.69497 -3.788817,-2.10363 -0.324637,-0.51834 -0.267541,-2.33554 -0.267541,-2.33554 L 53.59242,64.33267 c -0.0085,-1.562809 -1.702725,-6.680927 -1.524363,-6.541039 0,0 1.159116,-0.597226 4.189316,-2.338269 L 59.918802,53.332331 64.672836,50.58962 74.972651,44.628796 119.2315,120.7901 V 46.164713 l 0.0108,-3.028993 10.78799,6.25782 z"
     id="path34"
     style="font-size:161.841px;font-family:Tormenta20;-inkscape-font-specification:Tormenta20;display:inline;fill:#ffffff;fill-opacity:1;fill-rule:nonzero;stroke:#000000;stroke-width:1.01756;stroke-linecap:butt;stroke-linejoin:miter;stroke-opacity:1;paint-order:normal"
     aria-label="N"
     sodipodi:nodetypes="cccscccscscccscccccccccscccccccccc" />
</svg>
