<?xml version="1.0" standalone="no"?>
<!DOCTYPE svg PUBLIC "-//W3C//DTD SVG 20010904//EN"
 "http://www.w3.org/TR/2001/REC-SVG-20010904/DTD/svg10.dtd">
<svg version="1.0" xmlns="http://www.w3.org/2000/svg"
 width="260.000000pt" height="260.000000pt" viewBox="0 0 260.000000 260.000000"
 preserveAspectRatio="xMidYMid meet">
<metadata>
Created by potrace 1.11, written by Peter Selinger 2001-2013
</metadata>
<g transform="translate(0.000000,260.000000) scale(0.100000,-0.100000)"
fill="#000000" stroke="none">
<path d="M1103 2589 c32 -19 67 -21 67 -4 0 11 -11 15 -42 15 -35 -1 -40 -3
-25 -11z"/>
<path d="M1225 2574 c-14 -15 -39 -45 -56 -68 -56 -72 -127 -122 -199 -141
-92 -23 -169 -50 -294 -104 -126 -53 -189 -107 -274 -234 -70 -102 -177 -318
-198 -397 -2 -8 -11 -40 -19 -70 -8 -30 -18 -75 -22 -100 -15 -104 -3 -361 23
-450 8 -30 16 -59 17 -65 16 -64 106 -207 223 -350 79 -99 100 -119 184 -182
56 -41 220 -124 275 -139 6 -1 29 -9 53 -18 23 -8 43 -15 45 -15 1 0 25 -3 54
-7 58 -7 69 -17 168 -146 32 -40 63 -76 70 -81 17 -9 45 2 45 18 0 7 4 15 9
17 4 2 35 34 67 73 32 38 70 80 84 92 26 22 34 25 190 69 188 53 312 133 456
295 34 38 188 269 221 330 23 43 50 117 59 159 23 119 23 260 -2 400 -1 8 -5
29 -7 45 -5 26 -15 69 -31 135 -31 122 -132 293 -226 384 -16 16 -30 33 -30
38 0 4 -5 8 -10 8 -9 0 -39 24 -84 65 -25 24 -143 111 -171 127 -31 18 -76 40
-130 63 -38 17 -186 56 -228 60 -18 2 -35 4 -39 4 -8 1 -89 99 -148 179 -29
39 -43 40 -75 6z"/>
<path d="M2524 2399 c-2 -4 3 -12 11 -19 8 -7 15 -18 15 -24 0 -7 7 -21 15
-32 13 -17 14 -15 15 32 0 47 -1 50 -26 50 -14 0 -27 -3 -30 -7z"/>
<path d="M2516 1312 c-3 -6 -1 -14 5 -17 15 -10 25 3 12 16 -7 7 -13 7 -17 1z"/>
<path d="M2543 159 c-18 -11 -30 -26 -27 -32 6 -16 54 -50 60 -44 3 3 4 25 2
51 l-3 45 -32 -20z"/>
</g>
</svg>
