<?xml version="1.0" standalone="no"?>
<!DOCTYPE svg PUBLIC "-//W3C//DTD SVG 20010904//EN"
 "http://www.w3.org/TR/2001/REC-SVG-20010904/DTD/svg10.dtd">
<svg version="1.0" xmlns="http://www.w3.org/2000/svg"
 width="512.000000pt" height="512.000000pt" viewBox="0 0 512.000000 512.000000"
 preserveAspectRatio="xMidYMid meet">

<g transform="translate(0.000000,512.000000) scale(0.100000,-0.100000)"
fill="#FAFAFA" stroke="none">
<path d="M2060 4515 c-580 -156 -1072 -289 -1093 -295 -20 -6 -43 -21 -51 -33
-25 -39 -598 -2197 -591 -2226 8 -32 1586 -1615 1628 -1632 26 -11 105 8 750
181 397 106 737 197 755 202 47 13 72 42 72 83 0 45 -29 75 -72 75 -17 0 -106
-20 -197 -45 -752 -202 -994 -266 -997 -263 -2 2 336 343 749 756 l753 753
138 -516 c76 -284 137 -518 135 -520 -2 -2 -33 -11 -69 -20 -182 -46 -210 -62
-210 -117 0 -36 40 -78 74 -78 28 0 322 77 349 92 10 5 25 24 32 42 20 48 138
485 340 1256 97 371 192 731 211 800 22 76 33 134 29 150 -7 28 -1572 1602
-1617 1626 -15 8 -35 14 -45 13 -10 0 -493 -128 -1073 -284z m50 -710 c-415
-415 -755 -753 -756 -752 -5 6 -276 1029 -273 1031 2 2 294 81 649 176 355 95
749 201 875 235 127 35 237 63 245 64 8 0 -325 -339 -740 -754z m1064 472 c41
-151 79 -284 86 -296 23 -43 90 -49 125 -11 25 28 21 61 -34 268 -29 107 -51
196 -49 198 2 2 296 -289 653 -646 l650 -650 -375 -375 c-206 -206 -377 -375
-380 -375 -3 0 -81 287 -175 637 -102 382 -177 646 -188 660 -27 34 -88 32
-116 -3 -12 -15 -21 -34 -21 -43 0 -9 77 -303 171 -654 94 -351 169 -640 167
-642 -2 -2 -127 30 -278 70 -151 41 -650 174 -1108 297 l-832 223 812 812
c447 447 814 811 815 809 2 -2 37 -127 77 -279z m-2069 -915 l119 -443 -329
-329 c-181 -181 -331 -328 -332 -326 -2 2 90 353 204 779 114 427 210 773 214
769 3 -4 59 -206 124 -450z m3248 -1285 c-114 -427 -211 -773 -214 -769 -3 4
-59 206 -124 450 l-118 444 328 328 c181 181 331 328 332 326 2 -2 -90 -353
-204 -779z m-2013 459 c481 -129 973 -260 1093 -292 l218 -58 -813 -813 c-648
-648 -814 -810 -820 -796 -4 10 -98 358 -208 773 -174 650 -205 758 -226 778
-30 26 -61 28 -92 6 -50 -35 -52 -22 143 -751 102 -378 184 -691 182 -696 -1
-4 -294 285 -652 643 l-650 650 375 375 c206 206 377 375 380 375 3 0 23 -69
45 -153 44 -167 61 -197 115 -197 36 0 80 38 80 69 0 11 -18 87 -40 168 -22
81 -40 152 -40 156 0 5 8 6 18 3 9 -3 411 -111 892 -240z"/>
</g>
</svg>
